<svg xmlns="http://www.w3.org/2000/svg" width="1507" height="147" viewBox="0 0 1507 147">
  <defs>
    <style>
      .cls-1 {
        fill: #7bd0f8;
        fill-opacity: 0;
        stroke: #fff;
        stroke-linejoin: round;
        stroke-width: 2px;
        fill-rule: evenodd;
      }
    </style>
  </defs>
  <path id="let_s_collaborate" data-name="let’s  collaborate" class="cls-1" d="M213.819,3773.62l20.607-116.81h-19.34L191.2,3792.19h90.9l3.275-18.57H213.819Zm165.347-98.63,3.207-18.18h-90.9l-23.883,135.38h90.9l3.207-18.18H290.138l7.131-40.42h65.757l3.207-18.18H300.476l7.131-40.42h71.559Zm98.934-18.18H362.059l-3.276,18.56h48.351l-20.607,116.82h19.34l20.607-116.82h48.351Zm-18.381,0-7.847,44.48H465.41l13.649-44.48h-19.34Zm34.764,137.31c32.878,0,58.566-16.24,62.535-39.84,3.286-19.72-8.057-33.26-40.333-38.87l-14.255-2.52c-19.693-3.48-27.725-9.47-25.951-19.53,2.183-12.38,16.085-19.92,36.392-19.92,16.44,0,30.172,6.58,33.2,20.11h20.307c-2.175-24.94-22.187-38.68-49.263-38.68-32.3,0-56.848,15.28-60.522,38.3-2.991,19.14,9.161,32.49,39.116,38.1l14.22,2.71c21.07,4.44,28.909,10.44,27.033,21.08-2.15,12.18-17.735,20.5-38.623,20.5-21.468,0-32.867-7.74-36.077-25.73h-19.34C442.775,3778.07,463.538,3794.12,494.483,3794.12Zm86.151-69.62c-6.926,39.26,17.888,69.62,57.149,69.62,29.977,0,58.361-18.37,72.205-46.41H688.52c-10.67,16.63-27.154,27.85-47.462,27.85-27.85,0-45.2-22.24-40.117-51.06s30.282-51.06,58.132-51.06c20.307,0,32.833,11.22,37.635,27.85h21.468c-3.949-28.04-25.85-46.42-55.828-46.42C623.087,3654.87,587.56,3685.24,580.634,3724.5Zm172.407,69.62c39.841,0,75.948-30.36,82.874-69.62s-18.468-69.63-58.309-69.63-75.949,30.37-82.875,69.63S713.2,3794.12,753.041,3794.12Zm3.275-18.56c-28.43,0-46.361-22.24-41.277-51.06s30.861-51.06,59.292-51.06,46.361,22.24,41.277,51.06S784.746,3775.56,756.316,3775.56Zm81.56-1.94,20.608-116.81H839.143l-23.882,135.38h90.9l3.275-18.57H837.876Zm76.388,0,20.608-116.81h-19.34l-23.883,135.38h90.9l3.275-18.57H914.264Zm159.176,18.57h22.24l-36.84-135.38h-21.66l-84.615,135.38h21.081l18.8-30.95h73.111Zm-70.12-48.74,40.79-66.72,17.04,66.72h-57.83Zm174.35-20.31c13.15-6.57,20.25-17.21,22.44-29.59,3.65-20.69-8.61-36.74-35.49-36.74h-60.54l-23.88,135.38h60.73c28.04,0,46.64-16.63,50.46-38.29C1193.71,3740.74,1189.44,3729.91,1177.67,3723.14Zm-64.69-7.15,7.31-41.39h40.22c15.48,0,22.21,6.77,19.89,19.92-2.42,13.73-11.72,21.47-27.19,21.47h-40.23Zm30.12,58.41h-40.42l7.34-41.59h40.42c16.05,0,23.14,6.97,20.78,20.31C1168.8,3766.85,1159.15,3774.4,1143.1,3774.4Zm92.44,19.72c39.84,0,75.95-30.36,82.88-69.62s-18.47-69.63-58.31-69.63-75.95,30.37-82.88,69.63S1195.7,3794.12,1235.54,3794.12Zm3.28-18.56c-28.43,0-46.36-22.24-41.28-51.06s30.86-51.06,59.29-51.06,46.36,22.24,41.28,51.06S1267.25,3775.56,1238.82,3775.56Zm147.52,16.63h24.37l-35.07-56.67c23.02-3.29,38-19.14,41.51-39.07,3.96-22.43-8.47-39.64-36.32-39.64h-59.19l-23.88,135.38h19.34l9.9-56.09h25.33Zm-48.46-117.78h38.68c15.47,0,22.78,7.93,20.29,22.04s-12.6,22.05-28.07,22.05H1330.1Zm162.75,117.78h22.24l-36.84-135.38h-21.66l-84.61,135.38h21.08l18.8-30.95h73.11Zm-70.12-48.74,40.79-66.72,17.04,66.72h-57.83Zm182.96-86.64H1497.43l-3.27,18.56h48.35l-20.61,116.82h19.34l20.61-116.82h48.35Zm73.18,18.18,3.21-18.18h-90.9l-23.88,135.38h90.9l3.2-18.18h-71.55l7.13-40.42h65.75l3.21-18.18h-65.76l7.13-40.42h71.56Z" transform="translate(-187 -3651)"/>
</svg>
