<?xml version="1.0" standalone="no"?>
<!DOCTYPE svg PUBLIC "-//W3C//DTD SVG 1.1//EN" "http://www.w3.org/Graphics/SVG/1.1/DTD/svg11.dtd" >
<svg>
<metadata>
Created by FontForge 20090914 at Tue Jun  8 20:47:08 2021
 By www-data
Copyright &#194;&#169; 2020 by Dominik Czank. All rights reserved.
</metadata>
<defs>
<font id="KioeaDisplay-Regular" horiz-adv-x="380" >
  <font-face 
    font-family="Kioea Display"
    font-weight="400"
    font-stretch="normal"
    units-per-em="1000"
    panose-1="0 0 0 0 0 0 0 0 0 0"
    ascent="700"
    descent="-300"
    x-height="434.002"
    cap-height="619.999"
    bbox="-772.999 -271.303 1246 833"
    underline-thickness="10"
    underline-position="-50"
    unicode-range="U+000D-U+2265"
  />
<missing-glyph horiz-adv-x="500" 
 />
    <glyph glyph-name=".notdef" horiz-adv-x="500" 
 />
    <glyph glyph-name=".null" horiz-adv-x="0" 
 />
    <glyph glyph-name=".null" horiz-adv-x="0" 
 />
    <glyph glyph-name="uni000D" unicode="&#xd;" horiz-adv-x="250" 
 />
    <glyph glyph-name="space" unicode=" " horiz-adv-x="198" 
 />
    <glyph glyph-name="exclam" unicode="!" horiz-adv-x="205" 
d="M103 110c23.333 0 40.666 -6 51.999 -18s17 -25.333 17 -40s-5.66699 -28 -17 -40s-28.666 -18 -51.999 -18s-40.833 6 -52.5 18s-17.5 25.333 -17.5 40s5.83301 28 17.5 40s29.167 18 52.5 18zM33 548l0.000976562 3c0 15.333 5.83301 28.833 17.5 40.5
s29.167 17.5 52.5 17.5s40.666 -5.83301 51.999 -17.5s17 -25.167 17 -40.5v-3v-2l-28 -365h-82l-28 364z" />
    <glyph glyph-name="numbersign" unicode="#" horiz-adv-x="676" 
d="M541 467h110v-69h-135l-42 -115h98v-70h-124l-64 -177l-41 14l59 163h-200l-65 -177l-40 14l59 163h-127v70h152l42 115h-116v69h141l70 192l41 -15l-65 -177h201l70 192l40 -15zM470 398h-201l-42 -115h201z" />
    <glyph glyph-name="dollar" unicode="$" horiz-adv-x="550" 
d="M463 193c23.333 -11.333 40.667 -24.3359 52 -39.0029s17 -29.667 17 -45c0 -14.667 -4 -28.667 -12 -42s-20.833 -25.333 -38.5 -36s-40.667 -19.667 -69 -27s-62.833 -12 -103.5 -14v-57h-69v56c-64 1.33301 -112.833 8.5 -146.5 21.5s-54.167 27.5 -61.5 43.5l106 -1
c1.33301 -3.33301 3.66602 -6.33301 6.99902 -9s7.83301 -5.5 13.5 -8.5s13.5 -5.83301 23.5 -8.5c6 -1.33301 14 -3 24 -5s21.333 -3.66699 34 -5v144l-44.5 13l-38.5 11l-28 8.5c-7.33301 2.33301 -11.333 3.5 -12 3.5l-20 9v0c-2 0 -4.33301 0.666992 -7 2l-6 3
c-6.66699 3.33301 -12.5 6.66602 -17.5 9.99902l-14.5 10c-23.333 18 -35 38 -35 60c0 20 10.167 38.833 30.5 56.5s51.166 31.5 92.499 41.5c5.33301 1.33301 10.666 2.5 15.999 3.5s10.666 2.16699 15.999 3.5c21.333 3.33301 44 5.33301 68 6v61h69v-61
c17.333 -0.666992 34 -2.66699 50 -6v0c4 -1.33301 8 -2 12 -2s8 -0.333008 12 -1l1 -1c1.33301 0 2.33301 -0.166992 3 -0.5s1.66699 -0.5 3 -0.5c8.66699 -2 17.5 -4.66699 26.5 -8l26.5 -10c6.66699 -2.66699 11.334 -4.66699 14.001 -6h2
c4.66699 -2.66699 9.16699 -5 13.5 -7s8.16602 -4.33301 11.499 -7l2 -4l-93 2l-4 2l-4 2c-9.33301 5.33301 -19.166 9 -29.499 11s-21.166 4.33301 -32.499 7c-4 2 -8.66699 3 -14 3v-134l25 -7v0v0l76 -21c2.66699 -1.33301 5.16699 -2.16602 7.5 -2.49902
s4.83301 -1.16602 7.5 -2.49902c3.33301 -1.33301 7 -2.66602 11 -3.99902c3.33301 -1.33301 7 -2.66602 11 -3.99902s8 -3.33301 12 -6c0.666992 -0.666992 1.33398 -1 2.00098 -1s1.33398 -0.333008 2.00098 -1zM240.001 262.997l-0.00195312 118.999
c-21.333 -0.666992 -40.666 -3 -57.999 -7s-30.666 -8.66699 -39.999 -14c-16 -9.33301 -25 -18.166 -27 -26.499s0 -16 6 -23s14.667 -13 26 -18s22 -9.16699 32 -12.5v0c0.666992 -0.666992 1.66699 -1 3 -1h1v-1zM399.999 38.9961
c15.333 10 25.168 19.1689 29.501 27.502s5 15.666 2 21.999s-9.33301 12.166 -19 17.499s-20.834 10.333 -33.501 15c-6 2 -12.667 4 -20 6c-12 4 -28.667 8.66699 -50 14v-127c17.333 1.33301 33.833 3.83301 49.5 7.5s29.5 9.5 41.5 17.5z" />
    <glyph glyph-name="percent" unicode="%" horiz-adv-x="584" 
d="M80 -10l401 656l16 -9l-401 -656zM138 379c-26 0 -46.667 5.99805 -62 17.998s-27.166 26 -35.499 42s-13.833 32.167 -16.5 48.5s-4 28.833 -4 37.5s1.33301 21 4 37s8.16699 32 16.5 48s20.166 30 35.499 42s36 18 62 18s46.833 -6.16699 62.5 -18.5
s27.5 -26.666 35.5 -42.999s13.333 -32.5 16 -48.5s4 -27.667 4 -35c0 -8 -1.33301 -20 -4 -36s-8 -32.167 -16 -48.5s-19.833 -30.666 -35.5 -42.999s-36.5 -18.5 -62.5 -18.5zM118 650.998c-10 -0.666992 -17.833 -5.83203 -23.5 -15.499s-9.66699 -21.334 -12 -35.001
s-3.33301 -28 -3 -43s1.5 -28.167 3.5 -39.5s5.16699 -24.166 9.5 -38.499s9.66602 -27.833 15.999 -40.5s13.666 -23 21.999 -31s17.5 -11.333 27.5 -10c10.667 1.33301 18.834 6.83301 24.501 16.5s9.5 21.167 11.5 34.5s2.83301 27.5 2.5 42.5s-1.5 28.167 -3.5 39.5
s-5 24.166 -9 38.499s-9.16699 27.833 -15.5 40.5s-13.666 23 -21.999 31s-17.833 11.333 -28.5 10zM448 292c26 0 46.667 -6.16895 62 -18.502s27.166 -26.666 35.499 -42.999s13.833 -32.5 16.5 -48.5s4 -27.667 4 -35c0 -8 -1.33301 -20 -4 -36
s-8.16699 -32.167 -16.5 -48.5s-20.166 -30.666 -35.499 -42.999s-36 -18.5 -62 -18.5s-46.833 6 -62.5 18s-27.667 26 -36 42s-13.833 32.167 -16.5 48.5s-4 28.833 -4 37.5s1.33301 21 4 37s8.16699 32 16.5 48s20.333 30 36 42s36.5 18 62.5 18zM468 19.998
c10 1.33301 17.835 6.83398 23.502 16.501s9.66699 21.167 12 34.5s3.16602 27.5 2.49902 42.5s-2 28.167 -4 39.5s-5 24.333 -9 39s-9.16699 28.167 -15.5 40.5s-13.666 22.666 -21.999 30.999s-17.5 11.833 -27.5 10.5c-10.667 -1.33301 -18.834 -6.83301 -24.501 -16.5
s-9.5 -21.334 -11.5 -35.001s-2.83301 -28 -2.5 -43s1.5 -28.167 3.5 -39.5s5 -24.166 9 -38.499s9.16699 -27.833 15.5 -40.5s13.666 -23 21.999 -31s17.833 -11.333 28.5 -10z" />
    <glyph glyph-name="ampersand" unicode="&#x26;" horiz-adv-x="721" 
d="M705 397l-57.998 -1.00195c-20.667 -1.33301 -35.667 -10.333 -45 -27v0c-4.66699 -8 -10 -16.667 -16 -26l-15.5 -27l-18.5 -32l-49 -85l133 -148l-103 -28l-81 91c-23.333 -30 -50.333 -54 -81 -72s-64.667 -27.333 -102 -28c-36 -0.666992 -68.833 3.83301 -98.5 13.5
s-55 22.834 -76 39.501s-37.333 35.667 -49 57s-17.834 43.333 -18.501 66c-0.666992 34 10.333 66.167 33 96.5s57.667 53.5 105 69.5c4 1.33301 11.167 4 21.5 8l31.5 12l-11 12l-34 38.5c-10.667 12.333 -20.334 24.833 -29.001 37.5s-16 25.5 -22 38.5
s-9.66699 27.167 -11 42.5c-2 20.667 2.33301 38.167 13 52.5s24.5 26 41.5 35s35.833 15.667 56.5 20s40 6.5 58 6.5c8.66699 0 18.834 -0.833008 30.501 -2.5s21.167 -3.5 28.5 -5.5c31.333 -7.33301 57.166 -18.5 77.499 -33.5s35.5 -32.167 45.5 -51.5
c8.66699 -20 13.334 -36.667 14.001 -50v-15c-2 -28 -15.667 -50.667 -41 -68s-57 -32.666 -95 -45.999v0c-0.666992 -0.666992 -1.33398 -1 -2.00098 -1s-1.66699 -0.333008 -3 -1l155 -172l85 147c2 3.33301 3 7 3 11c-0.666992 6.66699 -3.16699 12.167 -7.5 16.5
s-9.83301 6.5 -16.5 6.5l-82 -1v18l233 4v-18zM218.002 590.998c-4 -14 -4.83398 -27.334 -2.50098 -40.001s6.5 -25 12.5 -37s13.333 -23.167 22 -33.5l25 -29.5l32 -35c10 8 19 16 27 24c7.33301 7.33301 14 14.833 20 22.5s9.66699 14.834 11 21.501
c2 9.33301 3 21.833 3 37.5s-5.33301 31.5 -16 47.5c-14 20 -28.333 34 -43 42s-28.167 12 -40.5 12s-23.166 -3.16699 -32.499 -9.5s-15.333 -13.833 -18 -22.5zM167.001 152.997c8.66699 -16 19.667 -30.1709 33 -42.5039s28.833 -21.666 46.5 -27.999
s37.167 -9.16602 58.5 -8.49902s44.333 5.33398 69 14.001c10.667 4 21 10.167 31 18.5s19.667 17.5 29 27.5l-189 211l-2 -1l-1 -1v0c-0.666992 0 -1 -0.166992 -1 -0.5s-0.333008 -0.5 -1 -0.5c-2.66699 -1.33301 -4.66699 -2.66602 -6 -3.99902
c-44.667 -28 -71.5 -57.333 -80.5 -88s-4.5 -63 13.5 -97z" />
    <glyph glyph-name="parenleft" unicode="(" horiz-adv-x="271" 
d="M25 350c0 35.333 2.83301 69.832 8.5 103.499s14.167 65.167 25.5 94.5s25.5 55.5 42.5 78.5s36.833 41.167 59.5 54.5c27.333 16 57.333 24 90 24v-20c-4 0 -8 -0.666992 -12 -2l-12 -4c-14 -5.33301 -26.167 -15.333 -36.5 -30s-19.166 -32 -26.499 -52
s-13.166 -42 -17.499 -66s-7.83301 -48.333 -10.5 -73c-2 -18.667 -3.33301 -37 -4 -55s-1 -35.667 -1 -53c0 -16.667 0.333008 -34 1 -52s2 -36.667 4 -56c2.66699 -24 6.16699 -48 10.5 -72s10.166 -46 17.499 -66s16.166 -37.333 26.499 -52s22.5 -24.667 36.5 -30l12 -4
c4 -1.33301 8 -2.33301 12 -3v-20c-17.333 0 -33.333 2.16699 -48 6.5s-28.667 10.5 -42 18.5c-22.667 13.333 -42.5 31.5 -59.5 54.5s-31.167 49.167 -42.5 78.5s-19.833 60.833 -25.5 94.5s-8.5 67.834 -8.5 102.501z" />
    <glyph glyph-name="parenright" unicode=")" horiz-adv-x="290" 
d="M120 680c22.667 -13.333 42.5 -31.499 59.5 -54.499s31.167 -49.167 42.5 -78.5s19.833 -60.833 25.5 -94.5s8.5 -67.834 8.5 -102.501s-2.83301 -69 -8.5 -103s-14.167 -65.667 -25.5 -95s-25.5 -55.5 -42.5 -78.5s-36.833 -41.167 -59.5 -54.5
c-27.333 -16.667 -57.333 -25 -90 -25v20c4 0.666992 8 1.66699 12 3l12 4c14 5.33301 26.167 15.333 36.5 30s19.166 32 26.499 52s13.166 42 17.499 66s7.83301 48 10.5 72c2 19.333 3.33301 38 4 56s1 35.667 1 53c0 16.667 -0.333008 34 -1 52s-2 36.333 -4 55
c-2.66699 24.667 -6.16699 49 -10.5 73s-10.166 46 -17.499 66s-16.166 37.333 -26.499 52s-22.5 24.667 -36.5 30l-12 4c-4 1.33301 -8 2 -12 2v21c32.667 0 62.667 -8.33301 90 -25z" />
    <glyph glyph-name="asterisk" unicode="*" horiz-adv-x="327" 
d="M308 617l-105 -54l105 -54l-38 -57l-85 69l11 -109h-68l11 109l-85 -69l-37 57l104 54l-104 54l37 57l85 -69l-11 109h68l-11 -109l85 69z" />
    <glyph glyph-name="plus" unicode="+" horiz-adv-x="440" 
d="M187 46v170h-169v69h169v170h70v-170h169v-69h-169v-170h-70z" />
    <glyph glyph-name="comma" unicode="," horiz-adv-x="198" 
d="M29 50c0 14.667 5.83398 28 17.501 40s29.167 18 52.5 18s40.833 -6 52.5 -18s17.5 -25.333 17.5 -40c0 -6.66699 -1.33301 -12.667 -4 -18v0c-0.666992 -2.66699 -2.33398 -6.66699 -5.00098 -12l-39 -79l-102 -22l40 82c-10 5.33301 -17.5 12.5 -22.5 21.5
s-7.5 18.167 -7.5 27.5z" />
    <glyph glyph-name="hyphen" unicode="-" horiz-adv-x="410" 
d="M30 260h350v-20h-350v20z" />
    <glyph glyph-name="period" unicode="." horiz-adv-x="190" 
d="M25 51c0 14.667 5.83301 28 17.5 40s29.167 18 52.5 18s40.833 -6 52.5 -18s17.5 -25.333 17.5 -40s-5.83301 -28 -17.5 -40s-29.167 -18 -52.5 -18s-40.833 6 -52.5 18s-17.5 25.333 -17.5 40zM25 51c0 14.667 5.83301 28 17.5 40s29.167 18 52.5 18s40.833 -6 52.5 -18
s17.5 -25.333 17.5 -40s-5.83301 -28 -17.5 -40s-29.167 -18 -52.5 -18s-40.833 6 -52.5 18s-17.5 25.333 -17.5 40z" />
    <glyph glyph-name="slash" unicode="/" horiz-adv-x="256" 
d="M31 -200h-21l215 900h21z" />
    <glyph glyph-name="zero" unicode="0" horiz-adv-x="514" 
d="M256 -9c-32.667 0 -61.1748 5.99902 -85.5078 17.999s-45.166 27.667 -62.499 47s-31.5 40.833 -42.5 64.5s-19.667 47 -26 70s-10.666 44.667 -12.999 65s-3.5 36.5 -3.5 48.5s0.833008 28.167 2.5 48.5s5.33398 42 11.001 65s13.834 46.333 24.501 70s24.667 45 42 64
s38.5 34.5 63.5 46.5s54.833 18 89.5 18s64.5 -6.16699 89.5 -18.5s46.167 -28.166 63.5 -47.499s31.333 -41 42 -65s18.834 -47.5 24.501 -70.5s9.33398 -44.5 11.001 -64.5s2.5 -35.333 2.5 -46s-1.16699 -26 -3.5 -46s-6.66602 -41.5 -12.999 -64.5s-15 -46.5 -26 -70.5
s-25.167 -45.833 -42.5 -65.5s-38.166 -35.667 -62.499 -48s-52.833 -18.5 -85.5 -18.5zM210.992 588.999c-23.333 -2.66699 -41.332 -14.999 -53.999 -36.999s-21.5 -48.167 -26.5 -78.5s-6.83301 -62.166 -5.5 -95.499s4 -63 8 -89c2.66699 -17.333 6.5 -36.333 11.5 -57
s11.167 -41.334 18.5 -62.001s15.666 -40.5 24.999 -59.5s19.833 -35.667 31.5 -50s24.334 -25.5 38.001 -33.5s28.167 -11 43.5 -9c23.333 2.66699 41.166 15 53.499 37s21 48.167 26 78.5s7 62.166 6 95.499s-3.5 63 -7.5 89s-10.667 55.333 -20 88s-21 63 -35 91
s-30.5 51 -49.5 69s-40.167 25.667 -63.5 23z" />
    <glyph glyph-name="one" unicode="1" horiz-adv-x="406" 
d="M385 24v-24h-358v24h41c23.333 0 43.5 7 60.5 21s25.833 30.667 26.5 50v424l-117 -15l77 104h149l-1 -516c1.33301 -18.667 10.333 -34.667 27 -48s36.667 -20 60 -20h35z" />
    <glyph glyph-name="two" unicode="2" horiz-adv-x="489" 
d="M321 406c15.333 22 23.8291 44.5029 25.4961 67.5029s-2.66602 43.667 -12.999 62s-25.833 33.333 -46.5 45s-46 17.5 -76 17.5c-22.667 0 -41.834 -3.5 -57.501 -10.5s-28.834 -14.833 -39.501 -23.5c-12 -10 -21.667 -21.333 -29 -34h-34l13 18
c5.33301 7.33301 12.666 15.166 21.999 23.499s20.833 16.333 34.5 24s29.834 14.5 48.501 20.5c0.666992 0 1.33398 0.166992 2.00098 0.5s1.33398 0.5 2.00098 0.5v0c1.33301 0 2.33301 0.166992 3 0.5s1.33398 0.5 2.00098 0.5l19.5 4
c6.33301 1.33301 12.833 2.33301 19.5 3c5.33301 0.666992 11 1.16699 17 1.5s11.667 0.5 17 0.5h12h3h4h11.5c3.66699 0 7.16699 -0.333008 10.5 -1c4.66699 0 8.33398 -0.333008 11.001 -1c8 -1.33301 15.667 -2.5 23 -3.5s14.666 -2.5 21.999 -4.5
c17.333 -4.66699 31 -10.334 41 -17.001s20 -15.667 30 -27c14 -16 22.333 -34.167 25 -54.5s1.5 -41 -3.5 -62s-12.667 -41.333 -23 -61s-21.5 -37.167 -33.5 -52.5l-241 -319h94c26.667 0 50.334 2.5 71.001 7.5s38.667 11.5 54 19.5s28.833 17.333 40.5 28
s21.834 22 30.501 34c10 13.333 17.667 26.666 23 39.999h6v-129v0v-6v0v-18v0v0h-337v0h-105z" />
    <glyph glyph-name="three" unicode="3" horiz-adv-x="502" 
d="M235 -14c-37.333 0 -69.3311 6.00488 -95.998 18.0049s-48.667 26 -66 42s-30.5 31.833 -39.5 47.5s-14.833 26.834 -17.5 33.501l25 -1c5.33301 -18 15.666 -34.167 30.999 -48.5s33.666 -26.166 54.999 -35.499s44.166 -15.833 68.499 -19.5
s47.833 -3.83398 70.5 -0.500977s43.334 10.5 62.001 21.5s33 26.167 43 45.5c14 28 19 56.833 15 86.5s-14.833 56.167 -32.5 79.5s-40.834 42.166 -69.501 56.499s-60.334 19.833 -95.001 16.5v24h24c12 -0.666992 24.5 0.166016 37.5 2.49902s25.333 6.66602 37 12.999
s22.334 14.833 32.001 25.5s17.5 23.667 23.5 39c8 25.333 9.33301 48.5 4 69.5s-15 39.167 -29 54.5s-31.167 27.166 -51.5 35.499s-41.166 12.166 -62.499 11.499s-42 -6.33398 -62 -17.001s-37 -27.334 -51 -50.001h-33c6.66699 17.333 17.5 32.5 32.5 45.5
s32.5 23.667 52.5 32s41.833 14.166 65.5 17.499s47.834 3.66602 72.501 0.999023c22.667 0.666992 44.167 -4.5 64.5 -15.5s38 -25.167 53 -42.5s26.333 -36.666 34 -57.999s10.167 -42.666 7.5 -63.999s-11.167 -41.166 -25.5 -59.499s-36.166 -33.166 -65.499 -44.499
c36 -9.33301 64.333 -25.333 85 -48s34.167 -48 40.5 -76s5.83301 -56.833 -1.5 -86.5s-21.333 -56.334 -42 -80.001s-47.334 -42.5 -80.001 -56.5s-71.334 -19 -116.001 -15z" />
    <glyph glyph-name="four" unicode="4" horiz-adv-x="569" 
d="M58 194l-16.9951 -0.00292969v24l243 390v0v0v0v0h96v-386c17.333 2.66699 32.666 6.83398 45.999 12.501s25.166 12.167 35.499 19.5s19.666 15.5 27.999 24.5s16.166 18.5 23.499 28.5c5.33301 6.66699 9.66602 13.334 12.999 20.001s6.33301 13.334 9 20.001h7v-129
v-24h-162v-98c0 -19.333 8.5 -36.166 25.5 -50.499s37.5 -21.5 61.5 -21.5h35v-24h-122v0h-96v0h-122v24h35c24 0 44.5 7.16699 61.5 21.5s25.5 31.166 25.5 50.499v98h-226zM73.0049 217.997h211v337z" />
    <glyph glyph-name="five" unicode="5" horiz-adv-x="531" 
d="M272 -21c-36.667 0 -68.666 5.33105 -95.999 15.998s-50.5 24.167 -69.5 40.5s-34 34 -45 53s-18.167 36.5 -21.5 52.5h50c7.33301 -21.333 22.166 -42.833 44.499 -64.5s49.5 -38.834 81.5 -51.501c13.333 -4.66699 30.333 -7.5 51 -8.5s41.5 1.33301 62.5 7
s40.167 15.667 57.5 30s29.333 33.833 36 58.5c5.33301 18.667 4.33301 41 -3 67s-19.5 51 -36.5 75s-38.167 44.167 -63.5 60.5s-54 24.5 -86 24.5c-12 0 -23.167 -0.666992 -33.5 -2s-20.5 -3.66602 -30.5 -6.99902s-20.167 -7.66602 -30.5 -12.999
s-21.166 -12.333 -32.499 -21c-5.33301 -4 -9 -6.66699 -11 -8v20v298h96v0h137h1h83l59 -99l-129 22l-32 53h-119v-210c14 4 28.667 7 44 9c6.66699 0.666992 13 1.16699 19 1.5s12.667 0.833008 20 1.5h8h3h4c4.66699 -0.666992 9 -1 13 -1s8 -0.333008 12 -1
c6 0 10.333 -0.333008 13 -1c19.333 -2 36.333 -5.33301 51 -10c16.667 -5.33301 32.667 -14.166 48 -26.499s28.833 -27.166 40.5 -44.499s21 -37 28 -59s10.5 -45.667 10.5 -71c0 -24.667 -4.5 -48.5 -13.5 -71.5s-23 -43.333 -42 -61s-43.333 -31.834 -73 -42.501
s-64.834 -16 -105.501 -16z" />
    <glyph glyph-name="six" unicode="6" horiz-adv-x="525" 
d="M267 -22c-22 0 -41.5049 2.00586 -58.5049 6.00586s-32.333 9.66699 -46 17s-26.167 16.5 -37.5 27.5s-22 23.5 -32 37.5v0c-0.666992 1.33301 -2 3 -4 5c-1.33301 2.66699 -3 5 -5 7l1 1c-2.66699 4 -4.66699 7.33301 -6 10s-2.83301 5.33398 -4.5 8.00098
s-3.16699 5.66699 -4.5 9l-2 4l-2 4l-3.5 9l-3.5 9l-7.5 21.5c-2.33301 7 -4.16602 14.167 -5.49902 21.5c-2.66699 11.333 -4.66699 22.833 -6 34.5s-2.16602 22.834 -2.49902 33.501s-0.5 20.5 -0.5 29.5v21.5l3 46c1.33301 20 4.33301 42.167 9 66.5
s11.334 49.166 20.001 74.499s20.167 48.166 34.5 68.499s32.333 37.166 54 50.499s47.5 20 77.5 20c40.667 0 73.834 -6.83301 99.501 -20.5s46.167 -28.834 61.5 -45.501c18 -19.333 31.667 -41.333 41 -66l-77 1h-2l-5 8
c-0.666992 2.66699 -5.33398 9.83398 -14.001 21.501s-20.167 23.167 -34.5 34.5s-31.166 20.166 -50.499 26.499s-40 5.5 -62 -2.5c-19.333 -6.66699 -33.833 -17.834 -43.5 -33.501s-15.834 -33.834 -18.501 -54.501s-2.66699 -43.334 0 -68.001s6.33398 -50 11.001 -76
c16.667 6 36.334 10.833 59.001 14.5s44 5.5 64 5.5c27.333 0 53.5 -4.33301 78.5 -13s47.5 -20.834 67.5 -36.501s37 -33.834 51 -54.501s23.667 -43 29 -67c1.33301 -5.33301 2.33301 -10.833 3 -16.5s1 -11.167 1 -16.5c0 -18 -1.83301 -35.667 -5.5 -53
s-10.167 -33.666 -19.5 -48.999s-22.333 -28.833 -39 -40.5s-37.667 -21.167 -63 -28.5c-8 -2 -16.333 -3.83301 -25 -5.5s-17.667 -3.16699 -27 -4.5c-5.33301 -0.666992 -10.833 -1 -16.5 -1s-11.167 -0.333008 -16.5 -1h-8h-7zM185.995 318.006
c-21.333 -7.33301 -37.3311 -23.501 -47.998 -48.501s-12.334 -53.833 -5.00098 -86.5c2 -10.667 7.5 -26.167 16.5 -46.5s21 -40.5 36 -60.5s32.833 -37.167 53.5 -51.5s43.667 -20.5 69 -18.5c5.33301 0.666992 10.5 1.5 15.5 2.5s8.83301 2.16699 11.5 3.5
c18.667 6.66699 33 15.334 43 26.001s17 22.5 21 35.5s5.5 26.833 4.5 41.5s-3.16699 29 -6.5 43c-4 14.667 -9.33301 29.334 -16 44.001c-6.66699 15.333 -16.167 31.5 -28.5 48.5s-26.833 32 -43.5 45s-35.334 22.167 -56.001 27.5s-43 3.66602 -67 -5.00098z" />
    <glyph glyph-name="seven" unicode="7" horiz-adv-x="513" 
d="M494 608l-302.001 -607.998h-113l289 584h-1h-123c-26 -0.666992 -48.833 -3.5 -68.5 -8.5s-37 -11.5 -52 -19.5s-28.167 -17.167 -39.5 -27.5s-21.333 -21.5 -30 -33.5c-5.33301 -6.66699 -9.66602 -13.334 -12.999 -20.001s-6.33301 -13.334 -9 -20.001h-7v153h464v0h5
z" />
    <glyph glyph-name="eight" unicode="8" horiz-adv-x="529" 
d="M19 172c0 18 2.66602 35.5 7.99902 52.5s13.833 33 25.5 48s26.667 28.333 45 40s40.833 20.834 67.5 27.501v0c-43.333 12 -73.833 31.333 -91.5 58s-26.5 55 -26.5 85c0 15.333 2.16699 30.333 6.5 45s11.333 28.334 21 41.001s22.167 24 37.5 34s34.333 18 57 24
c15.333 4 30.666 7 45.999 9c6 0.666992 11.833 1.16699 17.5 1.5s11.834 0.5 18.501 0.5h7h3h4c4 0 8 -0.166992 12 -0.5s7.66699 -0.5 11 -0.5c2.66699 -0.666992 6.33398 -1 11.001 -1c17.333 -2 33.333 -5 48 -9c22.667 -6 41.667 -14 57 -24s27.833 -21.333 37.5 -34
s16.667 -26.334 21 -41.001s6.5 -29.667 6.5 -45c0 -28.667 -8 -55.834 -24 -81.501s-44.333 -45.167 -85 -58.5l12 -3c26.667 -6.66699 49.167 -16 67.5 -28s33.333 -25.333 45 -40s20 -30.5 25 -47.5s7.5 -34.5 7.5 -52.5c0 -22.667 -4.83301 -44.834 -14.5 -66.501
s-24.5 -41 -44.5 -58s-45.667 -30.667 -77 -41s-69 -15.5 -113 -15.5s-81.667 5.16699 -113 15.5s-57 24 -77 41s-34.833 36.333 -44.5 58s-14.5 43.834 -14.5 66.501zM152.999 449c4.66699 -10 10.332 -20.165 16.999 -30.498s14.5 -20 23.5 -29s19.167 -16.833 30.5 -23.5
s23.666 -11.334 36.999 -14.001h7h4h4h18l12 2c4 0.666992 8 1.66699 12 3c21.333 7.33301 36.833 17.333 46.5 30s15.334 26.667 17.001 42s0.5 30.833 -3.5 46.5s-9 29.834 -15 42.501c-5.33301 10.667 -12 21.667 -20 33s-17.167 21.833 -27.5 31.5
s-22.166 17.667 -35.499 24s-28 9.5 -44 9.5c-13.333 0 -26 -2.33301 -38 -7c-21.333 -6.66699 -36.833 -16.334 -46.5 -29.001s-15.5 -26.667 -17.5 -42s-0.833008 -30.833 3.5 -46.5s9.5 -29.834 15.5 -42.501zM197.997 319.002c-24.667 -8 -42.6699 -19.5 -54.0029 -34.5
s-18 -31.333 -20 -49s-0.666992 -35.667 4 -54s10.334 -35.166 17.001 -50.499c7.33301 -14.667 16.833 -30 28.5 -46s25.5 -29.833 41.5 -41.5s34.333 -19.834 55 -24.501s43.334 -3 68.001 5c25.333 8 43.5 19.5 54.5 34.5s17.667 31.333 20 49
s1.16602 35.834 -3.50098 54.501s-10.667 35.334 -18 50.001c-6 12.667 -13.667 25.667 -23 39s-20.166 25.666 -32.499 36.999s-26.166 20.666 -41.499 27.999s-32.333 11 -51 11c-12.667 0 -27.667 -2.66699 -45 -8z" />
    <glyph glyph-name="nine" unicode="9" horiz-adv-x="512" 
d="M131 321c-32 12 -55.333 28.3369 -70 49.0039s-24.667 43 -30 67c-2 10 -3 20 -3 30c0 32.667 9.83301 63.5 29.5 92.5s53.5 49.833 101.5 62.5c15.333 4 31.333 7 48 9c5.33301 0.666992 10.5 1.16699 15.5 1.5s10.167 0.5 15.5 0.5h7c2 0.666992 4.33301 1 7 1v-1
c25.333 0 47.5 -3 66.5 -9s35.833 -14 50.5 -24s27.5 -21.833 38.5 -35.5s20.833 -28.167 29.5 -43.5c2 -2.66699 3.83301 -5.33398 5.5 -8.00098s3.16699 -5.66699 4.5 -9l2 -4l2 -4c1.33301 -3.33301 2.66602 -6.33301 3.99902 -9l4 -8c3.33301 -7.33301 6 -14.5 8 -21.5
l6 -21.5c3.33301 -10.667 5.66602 -22 6.99902 -34s2.33301 -23.333 3 -34s1 -20.5 1 -29.5v-21.5c0 -10.667 -0.666992 -26.167 -2 -46.5s-4.5 -42.833 -9.5 -67.5s-12.5 -49.667 -22.5 -75s-23.667 -48.5 -41 -69.5s-38.666 -38.167 -63.999 -51.5s-56.333 -20 -93 -20
c-34 0 -63.167 5.33301 -87.5 16s-45 24.667 -62 42s-30.667 36.666 -41 57.999s-18.833 43 -25.5 65h71c10.667 -20 24.167 -39.167 40.5 -57.5s34.333 -33.333 54 -45s40.167 -18.834 61.5 -21.501s42.333 1.33301 63 12c18.667 10 32.334 24.667 41.001 44
s14.167 41.166 16.5 65.499s2.5 50 0.5 77s-4.66699 53.5 -8 79.5c-32.667 -14 -73.667 -21 -123 -21c-47.333 0 -88 6.66699 -122 20zM189 603.004c-17.333 -6 -31 -13.835 -41 -23.502s-17.167 -20.5 -21.5 -32.5s-6.33301 -24.667 -6 -38s2.16602 -26.333 5.49902 -39
c4.66699 -15.333 9.66699 -28.666 15 -39.999c6.66699 -14 15.334 -28.333 26.001 -43s23.167 -27.5 37.5 -38.5s30.833 -18.5 49.5 -22.5s39.334 -2.33301 62.001 5c13.333 4.66699 25.666 13.5 36.999 26.5s17 30.167 17 51.5v1c-1.33301 30 -6.83301 57.333 -16.5 82
s-21.667 45.834 -36 63.501s-30.5 31.167 -48.5 40.5s-36.333 13.333 -55 12c-5.33301 0 -10.333 -0.666992 -15 -2s-8 -2.33301 -10 -3z" />
    <glyph glyph-name="colon" unicode=":" horiz-adv-x="190" 
d="M95 -7c-23.333 0 -40.833 6 -52.5 18s-17.5 25.333 -17.5 40s5.83301 28 17.5 40s29.167 18 52.5 18s40.833 -6 52.5 -18s17.5 -25.333 17.5 -40s-5.83301 -28 -17.5 -40s-29.167 -18 -52.5 -18zM95 238c-23.333 0 -40.833 6 -52.5 18s-17.5 25.333 -17.5 40
s5.83301 28 17.5 40s29.167 18 52.5 18s40.833 -6 52.5 -18s17.5 -25.333 17.5 -40s-5.83301 -28 -17.5 -40s-29.167 -18 -52.5 -18z" />
    <glyph glyph-name="semicolon" unicode=";" horiz-adv-x="190" 
d="M42 255c-12 11.333 -18 24.667 -18 40c0 14.667 5.83301 28 17.5 40s29.167 18 52.5 18s40.666 -6 51.999 -18s17 -25.333 17 -40v-10v0l-5 -14v0v0l-3 -5v0v0c-5.33301 -8.66699 -13 -15.667 -23 -21s-22.667 -8 -38 -8c-11.333 0 -21.166 1.5 -29.499 4.5
s-15.5 7.16699 -21.5 12.5zM19 -80.999l40.001 82c-10 5.33301 -17.5 12.5 -22.5 21.5s-7.5 18.167 -7.5 27.5c0 14.667 5.83301 28 17.5 40s29.167 18 52.5 18s40.833 -6 52.5 -18s17.5 -25.333 17.5 -40c0 -6.66699 -1.33301 -12.667 -4 -18v0
c-0.666992 -2.66699 -2.33398 -6.66699 -5.00098 -12l-39 -79z" />
    <glyph glyph-name="less" unicode="&#x3c;" horiz-adv-x="402" 
d="M383 362l-212 -112l212 -112l-33 -62l-254 135l-74 39l65 34l9 5h1l253 135z" />
    <glyph glyph-name="equal" unicode="=" horiz-adv-x="400" 
d="M387 209v-70h-370v70h370zM387 358v-70h-370v70h370z" />
    <glyph glyph-name="greater" unicode="&#x3e;" horiz-adv-x="403" 
d="M20 138l212 112l-212 112l33 62l254 -135v0l9 -5l65 -34l-74 -39l-254 -135z" />
    <glyph glyph-name="question" unicode="?" horiz-adv-x="434" 
d="M189 -6c-23.333 0 -40.833 5.83301 -52.5 17.5s-17.5 25.167 -17.5 40.5c0 14.667 5.83301 27.834 17.5 39.501s29.167 17.5 52.5 17.5s40.666 -5.83301 51.999 -17.5s17 -24.834 17 -39.501c0 -15.333 -5.66699 -28.833 -17 -40.5s-28.666 -17.5 -51.999 -17.5zM298 609
c43.333 -11.333 78.6729 -29.6709 106.006 -55.0039s41 -55.666 41 -90.999c0 -18 -2.83301 -34.167 -8.5 -48.5s-13.167 -27.5 -22.5 -39.5s-20 -22.833 -32 -32.5s-24.667 -18.167 -38 -25.5c-20 -12 -36 -22.167 -48 -30.5s-21 -16.666 -27 -24.999
s-10 -17.166 -12 -26.499s-3 -21 -3 -35h-130c0 14 2.66699 26.833 8 38.5s12.166 22.667 20.499 33s18 19.833 29 28.5s22.167 16.667 33.5 24c9.33301 6 18.666 11.667 27.999 17s17.666 10.333 24.999 15c0.666992 0 1.16699 0.166992 1.5 0.5s0.833008 0.5 1.5 0.5v0
c10.667 7.33301 20.5 16 29.5 26s15.833 21.667 20.5 35c6 16.667 7.83301 35 5.5 55s-9 38.833 -20 56.5s-27.167 32.334 -48.5 44.001s-48 17.167 -80 16.5c-25.333 0 -46.5 -5 -63.5 -15s-30.833 -20.667 -41.5 -32c-12.667 -14 -22.667 -29.667 -30 -47l-61 -1
c2.66699 5.33301 6.66699 12.5 12 21.5s13.166 18.667 23.499 29s24 21 41 32s38.5 21.167 64.5 30.5c1.33301 0.666992 3 1 5 1v1c2 0 3.66699 0.333008 5 1c6 1.33301 12.167 2.5 18.5 3.5s13.166 2.16699 20.499 3.5c5.33301 0.666992 10.833 1.16699 16.5 1.5
s11.5 0.5 17.5 0.5h7h2h4c4 0 7.83301 -0.166992 11.5 -0.5s7.5 -0.5 11.5 -0.5c2 -0.666992 5.33301 -1 10 -1c15.333 -2 30.666 -5 45.999 -9z" />
    <glyph glyph-name="at" unicode="@" horiz-adv-x="746" 
d="M373 -8c-26.667 -2.66699 -56.835 -2.50098 -90.502 0.499023s-66.334 11 -98.001 24s-60.167 32.333 -85.5 58s-43.666 59.834 -54.999 102.501c-12 46.667 -15.333 89.167 -10 127.5s16.833 72.833 34.5 103.5s40.5 57.834 68.5 81.501s58.667 44.5 92 62.5
c34 18.667 72.833 30.834 116.5 36.501s86.834 5.16699 129.501 -1.5s82.5 -19.834 119.5 -39.501s65.833 -45.834 86.5 -78.501c21.333 -32.667 31.666 -65.667 30.999 -99s-8.66699 -64.5 -24 -93.5s-36.666 -54 -63.999 -75s-57.333 -35.167 -90 -42.5
c-1.33301 0 -2.5 -0.166992 -3.5 -0.5s-2.16699 -0.5 -3.5 -0.5c-7.33301 -1.33301 -14.833 -2.5 -22.5 -3.5s-15.5 -1.16699 -23.5 -0.5c-4.66699 0 -9.66699 1.33301 -15 4c-4.66699 2 -8 5 -10 9s-3.33301 8 -4 12c-0.666992 0 -1 0.333008 -1 1v3v28
c-12.667 -17.333 -30 -31.5 -52 -42.5s-51.333 -14.167 -88 -9.5c-10.667 1.33301 -23.167 4.83301 -37.5 10.5s-28 13.667 -41 24s-24.167 23.166 -33.5 38.499s-14 34 -14 56c0 25.333 5.33301 46.166 16 62.499s23.167 29.5 37.5 39.5s29.166 17.167 44.499 21.5
s27.666 7.16602 36.999 8.49902c55.333 8 99 -4 131 -36v24h83v-224c0.666992 -0.666992 4.66699 -0.5 12 0.5s14.333 3.16699 21 6.5c15.333 7.33301 28.833 22.5 40.5 45.5s19 49.167 22 78.5s0.166992 60 -8.5 92s-25.667 61 -51 87
c-23.333 23.333 -48.833 40.833 -76.5 52.5s-55 18.834 -82 21.501s-52.833 1.83398 -77.5 -2.49902s-46 -10.5 -64 -18.5c-38 -16.667 -67.667 -36.5 -89 -59.5s-37.166 -46.833 -47.499 -71.5s-16.333 -49 -18 -73s-1.5 -45 0.5 -63c2 -16 6.83301 -35.167 14.5 -57.5
s19.334 -44.5 35.001 -66.5s36 -42 61 -60s55.667 -30.5 92 -37.5s78.833 -6.66699 127.5 1s104.667 26.167 168 55.5l7 -7c-20 -19.333 -42.667 -37 -68 -53c-22 -14 -48.167 -27.167 -78.5 -39.5s-64.166 -20.166 -101.499 -23.499zM378.999 194.999
c16 0.666992 29.999 4.16699 41.999 10.5s22 14.166 30 23.499v126c-17.333 20.667 -35.666 35.167 -54.999 43.5s-38.666 10.833 -57.999 7.5c-25.333 -5.33301 -44.833 -18.333 -58.5 -39s-18.5 -44.667 -14.5 -72c2.66699 -18.667 8 -34.5 16 -47.5
s17.333 -23.5 28 -31.5s22.167 -13.667 34.5 -17s24.166 -4.66602 35.499 -3.99902z" />
    <glyph glyph-name="A" unicode="A" horiz-adv-x="696" 
d="M689 21l0.000976562 -21h-236v21h37c9.33301 0 16.833 4 22.5 12s6.5 16.333 2.5 25v0c0 0.666992 -0.166992 1.16699 -0.5 1.5s-0.5 0.833008 -0.5 1.5v0l-82 168h-210c-4 -6.66699 -9.83301 -17.834 -17.5 -33.501l-24.5 -49.5l-25 -49.5l-18 -35.5
c-4.66699 -8 -4.66699 -16.5 0 -25.5s11.667 -13.833 21 -14.5h90v-21h-240v21c10 0 19.667 -0.166992 29 -0.5s18.166 0.5 26.499 2.5s16 5.5 23 10.5s13.167 12.5 18.5 22.5l208 416l-54 112l60 77c0 -0.666992 4.33301 -9.66699 13 -27l33.5 -68.5l46.5 -97l53 -110.5
l53 -110.5l46.5 -97l33.5 -68.5c8.66699 -17.333 13 -26.333 13 -27c5.33301 -9.33301 12.5 -17.166 21.5 -23.499s19.167 -9.83301 30.5 -10.5h26zM421.001 251l-93 190l-95 -190h188z" />
    <glyph glyph-name="B" unicode="B" horiz-adv-x="653" 
d="M500 315c6.66699 0 17.168 -2.33301 31.501 -7s29 -12.834 44 -24.501s28.167 -27.667 39.5 -48s17 -46.5 17 -78.5s-5.66699 -58.167 -17 -78.5s-26 -36.333 -44 -48s-37.833 -19.667 -59.5 -24s-42.834 -6.5 -63.501 -6.5h-428v21h27
c17.333 0 32.166 6.16699 44.499 18.5s18.5 27.166 18.5 44.499v452c0 17.333 -6.16699 32.166 -18.5 44.499s-27.166 18.5 -44.499 18.5h-27v21h428h10c14.667 0 31.334 -2.83301 50.001 -8.5s36.334 -14.667 53.001 -27s30.667 -28.166 42 -47.499s17 -42.666 17 -69.999
c0 -26.667 -4.66699 -49.667 -14 -69s-20.333 -35.166 -33 -47.499s-25.834 -21.333 -39.501 -27s-24.834 -8.5 -33.501 -8.5zM198.001 325l228.997 -0.00292969v0c18 -0.666992 33.833 3.33301 47.5 12s25 19.834 34 33.501s15.667 28.667 20 45s6.5 31.833 6.5 46.5
c0 12 -1.83301 24.5 -5.5 37.5s-9.16699 25.667 -16.5 38s-16.166 23.333 -26.499 33s-21.833 16.834 -34.5 21.501c-1.33301 2 -8.16602 3.5 -20.499 4.5s-27.333 1.66699 -45 2s-37 0.5 -58 0.5h-59c-18.333 0 -34.166 -0.166992 -47.499 -0.5
s-21.333 -0.166016 -24 0.500977v-274zM545.998 143.997c2 18 1.33203 36 -2.00098 54s-9.16602 34.5 -17.499 49.5s-19.5 27.5 -33.5 37.5s-31 16.333 -51 19h-244v-283h244c1.33301 0 2.83301 0.166992 4.5 0.5s3.16699 0.5 4.5 0.5c22.667 4.66699 42 15.5 58 32.5
s26.333 35.833 31 56.5v1c2.66699 10 4.66699 20.667 6 32z" />
    <glyph glyph-name="C" unicode="C" horiz-adv-x="621" 
d="M308 629c-2 -0.666992 -5.66699 -1.66699 -11 -3c5.33301 1.33301 9 2.33301 11 3zM308 629c-2 -0.666992 -5.66699 -1.66699 -11 -3c5.33301 1.33301 9 2.33301 11 3zM602 185c-8.66699 -30 -21 -57.335 -37 -82.002s-35.833 -46 -59.5 -64s-50.834 -32 -81.501 -42
s-65 -15 -103 -15c-44 0 -84.333 8.83301 -121 26.5s-68 41.5 -94 71.5s-46.167 65 -60.5 105s-21.5 82.667 -21.5 128c0 64.667 13.5 121.167 40.5 169.5s63 85.833 108 112.5s96.5 41.334 154.5 44.001s118.333 -9 181 -35h27c4 -8 8.66699 -18 14 -30l16.5 -37.5
l16.5 -37.5c5.33301 -12 10 -22 14 -30l-112 43h-1l-14.5 30l-14.5 30c-26 20.667 -52.667 33.834 -80 39.501s-53.666 5.66699 -78.999 0s-49.166 -16.334 -71.499 -32.001s-41.833 -34.667 -58.5 -57s-29.5 -47.166 -38.5 -74.499s-13.167 -55.333 -12.5 -84
c-0.666992 -57.333 6.66602 -108 21.999 -152s35.833 -80.167 61.5 -108.5s55.5 -48.5 89.5 -60.5s68.833 -15 104.5 -9s71 21.333 106 46s66.5 59.667 94.5 105h10z" />
    <glyph glyph-name="D" unicode="D" horiz-adv-x="715" 
d="M377 623c47.333 0.666992 88.666 -7.67188 123.999 -25.0049s64.833 -40.666 88.5 -69.999s41.5 -62.666 53.5 -99.999s18 -75.666 18 -114.999s-6 -77.666 -18 -114.999s-29.833 -70.666 -53.5 -99.999s-53.167 -52.666 -88.5 -69.999s-76.666 -25.666 -123.999 -24.999
h-5h-340v21h27c17.333 0 32.166 6.16699 44.499 18.5s18.5 27.166 18.5 44.499v452c0 17.333 -6.16699 32.166 -18.5 44.499s-27.166 18.5 -44.499 18.5h-27v21h340h5zM561 218.994c7.33301 34 10.999 65.3291 10.999 93.9961s-3.66699 60 -11 94
c-4 21.333 -9.66699 42.333 -17 63s-17 39.5 -29 56.5s-26.5 31.667 -43.5 44s-37.167 20.833 -60.5 25.5c-8.66699 2.66699 -22.167 4.33398 -40.5 5.00098s-37.833 1 -58.5 1s-40.5 -0.166992 -59.5 -0.5s-33.167 -0.166016 -42.5 0.500977v-578
c9.33301 0.666992 23.5 0.833984 42.5 0.500977s38.833 -0.5 59.5 -0.5s40.334 0.333008 59.001 1s32 2.33398 40 5.00098c23.333 4.66699 43.5 13.167 60.5 25.5s31.5 27 43.5 44s21.667 35.833 29 56.5s13 41.667 17 63z" />
    <glyph glyph-name="E" unicode="E" horiz-adv-x="639" 
d="M501 106l115 43.998c-2 -3.33301 -6.66699 -12.666 -14 -27.999l-23.5 -49l-23 -48l-12.5 -26h-512v21h27c17.333 0 32.166 6.16699 44.499 18.5s18.5 27.166 18.5 44.499v452c0 17.333 -6.16699 32.166 -18.5 44.499s-27.166 18.5 -44.499 18.5h-27v21h512l12.5 -26
l23 -48.5l23.5 -49.5c7.33301 -15.333 12 -24.666 14 -27.999l-115 44l-42 87h-250v-274h107v0c18.667 0.666992 34.667 5.66699 48 15s24.333 20.833 33 34.5s15.167 28.334 19.5 44.001s6.5 30.167 6.5 43.5h21v-291h-21c0 13.333 -2.16699 27.833 -6.5 43.5
s-10.833 30.334 -19.5 44.001s-19.667 25.167 -33 34.5s-29.333 14.333 -48 15v0h-107v-287h250z" />
    <glyph glyph-name="F" unicode="F" horiz-adv-x="642" 
d="M539 620l12.5 -26.001l23 -48.5l23.5 -49c7.33301 -15 12 -24.167 14 -27.5l-115 44l-42 86h-249v-273h107h-1c18.667 0.666992 34.667 5.5 48 14.5s24.333 20.333 33 34s15.167 28.334 19.5 44.001s6.5 30.5 6.5 44.5h22v-292h-22c0 14 -2.16699 28.833 -6.5 44.5
s-10.833 30.334 -19.5 44.001s-19.667 25 -33 34s-29.333 13.833 -48 14.5h1h-107v-224c0 -17.333 6 -32.166 18 -44.499s26.667 -18.5 44 -18.5h27v-21h-178v0h-89v21h26c17.333 0 32.166 6.16699 44.499 18.5s18.5 27.166 18.5 44.499v452
c0 17.333 -6.16699 32.166 -18.5 44.499s-27.166 18.5 -44.499 18.5h-26v21h89v0h87v0h335zM539 647.999h-4h4z" />
    <glyph glyph-name="G" unicode="G" horiz-adv-x="719" 
d="M695 277l-0.00195312 -21.002h-34c-17.333 0 -32.166 -6.16699 -44.499 -18.5s-18.5 -27.166 -18.5 -44.499v-182l-84 31c-23.333 -18.667 -50.5 -33.334 -81.5 -44.001s-67.5 -16 -109.5 -16c-48 0 -90.333 9.5 -127 28.5s-67.334 43.833 -92.001 74.5
s-43.334 65.667 -56.001 105s-19.167 79.666 -19.5 120.999s5.66699 81.5 18 120.5s31.333 73.833 57 104.5s58 55.334 97 74.001s84.833 27.667 137.5 27c29.333 0 60 -2.83301 92 -8.5s59 -14.167 81 -25.5h26c4 -8 8.66699 -18 14 -30l16.5 -37l16.5 -37
c5.33301 -12 10 -22 14 -30l-111 42l-2 1l-14.5 30l-14.5 30c-26 20.667 -52.667 33.834 -80 39.501s-53.666 5.66699 -78.999 0s-49.166 -16.334 -71.499 -32.001s-41.666 -34.667 -57.999 -57s-29 -47.166 -38 -74.499s-13.167 -55.333 -12.5 -84
c-1.33301 -42.667 2.66699 -82.667 12 -120s23 -70.5 41 -99.5s39.667 -53.167 65 -72.5s52.833 -32.166 82.5 -38.499s61 -5.66602 94 2.00098s66.167 24.167 99.5 49.5v108c0 17.333 -6 32.166 -18 44.499s-26.667 18.5 -44 18.5h-41v21h287z" />
    <glyph glyph-name="H" unicode="H" horiz-adv-x="728" 
d="M613 536l0.00195312 -452.003c0 -17.333 6 -32.166 18 -44.499s26.667 -18.5 44 -18.5h27v-21h-178v0h-89v21h27c15.333 0 28.666 5 39.999 15s18.333 22.333 21 37c0.666992 2.66699 1 6.33398 1 11.001v218h-315v-218c0 -18.667 6.66699 -34 20 -46
c11.333 -10 25.666 -15.667 42.999 -17h27v-21h-178v0h-90v21h27c17.333 0 32.166 6.16699 44.499 18.5s18.5 27.166 18.5 44.499v452c0 17.333 -6.16699 32.166 -18.5 44.499s-27.166 18.5 -44.499 18.5h-27v21h90v0h88v0h90v-21h-27
c-17.333 0 -32.166 -6.16699 -44.499 -18.5s-18.5 -27.166 -18.5 -44.499v-212h315v212c0 4.66699 -0.333008 8.33398 -1 11.001v0c-2.66699 14.667 -9.83398 27 -21.501 37s-25.167 15 -40.5 15h-27v21h90v0h89v0h89v-21h-27c-17.333 0 -32 -6.16699 -44 -18.5
s-18 -27.166 -18 -44.499z" />
    <glyph glyph-name="I" unicode="I" horiz-adv-x="320" 
d="M207 536v-452c0 -17.333 6 -32.166 18 -44.499s26.667 -18.5 44 -18.5h27v-21h-178v0h-89v21h27c17.333 0 32 6.16699 44 18.5s18 27.166 18 44.499v452c0 17.333 -6 32.166 -18 44.499s-26.667 18.5 -44 18.5h-27v21h89v0h89v0h89v-21h-27
c-17.333 0 -32 -6.16699 -44 -18.5s-18 -27.166 -18 -44.499z" />
    <glyph glyph-name="J" unicode="J" horiz-adv-x="391" 
d="M157 589h-30v0h30zM374 610l-0.000976562 -20.998h-26c-19.333 0 -35 -7 -47 -21s-17.333 -30.333 -16 -49v0v-376v0c0 -23.333 -2.16699 -44.833 -6.5 -64.5s-11.5 -36.834 -21.5 -51.501s-23.333 -26 -40 -34s-37 -11.667 -61 -11v0
c-11.333 0 -23.166 1.83301 -35.499 5.5s-24.5 10 -36.5 19s-23.833 21.167 -35.5 36.5s-22.167 34.666 -31.5 57.999l79 40l71 -134c10.667 6.66699 18 18.5 22 35.5s6.66699 33.833 8 50.5v435c-0.666992 16 -6.66699 29.833 -18 41.5s-25 18.167 -41 19.5h-31v21h267z
" />
    <glyph glyph-name="K" unicode="K" horiz-adv-x="737" 
d="M719 21l0.00195312 -20.999h-259v21h29h1h1c9.33301 0 16.666 4.66699 21.999 14s5.33301 18.333 0 27v0l-12.5 18.5l-31.5 46.5l-41 60.5l-41 60.5l-31.5 46.5l-12.5 18.5l-9 13l-26.5 -29l-36.5 -39.5l-36.5 -39.5l-26.5 -29v-105c0 -17.333 6 -32.166 18 -44.499
s26.667 -18.5 44 -18.5h27v-21h-178v0h-89v21h27c17.333 0 32 6.16699 44 18.5s18 27.166 18 44.499v452c0 17.333 -6 32.166 -18 44.499s-26.667 18.5 -44 18.5h-27v21h89v0h178v-21h-27c-17.333 0 -31.833 -5.83301 -43.5 -17.5s-17.834 -26.167 -18.501 -43.5v-308l43 46
l46.5 50.5l46.5 50.5l42 46c8 9.33301 17.167 19.333 27.5 30l27.5 29l64 71c1.33301 0 2 0.666992 2 2c7.33301 8 8.66602 17.333 3.99902 28s-12.667 16 -24 16h-82v21h285v-21h-78c-16 0 -30.667 -6 -44 -18v0c0 -0.666992 -0.666992 -1.66699 -2 -3l-3 -3l-38 -42
l-45.5 -49l-45.5 -49l-38 -42l9 -13l225 -334c6 -7.33301 12.333 -13.333 19 -18s15.334 -7 26.001 -7h44z" />
    <glyph glyph-name="L" unicode="L" horiz-adv-x="632" 
d="M614 151c-2 -3.33301 -6.66699 -12.666 -14 -27.999l-23.5 -49l-23 -48l-12.5 -26h-333v0h-89v0h-89v21h27c17.333 0 32 6.16699 44 18.5s18 27.166 18 44.499v452c0 17.333 -6 32.166 -18 44.499s-26.667 18.5 -44 18.5h-27v21h267v-21h-27
c-17.333 0 -32 -6.16699 -44 -18.5s-18 -27.166 -18 -44.499v-515h249l43 86z" />
    <glyph glyph-name="M" unicode="M" horiz-adv-x="873" 
d="M764 536l0.000976562 -452.001c0 -17.333 6 -32.166 18 -44.499s26.667 -18.5 44 -18.5h27v-21h-267v21h27c17.333 0 32 6.16699 44 18.5s18 27.166 18 44.499v494l-238 -410l68 -128l-79 -40l-281 536v-452c0 -17.333 6.16699 -32.166 18.5 -44.499
s27.166 -18.5 44.499 -18.5h31v-21h-219v21h41c17.333 0 32.166 6.16699 44.499 18.5s18.5 27.166 18.5 44.499v452c0 6 -0.833008 11.667 -2.5 17s-3.83398 10.666 -6.50098 15.999v0c-5.33301 9.33301 -11.666 16 -18.999 20s-15.166 6.83301 -23.499 8.5
s-16.833 2.33398 -25.5 2.00098s-17.667 -0.5 -27 -0.5v21h181l11 -21l214 -408l249 429h182v-21h-31c-17.333 0 -32 -6.16699 -44 -18.5s-18 -27.166 -18 -44.499z" />
    <glyph glyph-name="N" unicode="N" horiz-adv-x="765" 
d="M751 620l-0.00195312 -21.001h-31c-17.333 0 -32.166 -6.16699 -44.499 -18.5s-18.5 -27.166 -18.5 -44.499v-445l44 -52l-79 -39l-467 536v-452c0 -17.333 6 -32.166 18 -44.499s26.667 -18.5 44 -18.5h31v-21h-218v21h41c17.333 0 32 6.16699 44 18.5
s18 27.166 18 44.499v452c0 12 -3 23 -9 33v0c-5.33301 9.33301 -11.666 16 -18.999 20s-15 6.83301 -23 8.5s-16.333 2.33398 -25 2.00098s-17.667 -0.5 -27 -0.5v21h173l18 -21v0l415 -484v421c0 17.333 -6 32.166 -18 44.499s-26.667 18.5 -44 18.5h-42v21h219z" />
    <glyph glyph-name="O" unicode="O" horiz-adv-x="671" 
d="M336 642c54.667 0 101.671 -10.002 141.004 -30.002s71.666 -45.833 96.999 -77.5s44 -67.167 56 -106.5s18 -78 18 -116c-0.666992 -55.333 -9.83398 -103.833 -27.501 -145.5s-41.167 -76.167 -70.5 -103.5s-62.5 -47.666 -99.5 -60.999s-75 -19.833 -114 -19.5
s-77 7.5 -114 21.5s-70.167 34.833 -99.5 62.5s-52.833 62 -70.5 103s-26.834 88.5 -27.501 142.5c0 35.333 6 72.333 18 111s30.667 74.334 56 107.001s57.666 59.5 96.999 80.5s86 31.5 140 31.5zM448.004 28.998c39.333 16 68 38.335 86 67.002s28.667 60 32 94
s1.16602 68.5 -6.50098 103.5s-17.167 66.833 -28.5 95.5s-26.166 58.334 -44.499 89.001s-40.333 57.167 -66 79.5s-54.834 37.833 -87.501 46.5s-68.667 5.33398 -108 -9.99902s-68 -37.333 -86 -66s-28.667 -60 -32 -94s-1.33301 -68.5 6 -103.5
s16.666 -66.833 27.999 -95.5s26.333 -58.334 45 -89.001s40.834 -57.334 66.501 -80.001s54.834 -38.334 87.501 -47.001s68.667 -5.33398 108 9.99902z" />
    <glyph glyph-name="P" unicode="P" horiz-adv-x="646" 
d="M630 478c2 -25.333 -0.496094 -48.833 -7.49609 -70.5s-16.833 -40.167 -29.5 -55.5s-27.334 -27.333 -44.001 -36s-33.334 -12.667 -50.001 -12h-291v-220c0 -17.333 6.16699 -32.166 18.5 -44.499s27.166 -18.5 44.499 -18.5h26v-21h-267v21h27
c17.333 0 32.166 6.16699 44.499 18.5s18.5 27.166 18.5 44.499v452c0 17.333 -6.16699 32.166 -18.5 44.499s-27.166 18.5 -44.499 18.5h-27v21h427c11.333 0 22.333 -1 33 -3c17.333 -2.66699 34 -7.66699 50 -15s30.5 -16.666 43.5 -27.999s23.667 -25 32 -41
s13.166 -34.333 14.499 -55zM543.004 434c2.66699 14.667 2.83008 30 0.49707 46s-7 31.167 -14 45.5s-16.167 27.5 -27.5 39.5s-24.666 21 -39.999 27c-1.33301 2 -8.16602 3.5 -20.499 4.5s-27.333 1.66699 -45 2s-37 0.5 -58 0.5h-59
c-18.333 0 -34.166 -0.166992 -47.499 -0.5s-21.333 -0.166016 -24 0.500977v-274h229v1c3.33301 -0.666992 6.33301 -0.833984 9 -0.500977s5.66699 0.833008 9 1.5c13.333 2 25 6.5 35 13.5s18.5 15.333 25.5 25s12.833 20.5 17.5 32.5s8 24 10 36z" />
    <glyph glyph-name="Q" unicode="Q" horiz-adv-x="695" 
d="M652 314c0 -40 -6.33398 -80.3359 -19.001 -121.003s-33 -77 -61 -109l72 15l-86 -167h-94l54 103c-23.333 -16 -49.666 -28.5 -78.999 -37.5s-62.333 -13.5 -99 -13.5c-54.667 0 -101.5 10.5 -140.5 31.5s-71.167 47.667 -96.5 80s-44 68 -56 107s-18 76.167 -18 111.5
c0.666992 54 10 101.5 28 142.5s41.5 75.167 70.5 102.5s62 48 99 62s75 21.167 114 21.5s77 -6.16699 114 -19.5s70 -33.666 99 -60.999s52.5 -61.666 70.5 -102.999s27.333 -89.666 28 -144.999zM451.999 30.9971c39.333 16 68 38.335 86 67.002s28.667 60 32 94
s1.33301 68.5 -6 103.5s-16.666 66.833 -27.999 95.5s-26.333 58.334 -45 89.001s-40.834 57.167 -66.501 79.5s-54.834 37.833 -87.501 46.5s-68.667 5.33398 -108 -9.99902s-68 -37.333 -86 -66s-28.667 -60 -32 -94s-1.33301 -68.5 6 -103.5s16.666 -66.833 27.999 -95.5
s26.333 -58.334 45 -89.001s40.834 -57.334 66.501 -80.001s54.834 -38.334 87.501 -47.001s68.667 -5.33398 108 9.99902z" />
    <glyph glyph-name="R" unicode="R" horiz-adv-x="730" 
d="M720 21l-0.000976562 -20.9941h-242v21h29c10 0 17.667 4.66699 23 14s5.33301 18.333 0 27v0v0v0c0 0.666992 -4 7 -12 19l-30.5 44.5l-39 58l-39 58l-30.5 44.5l-12 18h-159v-220c0 -17.333 6.16699 -32.166 18.5 -44.499s27.166 -18.5 44.499 -18.5h26v-21h-89v0h-88
v0h-90v21h27c17.333 0 32.166 6.16699 44.499 18.5s18.5 27.166 18.5 44.499v452c0 17.333 -6.16699 32.166 -18.5 44.499s-27.166 18.5 -44.499 18.5h-27v21h90v0h338c11.333 0 23 -1.16699 35 -3.5s23.667 -5.5 35 -9.5c15.333 -4.66699 29.5 -11.834 42.5 -21.501
s24.167 -20.834 33.5 -33.501s16.333 -26.834 21 -42.501s6.33398 -32.167 5.00098 -49.5c-1.33301 -28.667 -6.5 -53.334 -15.5 -74.001s-20.833 -37.334 -35.5 -50.001s-31.167 -21.667 -49.5 -27s-37.166 -7 -56.499 -5l174 -258c6 -7.33301 12.5 -13.333 19.5 -18
s15.5 -7 25.5 -7h28zM455.999 327.006c15.333 2.66699 28.6689 8.66504 40.002 17.998s20.666 20.333 27.999 33s12.666 26.334 15.999 41.001s5 29 5 43c0 15.333 -3.16699 31.833 -9.5 49.5s-15.833 33.834 -28.5 48.501c-9.33301 10.667 -20 19.5 -32 26.5
s-25 11.167 -39 12.5h-228v-274h23h46h58c20.667 0 39.667 0.166992 57 0.5s32 0.5 44 0.5s18.667 0.333008 20 1z" />
    <glyph glyph-name="S" unicode="S" horiz-adv-x="633" 
d="M613 136c0 -33.333 -10.8252 -61.334 -32.4922 -84.001s-51.334 -39.834 -89.001 -51.501s-81.5 -17.834 -131.5 -18.501s-103.667 4.33301 -161 15h-105l-8 16v0c-3.33301 7.33301 -8 17 -14 29s-10.667 21.667 -14 29v0c0 0.666992 -1.5 4 -4.5 10l-10 20
c-3.66699 7.33301 -7 14.333 -10 21s-4.83301 10.334 -5.5 11.001l115 -44l19 -40c6 -2.66699 16.167 -6 30.5 -10s31 -7.5 50 -10.5s39.5 -5.5 61.5 -7.5s43.667 -2.33301 65 -1s41.5 4.33301 60.5 9s35.167 12 48.5 22c21.333 16 34.666 32.667 39.999 50
s5.5 33.833 0.5 49.5s-14.333 29.834 -28 42.501s-29.5 22.334 -47.5 29.001c-58.667 24 -111.334 44.167 -158.001 60.5s-86.167 33.333 -118.5 51s-57.333 37.834 -75 60.501s-27.167 52.334 -28.5 89.001c0 14 3.66699 27.333 11 40s17 24.167 29 34.5
s25.833 19.666 41.5 27.999s32.5 15.5 50.5 21.5c39.333 13.333 85.666 20 138.999 20s108.666 -10 165.999 -30h19.5c8.33301 0 15.166 -0.333008 20.499 -1l2 -5h1l12.5 -29c5 -11.333 10.333 -22.833 16 -34.5s11 -23.167 16 -34.5l12.5 -29l-111 41
c-2 4.66699 -4.66699 10.5 -8 17.5l-10 22l-10 22l-8 16.5c-25.333 10 -51 16.833 -77 20.5s-50.833 5 -74.5 4s-45.167 -4.33301 -64.5 -10s-35 -12.5 -47 -20.5c-22 -14 -34.833 -30.167 -38.5 -48.5s-1.83398 -36.666 5.49902 -54.999s19.166 -35.333 35.499 -51
s33.5 -27.5 51.5 -35.5c14 -6.66699 33.833 -15.334 59.5 -26.001l80 -33l79 -33c25 -10.667 44.167 -19.334 57.5 -26.001c38 -18.667 63 -39.5 75 -62.5s18 -46.5 18 -70.5z" />
    <glyph glyph-name="T" unicode="T" horiz-adv-x="652" 
d="M643 468l-114.999 43.999l-42 87h-115v-515c0 -17.333 6 -32.166 18 -44.499s26.667 -18.5 44 -18.5h27v-21h-178v0h-89v21h26c17.333 0 32.166 6.16699 44.499 18.5s18.5 27.166 18.5 44.499v515h-116l-42 -87l-114 -44c2 4 6.5 13.5 13.5 28.5l23 49l23.5 48.5l13 26h3
h196v0h89v0h195h4l12.5 -26l23 -48.5l23.5 -49.5c7.33301 -15.333 12 -24.666 14 -27.999z" />
    <glyph glyph-name="U" unicode="U" horiz-adv-x="743" 
d="M720 620l-0.000976562 -21h-31c-17.333 0 -32.166 -6.16699 -44.499 -18.5s-18.5 -27.166 -18.5 -44.499v-304c0 -30 -3.66699 -59.5 -11 -88.5s-19.833 -54.667 -37.5 -77s-40.667 -40.333 -69 -54s-63.5 -20.5 -105.5 -20.5
c-88.667 -1.33301 -155.834 17.667 -201.501 57s-67.167 100.333 -64.5 183v304c0 17.333 -6 32.166 -18 44.499s-26.667 18.5 -44 18.5h-27v21h267v-21h-27c-17.333 0 -32 -6.16699 -44 -18.5s-18 -27.166 -18 -44.499v-308c0 -19.333 2 -40 6 -62s11 -43 21 -63
s23.333 -37.833 40 -53.5s38 -26.834 64 -33.501v0v0c4.66699 -1.33301 9.16699 -2.33301 13.5 -3l12.5 -2h4c34.667 -4 65.667 -0.833008 93 9.5s50.333 25.5 69 45.5s32.834 44.333 42.501 73s14.167 59.667 13.5 93v306c-0.666992 17.333 -7 31.833 -19 43.5
s-26.667 17.5 -44 17.5h-41v21h219z" />
    <glyph glyph-name="V" unicode="V" horiz-adv-x="800" 
d="M696 620h-41v0h41zM790 620v-21.001h-75c-11.333 -0.666992 -21.666 -4.16699 -30.999 -10.5s-16.666 -14.166 -21.999 -23.499l-9.5 -24.5l-24.5 -64l-34 -90.5l-39 -103.5l-39.5 -103.5l-34.5 -90.5l-24 -64l-9 -24.5h-99l-223 569
c-5.33301 8.66699 -12.333 15.667 -21 21s-18.334 8.33301 -29.001 9h-66v21h326v-21h-84c-8.66699 0 -15.667 -3.33301 -21 -10s-7 -14 -5 -22l206 -527l197 519l1 2v0c4 8 3.66699 16 -1 24s-11.334 12.667 -20.001 14h-90v21h271z" />
    <glyph glyph-name="W" unicode="W" horiz-adv-x="1256" 
d="M1241 620l0.00195312 -21.001h-75c-11.333 -0.666992 -21.666 -4.16699 -30.999 -10.5s-16.666 -14.166 -21.999 -23.499l-9.5 -24.5l-24.5 -64l-34 -90.5l-39.5 -103.5l-39.5 -103.5l-34 -90.5l-24.5 -64l-9.5 -24.5h-98l-178 453l-172 -453h-98l-225 574
c-1.33301 1.33301 -2.33301 2.83301 -3 4.5s-1.33398 3.16699 -2.00098 4.5c-4.66699 10.667 -12.334 16 -23.001 16h-87v21h326v-21h-83c-8.66699 0 -15.667 -3.33301 -21 -10s-7.33301 -14 -6 -22l206 -527l173 453l-20 50.5c-6.66699 17 -12.334 30.833 -17.001 41.5
c-4.66699 9.33301 -12.334 14 -23.001 14h-87v21h198v0h40v0h89v-21h-84c-8.66699 0 -15.667 -3.33301 -21 -10s-7 -14 -5 -22l206 -527l197 519c4.66699 8 4.66699 16.333 0 25s-11.667 13.667 -21 15h-89v21h136v0h41v0h94z" />
    <glyph glyph-name="X" unicode="X" horiz-adv-x="771" 
d="M763 21v-20.999h-340v21h83c8.66699 0 15.667 3.5 21 10.5s7 14.833 5 23.5l-171 235l-190 -218c-3.33301 -3.33301 -5.83301 -7.33301 -7.5 -12s-2.5 -8.66699 -2.5 -12c0 -7.33301 2.66699 -13.666 8 -18.999s11.666 -8 18.999 -8h108v-21h-286v21h19h22
c7.33301 0 14.5 0.666992 21.5 2s12.833 3.66602 17.5 6.99902l251 287l-187 258c-6 7.33301 -13.5 13.333 -22.5 18s-18.5 7 -28.5 7h-65v21h83v0h103v0h89v-21h-26c-8 0 -14.667 -3.16699 -20 -9.5s-7.33301 -13.166 -6 -20.499l144 -199l164 186
c3.33301 4.66699 5 10 5 16c0 7.33301 -2.66699 13.666 -8 18.999s-11.666 8 -18.999 8h-73v21h274v-21c-5.33301 -0.666992 -13 -0.833984 -23 -0.500977s-20.167 0.5 -30.5 0.5s-20.333 -0.5 -30 -1.5s-16.5 -2.83301 -20.5 -5.5v0
c-2.66699 -1.33301 -5.16699 -2.83301 -7.5 -4.5s-4.5 -3.5 -6.5 -5.5v0l-15.5 -17.5l-38.5 -43.5l-50 -56.5l-50 -56.5l-38.5 -43.5l-15.5 -17.5l220 -302c6 -7.33301 13.5 -13.333 22.5 -18s18.5 -7 28.5 -7h70z" />
    <glyph glyph-name="Y" unicode="Y" horiz-adv-x="750" 
d="M738 620l0.000976562 -21h-69c-20 0 -36.333 -8 -49 -24l-30 -41.5l-30 -41.5v0l-33 -46l-36.5 -51l-36.5 -51l-32 -45v-215c0 -17.333 6 -32.166 18 -44.499s26.667 -18.5 44 -18.5h27v-21h-267v21h27c17.333 0 32 6.16699 44 18.5s18 27.166 18 44.499v201l-210 289
c-10 14 -22.167 21.833 -36.5 23.5s-29.5 2.16699 -45.5 1.5v21h245v-21h-25c-10 0.666992 -17.833 -3.5 -23.5 -12.5s-5.83398 -17.833 -0.500977 -26.5v0l170 -234c9.33301 12 20.166 26.833 32.499 44.5l38.5 54.5l39 54.5l32 45.5l24 32c3.33301 4 4.83301 8.5 4.5 13.5
s-1.66602 9.66699 -3.99902 14s-5.5 7.83301 -9.5 10.5s-8.66699 4 -14 4h-55v21h243z" />
    <glyph glyph-name="Z" unicode="Z" horiz-adv-x="614" 
d="M589 157l6 0.00195312v-155h-1l1 -3v0h-574l14 21l443 578h-237c-58.667 -1.33301 -105.167 -14 -139.5 -38s-58.5 -56.667 -72.5 -98h-6v158h572l-14 -22l-442 -578h239v0c58 -0.666992 104.167 11.666 138.5 36.999s58.5 58.666 72.5 99.999z" />
    <glyph glyph-name="bracketleft" unicode="[" horiz-adv-x="252" 
d="M130 92c0 -20 7.16699 -37 21.5 -51s31.166 -21 50.499 -21h31v-25h-103v0h-102v713h102h77v-25h-23c-15.333 0 -28.166 -5.16699 -38.499 -15.5s-15.5 -22.833 -15.5 -37.5v-538z" />
    <glyph glyph-name="backslash" unicode="\" horiz-adv-x="256" 
d="M225 -200l-215 900h21l215 -900h-21z" />
    <glyph glyph-name="bracketright" unicode="]" horiz-adv-x="244" 
d="M123 708l101.999 0.00195312v-713h-102v0h-102v24h30c20 0 37 7.16699 51 21.5s21 31.166 21 50.499v538c0 15.333 -5.16699 28.166 -15.5 38.499s-23.166 15.5 -38.499 15.5h-23v25h77z" />
    <glyph glyph-name="asciicircum" unicode="^" horiz-adv-x="346" 
d="M174 702l144 -156v-119l-144 154l-144 -154v119z" />
    <glyph glyph-name="underscore" unicode="_" horiz-adv-x="463" 
d="M30 -60h403v-20h-403v20z" />
    <glyph glyph-name="a" unicode="a" horiz-adv-x="652" 
d="M616 21l-0.00390625 -21.0029h-164v59v0c-11.333 -10 -24.5 -19.833 -39.5 -29.5s-31.667 -18 -50 -25s-38.5 -12.167 -60.5 -15.5s-45.667 -4 -71 -2c-31.333 2.66699 -58 8.66699 -80 18s-39.833 20.666 -53.5 33.999s-23.5 28.166 -29.5 44.499s-9 32.833 -9 49.5
c0 44.667 15.5 79.334 46.5 104.001s79.833 37 146.5 37h15h37.5h48h48h37h14.5c-3.33301 42 -12.666 74.5 -27.999 97.5s-32.666 39.667 -51.999 50s-38.5 15.833 -57.5 16.5s-33.833 -0.666016 -44.5 -3.99902c-19.333 -4.66699 -35.166 -11.167 -47.499 -19.5
s-22 -17.5 -29 -27.5s-11.5 -20.333 -13.5 -31s-2.66699 -20.667 -2 -30h-81c12 37.333 32.667 66.833 62 88.5s61.833 36.334 97.5 44.001s71.167 9 106.5 4s65 -15.5 89 -31.5c14 -7.33301 27.833 -19.833 41.5 -37.5s23.834 -35.167 30.501 -52.5v-1v0v-1h1v0l3 -9v0
c3.33301 -11.333 6.16602 -24.166 8.49902 -38.499s3.5 -28.166 3.5 -41.499c0 -0.666992 0.166992 -5 0.5 -13s0.5 -18 0.5 -30v-39v-39v-31.5v-15.5c0.666992 -17.333 6.83398 -31.833 18.501 -43.5s26.167 -17.5 43.5 -17.5h13zM451.996 154.997l-0.00195312 98.002
l-7.5 -0.5c-5 -0.333008 -11.833 -0.5 -20.5 -0.5h-28.5h-32.5c-26.667 0 -56.667 0.333008 -90 1c-22 0 -41.833 -2.83301 -59.5 -8.5s-32.167 -13.834 -43.5 -24.501s-19.166 -23.834 -23.499 -39.501s-4.16602 -33.5 0.500977 -53.5c10 -36.667 25.667 -64 47 -82
s46 -27.333 74 -28s58 6.5 90 21.5s63.333 36.5 94 64.5v52zM459.994 26.999v13v1v-14zM531.994 321.999v0v0zM532.994 319.999v0v0zM531.994 321.999v0v0zM532.994 319.999v0v0zM532.994 319.999v0v0z" />
    <glyph glyph-name="b" unicode="b" horiz-adv-x="634" 
d="M606 227c1.33301 -46 -5.66797 -85.1621 -21.001 -117.495s-35.333 -58 -60 -77s-52.5 -31.833 -83.5 -38.5s-61.833 -7.33398 -92.5 -2.00098s-59.5 16.666 -86.5 33.999s-48.833 40.333 -65.5 69v-95h-89v437v0v99c0 17.333 -6 32.166 -18 44.499
s-26.667 18.5 -44 18.5h-27v21h178v-235c32 31.333 70 54.166 114 68.499s88.333 15.833 133 4.5c19.333 -4.66699 38.5 -12.334 57.5 -23.001s36.333 -25.167 52 -43.5s28.334 -41 38.001 -68s14.5 -59.167 14.5 -96.5zM417.999 43.0049
c29.333 12 51.333 29.8311 66 53.498s24.334 48.834 29.001 75.501s5.83398 52.667 3.50098 78s-5.83301 45.333 -10.5 60c-6 18.667 -14.833 36 -26.5 52s-25.5 29.5 -41.5 40.5s-33.5 18.833 -52.5 23.5s-39.167 4.66699 -60.5 0
c-14 -2.66699 -27.833 -7.16699 -41.5 -13.5s-26.334 -13.333 -38.001 -21s-21.834 -15.667 -30.501 -24s-14.667 -16.166 -18 -23.499v-205c10 -18.667 23.833 -35.5 41.5 -50.5s36.667 -27 57 -36s41.333 -14.667 63 -17s41.5 0.166992 59.5 7.5z" />
    <glyph glyph-name="c" unicode="c" horiz-adv-x="498" 
d="M258 456c-1.33301 0 -4 -0.666992 -8 -2c4 1.33301 6.66699 2 8 2zM258 456c-1.33301 0 -4 -0.666992 -8 -2c4 1.33301 6.66699 2 8 2zM483 136c-12.667 -44 -37.668 -79.665 -75.001 -106.998s-84.333 -41 -141 -41c-35.333 0 -67.5 6.16699 -96.5 18.5
s-54 29.333 -75 51s-37.167 46.834 -48.5 75.501s-17 59.334 -17 92.001c-0.666992 48 9 89.333 29 124s47 61.5 81 80.5s72.833 30 116.5 33s88.5 -3.16699 134.5 -18.5h37c3.33301 -6.66699 7.16602 -14.834 11.499 -24.501l13.5 -30l13.5 -30l11.5 -25.5l-86 35
c-0.666992 2.66699 -1.5 5.5 -2.5 8.5s-2.16699 5.83301 -3.5 8.5c-8.66699 19.333 -23.334 34.166 -44.001 44.499s-42 15.5 -64 15.5c-24.667 0 -46.667 -5.33301 -66 -16s-35.666 -24.667 -48.999 -42s-23.5 -37 -30.5 -59s-10.5 -44 -10.5 -66
c0 -46.667 4.5 -85.334 13.5 -116.001s23.167 -55.334 42.5 -74.001c24.667 -24.667 51.334 -40 80.001 -46s56.334 -5.16699 83.001 2.5s51.167 21.167 73.5 40.5s39.5 41.333 51.5 66h17zM257.999 456.002c-1.33301 0 -4 -0.666992 -8 -2c4 1.33301 6.66699 2 8 2z
M257.999 456.002c-1.33301 0 -4 -0.666992 -8 -2c4 1.33301 6.66699 2 8 2z" />
    <glyph glyph-name="d" unicode="d" horiz-adv-x="634" 
d="M617 21l0.00195312 -21.002h-178v63c-19.333 -24 -42.833 -42 -70.5 -54s-56.334 -18.667 -86.001 -20s-59.5 2.66699 -89.5 12s-56.833 24 -80.5 44s-43.334 44.833 -59.001 74.5s-24.167 63.834 -25.5 102.501c0.666992 44 8.33398 81.5 23.001 112.5
s33.834 56.167 57.501 75.5s50.167 33.333 79.5 42s59.166 12.334 89.499 11.001s59.666 -7 87.999 -17s52.833 -24.333 73.5 -43v133c0 17.333 -6.16699 32.166 -18.5 44.499s-27.166 18.5 -44.499 18.5h-26v21h177v-536c0 -17.333 6.16699 -32.166 18.5 -44.499
s27.166 -18.5 44.499 -18.5h27zM439.002 353.998c-20.667 25.333 -43.668 44.334 -69.001 57.001s-50.5 20.167 -75.5 22.5s-49 -0.666992 -72 -9s-43 -21 -60 -38s-29.667 -38.5 -38 -64.5s-10.5 -55.333 -6.5 -88c7.33301 -44.667 23.5 -81.834 48.5 -111.501
s53.833 -50.5 86.5 -62.5s65.834 -14.333 99.501 -7s62.5 26 86.5 56v245z" />
    <glyph glyph-name="e" unicode="e" horiz-adv-x="559" 
d="M336 39c35.333 2 64.333 10.501 87 25.501s43.334 38.5 62.001 70.5h18c-6 -22 -15.333 -42.167 -28 -60.5s-28.167 -34.333 -46.5 -48s-39.666 -24.334 -63.999 -32.001s-51.5 -11.5 -81.5 -11.5c-52.667 0 -97.334 11.833 -134.001 35.5s-64.667 53.167 -84 88.5
s-29.5 73.833 -30.5 115.5s7.33301 80.167 25 115.5s45.167 64.833 82.5 88.5s84.666 35.5 141.999 35.5c45.333 0 83.333 -7.5 114 -22.5s55.5 -33.667 74.5 -56s32.5 -46.333 40.5 -72s12 -49.167 12 -70.5v0l-395 2c14.667 -64.667 40 -115.5 76 -152.5
s79.333 -54.167 130 -51.5zM211 424.001c-17.333 -6 -32.167 -14.6709 -44.5 -26.0039s-22 -24.166 -29 -38.499s-11.5 -30 -13.5 -47s-1 -34.167 3 -51.5l300 1c-6.66699 27.333 -16.667 52.833 -30 76.5s-29.333 43.334 -48 59.001s-39.667 26.334 -63 32.001
s-48.333 3.83398 -75 -5.49902z" />
    <glyph glyph-name="f" unicode="f" horiz-adv-x="381" 
d="M196 438l144 -0.00292969v-21h-144v-333c0 -17.333 6 -32.166 18 -44.499s26.667 -18.5 44 -18.5h27v-21h-267v21h27c17.333 0 32 6.16699 44 18.5s18 27.166 18 44.499v333h-89v22h89c0.666992 18.667 0.666992 38.5 0 59.5s-0.666992 41.833 0 62.5
s2.83398 40.667 6.50098 60s10.167 36.333 19.5 51s22.166 26.334 38.499 35.001s37.833 13 64.5 13v0c24 2.66699 48 -4.66602 72 -21.999s47 -49.666 69 -96.999l-80 -40l-72 134c-10.667 -6.66699 -18 -18.667 -22 -36s-6.33301 -34.333 -7 -51v-170z" />
    <glyph glyph-name="g" unicode="g" horiz-adv-x="638" 
d="M616 437l-0.00292969 -21.0049h-6c-17.333 0 -32.666 -6.16699 -45.999 -18.5s-20 -27.166 -20 -44.499l1 -188v-189c-1.33301 -26.667 -5.66602 -51.334 -12.999 -74.001c-0.666992 -1.33301 -1 -2.66602 -1 -3.99902l-2 -6
c-7.33301 -18.667 -17.666 -36.667 -30.999 -54s-27 -29.666 -41 -36.999c-16 -10.667 -36.333 -18.834 -61 -24.501s-50.834 -8.66699 -78.501 -9s-55.5 2.16699 -83.5 7.5s-53.333 13.666 -76 24.999s-41.5 25.833 -56.5 43.5s-23.5 38.834 -25.5 63.501h91
c2 -9.33301 5.33301 -19 10 -29s11 -19.5 19 -28.5s17.667 -17.167 29 -24.5s24.333 -13 39 -17c11.333 -2.66699 25.833 -4.66699 43.5 -6s35.834 0.333984 54.501 5.00098s36 13.5 52 26.5s27.667 32.5 35 58.5c4.66699 16 7.16699 32.5 7.5 49.5s0.5 33.167 0.5 48.5v74
c-19.333 -24 -42.833 -42.167 -70.5 -54.5s-56.5 -19.166 -86.5 -20.499s-59.833 2.66699 -89.5 12s-56.5 23.833 -80.5 43.5s-43.833 44.334 -59.5 74.001s-24.167 64.167 -25.5 103.5c0.666992 44 8.33398 81.5 23.001 112.5s33.834 56.167 57.501 75.5
s50.167 33.333 79.5 42s59.166 12.334 89.499 11.001s59.666 -7 87.999 -17s52.833 -24.333 73.5 -43v34h160zM455.997 353.995c-20.667 25.333 -43.666 44.333 -68.999 57s-50.5 20.167 -75.5 22.5s-49 -0.666992 -72 -9s-43 -21 -60 -38s-29.667 -38.5 -38 -64.5
s-10.5 -55.333 -6.5 -88c7.33301 -44.667 22.833 -82.5 46.5 -113.5s51.167 -52.833 82.5 -65.5s64.166 -15 98.499 -7s65.5 28.333 93.5 61v245z" />
    <glyph glyph-name="h" unicode="h" horiz-adv-x="691" 
d="M672 21l0.00390625 -20.999h-267v21h27c17.333 0 32.166 6.16699 44.499 18.5s18.5 27.166 18.5 44.499v159c2 40.667 -2.16699 73.667 -12.5 99s-24.333 44.666 -42 57.999s-37.834 21 -60.501 23s-45.334 -0.166992 -68.001 -6.5s-44.167 -16.333 -64.5 -30
s-36.833 -29.5 -49.5 -47.5v-255c0 -17.333 6.16699 -32.166 18.5 -44.499s27.166 -18.5 44.499 -18.5h27v-21h-267v21h26c17.333 0 32.166 6.16699 44.499 18.5s18.5 27.166 18.5 44.499v452c0 17.333 -6.16699 32.166 -18.5 44.499s-27.166 18.5 -44.499 18.5h-26v21h177
v-233c26.667 20.667 53.167 36.5 79.5 47.5s52 17.833 77 20.5s49.333 1.83398 73 -2.49902s46.167 -11.833 67.5 -22.5c10.667 -6 21.334 -13.833 32.001 -23.5s20.167 -22 28.5 -37s15 -33 20 -54s7.5 -46.167 7.5 -75.5v-156c0 -17.333 6.16699 -32.166 18.5 -44.499
s27.166 -18.5 44.499 -18.5h26z" />
    <glyph glyph-name="i" unicode="i" horiz-adv-x="342" 
d="M232 592c0 -13.333 -4.33301 -25.333 -13 -36s-22 -16 -40 -16s-31.5 5.33301 -40.5 16s-13.5 22.667 -13.5 36s4.5 25.333 13.5 36s22.5 16 40.5 16s31.333 -5.33301 40 -16s13 -22.667 13 -36zM316 21l0.000976562 -20.999h-268v21h27
c17.333 0 32.166 6.16699 44.499 18.5s18.5 27.166 18.5 44.499v269c0 17.333 -6.16699 32.166 -18.5 44.499s-27.166 18.5 -44.499 18.5h-13v21h164v-353c0 -17.333 6.16699 -32.166 18.5 -44.499s27.166 -18.5 44.499 -18.5h27z" />
    <glyph glyph-name="j" unicode="j" horiz-adv-x="233" 
d="M198 570c0 -13.333 -4.5 -25.333 -13.5 -36s-22.5 -16 -40.5 -16s-31.5 5.5 -40.5 16.5s-13.5 23 -13.5 36s4.5 25 13.5 36s22.5 16.5 40.5 16.5s31.5 -5.5 40.5 -16.5s13.5 -23.167 13.5 -36.5zM189 437l-0.00292969 -33.5v-67.5v-89.5c0 -33 0.166992 -66.667 0.5 -101
s0.333008 -67.666 0 -99.999s-0.666016 -61.333 -0.999023 -87s-0.833008 -46.667 -1.5 -63s-1.66699 -25.5 -3 -27.5c-6.66699 -35.333 -21.167 -61 -43.5 -77s-49.166 -23.667 -80.499 -23v0c-11.333 -1.33301 -23 -0.333008 -35 3s-24 9.66602 -36 18.999
s-23.833 22 -35.5 38s-22.5 35.667 -32.5 59l79 40l71 -134c10.667 6.66699 18 18.667 22 36s6.66699 34.333 8 51v473c0 17.333 -6.16699 32 -18.5 44s-27.166 18 -44.499 18h-27v22h178z" />
    <glyph glyph-name="k" unicode="k" horiz-adv-x="765" 
d="M753 21l0.00195312 -20.999h-346v21h84c7.33301 0 13.666 2.66699 18.999 8s8 11.666 8 18.999c0 6.66699 -2.33301 13 -7 19l-187 187l-5 4c-4 -2.66699 -11.833 -8.16699 -23.5 -16.5l-37 -26.5l-37 -26.5l-24.5 -17.5v-87c0 -17.333 6 -32.166 18 -44.499
s26.667 -18.5 44 -18.5h27v-21h-267v21h27c17.333 0 32 6.16699 44 18.5s18 27.166 18 44.499v452c0 17.333 -6 32.166 -18 44.499s-26.667 18.5 -44 18.5h-27v21h178v-423l119.5 85.5l118.5 85.5h1v0c4.66699 4 7.66699 8.83301 9 14.5s1 11 -1 16
s-5.16699 9.16699 -9.5 12.5s-9.5 5 -15.5 5h-64v21h360v-21h-156c-12.667 0 -24.334 -3.66699 -35.001 -11c-2.66699 -2 -10.667 -7.66699 -24 -17l-43 -30.5l-42.5 -30.5c-13 -9.33301 -20.5 -14.666 -22.5 -15.999l4 -5l270 -269c12 -10.667 25.667 -16 41 -16h46z" />
    <glyph glyph-name="l" unicode="l" horiz-adv-x="361" 
d="M319 21l0.000976562 -20.999h-267v21h27c17.333 0 32 6.16699 44 18.5s18 27.166 18 44.499v452c0 17.333 -6 32.166 -18 44.499s-26.667 18.5 -44 18.5h-27v21h178v-536c0 -17.333 6.16699 -32.166 18.5 -44.499s27.166 -18.5 44.499 -18.5h26z" />
    <glyph glyph-name="m" unicode="m" horiz-adv-x="1086" 
d="M1068 21l0.00390625 -20.9961h-267v21h27c17.333 0 32 6.16699 44 18.5s18 27.166 18 44.499v177c0.666992 41.333 -5.83301 74.166 -19.5 98.499s-31 41.666 -52 51.999s-44.167 14.5 -69.5 12.5s-49.666 -8.33301 -72.999 -19s-44 -24.834 -62 -42.501
s-30.333 -37.167 -37 -58.5v0v-1c1.33301 -5.33301 2.16602 -10.333 2.49902 -15s0.833008 -9.66699 1.5 -15c0 -2.66699 0.166992 -5 0.5 -7s0.5 -4.33301 0.5 -7v-13.5v-31.5v-40.5v-40.5v-32.5v-16.5c0 -17.333 6.16699 -32.166 18.5 -44.499s27.166 -18.5 44.499 -18.5
h27v-21h-267v21h26c17.333 0 32.166 6.16699 44.499 18.5s18.5 27.166 18.5 44.499v159c2 40.667 -2.16699 73.667 -12.5 99s-24.333 44.666 -42 57.999s-37.834 21 -60.501 23s-45.334 -0.166992 -68.001 -6.5s-44 -16.333 -64 -30s-36.333 -29.5 -49 -47.5v-255
c0 -17.333 6 -32.166 18 -44.499s26.667 -18.5 44 -18.5h27v-21h-267v21h27c17.333 0 32 6.16699 44 18.5s18 27.166 18 44.499v269c0 17.333 -6 32.166 -18 44.499s-26.667 18.5 -44 18.5h-27v21h178v-50v0c27.333 22 56.5 38.833 87.5 50.5s61.5 18 91.5 19
s58.333 -3.16699 85 -12.5s50 -23.666 70 -42.999c12.667 -14 22.667 -29.667 30 -47c16.667 22 37.334 40.333 62.001 55s50 25.834 76 33.501s51 12.167 75 13.5s43.667 -0.666992 59 -6c21.333 -5.33301 40.666 -12.5 57.999 -21.5s32.333 -21.333 45 -37
s22.667 -35.834 30 -60.501s11.333 -55 12 -91v-156c0 -17.333 6 -32.166 18 -44.499s26.667 -18.5 44 -18.5h27z" />
    <glyph glyph-name="n" unicode="n" horiz-adv-x="683" 
d="M672 21l0.00292969 -20.999h-267v21h26c17.333 0 32.166 6.16699 44.499 18.5s18.5 27.166 18.5 44.499v159c2 40.667 -2.16699 73.667 -12.5 99s-24.333 44.666 -42 57.999s-37.834 21 -60.501 23s-45.334 -0.166992 -68.001 -6.5s-44 -16.333 -64 -30
s-36.333 -29.5 -49 -47.5v-255c0 -17.333 6 -32.166 18 -44.499s26.667 -18.5 44 -18.5h27v-21h-267v21h27c17.333 0 32 6.16699 44 18.5s18 27.166 18 44.499v269c0 17.333 -6 32.166 -18 44.499s-26.667 18.5 -44 18.5h-27v21h178v-50c26 20.667 52.167 36.5 78.5 47.5
s52 17.833 77 20.5s49.333 1.83398 73 -2.49902s46.167 -11.833 67.5 -22.5c10.667 -6 21.334 -13.833 32.001 -23.5s20.167 -22 28.5 -37s15 -33 20 -54s7.5 -46.167 7.5 -75.5v-156c0 -17.333 6.16699 -32.166 18.5 -44.499s27.166 -18.5 44.499 -18.5h27z" />
    <glyph glyph-name="o" unicode="o" horiz-adv-x="605" 
d="M291 459c44 0 81.834 -7.16504 113.501 -21.498s57.834 -32.833 78.501 -55.5s35.834 -48 45.501 -76s14.5 -55.667 14.5 -83c-0.666992 -40 -8.16699 -74.667 -22.5 -104s-33.333 -53.833 -57 -73.5s-50.334 -34.334 -80.001 -44.001s-60.167 -14.334 -91.5 -14.001
s-62 5.5 -92 15.5s-56.833 24.833 -80.5 44.5s-42.834 44.167 -57.501 73.5s-22.334 63.333 -23.001 102c0 25.333 5 52 15 80s25.167 53.5 45.5 76.5s46.333 42 78 57s69.5 22.5 113.5 22.5zM377.001 32.002c30 10.667 51.833 25.667 65.5 45s21.834 40.5 24.501 63.5
s1.16699 46.333 -4.5 70s-12.834 45.167 -21.501 64.5s-20.167 39.5 -34.5 60.5s-31.333 39 -51 54s-42 25.5 -67 31.5s-52.5 3.66699 -82.5 -7s-51.833 -25.667 -65.5 -45s-21.834 -40.5 -24.501 -63.5s-1.16699 -46.333 4.5 -70s12.834 -45.167 21.501 -64.5
s20.167 -39.333 34.5 -60s31.333 -38.667 51 -54s42 -26 67 -32s52.5 -3.66699 82.5 7z" />
    <glyph glyph-name="p" unicode="p" horiz-adv-x="638" 
d="M444 458c19.333 -4.66699 38.499 -12.334 57.499 -23.001s36.333 -25.167 52 -43.5s28.334 -41 38.001 -68s14.5 -59.167 14.5 -96.5c1.33301 -46 -5.66699 -85.167 -21 -117.5s-35.333 -58.166 -60 -77.499s-52.667 -32.166 -84 -38.499s-62.333 -6.83301 -93 -1.5
s-59.5 16.666 -86.5 33.999s-48.833 40.333 -65.5 69v-195c0 -17.333 6.16699 -32 18.5 -44s27.166 -18 44.499 -18h27v-21h-267v21h26c17.333 0 32.166 6 44.499 18s18.5 26.667 18.5 44v453c0 17.333 -6.16699 32 -18.5 44s-27.166 18 -44.499 18h-26v22h177v-53
c32.667 32 70.834 55 114.501 69s88.167 15.667 133.5 5zM425.999 40c29.333 10 50.667 27 64 51s22 49.667 26 77s4.5 54 1.5 80s-6.83301 46.333 -11.5 61c-6 18.667 -14.833 36.167 -26.5 52.5s-25.5 30 -41.5 41s-33.5 18.833 -52.5 23.5s-39.167 4.66699 -60.5 0
c-14 -2.66699 -27.833 -7.33398 -41.5 -14.001s-26.5 -14 -38.5 -22s-22.333 -16.167 -31 -24.5s-14.667 -16.166 -18 -23.499v-203c10 -18.667 24.167 -35.5 42.5 -50.5s38.5 -27.167 60.5 -36.5s44.167 -15.333 66.5 -18s42.5 -0.666992 60.5 6z" />
    <glyph glyph-name="q" unicode="q" horiz-adv-x="631" 
d="M591 416c-17.333 0 -32.1602 -6.1709 -44.4932 -18.5039s-18.5 -27.166 -18.5 -44.499v-452c0 -17.333 6.16699 -32.166 18.5 -44.499s27.166 -18.5 44.499 -18.5h26v-21h-267v21h27c17.333 0 32.166 6.16699 44.499 18.5s18.5 27.166 18.5 44.499v161
c-19.333 -24 -42.833 -42 -70.5 -54s-56.334 -18.667 -86.001 -20s-59.5 2.83398 -89.5 12.501s-56.833 24.334 -80.5 44.001s-43.334 44.5 -59.001 74.5s-24.167 64.333 -25.5 103c0.666992 44 8.33398 81.333 23.001 112s33.667 55.834 57 75.501s49.666 33.667 78.999 42
s59.166 12 89.499 11s59.666 -6.66699 87.999 -17s53.166 -24.5 74.499 -42.5v34h177v-21h-26zM440.006 353.996c-59.333 64 -123.333 90.0049 -192 78.0049c-38.667 -10 -68.5 -26.833 -89.5 -50.5s-34.667 -50.334 -41 -80.001s-6 -60.334 1 -92.001
s19.667 -60.334 38 -86.001s41.5 -46.334 69.5 -62.001s59.333 -22.5 94 -20.5c23.333 1.33301 45.833 8.66602 67.5 21.999s39.167 28.333 52.5 45v246z" />
    <glyph glyph-name="r" unicode="r" horiz-adv-x="610" 
d="M435 453c28 -6.66699 50.499 -20.002 67.499 -40.002s32.833 -49.667 47.5 -89h-85c-7.33301 16 -14.5 30.667 -21.5 44s-15.167 24.333 -24.5 33s-20.333 14.834 -33 18.501s-28 4.16699 -46 1.5c-14 -2 -28 -6.16699 -42 -12.5s-26.833 -13.5 -38.5 -21.5
s-21.667 -16.333 -30 -25s-14.166 -16.667 -17.499 -24v-254c0 -17.333 6 -32.166 18 -44.499s26.667 -18.5 44 -18.5h27v-21h-267v21h27c17.333 0 31.833 5.83301 43.5 17.5s17.834 26.167 18.501 43.5v282c-0.666992 17.333 -6.83398 31.833 -18.501 43.5
s-26.167 17.5 -43.5 17.5h-27v21h89v0h89v-67c32 32 65.833 55.167 101.5 69.5s76.167 15.833 121.5 4.5z" />
    <glyph glyph-name="s" unicode="s" horiz-adv-x="572" 
d="M429 211c29.333 -14 48.8301 -31.499 58.4971 -52.499s14.5 -40.5 14.5 -58.5c0 -24 -11.667 -44.667 -35 -62s-52.5 -30.5 -87.5 -39.5s-72.5 -13.5 -112.5 -13.5s-76.667 5.33301 -110 16h-67l-26.5 53.5l-26.5 53.5l95 -33l6 -12
c12.667 -8.66699 30.5 -16.667 53.5 -24s47.167 -12.666 72.5 -15.999s49.833 -4 73.5 -2s42.834 8.33301 57.501 19c16.667 12 27.167 23.833 31.5 35.5s4.5 22.5 0.5 32.5s-11.333 19.167 -22 27.5s-23 14.833 -37 19.5c-47.333 18 -89.166 32.167 -125.499 42.5
s-67 21.166 -92 32.499s-44.333 25.333 -58 42s-21.5 40.334 -23.5 71.001c0.666992 21.333 11.167 40.166 31.5 56.499s44.5 29.166 72.5 38.499c29.333 9.33301 63.666 14.5 102.999 15.5s80.333 -5.16699 123 -18.5h43l21 -44l16 -35c5.33301 -12 9.66602 -21 12.999 -27
l-88 31c-2.66699 6 -4.16699 9.66699 -4.5 11s-2.16602 4.66602 -5.49902 9.99902c-20 14.667 -41.167 25.5 -63.5 32.5s-43.833 11.333 -64.5 13s-39.5 0.833984 -56.5 -2.49902s-30.167 -8 -39.5 -14c-17.333 -10.667 -27.666 -22.167 -30.999 -34.5s-2 -24.5 4 -36.5
s15.333 -23.167 28 -33.5s26 -18.5 40 -24.5c11.333 -4.66699 27 -10.167 47 -16.5s41 -12.5 63 -18.5s42.833 -12 62.5 -18s34.834 -11.667 45.501 -17z" />
    <glyph glyph-name="t" unicode="t" horiz-adv-x="403" 
d="M352 58c-6.66699 -16 -16.332 -29.4971 -28.999 -40.4971s-26.5 -19.333 -41.5 -25s-30.5 -8.33398 -46.5 -8.00098s-31 3.5 -45 9.5c-12 5.33301 -23.333 12.5 -34 21.5s-20.334 19.667 -29.001 32s-15.5 26.5 -20.5 42.5s-7.5 33.333 -7.5 52v268h-89v22h89v181h89
v-181h144v-22h-144v-232c0 -40 4.83301 -71.667 14.5 -95s21.667 -39.333 36 -48s30 -10.834 47 -6.50098s32.833 14.166 47.5 29.499h19z" />
    <glyph glyph-name="u" unicode="u" horiz-adv-x="713" 
d="M581 437l0.00195312 -352.998c0 -17.333 6.16699 -32.166 18.5 -44.499s27.166 -18.5 44.499 -18.5h27v-21h-178v50c-26.667 -20.667 -53 -36.334 -79 -47.001s-51.5 -17.5 -76.5 -20.5s-49.333 -2.16699 -73 2.5s-46.167 12 -67.5 22
c-10.667 6 -21.334 13.833 -32.001 23.5s-20.334 22 -29.001 37s-15.5 33.167 -20.5 54.5s-7.5 46.333 -7.5 75v156c0 17.333 -5.83301 32.166 -17.5 44.499s-26.167 18.5 -43.5 18.5h-21v21h262v-21h-29c-17.333 0 -31.833 -5.83301 -43.5 -17.5
s-17.834 -26.167 -18.501 -43.5v-160c-0.666992 -36.667 4.33301 -67.167 15 -91.5s24.834 -43.333 42.501 -57s37.667 -22.167 60 -25.5s44.666 -2.5 66.999 2.5s43.333 14 63 27s35.834 29.167 48.501 48.5v254c0 17.333 -6.16699 32.166 -18.5 44.499
s-27.166 18.5 -44.499 18.5h-29v21h180z" />
    <glyph glyph-name="v" unicode="v" horiz-adv-x="685" 
d="M674 437l-0.000976562 -20.999h-52c-11.333 0 -21.666 -2.66699 -30.999 -8s-16.666 -12.333 -21.999 -21l-22 -43l-36.5 -70.5l-43.5 -84l-44 -83.5l-37 -68c-10.667 -19.333 -18.334 -32 -23.001 -38h-52l-209 389c-6 8 -12.5 14 -19.5 18s-14.333 6.66699 -22 8
s-15.834 1.83301 -24.501 1.5s-17.334 -0.5 -26.001 -0.5v21h271v-21h-45c-9.33301 0.666992 -16.666 -3 -21.999 -11s-6.33301 -16.333 -3 -25l164 -311l162 306c2.66699 3.33301 4 8 4 14c0 7.33301 -2.66699 13.666 -8 18.999s-11.666 8 -18.999 8h-43v21h203z" />
    <glyph glyph-name="w" unicode="w" horiz-adv-x="1074" 
d="M1064 434l-0.000976562 -21h-52c-11.333 0 -21.666 -2.66699 -30.999 -8s-16.666 -12.666 -21.999 -21.999l-22 -42.5l-36.5 -70.5l-43.5 -84l-44 -83l-37 -68c-10.667 -19.333 -18.334 -32 -23.001 -38h-51l-170 316l-19.5 -37.5l-29.5 -57l-34 -66.5l-35 -66l-30.5 -55
c-9 -16 -15.833 -27.333 -20.5 -34h-52v0l-208 387c-6 8.66699 -12.5 15 -19.5 19s-14.5 6.83301 -22.5 8.5s-16.167 2.33398 -24.5 2.00098s-17.166 -0.5 -26.499 -0.5v21h271v-21h-44c-10 0 -17.667 -4.16699 -23 -12.5s-6 -16.833 -2 -25.5l163 -309l144 271l-26 49
c-6 8 -12.5 14 -19.5 18s-14.5 6.5 -22.5 7.5s-16.167 1.5 -24.5 1.5h-26.5v21h274v-21h-47c-9.33301 0 -16.833 -3.83301 -22.5 -11.5s-6.83398 -15.834 -3.50098 -24.501l164 -311l162 306c2.66699 3.33301 4 8 4 14c0 7.33301 -2.5 13.666 -7.5 18.999s-11.167 8 -18.5 8
h-43v21h202z" />
    <glyph glyph-name="x" unicode="x" horiz-adv-x="700" 
d="M531 397l-39.499 -39.998l-45.5 -46.5l-38.5 -39.5l-18.5 -19l-3 -3l12.5 -11.5l31.5 -30.5l43 -42l48 -46l45.5 -44l35.5 -34v0v0l3 -3v0c12 -10.667 25 -16 39 -16h7h25v-22h-282v22h34v0c7.33301 0 13.666 2.66699 18.999 8s8 11.666 8 18.999c0 6 -2.33301 12 -7 18
v0v0l-3 2v0v1v0l-119 114c-1.33301 1.33301 -3 3.16602 -5 5.49902s-3.66699 4.16602 -5 5.49902l-24.5 -26.5l-30.5 -32.5l-33 -34.5l-32 -33.5c-0.666992 -0.666992 -1.33398 -1 -2.00098 -1c-4 -4.66699 -6 -10.667 -6 -18s2.33301 -13.666 7 -18.999s10.667 -8 18 -8h3
h84v-21c-16 0 -36.167 -0.166992 -60.5 -0.5s-49.666 -0.5 -75.999 -0.5s-51.833 0.166992 -76.5 0.5s-44.667 0.5 -60 0.5v21h66h5c16 0 30 6 42 18v0l3 3v0l39 41l43.5 46.5l41.5 44l33 34.5c-1.33301 1.33301 -2.5 2.66602 -3.5 3.99902s-2.16699 2.33301 -3.5 3
l-187 181v0l-4 4v0c-12 10 -25.333 15.333 -40 16h-4h-44v21h273v-21h-6h-3c-7.33301 -0.666992 -13.333 -3.5 -18 -8.5s-7 -11.167 -7 -18.5s2.66699 -13.666 8 -18.999v-1l36 -34.5l35.5 -34l27 -26l11.5 -11.5l18.5 19l25.5 26.5l29.5 30l29.5 29.5l3 3
c4.66699 6 7 12 7 18c0 7.33301 -2.5 13.5 -7.5 18.5s-11.167 7.83301 -18.5 8.5h-3h-47v21h279v-21h-108h-4c-16.667 -0.666992 -31 -7 -43 -19z" />
    <glyph glyph-name="y" unicode="y" horiz-adv-x="712" 
d="M703 437l-0.000976562 -21h-63c-11.333 0 -21.5 -2.5 -30.5 -7.5s-16.167 -11.833 -21.5 -20.5v0l-1 -1c0.666992 0 1 0.333008 1 1l-38.5 -79.5l-48 -99.5l-52 -107.5l-49.5 -102.5c-0.666992 -0.666992 -1 -1.33398 -1 -2.00098c-2.66699 -6 -6.5 -14 -11.5 -24
l-16 -32l-16.5 -34l-14 -29v0l-9 -18l-1 -1c-5.33301 -7.33301 -10.5 -12.333 -15.5 -15s-10.5 -4.66699 -16.5 -6h-5v0c-11.333 -1.33301 -23.166 -0.333008 -35.499 3s-24.5 9.66602 -36.5 18.999s-23.833 22 -35.5 38s-22.5 35.667 -32.5 59l79 40l71 -134
c5.33301 3.33301 9.5 7.5 12.5 12.5s5.5 10.167 7.5 15.5c3.33301 6 7.33301 14 12 24l14.5 31l15 30.5c5 9.66699 8.83301 17.5 11.5 23.5h-67l-195 388c-5.33301 8.66699 -12.5 15.5 -21.5 20.5s-19.167 7.5 -30.5 7.5h-56v21h284v-21h-41
c-7.33301 0 -13.666 -2.66699 -18.999 -8s-8 -11.666 -8 -18.999c0 -4.66699 1 -9 3 -13l167 -344l167 349v0c3.33301 8.66699 2.16602 16.834 -3.50098 24.501s-13.167 11.167 -22.5 10.5h-50v21h219z" />
    <glyph glyph-name="z" unicode="z" horiz-adv-x="573" 
d="M556 158l-0.000976562 -158h-536l386 416h-163c-57.333 -1.33301 -101.833 -14.5 -133.5 -39.5s-54.5 -57.5 -68.5 -97.5h-6v158h516l-386 -416h184c56.667 1.33301 100.834 14.5 132.501 39.5s54.5 57.5 68.5 97.5h6z" />
    <glyph glyph-name="braceleft" unicode="{" horiz-adv-x="292" 
d="M109 616c9.33301 25.333 28 47.3311 56 65.998s62.333 29.334 103 32.001v-27c-8.66699 0 -18 -2 -28 -6c-15.333 -6 -26.5 -14.667 -33.5 -26s-11.333 -23.833 -13 -37.5s-1 -27.334 2 -41.001s6.5 -26.167 10.5 -37.5l1 -1c0 -2 0.666992 -3.66699 2 -5v-1
c5.33301 -13.333 8.33301 -26.666 9 -39.999v-10c0 -8 -0.5 -16 -1.5 -24s-3.16699 -15.667 -6.5 -23c-6.66699 -18 -17 -34.333 -31 -49s-32 -26.334 -54 -35.001c22 -8.66699 40 -20.334 54 -35.001s24.333 -31 31 -49c3.33301 -7.33301 5.5 -15 6.5 -23s1.5 -16 1.5 -24
v-10c-0.666992 -13.333 -3.66699 -26.666 -9 -39.999v-1c-1.33301 -2.66699 -2 -4.33398 -2 -5.00098l-1 -1c-4 -11.333 -7.5 -24 -10.5 -38s-3.66699 -27.667 -2 -41s6 -25.666 13 -36.999s18.167 -20 33.5 -26c10 -4 19.333 -6 28 -6v-27
c-40.667 2.66699 -75 13.334 -103 32.001s-46.667 40.667 -56 66c-5.33301 16 -8 31.667 -8 47c0 17.333 3 34 9 50l1 1c0 0.666992 0.166992 1.33398 0.5 2.00098s0.5 1.33398 0.5 2.00098l1 1c1.33301 3.33301 2.5 6.83301 3.5 10.5s2.16699 7.16699 3.5 10.5
c3.33301 11.333 5.5 23 6.5 35s0.333008 23.667 -2 35s-7.16602 21.5 -14.499 30.5s-17.666 16.167 -30.999 21.5c-3.33301 2 -8 3.33301 -14 4c-2 0 -4.33301 0.333008 -7 1h-20h-3h-7h-3v0v28v0h3h7h3h27c3.33301 0 6 0.5 8 1.5s4 2.16699 6 3.5
c13.333 5.33301 23.666 12.5 30.999 21.5s12.166 19 14.499 30s3 22.667 2 35s-3.16699 23.833 -6.5 34.5c-1.33301 4 -2.5 7.83301 -3.5 11.5s-2.16699 7.16699 -3.5 10.5l-1 1c0 0.666992 -0.166992 1.16699 -0.5 1.5s-0.5 1.16602 -0.5 2.49902
c-0.666992 0 -1 0.333008 -1 1c-6 16 -9 32.667 -9 50c0 15.333 2.66699 31 8 47z" />
    <glyph glyph-name="bar" unicode="|" horiz-adv-x="80" 
d="M30 760h20v-820h-20v820z" />
    <glyph glyph-name="braceright" unicode="}" horiz-adv-x="265" 
d="M240 366l7.00098 -0.00585938h3v0v-28v0h-2c-2 -0.666992 -4.66699 -1 -8 -1h-3h-27c-4.66699 -0.666992 -9.33398 -2 -14.001 -4c-13.333 -5.33301 -23.5 -12.666 -30.5 -21.999s-11.833 -19.5 -14.5 -30.5s-3.33398 -22.5 -2.00098 -34.5s3.33301 -23.667 6 -35
c1.33301 -4 2.5 -7.66699 3.5 -11s2.16699 -6.66602 3.5 -9.99902l1 -1c0 -1.33301 0.166992 -2.16602 0.5 -2.49902s0.5 -0.833008 0.5 -1.5l1 -1c6 -16 9 -32.667 9 -50c0 -15.333 -2.66699 -31 -8 -47c-9.33301 -25.333 -28 -47.333 -56 -66
s-62.333 -29.334 -103 -32.001v27c4.66699 0 9.16699 0.333008 13.5 1s9.16602 2 14.499 4c16 6 27.5 14.667 34.5 26s11.167 23.833 12.5 37.5s0.5 27.5 -2.5 41.5s-6.5 26.667 -10.5 38c-0.666992 0 -1 0.333008 -1 1s-0.666992 2.33398 -2 5.00098v1
c-5.33301 13.333 -8.33301 26.666 -9 39.999v9c0 8 0.5 16 1.5 24s3.16699 16 6.5 24c6.66699 17.333 17 33.333 31 48s32 26.667 54 36c-22 8.66699 -40 20.334 -54 35.001s-24.333 31 -31 49c-3.33301 7.33301 -5.5 15 -6.5 23s-1.5 16 -1.5 24v10
c1.33301 14 4.33301 27 9 39v1c1.33301 2.66699 2 4.66699 2 6c0.666992 0 1 0.333008 1 1c4 11.333 7.5 23.833 10.5 37.5s3.83301 27.334 2.5 41.001s-5.5 26.167 -12.5 37.5s-18.5 20 -34.5 26c-10 4 -19.333 6 -28 6v26c40.667 -2.66699 75 -13.167 103 -31.5
s46.667 -40.166 56 -65.499c5.33301 -17.333 8 -33.333 8 -48c0 -17.333 -3 -34 -9 -50l-1 -1c0 -0.666992 -0.166992 -1.16699 -0.5 -1.5s-0.5 -0.833008 -0.5 -1.5s-0.333008 -1 -1 -1c-1.33301 -3.33301 -2.5 -6.83301 -3.5 -10.5s-2.16699 -7.5 -3.5 -11.5
c-2.66699 -10.667 -4.66699 -22.167 -6 -34.5s-0.666016 -24 2.00098 -35s7.5 -21.167 14.5 -30.5s17.167 -16.666 30.5 -21.999c2.66699 -1.33301 4.83398 -2.33301 6.50098 -3s4.16699 -1 7.5 -1h27h3z" />
    <glyph glyph-name="asciitilde" unicode="~" horiz-adv-x="408" 
d="M50 228c13.333 21.333 26.4961 37.167 39.4961 47.5s30.167 15.5 51.5 15.5c16 0 29.5 -3.16699 40.5 -9.5s21.333 -13.333 31 -21s19.334 -14.667 29.001 -21s21.5 -9.5 35.5 -9.5c16.667 0 29.334 4 38.001 12s17 21.333 25 40l18 -8
c-9.33301 -21.333 -19.833 -37.333 -31.5 -48s-28.167 -16 -49.5 -16c-16 0 -29.667 3.16699 -41 9.5s-21.666 13.333 -30.999 21s-19 14.667 -29 21s-21.667 9.5 -35 9.5c-17.333 0 -30.666 -4 -39.999 -12s-20.333 -21 -33 -39z" />
    <glyph glyph-name="cent" unicode="&#xa2;" horiz-adv-x="430" 
d="M259 120c21.333 0 39.332 2.33301 53.999 7s27.167 10.167 37.5 16.5s18.5 13 24.5 20l14 16.5h24l-1 -2c-11.333 -30 -31 -54.333 -59 -73s-63 -29.667 -105 -33v-90h-69v93c-48.667 7.33301 -86.834 24.333 -114.501 51s-41.5 60.667 -41.5 102s13.833 75.5 41.5 102.5
s65.834 44.167 114.501 51.5v94h69v-92c51.333 -3.33301 95.333 -20.666 132 -51.999h-78l-4.5 6.5c-1.66699 2.33301 -3.5 4.16602 -5.5 5.49902c-7.33301 8 -16.166 14.5 -26.499 19.5s-22.5 7.5 -36.5 7.5c-20 0 -36.833 -3.5 -50.5 -10.5s-24.667 -16 -33 -27
s-14.5 -23.667 -18.5 -38s-6 -28.5 -6 -42.5c1.33301 -35.333 14.666 -65.666 39.999 -90.999c12.667 -12.667 27.334 -22.834 44.001 -30.501s34.667 -11.5 54 -11.5z" />
    <glyph glyph-name="sterling" unicode="&#xa3;" horiz-adv-x="459" 
d="M174 153c0 -21.333 -1.66406 -41.332 -4.99707 -59.999s-14.666 -33.334 -33.999 -44.001h279v-49h-384v49h48c8 3.33301 13.5 11 16.5 23s4.83301 24 5.5 36v56h-70v49h70c0 21.333 2.16699 43.833 6.5 67.5s13.166 45.5 26.499 65.5s32.333 36.5 57 49.5
s57.667 19.5 99 19.5c19.333 0 36 -1.5 50 -4.5s26.5 -7.33301 37.5 -13s21 -13 30 -22s17.833 -19.5 26.5 -31.5l-79 1c-2.66699 5.33301 -5.83398 10.833 -9.50098 16.5s-8.33398 11.167 -14.001 16.5s-12.334 9.66602 -20.001 12.999s-17.167 5 -28.5 5
c-22 0 -40 -5.16699 -54 -15.5s-25 -23.666 -33 -39.999s-13.5 -34.333 -16.5 -54s-4.5 -39.167 -4.5 -58.5v-15h172v-49h-172v-11z" />
    <glyph glyph-name="brokenbar" unicode="&#xa6;" horiz-adv-x="80" 
d="M30 760h20v-320h-20v320zM50 260v-320h-20v320h20z" />
    <glyph glyph-name="section" unicode="&#xa7;" horiz-adv-x="494" 
d="M284 288c18.667 -9.33301 33.333 -21.667 44 -37s16 -29.666 16 -42.999c0 -21.333 -6.33301 -39.333 -19 -54s-32 -25.667 -58 -33c-4 -1.33301 -8.16699 -2.33301 -12.5 -3s-9.16602 -1.33398 -14.499 -2.00098c-1.33301 0 -2.33301 -0.166992 -3 -0.5
s-1.66699 -0.5 -3 -0.5h-13h-2h-2h-4h-10c-3.33301 0 -6.66602 0.333008 -9.99902 1c-4 0.666992 -8 1.16699 -12 1.5s-7.66699 1.16602 -11 2.49902c-1.33301 0 -2.33301 0.333008 -3 1v0h-3c-11.333 3.33301 -20.5 7.5 -27.5 12.5s-12.5 10 -16.5 15
s-6.83301 9.66699 -8.5 14s-2.83398 7.5 -3.50098 9.5h15c4.66699 -4.66699 10 -9.33398 16 -14.001c5.33301 -3.33301 11.5 -6.83301 18.5 -10.5s15.167 -6.83398 24.5 -9.50098c18.667 -4 34.334 -3.16699 47.001 2.5s22.667 13.834 30 24.501s12 22.334 14 35.001
s1.33301 24 -2 34c-4.66699 13.333 -12.5 23.833 -23.5 31.5s-21.5 12.5 -31.5 14.5h-1h-1c-0.666992 0 -1 0.333008 -1 1h-1h-1h-2v0h-1v0v0c-3.33301 1.33301 -6.5 2.16602 -9.5 2.49902s-5.83301 1.16602 -8.5 2.49902c-20 7.33301 -35 18.166 -45 32.499
s-15 29.833 -15 46.5c0 16 4.5 31 13.5 45s22.167 24.667 39.5 32c-18.667 9.33301 -33.334 21.833 -44.001 37.5s-16 30.167 -16 43.5c0 21.333 6.33301 39.333 19 54s32 25.667 58 33c4 1.33301 8.66699 2.5 14 3.5s10.666 1.5 15.999 1.5
c22 0 40.833 -5.83301 56.5 -17.5s28.167 -24.5 37.5 -38.5h-11c-11.333 10 -23 18.333 -35 25c-10 5.33301 -21.167 9.33301 -33.5 12s-24.166 1.33398 -35.499 -3.99902c-12.667 -6 -20.834 -13.5 -24.501 -22.5s-5 -18.167 -4 -27.5s3.33301 -18.166 7 -26.499
s6.5 -14.5 8.5 -18.5c6.66699 -13.333 15 -23.833 25 -31.5s20 -12.5 30 -14.5h1v0c1.33301 -0.666992 3 -1 5 -1h1v0h1v0v0c25.333 -4.66699 44.333 -14.5 57 -29.5s19.667 -31.5 21 -49.5v-6c0 -15.333 -4.33301 -30.166 -13 -44.499s-22 -25.166 -40 -32.499v0z
M187.999 346.999c4 -10 9.83301 -20.165 17.5 -30.498s17.167 -16.833 28.5 -19.5v0c0 -0.666992 0.333008 -1 1 -1v0h4c2.66699 -0.666992 5.16699 -0.833984 7.5 -0.500977s4.16602 0.5 5.49902 0.5c0.666992 0 1.16699 0.166992 1.5 0.5s0.833008 0.5 1.5 0.5v0
c0.666992 0 2.33398 0.666992 5.00098 2c16 6 25 16.167 27 30.5s1 28.166 -3 41.499c-0.666992 2 -1.16699 4.16699 -1.5 6.5s-1.16602 4.5 -2.49902 6.5c-4 10 -9.83301 20 -17.5 30s-17.167 16.667 -28.5 20c-0.666992 0 -1 0.166992 -1 0.5s-0.333008 0.5 -1 0.5
c-1.33301 0 -2.5 0.166992 -3.5 0.5s-2.16699 0.5 -3.5 0.5c-2 0 -4 -0.166992 -6 -0.5s-4.33301 -0.833008 -7 -1.5v0c-0.666992 -0.666992 -1.33398 -1 -2.00098 -1s-1.33398 -0.333008 -2.00098 -1c-9.33301 -3.33301 -16.166 -8.5 -20.499 -15.5s-7 -14.5 -8 -22.5
s-0.5 -16.167 1.5 -24.5s4.33301 -15.833 7 -22.5z" />
    <glyph glyph-name="dieresis" unicode="&#xa8;" horiz-adv-x="400" 
d="M45 643c0 17.333 6.33301 32 19 44s28 18 46 18c18.667 0 34.334 -6 47.001 -18s19 -26.667 19 -44s-6.33301 -32 -19 -44s-28.334 -18 -47.001 -18c-18 0 -33.333 6 -46 18s-19 26.667 -19 44zM289 705c18 0 33.333 -6 46 -18s19 -26.667 19 -44s-6.33301 -32 -19 -44
s-28 -18 -46 -18c-18.667 0 -34.167 6 -46.5 18s-18.5 26.667 -18.5 44s6.16699 32 18.5 44s27.833 18 46.5 18z" />
    <glyph glyph-name="copyright" unicode="&#xa9;" horiz-adv-x="736" 
d="M548 497l6.99609 -14l2 -3l1 -3l-5 1l-9 2l-4 1l-71 15l-7 1v1h-3l-17 35l-9 12c-15.333 17.333 -35.666 26 -60.999 26c-19.333 0 -35.666 -3.33301 -48.999 -10s-24 -15.5 -32 -26.5s-13.833 -23.167 -17.5 -36.5s-5.5 -27 -5.5 -41
c1.33301 -33.333 14 -62.666 38 -87.999c12 -12 26 -21.667 42 -29s33.333 -11 52 -11c20.667 0 38.834 2.16699 54.501 6.5s29.167 9.66602 40.5 15.999s20.5 12.833 27.5 19.5s11.833 12 14.5 16h12l-1 -2c-11.333 -30.667 -32.166 -55.5 -62.499 -74.5
s-68.5 -28.5 -114.5 -28.5c-60.667 0 -108.834 13.667 -144.501 41s-53.5 64 -53.5 110s17.833 82.667 53.5 110s83.834 41 144.501 41c28 0 52.333 -3.5 73 -10.5s38.667 -16.5 54 -28.5h27l2 -5zM663.996 601c18.667 -28.667 29.832 -61.501 33.499 -98.501
s1.16699 -74 -7.5 -111s-23.167 -72.167 -43.5 -105.5s-45.166 -61 -74.499 -83c-33.333 -25.333 -68.333 -43.833 -105 -55.5s-73.167 -17.834 -109.5 -18.501s-71.333 3.16602 -105 11.499s-64.334 19.833 -92.001 34.5s-51.334 31.834 -71.001 51.501
s-33.5 39.834 -41.5 60.501c-17.333 45.333 -24.833 88 -22.5 128s11.833 77 28.5 111s38.834 64.333 66.501 91s57.834 49 90.501 67c22.667 12.667 47.667 22.334 75 29.001s55.5 10.5 84.5 11.5s58 -0.833008 87 -5.5s56.5 -12.167 82.5 -22.5s49.667 -23.5 71 -39.5
s39 -34.667 53 -56zM564.994 238.999c25.333 24 43.668 52.832 55.001 86.499s16.166 68.5 14.499 104.5s-9.33398 71.167 -23.001 105.5s-33.5 64.5 -59.5 90.5c-23.333 23.333 -48.833 40.833 -76.5 52.5s-55 18.834 -82 21.501s-52.833 2 -77.5 -2s-46 -10 -64 -18
c-38 -16.667 -67.667 -36.667 -89 -60s-37.166 -47.333 -47.499 -72s-16.333 -49 -18 -73s-1.16699 -45 1.5 -63c6 -44 19.333 -81.167 40 -111.5s45.5 -54.5 74.5 -72.5s60.5 -30.667 94.5 -38s67.167 -10 99.5 -8s62.5 8 90.5 18s50.333 23 67 39z" />
    <glyph glyph-name="guillemotleft" unicode="&#xab;" horiz-adv-x="479" 
d="M121 241l148 -138l-40 -43l-151 141l-27 24l-17 16l11 10l6 6v0l27 24l151 141l40 -43zM446 379l-149 -138l149 -138l-40 -43l-152 141l-26 24l-17 16l10 10l7 6v0l26 24l152 141z" />
    <glyph glyph-name="registered" unicode="&#xae;" horiz-adv-x="731" 
d="M667 600c18.667 -28.667 29.835 -61.501 33.502 -98.501s1.16699 -74 -7.5 -111s-23.167 -72.167 -43.5 -105.5s-45.166 -61 -74.499 -83c-33.333 -25.333 -68.333 -43.666 -105 -54.999s-73.167 -17.333 -109.5 -18s-71.333 3.16602 -105 11.499
s-64.334 19.833 -92.001 34.5s-51.334 31.667 -71.001 51s-33.5 39.333 -41.5 60c-16.667 45.333 -23.834 88 -21.501 128s11.666 77 27.999 111s38.333 64.333 66 91s57.834 49 90.501 67c22.667 12.667 47.667 22.334 75 29.001s55.5 10.5 84.5 11.5s58 -0.833008 87 -5.5
s56.5 -12.167 82.5 -22.5s49.667 -23.5 71 -39.5s39 -34.667 53 -56zM568.001 237.999c25.333 24 43.6689 52.832 55.002 86.499s16.166 68.5 14.499 104.5s-9.33398 71.167 -23.001 105.5s-33.5 64.5 -59.5 90.5c-23.333 23.333 -48.833 40.833 -76.5 52.5
s-55 18.834 -82 21.501s-52.667 2 -77 -2s-45.5 -10 -63.5 -18c-38 -16.667 -67.833 -36.5 -89.5 -59.5s-37.667 -47 -48 -72s-16.333 -49.5 -18 -73.5s-1.16699 -45 1.5 -63c6 -44 19.333 -81.167 40 -111.5s45.5 -54.5 74.5 -72.5s60.5 -30.5 94.5 -37.5
s67.167 -9.5 99.5 -7.5s62.5 7.83301 90.5 17.5s50.333 22.5 67 38.5zM524.004 312.998c6 -7.33301 13.3291 -10.999 21.9961 -10.999h17v-9h-26h-86h-41v9h13c3.33301 0 6.16602 1.16699 8.49902 3.5s3.5 5.16602 3.5 8.49902c0 2.66699 -0.666992 4.66699 -2 6v1l-71 107
h-67v-98c0 -7.33301 2.83301 -13.833 8.5 -19.5s12.167 -8.5 19.5 -8.5h12v-9h-40h-72h-40v9h12c7.33301 0 13.833 2.83301 19.5 8.5s8.5 12.167 8.5 19.5v201c0 8 -2.83301 14.667 -8.5 20s-12.167 8 -19.5 8h-12v10h40h72h140v0h1v0l1 -1h1h4h1h4v0
c6.66699 0 12.334 -1 17.001 -3c1.33301 0 2.33301 -0.333008 3 -1h1c0.666992 0 1.16699 -0.166992 1.5 -0.5s0.833008 -0.5 1.5 -0.5h1c16 -6 27.833 -14.833 35.5 -26.5s11.834 -24.167 12.501 -37.5v-1v-1c0 -2.66699 -0.166992 -5 -0.5 -7s-0.833008 -4.33301 -1.5 -7
c0 -1.33301 -0.333008 -2 -1 -2v-1v-1c0 -0.666992 -0.333008 -1 -1 -1v-3v0h-1v-2c0 -0.666992 -0.333008 -1 -1 -1v-2c-5.33301 -10 -12.666 -18.667 -21.999 -26s-21.666 -12 -36.999 -14c-1.33301 -0.666992 -3.66602 -1 -6.99902 -1c0 -0.666992 0.333008 -1 1 -1
l39.5 -61.5l33.5 -50.5v0l2 -2v-1zM406 437.999c6.66699 0 11.666 1.33691 14.999 4.00391c2.66699 1.33301 4.66699 2.66602 6 3.99902c6.66699 5.33301 11.334 12.166 14.001 20.499s4.66699 16.5 6 24.5v5v10c-1.33301 11.333 -5 22.666 -11 33.999
s-15.667 17.666 -29 18.999h-4h-13v0v0h-95v-43v-20v-58h61h50z" />
    <glyph glyph-name="macron" unicode="&#xaf;" horiz-adv-x="370" 
d="M50 655h270v-40h-270v40z" />
    <glyph glyph-name="degree" unicode="&#xb0;" horiz-adv-x="325" 
d="M163 718c28 0 52.5 -3.83105 73.5 -11.498s38.833 -17.834 53.5 -30.501s25.834 -27.167 33.501 -43.5s12.167 -33.166 13.5 -50.499v-9c0 -28 -8.16699 -54.5 -24.5 -79.5s-41.5 -43.167 -75.5 -54.5c-6 -2 -12.333 -3.83301 -19 -5.5s-13.667 -2.83398 -21 -3.50098
c-10 -2 -21.333 -3 -34 -3s-24.667 1 -36 3c-14 2 -27 5 -39 9c-34 11.333 -59.167 29.5 -75.5 54.5s-24.5 51.5 -24.5 79.5c0 18 3.66699 35.833 11 53.5s18.166 33.167 32.499 46.5s32.5 24.166 54.5 32.499s47.667 12.5 77 12.5zM207 460.002
c13.333 5.33301 23.6689 12.6699 31.002 22.0029s12.166 19.5 14.499 30.5s3 22.667 2 35s-3.16699 23.833 -6.5 34.5c-1.33301 4 -2.5 7.66699 -3.5 11s-2.16699 6.66602 -3.5 9.99902c-4.66699 11.333 -10.667 23.166 -18 35.499s-16.166 23 -26.499 32
s-22 15.167 -35 18.5s-27.5 2 -43.5 -4c-15.333 -6 -26.5 -14.833 -33.5 -26.5s-11.333 -24.167 -13 -37.5s-1 -27 2 -41s6.83301 -26.667 11.5 -38c3.33301 -8.66699 7.66602 -17.667 12.999 -27s11.333 -18 18 -26s14 -15 22 -21s17 -10 27 -12
c5.33301 -1.33301 10.666 -1.83301 15.999 -1.5s9.33301 0.833008 12 1.5c6 1.33301 10.667 2.66602 14 3.99902z" />
    <glyph glyph-name="plusminus" unicode="&#xb1;" horiz-adv-x="457" 
d="M271 354h169v-81h-169v-169h-82v169h-169v81h169v170h82v-170zM20 53h420v-69h-420v69z" />
    <glyph glyph-name="paragraph" unicode="&#xb6;" horiz-adv-x="559" 
d="M411 721h111v0v-25v-730h-64v730h-47v-8v-24v-270v-42v-386h-64v359c-16 -6.66699 -33.167 -11.334 -51.5 -14.001s-37.833 -3 -58.5 -1c-21.333 2 -43.5 7.66699 -66.5 17s-43.833 22.5 -62.5 39.5s-34 37.833 -46 62.5s-18 53.334 -18 86.001
c0 32 5.83301 59.667 17.5 83s26.167 43 43.5 59s36 28.5 56 37.5s38.333 15.5 55 19.5c24.667 6 49 8.33301 73 7v0h58h64z" />
    <glyph glyph-name="periodcentered" unicode="&#xb7;" horiz-adv-x="205" 
d="M30 253c0 19.333 7.16699 35.833 21.5 49.5s31.5 20.5 51.5 20.5c19.333 0 36.166 -6.83301 50.499 -20.5s21.5 -30.167 21.5 -49.5s-7.16699 -35.833 -21.5 -49.5s-31.166 -20.5 -50.499 -20.5c-20 0 -37.167 6.83301 -51.5 20.5s-21.5 30.167 -21.5 49.5z" />
    <glyph glyph-name="onesuperior" unicode="&#xb9;" horiz-adv-x="239" 
d="M46 629l-0.000976562 11.999c34 2.66699 59.5 10.834 76.5 24.501s29.167 31.167 36.5 52.5h5v-355c0 -10 0.5 -18 1.5 -24s2.5 -10.667 4.5 -14s4.83301 -5.83301 8.5 -7.5s8.5 -3.16699 14.5 -4.5v-5h-124v5c6 1.33301 10.833 2.83301 14.5 4.5s6.5 4.16699 8.5 7.5
s3.33301 8 4 14s1 14 1 24v223c0 15.333 -3.16699 26.333 -9.5 33s-20.166 10 -41.499 10z" />
    <glyph glyph-name="guillemotright" unicode="&#xbb;" horiz-adv-x="482" 
d="M440 261l10 -10l-17 -16l-26 -24l-152 -141l-40 43l149 138l-149 138l40 43l152 -141l26 -24v0zM230 211l-151 -141l-40 43l148 138l-148 138l40 43l151 -141l26 -24v0l7 -6l11 -10l-18 -16z" />
    <glyph glyph-name="questiondown" unicode="&#xbf;" horiz-adv-x="434" 
d="M177 447c0 14.667 5.83301 28 17.5 40s29.167 18 52.5 18s40.833 -6 52.5 -18s17.5 -25.333 17.5 -40s-5.83301 -28 -17.5 -40s-29.167 -18 -52.5 -18s-40.833 6 -52.5 18s-17.5 25.333 -17.5 40zM264 -121c-6 0 -11.832 0.166992 -17.499 0.5
s-11.167 0.833008 -16.5 1.5c-7.33301 1.33301 -14.166 2.5 -20.499 3.5s-12.5 2.16699 -18.5 3.5c-0.666992 0 -1.33398 0.166992 -2.00098 0.5s-1.66699 0.5 -3 0.5v0c-0.666992 0.666992 -1.33398 1 -2.00098 1s-1.33398 0.333008 -2.00098 1
c-26 8.66699 -47.5 18.5 -64.5 29.5s-30.833 21.667 -41.5 32s-18.667 20.166 -24 29.499s-9 16.666 -11 21.999l60 -2c7.33301 -17.333 17.333 -32.666 30 -45.999c11.333 -12 25.5 -22.833 42.5 -32.5s38.167 -14.834 63.5 -15.501c32 -0.666992 58.5 5 79.5 17
s37.167 26.667 48.5 44s18 36.166 20 56.499s0.333008 38.5 -5 54.5c-5.33301 14 -12.333 26 -21 36s-18.667 18.333 -30 25v0c-1.33301 1.33301 -2.33301 2 -3 2l-24.5 15l-27.5 17c-11.333 7.33301 -22.5 15.333 -33.5 24s-20.833 18 -29.5 28s-15.667 21 -21 33
s-8 25 -8 39h130c0 -14 1 -25.667 3 -35s6.16699 -18.333 12.5 -27s15.5 -17.167 27.5 -25.5s28 -18.5 48 -30.5c12.667 -7.33301 25 -15.666 37 -24.999s22.667 -20 32 -32s16.833 -25.167 22.5 -39.5s8.5 -30.5 8.5 -48.5c0 -35.333 -13.667 -65.666 -41 -90.999
s-62.666 -44 -105.999 -56l-22 -4c-7.33301 -1.33301 -15.333 -2.66602 -24 -3.99902c-1.33301 0 -3 -0.166992 -5 -0.5s-3.66699 -0.5 -5 -0.5c-3.33301 -0.666992 -7 -1 -11 -1h-11h-4h-3h-7z" />
    <glyph glyph-name="Agrave" unicode="&#xc0;" horiz-adv-x="700" 
d="M238 680l-78 120l82 3l35 -121zM113 0l-102.998 -0.00195312v21h43c25.333 1.33301 43.333 13.333 54 36l208 415l-54 112l60 77l12.5 -26l33 -68.5l46.5 -96.5l53 -110.5l53 -110.5l46.5 -96.5l33 -68.5l12.5 -26l2 -3v0c4.66699 -9.33301 11.667 -17.166 21 -23.499
s19.666 -9.83301 30.999 -10.5h26v-21h-236v21h37c9.33301 0 16.666 4 21.999 12s6.33301 16.333 3 25l-84 172h-209c-4 -7.33301 -9.83301 -18.833 -17.5 -34.5l-24.5 -49.5l-25 -49.5l-18 -35.5v0c-4.66699 -8.66699 -4.66699 -17.167 0 -25.5s11.667 -13.166 21 -14.499
h90v-21h-137zM330.002 440.998l-96 -190h189z" />
    <glyph glyph-name="Aacute" unicode="&#xc1;" horiz-adv-x="704" 
d="M269 680l-38 2l35 121l81 -3zM113 0l-102.998 -0.00195312v21h43c25.333 1.33301 43.333 13.333 54 36l208 415l-54 112l60 77l12.5 -26l33 -68.5l46.5 -96.5l53 -110.5l53 -110.5l46.5 -96.5l33 -68.5l12.5 -26l2 -3v0c4.66699 -9.33301 11.667 -17.166 21 -23.499
s19.666 -9.83301 30.999 -10.5h26v-21h-236v21h37c9.33301 0 16.666 4 21.999 12s6.33301 16.333 3 25l-84 172h-209c-4 -7.33301 -9.83301 -18.833 -17.5 -34.5l-24.5 -49.5l-25 -49.5l-18 -35.5v0c-4.66699 -8.66699 -4.66699 -17.167 0 -25.5s11.667 -13.166 21 -14.499
h90v-21h-137zM330.002 440.998l-96 -190h189z" />
    <glyph glyph-name="Acircumflex" unicode="&#xc2;" horiz-adv-x="705" 
d="M246 729l-29 24l121 80l122 -80l-29 -24l-93 41v0v0zM113 0l-102.998 -0.00195312v21h43c25.333 1.33301 43.333 13.333 54 36l208 415l-54 112l60 77l12.5 -26l33 -68.5l46.5 -96.5l53 -110.5l53 -110.5l46.5 -96.5l33 -68.5l12.5 -26l2 -3v0
c4.66699 -9.33301 11.667 -17.166 21 -23.499s19.666 -9.83301 30.999 -10.5h26v-21h-236v21h37c9.33301 0 16.666 4 21.999 12s6.33301 16.333 3 25l-84 172h-209c-4 -7.33301 -9.83301 -18.833 -17.5 -34.5l-24.5 -49.5l-25 -49.5l-18 -35.5v0
c-4.66699 -8.66699 -4.66699 -17.167 0 -25.5s11.667 -13.166 21 -14.499h90v-21h-137zM330.002 440.998l-96 -190h189z" />
    <glyph glyph-name="Atilde" unicode="&#xc3;" horiz-adv-x="701" 
d="M256 750l-27.001 34.001l25 19c12 9.33301 25.833 14.5 41.5 15.5s30.167 -2.83301 43.5 -11.5c14 -9.33301 29.333 -13.333 46 -12s31.334 7.33301 44.001 18l27 -34l-40 -27c-21.333 -11.333 -43 -12.333 -65 -3l-20 9c-22 9.33301 -43.667 8.66602 -65 -2.00098z
M112.999 0.000976562l-102.998 -0.00195312v21h43c25.333 1.33301 43.333 13.333 54 36l208 415l-54 112l60 77l12.5 -26l33 -68.5l46.5 -96.5l53 -110.5l53 -110.5l46.5 -96.5l33 -68.5l12.5 -26l2 -3v0c4.66699 -9.33301 11.667 -17.166 21 -23.499
s19.666 -9.83301 30.999 -10.5h26v-21h-236v21h37c9.33301 0 16.666 4 21.999 12s6.33301 16.333 3 25l-84 172h-209c-4 -7.33301 -9.83301 -18.833 -17.5 -34.5l-24.5 -49.5l-25 -49.5l-18 -35.5v0c-4.66699 -8.66699 -4.66699 -17.167 0 -25.5s11.667 -13.166 21 -14.499
h90v-21h-137zM330.001 440.999l-96 -190h189z" />
    <glyph glyph-name="Adieresis" unicode="&#xc4;" horiz-adv-x="702" 
d="M265 738c-15.333 0 -26.834 4.66699 -34.501 14s-11.5 19.666 -11.5 30.999c0 15.333 4.66699 26.666 14 33.999s19.833 11 31.5 11s22.334 -3.66699 32.001 -11s14.5 -18.666 14.5 -33.999c0 -11.333 -3.83301 -21.666 -11.5 -30.999s-19.167 -14 -34.5 -14z
M403.999 738c-15.333 0 -26.835 4.66699 -34.502 14s-11.5 19.666 -11.5 30.999c0 15.333 4.83301 26.666 14.5 33.999s20.334 11 32.001 11s22.334 -3.66699 32.001 -11s14.5 -18.666 14.5 -33.999c0 -11.333 -4 -21.666 -12 -30.999s-19.667 -14 -35 -14zM112.997 0
l-102.998 -0.00195312v21h43c25.333 1.33301 43.333 13.333 54 36l208 415l-54 112l60 77l12.5 -26l33 -68.5l46.5 -96.5l53 -110.5l53 -110.5l46.5 -96.5l33 -68.5l12.5 -26l2 -3v0c4.66699 -9.33301 11.667 -17.166 21 -23.499s19.666 -9.83301 30.999 -10.5h26v-21h-236
v21h37c9.33301 0 16.666 4 21.999 12s6.33301 16.333 3 25l-84 172h-209c-4 -7.33301 -9.83301 -18.833 -17.5 -34.5l-24.5 -49.5l-25 -49.5l-18 -35.5v0c-4.66699 -8.66699 -4.66699 -17.167 0 -25.5s11.667 -13.166 21 -14.499h90v-21h-137zM329.999 440.998l-96 -190h189
z" />
    <glyph glyph-name="Aring" unicode="&#xc5;" horiz-adv-x="700" 
d="M691 21l-0.00195312 -21.0039h-236v21h37c9.33301 0 16.666 4 21.999 12s6.33301 16.333 3 25l-84 172h-209c-4 -7.33301 -9.83301 -18.833 -17.5 -34.5l-24.5 -49.5l-25 -49.5l-18 -35.5v0c-4.66699 -8.66699 -4.66699 -17.167 0 -25.5s11.667 -13.166 21 -14.499h90
v-21h-240v21h43c25.333 1.33301 43.333 13.333 54 36l208 415l-54 111l11 15c-9.33301 7.33301 -16.333 16 -21 26s-7 20.333 -7 31c0 17.333 4.5 31.666 13.5 42.999s20.333 19.833 34 25.5s28.334 8.5 44.001 8.5s30.334 -2.83301 44.001 -8.5s25 -14.167 34 -25.5
s13.5 -25.666 13.5 -42.999c0.666992 -19.333 -5.66602 -35.666 -18.999 -48.999s-29.666 -21.666 -48.999 -24.999v0l46 -95.5l54 -112.5l55.5 -114.5l49 -101l34.5 -72l13 -27.5l2 -3v0c4.66699 -9.33301 11.667 -17.166 21 -23.499s19.666 -9.83301 30.999 -10.5h26z
M297.998 631.996c4 -8.66699 9.16895 -16.668 15.502 -24.001s14.166 -12 23.499 -14c6 -1.33301 11 -1.33301 15 0h1c16 4 25.5 12.667 28.5 26s2.5 26.666 -1.5 39.999c-2 7.33301 -4.83301 14.833 -8.5 22.5s-8.33398 14.5 -14.001 20.5s-12.334 10.333 -20.001 13
s-16.167 2.33398 -25.5 -0.999023c-8 -3.33301 -14 -8 -18 -14s-6.33301 -12.667 -7 -20s-0.166992 -14.666 1.5 -21.999s3.83398 -14 6.50098 -20c0.666992 -1.33301 1.16699 -2.5 1.5 -3.5s0.833008 -2.16699 1.5 -3.5zM423 250.995l-93 190l-96 -190h189z" />
    <glyph glyph-name="AE" unicode="&#xc6;" horiz-adv-x="1014" 
d="M250 0l-239.999 -0.00195312v21c8.66699 0 17.167 -0.166992 25.5 -0.5s16.5 0 24.5 1s15.667 3.16699 23 6.5s14 9 20 17l3 4v0c0.666992 0.666992 1 1.33398 1 2.00098l6 7l384 562v0v0v0v0h34v0h52v0h308h28v0l12.5 -26l23 -48l23.5 -49
c7.33301 -15.333 12 -24.666 14 -27.999l-115 43l-42 87h-250v-274h107v0c18.667 0.666992 34.667 5.66699 48 15s24.333 20.833 33 34.5s15.167 28.334 19.5 44.001s6.5 30.167 6.5 43.5h21v-291h-21c0 13.333 -2.16699 27.833 -6.5 43.5s-10.833 30.334 -19.5 44.001
s-19.667 25.167 -33 34.5s-29.333 14.333 -48 15v0h-107v-287h250l42 87l115 43c-2 -3.33301 -6.66699 -12.5 -14 -27.5l-23.5 -49l-23 -48.5l-12.5 -26v0h-28h-306v0h-88v0h-90v21h27c17.333 0 32.166 6.16699 44.499 18.5s18.5 27.166 18.5 44.499v146h-234l-112 -165
c0 -0.666992 -0.166992 -1 -0.5 -1s-0.5 -0.333008 -0.5 -1c-6 -8.66699 -6.5 -17.834 -1.5 -27.501s12.833 -14.5 23.5 -14.5h78v-21zM497.001 572.998l-219 -322h219v322z" />
    <glyph glyph-name="Ccedilla" unicode="&#xc7;" horiz-adv-x="621" 
d="M308 -10c-47.333 0.666992 -89.0039 10.667 -125.004 30s-66 44.333 -90 75s-42 65.5 -54 104.5s-17.833 78.833 -17.5 119.5s7 80.167 20 118.5s32.167 72.5 57.5 102.5s57.333 54.167 96 72.5s84 27.166 136 26.499c29.333 0 60.166 -2.66699 92.499 -8
s59.166 -13.666 80.499 -24.999h27c4 -8 8.66699 -18 14 -30l16.5 -37l16.5 -37l14 -31l-112 43h-1l-14.5 30l-14.5 30c-26 20.667 -52.667 33.834 -80 39.501s-53.666 5.66699 -78.999 0s-49.166 -16.334 -71.499 -32.001s-41.666 -34.5 -57.999 -56.5
s-29.166 -46.667 -38.499 -74s-13.666 -55.666 -12.999 -84.999c0 -64 8.16699 -116.833 24.5 -158.5s37.833 -75.167 64.5 -100.5c26 -24.667 50.667 -42.334 74 -53.001s51.333 -16 84 -16c23.333 0 46.833 4.66699 70.5 14s45.834 21.5 66.501 36.5
s39.334 31.667 56.001 50s29.334 36.166 38.001 53.499l10 1c-14.667 -51.333 -40.334 -94.833 -77.001 -130.5s-84 -58.167 -142 -67.5l-40 -61c28.667 -5.33301 52.334 -17.666 71.001 -36.999s28 -40.333 28 -63c-0.666992 -20 -6.83398 -37.667 -18.501 -53
s-26 -26.833 -43 -34.5s-35.833 -10.834 -56.5 -9.50098s-40.334 8.33301 -59.001 21l4 20c26 -7.33301 47 -9.16602 63 -5.49902s28 10.167 36 19.5s12.667 20 14 32s0.333008 22.667 -3 32c-4 12.667 -10.167 24.5 -18.5 35.5s-19.833 17.5 -34.5 19.5l-36 3z" />
    <glyph glyph-name="Egrave" unicode="&#xc8;" horiz-adv-x="636" 
d="M264 800l82 3l35 -121l-39 -2zM119 0h-89v21h27c17.333 0 32 6.16699 44 18.5s18 27.166 18 44.499v452c0 17.333 -6 32.166 -18 44.499s-26.667 18.5 -44 18.5h-27v21h89v0h87v0h308h27v0l12.5 -26l23 -48.5l23.5 -49l14 -28.5l-115 44l-42 87h-249v-274h107v0
c18.667 0.666992 34.667 5.66699 48 15s24.333 20.833 33 34.5s15 28.334 19 44.001s6 30.167 6 43.5h22v-291h-22c0 13.333 -2 27.833 -6 43.5s-10.333 30.334 -19 44.001s-19.667 25.167 -33 34.5s-29.333 14.333 -48 15v0h-107v-287h249l42 86l115 44
c-2 -3.33301 -6.66699 -12.5 -14 -27.5l-23.5 -49l-23 -48.5l-12.5 -26v0h-27h-306v0h-89z" />
    <glyph glyph-name="Eacute" unicode="&#xc9;" horiz-adv-x="634" 
d="M345 803l81 -3l-78 -120l-38 2zM119 0h-89v21h27c17.333 0 32 6.16699 44 18.5s18 27.166 18 44.499v452c0 17.333 -6 32.166 -18 44.499s-26.667 18.5 -44 18.5h-27v21h89v0h87v0h308h27v0l12.5 -26l23 -48.5l23.5 -49l14 -28.5l-115 44l-42 87h-249v-274h107v0
c18.667 0.666992 34.667 5.66699 48 15s24.333 20.833 33 34.5s15 28.334 19 44.001s6 30.167 6 43.5h22v-291h-22c0 13.333 -2 27.833 -6 43.5s-10.333 30.334 -19 44.001s-19.667 25.167 -33 34.5s-29.333 14.333 -48 15v0h-107v-287h249l42 86l115 44
c-2 -3.33301 -6.66699 -12.5 -14 -27.5l-23.5 -49l-23 -48.5l-12.5 -26v0h-27h-306v0h-89z" />
    <glyph glyph-name="Ecircumflex" unicode="&#xca;" horiz-adv-x="633" 
d="M219 706l121 80l122 -80l-29 -24l-93 41v0v0l-92 -41zM206 620h308h27v0l12.5 -26l23 -48.5l23.5 -49l14 -28.5l-115 44l-42 87h-249v-274h107v0c18.667 0.666992 34.667 5.66699 48 15s24.333 20.833 33 34.5s15 28.334 19 44.001s6 30.167 6 43.5h22v-291h-22
c0 13.333 -2 27.833 -6 43.5s-10.333 30.334 -19 44.001s-19.667 25.167 -33 34.5s-29.333 14.333 -48 15v0h-107v-287h249l42 86l115 44c-2 -3.33301 -6.66699 -12.5 -14 -27.5l-23.5 -49l-23 -48.5l-12.5 -26v0h-27h-306v0h-89v0h-89v21h27c17.333 0 32 6.16699 44 18.5
s18 27.166 18 44.499v452c0 17.333 -6 32.166 -18 44.499s-26.667 18.5 -44 18.5h-27v21h89v0h87v0z" />
    <glyph glyph-name="Edieresis" unicode="&#xcb;" horiz-adv-x="632" 
d="M277 689c-15.333 0 -26.834 4.66699 -34.501 14s-11.5 19.666 -11.5 30.999c0 15.333 4.66699 26.666 14 33.999s19.833 11 31.5 11s22.334 -3.66699 32.001 -11s14.5 -18.666 14.5 -33.999c0 -11.333 -3.83301 -21.666 -11.5 -30.999s-19.167 -14 -34.5 -14z
M416.999 689c-15.333 0 -27.002 4.66699 -35.002 14s-12 19.666 -12 30.999c0 15.333 4.83301 26.666 14.5 33.999s20.334 11 32.001 11s22.334 -3.66699 32.001 -11s14.5 -18.666 14.5 -33.999c0 -11.333 -3.83301 -21.666 -11.5 -30.999s-19.167 -14 -34.5 -14z
M56.9971 21c17.333 0 32 6.16699 44 18.5s18 27.166 18 44.499v452c0 17.333 -6 32.166 -18 44.499s-26.667 18.5 -44 18.5h-27v21h89v0h87v0h308h27v0l12.5 -26l23 -48.5l23.5 -49l14 -28.5l-115 44l-42 87h-249v-274h107v0c18.667 0.666992 34.667 5.66699 48 15
s24.333 20.833 33 34.5s15 28.334 19 44.001s6 30.167 6 43.5h22v-291h-22c0 13.333 -2 27.833 -6 43.5s-10.333 30.334 -19 44.001s-19.667 25.167 -33 34.5s-29.333 14.333 -48 15v0h-107v-287h249l42 86l115 44c-2 -3.33301 -6.66699 -12.5 -14 -27.5l-23.5 -49
l-23 -48.5l-12.5 -26v0h-27h-306v0h-89v0h-89v21h27z" />
    <glyph glyph-name="Igrave" unicode="&#xcc;" horiz-adv-x="323" 
d="M145 677l-79 120l82 3l35 -121zM270 599c-17.333 0 -32 -6.16699 -44 -18.5s-18 -27.166 -18 -44.499v-452c0 -17.333 6 -32.166 18 -44.499s26.667 -18.5 44 -18.5h27v-21h-267v21h27c17.333 0 32 6.16699 44 18.5s18 27.166 18 44.499v452
c0 17.333 -6 32.166 -18 44.499s-26.667 18.5 -44 18.5h-27v21h267v-21h-27z" />
    <glyph glyph-name="Iacute" unicode="&#xcd;" horiz-adv-x="329" 
d="M172 800l82 -3l-78 -120l-39 2zM297 620v-21h-26c-17.333 0 -32.166 -6.16699 -44.499 -18.5s-18.5 -27.166 -18.5 -44.499v-452c0 -17.333 6.16699 -32.166 18.5 -44.499s27.166 -18.5 44.499 -18.5h26v-21h-266v21h26c17.333 0 32.166 6.16699 44.499 18.5
s18.5 27.166 18.5 44.499v452c0 17.333 -6.16699 32.166 -18.5 44.499s-27.166 18.5 -44.499 18.5h-26v21h266z" />
    <glyph glyph-name="Icircumflex" unicode="&#xce;" horiz-adv-x="329" 
d="M71 679l-29 24l121 80l122 -80l-29 -24l-92 41h-1v0zM30 0v21h27c17.333 0 32 6.16699 44 18.5s18 27.166 18 44.499v452c0 17.333 -6 32.166 -18 44.499s-26.667 18.5 -44 18.5h-27v21h89v0h89v0h89v-21h-27c-17.333 0 -32 -6.16699 -44 -18.5s-18 -27.166 -18 -44.499
v-452c0 -17.333 6 -32.166 18 -44.499s26.667 -18.5 44 -18.5h27v-21h-267z" />
    <glyph glyph-name="Idieresis" unicode="&#xcf;" horiz-adv-x="323" 
d="M140 731c0 -11.333 -3.83301 -21.834 -11.5 -31.501s-19.167 -14.5 -34.5 -14.5s-26.833 4.66699 -34.5 14s-11.5 19.833 -11.5 31.5s3.83301 22.167 11.5 31.5s19.167 14 34.5 14s26.833 -4.66699 34.5 -14s11.5 -19.666 11.5 -30.999zM280 730.999
c0 -11.333 -4 -21.834 -12 -31.501s-19.667 -14.5 -35 -14.5s-26.833 4.66699 -34.5 14s-11.5 19.833 -11.5 31.5s3.83301 22.167 11.5 31.5s19.167 14 34.5 14s27 -4.66699 35 -14s12 -19.666 12 -30.999zM270 598.998c-17.333 0 -32 -6.16699 -44 -18.5
s-18 -27.166 -18 -44.499v-452c0 -17.333 6 -32.166 18 -44.499s26.667 -18.5 44 -18.5h27v-21h-267v21h27c17.333 0 32 6.16699 44 18.5s18 27.166 18 44.499v452c0 17.333 -6 32.166 -18 44.499s-26.667 18.5 -44 18.5h-27v21h89v0h89v0h89v-21h-27z" />
    <glyph glyph-name="Ntilde" unicode="&#xd1;" horiz-adv-x="782" 
d="M752 620l0.00195312 -20.999h-31c-17.333 0 -32 -6.16699 -44 -18.5s-18 -27.166 -18 -44.499v-446l43 -51l-79 -39l-467 536v0v-452c0 -17.333 6.16699 -32.166 18.5 -44.499s27.166 -18.5 44.499 -18.5h31v-21h-219v21h41c17.333 0 32.166 6.16699 44.499 18.5
s18.5 27.166 18.5 44.499v452c0 6 -0.833008 11.667 -2.5 17s-3.83398 10.333 -6.50098 15v1v0c-6 9.33301 -13.667 16.666 -23 21.999s-19.666 8 -30.999 8h-41v21h174l18 -21v0l414 -484v421c0 17.333 -6 32.166 -18 44.499s-26.667 18.5 -44 18.5h-41v21h218z
M380.002 709.001c-13.333 5.33301 -26.167 7.16797 -38.5 5.50098s-24.5 -6.16699 -36.5 -13.5l-26 34l25 19c12 9.33301 25.833 14.333 41.5 15s30.167 -3.33301 43.5 -12c13.333 -9.33301 28.5 -13.333 45.5 -12s31.833 7.66602 44.5 18.999l27 -35l-40 -27
c-21.333 -12 -43 -12.667 -65 -2z" />
    <glyph glyph-name="Ograve" unicode="&#xd2;" horiz-adv-x="677" 
d="M240 804l81 3l35 -120l-38 -3zM340 -10c-54.667 0 -101.669 10.4971 -141.002 31.4971s-71.666 47.667 -96.999 80s-44 68 -56 107s-18 76.167 -18 111.5c0.666992 54 10 101.5 28 142.5s41.667 75.167 71 102.5s62.5 48 99.5 62s74.833 21.167 113.5 21.5
s76.667 -6.16699 114 -19.5s70.5 -33.666 99.5 -60.999s52.5 -61.666 70.5 -102.999s27.333 -89.666 28 -144.999c0 -38 -6 -76.667 -18 -116s-30.667 -74.833 -56 -106.5s-57.666 -57.5 -96.999 -77.5s-86.333 -30 -141 -30zM227.998 601.997
c-39.333 -15.333 -67.8311 -37.3311 -85.498 -65.998s-28.167 -60 -31.5 -94s-1.33301 -68.5 6 -103.5s16.666 -66.833 27.999 -95.5s26.333 -58.334 45 -89.001s40.667 -57.334 66 -80.001s54.333 -38.334 87 -47.001s68.667 -5.33398 108 9.99902
c39.333 16 68 38.333 86 67s28.667 60 32 94s1.33301 68.5 -6 103.5s-16.666 66.833 -27.999 95.5s-26.333 58.334 -45 89.001s-40.834 57.167 -66.501 79.5s-54.834 37.833 -87.501 46.5s-68.667 5.33398 -108 -9.99902z" />
    <glyph glyph-name="Oacute" unicode="&#xd3;" horiz-adv-x="673" 
d="M334 808l81 -3l-78 -120l-39 3zM335 -9c-54.667 0 -101.669 10.4971 -141.002 31.4971s-71.666 47.667 -96.999 80s-44 68 -56 107s-18 76.167 -18 111.5c0.666992 54 10 101.5 28 142.5s41.667 75.167 71 102.5s62.5 48 99.5 62s74.833 21.167 113.5 21.5
s76.667 -6.16699 114 -19.5s70.5 -33.666 99.5 -60.999s52.5 -61.666 70.5 -102.999s27.333 -89.666 28 -144.999c0 -38 -6 -76.667 -18 -116s-30.667 -74.833 -56 -106.5s-57.666 -57.5 -96.999 -77.5s-86.333 -30 -141 -30zM222.998 602.997
c-39.333 -15.333 -67.8311 -37.3311 -85.498 -65.998s-28.167 -60 -31.5 -94s-1.33301 -68.5 6 -103.5s16.666 -66.833 27.999 -95.5s26.333 -58.334 45 -89.001s40.667 -57.334 66 -80.001s54.333 -38.334 87 -47.001s68.667 -5.33398 108 9.99902
c39.333 16 68 38.333 86 67s28.667 60 32 94s1.33301 68.5 -6 103.5s-16.666 66.833 -27.999 95.5s-26.333 58.334 -45 89.001s-40.834 57.167 -66.501 79.5s-54.834 37.833 -87.501 46.5s-68.667 5.33398 -108 -9.99902z" />
    <glyph glyph-name="Ocircumflex" unicode="&#xd4;" horiz-adv-x="680" 
d="M224 712l122 79l121 -79l-29 -25l-92 42v0v0l-92 -42zM658 321c0 -38 -6.00098 -76.666 -18.001 -115.999s-30.667 -74.833 -56 -106.5s-57.666 -57.5 -96.999 -77.5s-86.333 -30 -141 -30c-52 1.33301 -97.5 11.666 -136.5 30.999s-71.5 44.333 -97.5 75
s-45.5 65.5 -58.5 104.5s-19.5 78.833 -19.5 119.5s6.5 80.334 19.5 119.001s32.5 73.5 58.5 104.5s58.5 56.167 97.5 75.5s84.5 29.666 136.5 30.999c54 0 100.667 -10 140 -30s71.833 -45.833 97.5 -77.5s44.5 -67.167 56.5 -106.5s18 -78 18 -116zM456.999 38.001
c39.333 16 68.002 38.335 86.002 67.002s28.667 60 32 94s1.33301 68.5 -6 103.5s-16.666 66.833 -27.999 95.5s-26.333 58.334 -45 89.001s-40.834 57.167 -66.501 79.5s-54.834 37.833 -87.501 46.5s-68.667 5.33398 -108 -9.99902s-67.833 -37.333 -85.5 -66
s-28.167 -60 -31.5 -94s-1.33301 -68.5 6 -103.5s16.666 -66.833 27.999 -95.5s26.333 -58.334 45 -89.001s40.667 -57.334 66 -80.001s54.333 -38.334 87 -47.001s68.667 -5.33398 108 9.99902z" />
    <glyph glyph-name="Otilde" unicode="&#xd5;" horiz-adv-x="681" 
d="M247 713l-27.001 34.002l25 19c12 9.33301 25.833 14.333 41.5 15s30.167 -3.33301 43.5 -12c14 -9.33301 29.333 -13.333 46 -12s31.334 7.66602 44.001 18.999l27 -35l-40 -27c-21.333 -10.667 -43 -11.334 -65 -2.00098l-20 9c-22 9.33301 -43.667 8.33301 -65 -3z
M654.999 325.002c0 -38 -6.00098 -76.666 -18.001 -115.999s-30.667 -74.833 -56 -106.5s-57.666 -57.5 -96.999 -77.5s-86.333 -30 -141 -30c-52 1.33301 -97.5 11.666 -136.5 30.999s-71.5 44.333 -97.5 75s-45.5 65.5 -58.5 104.5s-19.5 78.833 -19.5 119.5
s6.5 80.334 19.5 119.001s32.5 73.5 58.5 104.5s58.5 56.167 97.5 75.5s84.5 29.666 136.5 30.999c54 0 100.667 -10 140 -30s71.833 -45.833 97.5 -77.5s44.5 -67.167 56.5 -106.5s18 -78 18 -116zM147.998 248.003c11.333 -28.667 26.334 -58.3301 45.001 -88.9971
s40.667 -57.334 66 -80.001s54.333 -38.334 87 -47.001s68.667 -5.33398 108 9.99902c33.333 11.333 59.166 29.833 77.499 55.5s30.5 55 36.5 88s6.33301 68.5 1 106.5s-15.166 75 -29.499 111s-32.333 69.5 -54 100.5s-46 56.667 -73 77s-56 33.5 -87 39.5
s-62.5 1.66699 -94.5 -13c-39.333 -15.333 -67.833 -37.333 -85.5 -66s-28.167 -60 -31.5 -94s-1.33301 -68.5 6 -103.5s16.666 -66.833 27.999 -95.5z" />
    <glyph glyph-name="Odieresis" unicode="&#xd6;" horiz-adv-x="663" 
d="M308 739c0 -11.333 -4 -21.666 -12 -30.999s-19.667 -14 -35 -14s-26.833 4.66699 -34.5 14s-11.5 19.666 -11.5 30.999s3.83301 21.666 11.5 30.999s19.167 14 34.5 14s27 -4.66699 35 -14s12 -19.666 12 -30.999zM447 739c0 -11.333 -3.83301 -21.666 -11.5 -30.999
s-19.167 -14 -34.5 -14s-26.833 4.66699 -34.5 14s-11.5 19.666 -11.5 30.999s3.83301 21.666 11.5 30.999s19.167 14 34.5 14s26.833 -4.66699 34.5 -14s11.5 -19.666 11.5 -30.999zM339 650c54 0 100.668 -10.0029 140.001 -30.0029s71.666 -45.833 96.999 -77.5
s44 -67.167 56 -106.5s18 -78 18 -116c0 -55.333 -9 -103.666 -27 -144.999s-41.5 -75.666 -70.5 -102.999s-62.167 -47.666 -99.5 -60.999s-75.333 -19.833 -114 -19.5s-76.5 7.5 -113.5 21.5s-70.167 34.667 -99.5 62s-53 61.5 -71 102.5s-27.333 88.5 -28 142.5
c0 35.333 6 72.5 18 111.5s30.833 74.667 56.5 107s58.167 59 97.5 80s86 31.5 140 31.5zM450.001 37.9971c39.333 15.333 68 37.3311 86 65.998s28.667 60 32 94s1.33301 68.5 -6 103.5s-16.666 66.833 -27.999 95.5s-26.333 58.334 -45 89.001
s-40.834 57.334 -66.501 80.001s-54.834 38.334 -87.501 47.001s-68.667 5.33398 -108 -9.99902c-39.333 -16 -68 -38.333 -86 -67s-28.667 -60 -32 -94s-1.16602 -68.5 6.50098 -103.5s17.167 -66.833 28.5 -95.5s26.333 -58.334 45 -89.001s40.667 -57.167 66 -79.5
s54.333 -37.833 87 -46.5s68.667 -5.33398 108 9.99902z" />
    <glyph glyph-name="Oslash" unicode="&#xd8;" horiz-adv-x="678" 
d="M650 324c0 -38 -6.00488 -76.666 -18.0049 -115.999s-30.667 -74.833 -56 -106.5s-57.666 -57.5 -96.999 -77.5s-86.333 -30 -141 -30c-61.333 0 -113 13.167 -155 39.5s-75.333 58.833 -100 97.5l-139 -97l-13 17l141 98c-18 32 -30.5 66.667 -37.5 104
s-8.66699 74.5 -5 111.5s12.834 72.667 27.501 107s34.834 64.833 60.501 91.5s56.834 48.167 93.501 64.5s79 25.166 127 26.499c31.333 0 60 -3.5 86 -10.5s49.833 -16.667 71.5 -29s40.834 -26.833 57.501 -43.5s31 -35 43 -55l106 75l13 -18l-108 -75
c14.667 -27.333 25.5 -55.833 32.5 -85.5s10.5 -59.167 10.5 -88.5zM142.995 247.001c2.66699 -6 5.16895 -12.002 7.50195 -18.002s5.16602 -12.333 8.49902 -19l349 245c-13.333 25.333 -29.166 50 -47.499 74s-39.333 43.833 -63 59.5s-49.834 25.834 -78.501 30.501
s-59.667 0.333984 -93 -12.999c-39.333 -15.333 -67.833 -37.333 -85.5 -66s-28.167 -60 -31.5 -94s-1.33301 -68.5 6 -103.5s16.666 -66.833 27.999 -95.5zM448.997 40.999c43.333 18 73.835 42.834 91.502 74.501s27.167 66.167 28.5 103.5
s-3.33398 75.166 -14.001 113.499s-23 72.833 -37 103.5l-349 -245c13.333 -25.333 29.166 -49.833 47.499 -73.5s39.333 -43.334 63 -59.001s49.667 -25.667 78 -30s58.833 -0.166016 91.5 12.501z" />
    <glyph glyph-name="Ugrave" unicode="&#xd9;" horiz-adv-x="708" 
d="M376 815l35 -120l-38 -2l-78 119zM689 611l-31.001 -0.00390625c-17.333 0 -32.166 -6 -44.499 -18s-18.5 -26.667 -18.5 -44v-304c0 -30 -3.66699 -59.5 -11 -88.5s-19.833 -54.667 -37.5 -77s-40.667 -40.333 -69 -54s-63.5 -20.5 -105.5 -20.5
c-40.667 0 -75.5 3.33301 -104.5 10s-53.167 16.334 -72.5 29.001c-18 11.333 -32.833 24.5 -44.5 39.5s-20.834 31.167 -27.501 48.5s-11.167 35.5 -13.5 54.5s-3.5 38.5 -3.5 58.5v304c0 17.333 -6 32 -18 44s-26.667 18 -44 18h-27v21h178h89v-21h-27
c-17.333 0 -32 -6 -44 -18s-18 -26.667 -18 -44v-308c0 -19.333 3 -41.666 9 -66.999s16 -49.166 30 -71.499s32.5 -41.166 55.5 -56.499s51.5 -23 85.5 -23s63.5 5.66699 88.5 17s45.833 27 62.5 47s28.834 43.5 36.501 70.5s11.5 56.167 11.5 87.5v305
c-0.666992 17.333 -7 31.833 -19 43.5s-26.667 17.5 -44 17.5h-41v21h219v-21z" />
    <glyph glyph-name="Uacute" unicode="&#xda;" horiz-adv-x="716" 
d="M390 800l81 -3l-78 -120l-38 2zM691 596l-31.001 -0.000976562c-17.333 0 -32.166 -6.16699 -44.499 -18.5s-18.5 -27.166 -18.5 -44.499v-304c0 -30 -3.66699 -59.5 -11 -88.5s-19.833 -54.667 -37.5 -77s-40.667 -40.333 -69 -54s-63.5 -20.5 -105.5 -20.5
c-40.667 0 -75.5 3.5 -104.5 10.5s-53.167 16.5 -72.5 28.5c-18 11.333 -32.833 24.5 -44.5 39.5s-20.834 31.167 -27.501 48.5s-11.167 35.666 -13.5 54.999s-3.5 38.666 -3.5 57.999v304c0 17.333 -6 32.166 -18 44.499s-26.667 18.5 -44 18.5h-27v21h178h89v-21h-27
c-17.333 0 -32 -6 -44 -18s-18 -26.667 -18 -44v-309c0 -19.333 3 -41.666 9 -66.999s16 -49.166 30 -71.499s32.5 -41.166 55.5 -56.499s51.5 -23 85.5 -23s63.5 5.66699 88.5 17s45.833 27 62.5 47s28.834 43.5 36.501 70.5s11.5 56.167 11.5 87.5v305
c-0.666992 17.333 -7 32 -19 44s-26.667 18 -44 18h-41v21h219v-21z" />
    <glyph glyph-name="Ucircumflex" unicode="&#xdb;" horiz-adv-x="717" 
d="M499 712l-29 -24l-93 41v0v0l-92 -41l-29 24l121 79zM695 607l-31.0039 -0.000976562c-17.333 0 -32.166 -6.16699 -44.499 -18.5s-18.5 -27.166 -18.5 -44.499v-304c0 -30 -3.66699 -59.5 -11 -88.5s-19.833 -54.667 -37.5 -77s-40.667 -40.333 -69 -54
s-63.5 -20.5 -105.5 -20.5c-40 0 -74.5 3.5 -103.5 10.5s-53.5 16.5 -73.5 28.5c-18 11.333 -32.833 24.5 -44.5 39.5s-20.667 31.167 -27 48.5s-10.666 35.666 -12.999 54.999s-3.5 38.666 -3.5 57.999v304c0 17.333 -6.16699 32.166 -18.5 44.499
s-27.166 18.5 -44.499 18.5h-27v21h178h89v-21h-26c-17.333 0 -32 -6 -44 -18s-18.333 -26.667 -19 -44v-309c0 -19.333 3 -41.666 9 -66.999s16 -49.166 30 -71.499s32.5 -41.166 55.5 -56.499s51.5 -23 85.5 -23s63.5 5.66699 88.5 17s45.833 27 62.5 47
s28.834 43.5 36.501 70.5s11.5 56.167 11.5 87.5v305c0 17.333 -6 32 -18 44s-26.667 18 -44 18h-42v21h219v-21z" />
    <glyph glyph-name="Udieresis" unicode="&#xdc;" horiz-adv-x="721" 
d="M354 742c0 -11.333 -3.83301 -21.834 -11.5 -31.501s-19.167 -14.5 -34.5 -14.5s-26.833 4.66699 -34.5 14s-11.5 19.833 -11.5 31.5s3.83301 22.167 11.5 31.5s19.167 14 34.5 14s26.833 -4.66699 34.5 -14s11.5 -19.666 11.5 -30.999zM494 741.999
c0 -11.333 -3.83301 -21.834 -11.5 -31.501s-19.167 -14.5 -34.5 -14.5s-26.833 4.66699 -34.5 14s-11.5 19.833 -11.5 31.5s3.83301 22.167 11.5 31.5s19.167 14 34.5 14s26.833 -4.66699 34.5 -14s11.5 -19.666 11.5 -30.999zM693 606.998l-31.001 -0.000976562
c-17.333 0 -32.166 -6.16699 -44.499 -18.5s-18.5 -27.166 -18.5 -44.499v-304c0 -30 -3.66699 -59.5 -11 -88.5s-19.833 -54.667 -37.5 -77s-40.667 -40.333 -69 -54s-63.5 -20.5 -105.5 -20.5c-40.667 0 -75.5 3.5 -104.5 10.5s-53.167 16.5 -72.5 28.5
c-18 11.333 -32.833 24.5 -44.5 39.5s-20.834 31.167 -27.501 48.5s-11.167 35.666 -13.5 54.999s-3.5 38.666 -3.5 57.999v304c0 17.333 -6 32.166 -18 44.499s-26.667 18.5 -44 18.5h-27v21h178h89v-21h-27c-17.333 0 -32 -6 -44 -18s-18 -26.667 -18 -44v-309
c0 -19.333 3 -41.666 9 -66.999s16 -49.166 30 -71.499s32.333 -41.166 55 -56.499s51 -23 85 -23s63.667 5.66699 89 17s46.333 27 63 47s28.834 43.5 36.501 70.5s11.5 56.167 11.5 87.5v305c-0.666992 17.333 -7 32 -19 44s-26.667 18 -44 18h-41v21h219v-21z" />
    <glyph glyph-name="Yacute" unicode="&#xdd;" horiz-adv-x="748" 
d="M385 803l82 -3l-78 -120l-39 3zM724 620l-0.00195312 -21h-68c-20 0 -36.333 -8 -49 -24c-3.33301 -4 -7.66602 -10 -12.999 -18s-9.66602 -14 -12.999 -18l-34 -48v0l-33 -45l-36.5 -51l-36.5 -51l-32 -45v-135v-80c0 -17.333 6 -32.166 18 -44.499
s26.667 -18.5 44 -18.5h27v-21h-267v21h27c17.333 0 32 6.16699 44 18.5s18 27.166 18 44.499v201l-210 289v0c-11.333 14.667 -23.666 22.5 -36.999 23.5s-28.333 1.5 -45 1.5v21h50h-1h103h1h92v-21h-25c-10 0 -17.833 -4.33301 -23.5 -13
s-5.83398 -17.334 -0.500977 -26.001v0l170 -234l39 54.5l43 60l43.5 60.5l40.5 56c6 8.66699 6.5 17.834 1.5 27.501s-13.167 14.5 -24.5 14.5h-55v21h242z" />
    <glyph glyph-name="Thorn" unicode="&#xde;" horiz-adv-x="474" 
d="M149 564c48 6.66699 90.0029 4.66699 126.003 -6s66.167 -26.667 90.5 -48s42.666 -46.833 54.999 -76.5s18.666 -60 18.999 -91s-5.5 -61.333 -17.5 -91s-30 -55.5 -54 -77.5s-54.333 -38.667 -91 -50s-79.334 -14.333 -128.001 -9v-115h-100v620h100v-56zM267.003 184
c24.667 10.667 43.3311 26.1689 55.998 46.502s21.334 41.833 26.001 64.5s6 45.167 4 67.5s-5.33301 40.833 -10 55.5c-6 20 -15.5 38.667 -28.5 56s-28.333 31.666 -46 42.999s-36.667 19 -57 23s-41.166 2.66699 -62.499 -4v-362c21.333 -3.33301 42.333 -4.33301 63 -3
s39 5.66602 55 12.999z" />
    <glyph glyph-name="germandbls" unicode="&#xdf;" horiz-adv-x="748" 
d="M601 68c18 12 30.166 23.1689 36.499 33.502s8.16602 20 5.49902 29s-9 17 -19 24s-22.667 13.167 -38 18.5l-73 22l-71 22l-77 24c-24.667 8 -44.5 16.167 -59.5 24.5s-26.667 16.666 -35 24.999s-14 16.333 -17 24s-4.5 14.5 -4.5 20.5
c-0.666992 16 3.33301 30.667 12 44s20.667 25.166 36 35.499s33.5 19.166 54.5 26.499s43.5 12.666 67.5 15.999c21.333 4 38.666 10.167 51.999 18.5s23.333 17.166 30 26.499s10.834 19.166 12.501 29.499s1.5 19.5 -0.5 27.5c-2.66699 14 -10 24.167 -22 30.5
s-27.667 10.5 -47 12.5c-30 2.66699 -60.833 2.83398 -92.5 0.500977s-60.5 -8.16602 -86.5 -17.499s-47.333 -22.333 -64 -39s-25 -38 -25 -64v-482h-95v417c0 27.333 3.16699 51 9.5 71s14.5 37 24.5 51s20.833 25.333 32.5 34s22.834 15 33.501 19
c49.333 19.333 97.5 32.5 144.5 39.5s89.667 9.16699 128 6.5s70.5 -9.66699 96.5 -21s42.667 -25.666 50 -42.999c3.33301 -8 5.33301 -16.667 6 -26s-0.666016 -19 -3.99902 -29s-9 -19.667 -17 -29s-19.667 -18 -35 -26c-17.333 -8.66699 -34.5 -15.334 -51.5 -20.001
s-32.833 -8.5 -47.5 -11.5l-39.5 -8c-11.667 -2.33301 -21.167 -5.16602 -28.5 -8.49902c-18.667 -9.33301 -30.834 -18.666 -36.501 -27.999s-6.83398 -18.333 -3.50098 -27s9.83301 -16.334 19.5 -23.001s20.5 -11.667 32.5 -15v0c0.666992 0 1.16699 -0.166992 1.5 -0.5
s0.833008 -0.5 1.5 -0.5l124 -37l45.5 -14c15 -4.66699 28.5 -8.66699 40.5 -12l39 -12c27.333 -13.333 46.833 -28.5 58.5 -45.5s17.5 -34.5 17.5 -52.5c0.666992 -38.667 -12.666 -68.5 -39.999 -89.5s-62.333 -35.5 -105 -43.5s-89.834 -10.5 -141.501 -7.5
s-101.167 9.5 -148.5 19.5l11 34c6 -1.33301 11.5 -2.66602 16.5 -3.99902l15.5 -4c10.667 -2 27.334 -4.66699 50.001 -8s47.334 -5.5 74.001 -6.5s53.167 0.5 79.5 4.5s48.5 12 66.5 24z" />
    <glyph glyph-name="agrave" unicode="&#xe0;" horiz-adv-x="613" 
d="M295 520l-78 120l81 3l35 -121zM582 21l0.000976562 -21.0068h-162v58c-20.667 -18 -43.5 -33 -68.5 -45s-51.5 -20 -79.5 -24c-16.667 -2.66699 -34.5 -3.66699 -53.5 -3s-37.5 3 -55.5 7s-35.167 9.66699 -51.5 17s-30.5 17 -42.5 29
c-13.333 12.667 -23.166 28 -29.499 46s-9 36.333 -8 55s5.33301 36.334 13 53.001s18.5 30.334 32.5 41.001c11.333 9.33301 24.5 16.5 39.5 21.5s31.333 8.66699 49 11s35.667 3.66602 54 3.99902s36.5 0.5 54.5 0.5h146c-2.66699 40.667 -12 72.667 -28 96
c-17.333 28 -39.833 47.167 -67.5 57.5s-55.834 11.833 -84.501 4.5c-32.667 -6.66699 -58 -22 -76 -46c-6.66699 -9.33301 -11 -19.166 -13 -29.499s-2.66699 -20.833 -2 -31.5h-80c10.667 34.667 29.667 62.834 57 84.501s58.333 36.834 93 45.501s70 10.834 106 6.50098
s67.667 -15.166 95 -32.499c7.33301 -3.33301 14.666 -8.5 21.999 -15.5s14.166 -14.667 20.499 -23s12 -16.833 17 -25.5s8.83301 -17 11.5 -25v-2h1l3 -9c3.33301 -11.333 6.16602 -24.166 8.49902 -38.499s3.5 -27.833 3.5 -40.5c0 -5.33301 0.166992 -11.833 0.5 -19.5
s0.5 -15.167 0.5 -22.5v-124c0.666992 -16.667 6.83398 -31 18.501 -43s25.834 -17.667 42.501 -17h13zM420.001 249.993c-10 -0.666992 -19.1699 -1.00293 -27.5029 -1.00293h-28.5h-58c-18.667 0 -39.667 0.333008 -63 1c-13.333 0 -26.666 -1.16699 -39.999 -3.5
s-25.666 -6.16602 -36.999 -11.499s-21.166 -12.666 -29.499 -21.999s-14.5 -20.666 -18.5 -33.999c-4 -16 -4 -33.667 0 -53c8 -27.333 18.667 -49.166 32 -65.499s28.5 -28 45.5 -35s35.167 -9.83301 54.5 -8.5s39 5.83301 59 13.5s39.5 17.667 58.5 30
s36.5 26.166 52.5 41.499v148z" />
    <glyph glyph-name="aacute" unicode="&#xe1;" horiz-adv-x="608" 
d="M299 520l-39 2l35 121l82 -3zM579 21l0.00195312 -21.0078h-163v58c-20 -18 -42.667 -33 -68 -45s-52 -20 -80 -24c-16.667 -2.66699 -34.334 -3.66699 -53.001 -3s-37 3 -55 7s-35.167 9.66699 -51.5 17s-30.5 17 -42.5 29c-14 12.667 -24.167 28 -30.5 46
s-9 36.333 -8 55s5.33301 36.334 13 53.001s18.834 30.334 33.501 41.001c11.333 9.33301 24.5 16.5 39.5 21.5s31.167 8.66699 48.5 11s35.333 3.66602 54 3.99902s37 0.5 55 0.5h145c-2.66699 42 -11.667 74 -27 96c-17.333 28 -39.833 47.167 -67.5 57.5
s-56.167 11.833 -85.5 4.5c-33.333 -7.33301 -58.333 -22.666 -75 -45.999c-6.66699 -9.33301 -11.167 -19.166 -13.5 -29.499s-3.16602 -20.833 -2.49902 -31.5h-80c10.667 34.667 29.834 62.834 57.501 84.501s58.667 36.834 93 45.501s69.5 10.834 105.5 6.50098
s67.667 -15.166 95 -32.499c7.33301 -3.33301 14.666 -8.5 21.999 -15.5s14.166 -14.667 20.499 -23s12.166 -16.833 17.499 -25.5s9.33301 -17 12 -25v-2h1l3 -9c3.33301 -11.333 6.16602 -24.166 8.49902 -38.499s3.5 -27.833 3.5 -40.5
c0 -5.33301 0.166992 -11.833 0.5 -19.5s0.5 -15.167 0.5 -22.5v-124c0 -16.667 5.83301 -31 17.5 -43s26.167 -17.667 43.5 -17h13zM416.002 249.992c-10 -0.666992 -19.166 -1.00195 -27.499 -1.00195h-27.5h-59c-18.667 0 -39.667 0.333008 -63 1
c-12.667 0 -25.667 -1.16699 -39 -3.5s-25.833 -6.16602 -37.5 -11.499s-21.667 -12.666 -30 -21.999s-14.5 -20.666 -18.5 -33.999c-4 -16.667 -3.66699 -34.334 1 -53.001c7.33301 -27.333 17.666 -49.166 30.999 -65.499s28.5 -28 45.5 -35s35.167 -9.83301 54.5 -8.5
s39 5.83301 59 13.5s39.5 17.667 58.5 30s36.5 26.166 52.5 41.499v148z" />
    <glyph glyph-name="acircumflex" unicode="&#xe2;" horiz-adv-x="613" 
d="M192 522l-29 24l122 80l121 -80l-29 -24l-92 41v0v0zM580 21l0.0078125 -21.0068h-162v58c-20.667 -18 -43.5 -33 -68.5 -45s-51.833 -20 -80.5 -24c-16.667 -2.66699 -34.334 -3.66699 -53.001 -3s-37 3 -55 7s-35.167 9.66699 -51.5 17s-30.5 17 -42.5 29
c-14 12.667 -24 28 -30 46s-8.66699 36.333 -8 55s5 36.334 13 53.001s19 30.334 33 41.001c11.333 9.33301 24.5 16.5 39.5 21.5s31.333 8.66699 49 11s35.667 3.66602 54 3.99902s36.5 0.5 54.5 0.5h146c-2.66699 40.667 -12 72.667 -28 96
c-17.333 28 -39.833 47.167 -67.5 57.5s-55.834 11.833 -84.501 4.5c-32.667 -6.66699 -58 -22 -76 -46c-6.66699 -9.33301 -11 -19.166 -13 -29.499s-2.66699 -20.833 -2 -31.5h-80c10 34.667 28.833 62.834 56.5 84.501s58.667 36.834 93 45.501
s69.666 10.834 105.999 6.50098s68.166 -15.166 95.499 -32.499c7.33301 -3.33301 14.666 -8.5 21.999 -15.5s14.166 -14.667 20.499 -23s12 -16.833 17 -25.5s8.83301 -17 11.5 -25v-2h1l3 -9c3.33301 -11.333 6.16602 -24.166 8.49902 -38.499s3.5 -27.833 3.5 -40.5
c0 -5.33301 0.166992 -11.833 0.5 -19.5s0.5 -15.167 0.5 -22.5v-124c0.666992 -16.667 6.66699 -31 18 -43s25.666 -17.667 42.999 -17h13zM418.008 249.993c-10.667 -0.666992 -20.001 -1.00293 -28.001 -1.00293h-28h-59c-18.667 0 -39.334 0.333008 -62.001 1
c-13.333 0 -26.666 -1.16699 -39.999 -3.5s-25.666 -6.16602 -36.999 -11.499s-21.333 -12.666 -30 -21.999s-14.667 -20.666 -18 -33.999c-5.33301 -16 -5.33301 -33.667 0 -53c7.33301 -27.333 17.666 -49.166 30.999 -65.499s28.5 -28 45.5 -35s35.333 -9.83301 55 -8.5
s39.334 5.83301 59.001 13.5s39.167 17.667 58.5 30s37 26.166 53 41.499v148z" />
    <glyph glyph-name="atilde" unicode="&#xe3;" horiz-adv-x="606" 
d="M208 543l-27.0029 34.001l25 19c12.667 9.33301 26.834 14.5 42.501 15.5s29.834 -2.83301 42.501 -11.5c14 -9.33301 29.333 -13.333 46 -12s31.334 7.33301 44.001 18l27 -34l-40 -27c-9.33301 -5.33301 -19.833 -8.33301 -31.5 -9s-22.5 1.33301 -32.5 6l-21 9
c-22 9.33301 -43.667 8.66602 -65 -2.00098zM584.997 21.001l0.00390625 -21.0068h-162v58c-20.667 -18 -43.5 -33 -68.5 -45s-51.5 -20 -79.5 -24c-16.667 -2.66699 -34.5 -3.66699 -53.5 -3s-37.5 3 -55.5 7s-35.167 9.66699 -51.5 17s-30.5 17 -42.5 29
c-13.333 12.667 -23.166 28 -29.499 46s-9 36.333 -8 55s5.33301 36.334 13 53.001s18.5 30.334 32.5 41.001c11.333 9.33301 24.5 16.5 39.5 21.5s31.333 8.66699 49 11s35.667 3.66602 54 3.99902s36.5 0.5 54.5 0.5h146c-2.66699 40.667 -12 72.667 -28 96
c-17.333 28 -39.833 47.167 -67.5 57.5s-55.834 11.833 -84.501 4.5c-32.667 -6.66699 -58 -22 -76 -46c-6.66699 -9.33301 -11 -19.166 -13 -29.499s-2.66699 -20.833 -2 -31.5h-80c10.667 34.667 29.667 62.834 57 84.501s58.333 36.834 93 45.501s70 10.834 106 6.50098
s67.667 -15.166 95 -32.499c7.33301 -3.33301 14.666 -8.5 21.999 -15.5s14.166 -14.667 20.499 -23s12 -16.833 17 -25.5s8.83301 -17 11.5 -25v-2h1l3 -9c3.33301 -11.333 6.16602 -24.166 8.49902 -38.499s3.5 -27.833 3.5 -40.5c0 -5.33301 0.166992 -11.833 0.5 -19.5
s0.5 -15.167 0.5 -22.5v-124c0.666992 -16.667 6.66699 -31 18 -43s25.666 -17.667 42.999 -17h13zM423.001 249.994c-10 -0.666992 -19.1699 -1.00293 -27.5029 -1.00293h-28.5h-58.5c-18.333 0 -39.166 0.333008 -62.499 1c-13.333 0 -26.666 -1.16699 -39.999 -3.5
s-25.666 -6.16602 -36.999 -11.499s-21.166 -12.666 -29.499 -21.999s-14.5 -20.666 -18.5 -33.999c-2.66699 -8 -3.83398 -16.5 -3.50098 -25.5s1.5 -18.167 3.5 -27.5c8 -27.333 18.667 -49.166 32 -65.499s28.5 -28 45.5 -35s35.167 -9.83301 54.5 -8.5
s39 5.83301 59 13.5s39.5 17.667 58.5 30s36.5 26.166 52.5 41.499v148z" />
    <glyph glyph-name="adieresis" unicode="&#xe4;" horiz-adv-x="602" 
d="M218 528c-15.333 0 -26.833 4.83301 -34.5 14.5s-11.5 20.167 -11.5 31.5c0 15.333 4.83301 26.666 14.5 33.999s20.167 11 31.5 11s21.833 -3.66699 31.5 -11s14.5 -18.666 14.5 -33.999c0 -11.333 -3.83301 -21.833 -11.5 -31.5s-19.167 -14.5 -34.5 -14.5zM358 528
c-15.333 0 -26.833 4.83301 -34.5 14.5s-11.5 20.167 -11.5 31.5c0 15.333 4.83301 26.666 14.5 33.999s20.167 11 31.5 11s21.833 -3.66699 31.5 -11s14.5 -18.666 14.5 -33.999c0 -11.333 -3.83301 -21.833 -11.5 -31.5s-19.167 -14.5 -34.5 -14.5zM582 21
l0.000976562 -21.0068h-162v58c-20.667 -18 -43.5 -33 -68.5 -45s-51.5 -20 -79.5 -24c-16.667 -2.66699 -34.5 -3.66699 -53.5 -3s-37.5 3 -55.5 7s-35.167 9.66699 -51.5 17s-30.5 17 -42.5 29c-13.333 12.667 -23.166 28 -29.499 46s-9 36.333 -8 55
s5.33301 36.334 13 53.001s18.5 30.334 32.5 41.001c11.333 9.33301 24.5 16.5 39.5 21.5s31.333 8.66699 49 11s35.667 3.66602 54 3.99902s36.5 0.5 54.5 0.5h146c-2.66699 40.667 -12 72.667 -28 96c-17.333 28 -39.833 47.167 -67.5 57.5s-55.834 11.833 -84.501 4.5
c-32.667 -6.66699 -58 -22 -76 -46c-6.66699 -9.33301 -11 -19.166 -13 -29.499s-2.66699 -20.833 -2 -31.5h-80c10.667 34.667 29.667 62.834 57 84.501s58.333 36.834 93 45.501s70 10.834 106 6.50098s67.667 -15.166 95 -32.499
c7.33301 -3.33301 14.666 -8.5 21.999 -15.5s14.166 -14.667 20.499 -23s12 -16.833 17 -25.5s8.83301 -17 11.5 -25v-2h1l3 -9c3.33301 -11.333 6.16602 -24.166 8.49902 -38.499s3.5 -27.833 3.5 -40.5c0 -5.33301 0.166992 -11.833 0.5 -19.5s0.5 -15.167 0.5 -22.5v-124
c0.666992 -16.667 6.83398 -31 18.501 -43s25.834 -17.667 42.501 -17h13zM420.001 249.993c-10 -0.666992 -19.1699 -1.00293 -27.5029 -1.00293h-28.5h-58c-18.667 0 -39.667 0.333008 -63 1c-13.333 0 -26.666 -1.16699 -39.999 -3.5s-25.666 -6.16602 -36.999 -11.499
s-21.166 -12.666 -29.499 -21.999s-14.5 -20.666 -18.5 -33.999c-4 -16 -4 -33.667 0 -53c8 -27.333 18.667 -49.166 32 -65.499s28.5 -28 45.5 -35s35.167 -9.83301 54.5 -8.5s39 5.83301 59 13.5s39.5 17.667 58.5 30s36.5 26.166 52.5 41.499v148z" />
    <glyph glyph-name="aring" unicode="&#xe5;" horiz-adv-x="602" 
d="M582 21l-0.00195312 -21.0039h-162v58c-20.667 -18 -43.5 -33 -68.5 -45s-51.5 -20 -79.5 -24c-16.667 -2.66699 -34.5 -3.66699 -53.5 -3s-37.5 3 -55.5 7s-35.167 9.66699 -51.5 17s-30.5 17 -42.5 29c-13.333 12.667 -23.166 28 -29.499 46s-9 36.333 -8 55
s5.33301 36.334 13 53.001s18.5 30.334 32.5 41.001c11.333 9.33301 24.5 16.5 39.5 21.5s31.333 8.66699 49 11s35.667 3.66602 54 3.99902s36.5 0.5 54.5 0.5h146c-2.66699 40.667 -12 72.667 -28 96c-17.333 28 -39.833 47.167 -67.5 57.5s-55.834 11.833 -84.501 4.5
c-32.667 -6.66699 -58 -22 -76 -46c-6.66699 -9.33301 -11 -19.166 -13 -29.499s-2.66699 -20.833 -2 -31.5h-80c5.33301 18.667 13.5 35.5 24.5 50.5s23.833 28 38.5 39s30.5 20 47.5 27s34.5 12.5 52.5 16.5c-2 0.666992 -3.83301 1.33398 -5.5 2.00098
s-3.5 1.33398 -5.5 2.00098c-18 10.667 -29.833 24 -35.5 40s-6 31.667 -1 47s15 28.333 30 39s34.5 16 58.5 16c31.333 -0.666992 54.5 -8.66699 69.5 -24s22.5 -33 22.5 -53c0.666992 -12 -2.16602 -23.667 -8.49902 -35s-15.166 -20.333 -26.499 -27v0l-6 -3
c18 -2 35.333 -5.83301 52 -11.5s31.334 -12.834 44.001 -21.501c7.33301 -3.33301 14.666 -8.5 21.999 -15.5s14.166 -14.667 20.499 -23s12 -16.833 17 -25.5s8.83301 -17 11.5 -25v-2h1l3 -9c3.33301 -11.333 6.16602 -24.166 8.49902 -38.499s3.5 -27.833 3.5 -40.5
c0 -5.33301 0.166992 -11.833 0.5 -19.5s0.5 -15.167 0.5 -22.5v-124c0.666992 -16.667 6.83398 -31 18.501 -43s25.834 -17.667 42.501 -17h13zM313.998 476.996c6 8 8.5 18.999 7.5 32.999s-4.83301 27.333 -11.5 40s-15.334 22.667 -26.001 30s-22 8.33301 -34 3
c-12 -4.66699 -19.5 -12.667 -22.5 -24s-3 -23.333 0 -36s8.16699 -24.5 15.5 -35.5s15.333 -18.5 24 -22.5h1v0c2.66699 -1.33301 4.66699 -2 6 -2c8.66699 -1.33301 16.334 -0.666016 23.001 2.00098v0v0c7.33301 3.33301 13 7.33301 17 12zM419.998 249.995
c-10 -0.666992 -19.1699 -1.00293 -27.5029 -1.00293h-28.5h-58c-18.667 0 -39.667 0.333008 -63 1c-13.333 0 -26.666 -1.16699 -39.999 -3.5s-25.666 -6.16602 -36.999 -11.499s-21.166 -12.666 -29.499 -21.999s-14.5 -20.666 -18.5 -33.999c-4 -16 -4 -33.667 0 -53
c8 -27.333 18.667 -49.166 32 -65.499s28.5 -28 45.5 -35s35.167 -9.83301 54.5 -8.5s39 5.83301 59 13.5s39.5 17.667 58.5 30s36.5 26.166 52.5 41.499v148z" />
    <glyph glyph-name="ae" unicode="&#xe6;" horiz-adv-x="925" 
d="M575 94c24.667 -23.333 51 -38.3369 79 -45.0039s55.333 -6.5 82 0.5s51.334 20 74.001 39s41 41.833 55 68.5h17c-7.33301 -28 -21 -52.667 -41 -74s-43.833 -38.333 -71.5 -51s-57.5 -20.167 -89.5 -22.5s-63.333 1.16699 -94 10.5
c-44.667 13.333 -81.667 38.666 -111 75.999c-2.66699 2.66699 -4.33398 4.66699 -5.00098 6c-21.333 -24 -49.166 -44.333 -83.499 -61s-70.333 -27.834 -108 -33.501s-74.834 -4.83398 -111.501 2.49902s-68 22.666 -94 45.999c-13.333 12.667 -23 27 -29 43
s-9 32.667 -9 50c0.666992 27.333 5.83398 49.833 15.501 67.5s23 31.834 40 42.501s37 18.334 60 23.001s48.167 7 75.5 7h198c-2.66699 40 -12 72 -28 96c-17.333 28 -39.833 47.167 -67.5 57.5s-55.834 11.833 -84.501 4.5c-16.667 -4 -31.167 -9.66699 -43.5 -17
s-23.166 -17 -32.499 -29c-6.66699 -9.33301 -11 -19.166 -13 -29.499s-2.66699 -20.833 -2 -31.5h-80c10.667 34.667 29.667 62.834 57 84.501s58.333 36.834 93 45.501s70 10.834 106 6.50098s67.667 -15.166 95 -32.499c7.33301 -4 15.333 -10.167 24 -18.5
s16.334 -17.166 23.001 -26.499c0 0.666992 0.166992 1.16699 0.5 1.5s0.5 0.833008 0.5 1.5h1v0c19.333 25.333 45.166 45.166 77.499 59.499s71.166 21.5 116.499 21.5s83 -7.5 113 -22.5s54 -33.5 72 -55.5s30.667 -45.833 38 -71.5s11 -49.167 11 -70.5h-385v3v-3h-5v0
h5c2 -40.667 8.33301 -74.167 19 -100.5s24 -49.166 40 -68.499zM516 283.996v-3.00098v3h290c0 41.333 -7 75.5 -21 102.5s-31.5 47.333 -52.5 61s-44 20.334 -69 20.001s-48.167 -7.33301 -69.5 -21s-39.333 -34.167 -54 -61.5s-22.667 -61 -24 -101zM424 267.995
c-5.33301 -0.666992 -10.168 -1.00195 -14.501 -1.00195h-13.5h-73.5c-24.333 0 -49.5 0.333008 -75.5 1c-13.333 0 -26.666 -1.16699 -39.999 -3.5s-25.666 -6.33301 -36.999 -12s-21.333 -13.167 -30 -22.5s-14.667 -20.666 -18 -33.999
c-2.66699 -7.33301 -3.83398 -15.5 -3.50098 -24.5s1.5 -18.5 3.5 -28.5c8.66699 -32.667 22 -57.5 40 -74.5s38.333 -27.5 61 -31.5s46.834 -2.16699 72.501 5.5s50.834 19.834 75.501 36.501c13.333 9.33301 25.166 19 35.499 29s16.166 22 17.499 36v124z" />
    <glyph glyph-name="ccedilla" unicode="&#xe7;" horiz-adv-x="499" 
d="M305 -11l-38 -57.9941c28.667 -5.33301 52 -17.5 70 -36.5s27 -40.167 27 -63.5c-0.666992 -20 -6.66699 -37.667 -18 -53s-25.666 -26.666 -42.999 -33.999s-36.166 -10.5 -56.499 -9.5s-40.166 8.16699 -59.499 21.5l5 20c26 -7.33301 47 -9.16602 63 -5.49902
s28 10.167 36 19.5s12.667 19.833 14 31.5s0.333008 22.167 -3 31.5c-4.66699 13.333 -11.334 25.666 -20.001 36.999s-20.667 18 -36 20l-31 1l22 78c-42 4 -77.833 15.333 -107.5 34s-53.334 41.667 -71.001 69s-29.334 57.166 -35.001 89.499
s-5.33398 64.166 0.999023 95.499s18.666 60.666 36.999 87.999s42.333 49.5 72 66.5s65.334 27.333 107.001 31s88.834 -2.5 141.501 -18.5h37c3.33301 -6.66699 7.16602 -14.834 11.499 -24.501l13.5 -30l13.5 -30l11.5 -25.5l-86 35c-0.666992 2.66699 -1.5 5.5 -2.5 8.5
s-2.16699 5.83301 -3.5 8.5v0c-8.66699 19.333 -23.334 34.166 -44.001 44.499s-42 15.5 -64 15.5c-24.667 0 -46.667 -5.33301 -66 -16s-35.666 -24.667 -48.999 -42s-23.5 -37 -30.5 -59s-10.5 -44 -10.5 -66c0 -46.667 4.5 -85.334 13.5 -116.001
s23.167 -55.334 42.5 -74.001c24.667 -24.667 51.334 -40 80.001 -46s56.334 -5.16699 83.001 2.5s51 21.167 73 40.5s39 41.333 51 66h18c-10.667 -37.333 -30.334 -68.833 -59.001 -94.5s-64.667 -42.167 -108 -49.5zM405 402.006v-1l1 1h-1v0z" />
    <glyph glyph-name="egrave" unicode="&#xe8;" horiz-adv-x="532" 
d="M181 77c24.667 -24 51 -39.167 79 -45.5s55.333 -6 82 1s51.334 19.833 74.001 38.5s41 41.334 55 68.001l17 1c-6 -22 -15.667 -42 -29 -60s-29.5 -33.5 -48.5 -46.5s-40.667 -23.167 -65 -30.5s-50.5 -11 -78.5 -11c-35.333 0 -67.5 6.16699 -96.5 18.5
s-54 29.166 -75 50.499s-37.167 46.5 -48.5 75.5s-17 59.833 -17 92.5c0 34 5 65.5 15 94.5s25.167 54 45.5 75s45.666 37.5 75.999 49.5s65.833 18 106.5 18c45.333 0 83 -7.5 113 -22.5s54 -33.667 72 -56s30.667 -46.333 38 -72s11 -49.167 11 -70.5v0h-385
c2 -40.667 8.33301 -74.167 19 -100.5s24 -48.833 40 -67.5zM273 450c-24.667 0 -46.502 -5.33398 -65.502 -16.001s-34.833 -24.667 -47.5 -42s-22.167 -37 -28.5 -59s-9.5 -44.333 -9.5 -67h290c0 20.667 -2.66699 41.834 -8 63.501s-13.666 41.5 -24.999 59.5
s-25.666 32.667 -42.999 44s-38.333 17 -63 17zM202.998 634.999l81 3l35 -121l-38 -2z" />
    <glyph glyph-name="eacute" unicode="&#xe9;" horiz-adv-x="527" 
d="M180 77c24.667 -24 50.9971 -39.167 78.9971 -45.5s55.333 -6 82 1s51.334 19.833 74.001 38.5s41 41.334 55 68.001l17 1c-6 -22 -15.667 -42 -29 -60s-29.5 -33.5 -48.5 -46.5s-40.667 -23.167 -65 -30.5s-50.5 -11 -78.5 -11c-35.333 0 -67.666 6.16699 -96.999 18.5
s-54.333 29.166 -75 50.499s-36.667 46.5 -48 75.5s-17 59.833 -17 92.5c0 34 5 65.5 15 94.5s25 54 45 75s45.333 37.5 76 49.5s66.334 18 107.001 18c45.333 0 83 -7.5 113 -22.5s54 -33.667 72 -56s30.667 -46.333 38 -72s11 -49.167 11 -70.5v0h-385
c2 -40.667 8.33301 -74.167 19 -100.5s24 -48.833 40 -67.5zM271.997 450c-24.667 0 -46.502 -5.33398 -65.502 -16.001s-34.833 -24.667 -47.5 -42s-22.167 -37 -28.5 -59s-9.5 -44.333 -9.5 -67h290c0 20.667 -2.66699 41.834 -8 63.501s-13.666 41.5 -24.999 59.5
s-25.666 32.667 -42.999 44s-38.333 17 -63 17zM290.995 637.999l82 -3l-78 -120l-39 2z" />
    <glyph glyph-name="ecircumflex" unicode="&#xea;" horiz-adv-x="532" 
d="M181 77c24.667 -24 50.999 -39.1689 78.999 -45.502s55.333 -6 82 1s51.334 19.833 74.001 38.5s41 41.334 55 68.001l17 1c-12.667 -44 -38.5 -79.667 -77.5 -107s-86.833 -41 -143.5 -41c-35.333 0 -67.666 6.16699 -96.999 18.5s-54.333 29.333 -75 51
s-36.667 46.834 -48 75.501s-17 59.334 -17 92.001c0 34 5 65.5 15 94.5s25.167 54 45.5 75s45.666 37.5 75.999 49.5s65.833 18 106.5 18c45.333 0 83 -7.5 113 -22.5s54 -33.5 72 -55.5s30.667 -45.833 38 -71.5s11 -49.167 11 -70.5v-1h-385
c2 -40 8.33301 -73.333 19 -100s24 -49.334 40 -68.001zM272.999 449.998c-24.667 0 -46.502 -5.33301 -65.502 -16s-34.833 -24.667 -47.5 -42s-22.167 -37 -28.5 -59s-9.5 -44 -9.5 -66h290c0 20 -2.66699 40.833 -8 62.5s-13.666 41.5 -24.999 59.5
s-25.666 32.667 -42.999 44s-38.333 17 -63 17zM186.997 516.998l-29 24l121 80l122 -80l-30 -24l-92 41v0v0z" />
    <glyph glyph-name="edieresis" unicode="&#xeb;" horiz-adv-x="530" 
d="M180 77c24.667 -24 50.999 -39.1699 78.999 -45.5029s55.333 -6 82 1s51.167 20 73.5 39s40.5 41.833 54.5 68.5h18c-13.333 -44 -39.5 -79.667 -78.5 -107s-86.5 -41 -142.5 -41c-35.333 0 -67.666 6.16699 -96.999 18.5s-54.333 29.333 -75 51
s-36.667 46.834 -48 75.501s-17 59.334 -17 92.001c0 34 5 65.5 15 94.5s25 54 45 75s45.167 37.5 75.5 49.5s65.833 18 106.5 18c45.333 0 83 -7.5 113 -22.5s54 -33.5 72 -55.5s30.833 -45.833 38.5 -71.5s11.5 -49.167 11.5 -70.5v0h-385
c1.33301 -40.667 7.5 -74.167 18.5 -100.5s24.5 -49.166 40.5 -68.499zM270.999 449.997c-24.667 0 -46.3311 -5.33301 -64.998 -16s-34.334 -24.667 -47.001 -42s-22.334 -37 -29.001 -59s-10 -44 -10 -66h291c0 20 -2.66699 40.833 -8 62.5s-13.666 41.5 -24.999 59.5
s-25.833 32.667 -43.5 44s-38.834 17 -63.501 17zM202.002 523.997c-15.333 0 -26.834 4.66699 -34.501 14s-11.5 19.666 -11.5 30.999c0 15.333 4.66699 26.666 14 33.999s19.833 11 31.5 11s22.334 -3.66699 32.001 -11s14.5 -18.666 14.5 -33.999
c0 -11.333 -3.83301 -21.666 -11.5 -30.999s-19.167 -14 -34.5 -14zM342.001 523.997c-15.333 0 -27.002 4.66699 -35.002 14s-12 19.666 -12 30.999c0 15.333 4.83301 26.666 14.5 33.999s20.334 11 32.001 11s22.334 -3.66699 32.001 -11s14.5 -18.666 14.5 -33.999
c0 -11.333 -3.83301 -21.666 -11.5 -30.999s-19.167 -14 -34.5 -14z" />
    <glyph glyph-name="igrave" unicode="&#xec;" horiz-adv-x="307" 
d="M95 546l-79 120l82 3l35 -121zM47 21c17.333 0 32 6.16797 44 18.501s18 27.166 18 44.499v269c0 17.333 -6 32.166 -18 44.499s-26.667 18.5 -44 18.5h-27v21h178v-353c0 -17.333 6 -32.166 18 -44.499s26.667 -18.5 44 -18.5h27v-21h-267v21h27z" />
    <glyph glyph-name="iacute" unicode="&#xed;" horiz-adv-x="306" 
d="M149 519l-38 3l35 120l82 -3zM287 0l-267 0.000976562v21h27c17.333 0 32 6.16699 44 18.5s18 27.166 18 44.499v269c0 17.333 -6 32.166 -18 44.499s-26.667 18.5 -44 18.5h-27v21h178v-353c0 -17.333 6 -32.166 18 -44.499s26.667 -18.5 44 -18.5h27v-21z" />
    <glyph glyph-name="icircumflex" unicode="&#xee;" horiz-adv-x="305" 
d="M148 562l-92 -41l-29 24l121 80l122 -80l-29 -24l-93 41v0v0zM198 0l-178 0.000976562v21h27c17.333 0 32 6.16699 44 18.5s18 27.166 18 44.499v269c0 17.333 -6 32.166 -18 44.499s-26.667 18.5 -44 18.5h-27v21h178v-353c0 -17.333 6 -32.166 18 -44.499
s26.667 -18.5 44 -18.5h27v-21h-89z" />
    <glyph glyph-name="idieresis" unicode="&#xef;" horiz-adv-x="302" 
d="M198 84c0 -17.333 6 -32.165 18 -44.498s26.667 -18.5 44 -18.5h27v-21h-267v21h27c17.333 0 32 6.16699 44 18.5s18 27.166 18 44.499v269c0 17.333 -6 32.166 -18 44.499s-26.667 18.5 -44 18.5h-27v21h178v-353zM64 520.001c-15.333 0 -26.835 4.66699 -34.502 14
s-11.5 19.666 -11.5 30.999c0 15.333 4.83301 26.666 14.5 33.999s20.334 11 32.001 11s22.334 -3.66699 32.001 -11s14.5 -18.666 14.5 -33.999c0 -11.333 -4 -21.666 -12 -30.999s-19.667 -14 -35 -14zM157.998 565.001c0 11.333 3.83301 21.666 11.5 30.999
s19.167 14 34.5 14s27 -4.66699 35 -14s12 -19.666 12 -30.999s-4 -21.666 -12 -30.999s-19.667 -14 -35 -14s-26.833 4.66699 -34.5 14s-11.5 19.666 -11.5 30.999z" />
    <glyph glyph-name="eth" unicode="&#xf0;" horiz-adv-x="561" 
d="M517 313c13.333 -35.333 18.498 -71.998 15.498 -109.998s-14.167 -72.833 -33.5 -104.5s-47 -57.667 -83 -78s-80.667 -30.5 -134 -30.5c-47.333 2 -87.666 11.167 -120.999 27.5s-60.166 37 -80.499 62s-34.333 52.833 -42 83.5s-9.33398 61.334 -5.00098 92.001
s14.333 60.167 30 88.5s36.667 52.166 63 71.499s58 33.166 95 41.499s78.5 7.83301 124.5 -1.5l-3 5c-3.33301 6.66699 -7.5 14.5 -12.5 23.5s-10.5 18.167 -16.5 27.5c-5.33301 9.33301 -10.833 18.166 -16.5 26.499s-10.5 15.166 -14.5 20.499v0
c-4.66699 6 -10 11.333 -16 16l-134 -71l-10 18l126 68c-21.333 15.333 -42 25.166 -62 29.499s-38.667 4.83301 -56 1.5v24c36 14 68 20.333 96 19s55.667 -10 83 -26l1 -1c1.33301 -1.33301 3 -2.33301 5 -3s3.66699 -1.66699 5 -3h1v-1c0.666992 0 1 -0.166992 1 -0.5
s0.333008 -0.5 1 -0.5l61 33l10 -19l-53 -28v-1v0h1v0v-1v0h1v0c0 -0.666992 0.333008 -1 1 -1l2 -2v0v0l1 -1v0v0v0c4 -4 6.66699 -7 8 -9l7.5 -7.5c2.33301 -2.33301 4.83301 -5.16602 7.5 -8.49902c0 -0.666992 0.333008 -1.33398 1 -2.00098s1 -1.16699 1 -1.5
s0.333008 -0.833008 1 -1.5l2 -2c1.33301 -1.33301 2.5 -3 3.5 -5s2.16699 -3.66699 3.5 -5c0 -0.666992 0.333008 -1 1 -1c0 -0.666992 0.166992 -1.16699 0.5 -1.5s0.5 -0.833008 0.5 -1.5v0c0.666992 0 1 -0.333008 1 -1v-1h1v-1l1 -1
c0.666992 -1.33301 1.16699 -2.16602 1.5 -2.49902s0.833008 -1.16602 1.5 -2.49902v0v0l2 -4h1v-1c0.666992 -0.666992 1 -1.33398 1 -2.00098s0.333008 -1.33398 1 -2.00098h1v-2v0c0.666992 -0.666992 1 -1.16699 1 -1.5s0.333008 -0.833008 1 -1.5s2.5 -3.5 5.5 -8.5
l9.5 -16.5l6 -10.5c1.33301 -2.33301 2.33301 -4.16602 3 -5.49902l2 -2c0 -1.33301 0.666992 -2.66602 2 -3.99902l3 -6v0l60 -113l6 -11v-1l6 -12c2 -4 3.66699 -8 5 -12c2.66699 -5.33301 4.33398 -9.33301 5.00098 -12l5 -11v-1zM366.998 35.002
c30 10.667 52 25.667 66 45s22.167 40.333 24.5 63s0.666016 46 -5.00098 70s-12.834 45.667 -21.501 65s-20 39.333 -34 60s-30.833 38.5 -50.5 53.5s-42 25.5 -67 31.5s-52.5 3.66699 -82.5 -7s-52 -25.667 -66 -45s-22.167 -40.5 -24.5 -63.5
s-0.666016 -46.333 5.00098 -70s12.834 -45.167 21.501 -64.5s20 -39.333 34 -60s30.833 -38.667 50.5 -54s42 -25.833 67 -31.5s52.5 -3.16699 82.5 7.5z" />
    <glyph glyph-name="ntilde" unicode="&#xf1;" horiz-adv-x="693" 
d="M672 21l0.000976562 -21.0039h-267v21h26c17.333 0 32 6 44 18s18.333 26.667 19 44v160c2 45.333 -3.16699 81 -15.5 107s-28.333 44.833 -48 56.5s-41.334 17.334 -65.001 17.001s-45.5 -4.16602 -65.5 -11.499c-25.333 -9.33301 -46.333 -20.166 -63 -32.499
s-29.667 -25.833 -39 -40.5v0v-255c0 -17.333 6 -32.166 18 -44.499s26.667 -18.5 44 -18.5h27v-21h-267v21h27c17.333 0 32 6.16699 44 18.5s18 27.166 18 44.499v269c0 17.333 -6 32.166 -18 44.499s-26.667 18.5 -44 18.5h-27v21h178v-50v0
c26 20.667 52.167 36.5 78.5 47.5s52.166 17.833 77.499 20.5s49.833 1.83398 73.5 -2.49902s45.834 -11.833 66.501 -22.5c10.667 -6 21.334 -13.833 32.001 -23.5s20.167 -22 28.5 -37s15 -33 20 -54s7.5 -46.167 7.5 -75.5v-156c0 -17.333 6.16699 -32.166 18.5 -44.499
s27.166 -18.5 44.499 -18.5h27zM432.001 604.996l26.9971 -34.998l-40 -27c-21.333 -10.667 -42.666 -11.334 -63.999 -2.00098l-21 9c-13.333 5.33301 -26.166 7.16602 -38.499 5.49902s-24.5 -6.16699 -36.5 -13.5l-27 34l30.5 22.5c9.66699 7 21.5 10.833 35.5 11.5
c16 1.33301 30.667 -2.66699 44 -12c13.333 -8.66699 27.833 -12.5 43.5 -11.5s29.834 6.16699 42.501 15.5z" />
    <glyph glyph-name="ograve" unicode="&#xf2;" horiz-adv-x="558" 
d="M279 460c56 0 102.667 -11.8291 140 -35.4961s65.333 -52.834 84 -87.501s28 -72.334 28 -113.001s-9.33301 -78.334 -28 -113.001s-46.667 -63.834 -84 -87.501s-84 -35.5 -140 -35.5c-44 0 -82 7.5 -114 22.5s-58.167 34.167 -78.5 57.5s-35.333 48.833 -45 76.5
s-14.5 54.167 -14.5 79.5s5 51.833 15 79.5s25.167 53.167 45.5 76.5s46.333 42.5 78 57.5s69.5 22.5 113.5 22.5zM364 33.0039c30 10.667 52.002 25.667 66.002 45s22.167 40.5 24.5 63.5s0.666016 46.333 -5.00098 70s-12.834 45.167 -21.501 64.5s-20 39.333 -34 60
s-30.833 38.667 -50.5 54s-42 26 -67 32s-52.5 3.66699 -82.5 -7s-51.833 -25.667 -65.5 -45s-21.834 -40.5 -24.501 -63.5s-1.16699 -46.333 4.5 -70s12.834 -45.167 21.501 -64.5s20 -39.333 34 -60s30.833 -38.667 50.5 -54s42 -26 67 -32s52.5 -3.66699 82.5 7z
M343.002 645.004l-78 -120l-38 2l35 121z" />
    <glyph glyph-name="oacute" unicode="&#xf3;" horiz-adv-x="565" 
d="M284 461c42 0 78.8311 -6.83301 110.498 -20.5s58 -31.5 79 -53.5s36.667 -47.167 47 -75.5s15.5 -57 15.5 -86s-5.16699 -57.667 -15.5 -86s-26 -53.5 -47 -75.5s-47.333 -39.833 -79 -53.5s-68.5 -20.5 -110.5 -20.5c-44 0 -82 7.5 -114 22.5s-58.167 34 -78.5 57
s-35.333 48.5 -45 76.5s-14.5 54.667 -14.5 80s4.83301 51.833 14.5 79.5s24.834 53 45.501 76s46.834 42 78.501 57s69.5 22.5 113.5 22.5zM368.998 35c30 10.667 52 25.667 66 45s22.167 40.5 24.5 63.5s0.666016 46.333 -5.00098 70s-12.834 45.167 -21.501 64.5
s-20 39.333 -34 60s-30.833 38.667 -50.5 54s-42 26 -67 32s-52.5 3.66699 -82.5 -7s-52 -25.667 -66 -45s-22.167 -40.5 -24.5 -63.5s-0.666016 -46.333 5.00098 -70s12.834 -45.167 21.501 -64.5s20 -39.333 34 -60s30.833 -38.667 50.5 -54s42 -26 67 -32
s52.5 -3.66699 82.5 7zM347.998 646l-78 -120l-38 3l35 120z" />
    <glyph glyph-name="ocircumflex" unicode="&#xf4;" horiz-adv-x="565" 
d="M290 459c44 0 81.833 -7.16504 113.5 -21.498s57.834 -32.833 78.501 -55.5s35.834 -48 45.501 -76s14.5 -55.667 14.5 -83c-0.666992 -40 -8.16699 -74.667 -22.5 -104s-33.333 -53.833 -57 -73.5s-50.5 -34.334 -80.5 -44.001s-60.5 -14.334 -91.5 -14.001
s-61.5 5.5 -91.5 15.5s-56.833 24.833 -80.5 44.5s-42.834 44.167 -57.501 73.5s-22.334 63.333 -23.001 102c0 25.333 5 52 15 80s25.167 53.5 45.5 76.5s46.333 42 78 57s69.5 22.5 113.5 22.5zM375 33.002c30 10.667 52 25.666 66 44.999s22.167 40.333 24.5 63
s0.666016 45.834 -5.00098 69.501s-12.834 45.167 -21.501 64.5s-20 39.5 -34 60.5s-30.833 39 -50.5 54s-42 25.5 -67 31.5s-52.5 3.66699 -82.5 -7s-52 -25.667 -66 -45s-22.167 -40.5 -24.5 -63.5s-0.666016 -46.333 5.00098 -70s12.834 -45.167 21.501 -64.5
s20 -39.333 34 -60s30.833 -38.667 50.5 -54s42 -25.833 67 -31.5s52.5 -3.16699 82.5 7.5zM290 630.001l122 -80l-30 -24l-92 41v0v0l-92 -41l-29 24z" />
    <glyph glyph-name="otilde" unicode="&#xf5;" horiz-adv-x="569" 
d="M285 455c44 0 81.8311 -7.16895 113.498 -21.502s57.834 -32.666 78.501 -54.999s35.834 -47.5 45.501 -75.5s14.5 -55.667 14.5 -83c-0.666992 -52.667 -13.5 -96.667 -38.5 -132s-56 -61.5 -93 -78.5s-77 -25.333 -120 -25s-83.167 9.33301 -120.5 27
s-68.5 43.834 -93.5 78.501s-37.833 78 -38.5 130c0 25.333 5 51.833 15 79.5s25.167 53 45.5 76s46.333 42 78 57s69.5 22.5 113.5 22.5zM369.998 28.998c30 10.667 52 25.668 66 45.001s22.167 40.5 24.5 63.5s0.666016 46.333 -5.00098 70s-12.834 45.167 -21.501 64.5
s-20 39.333 -34 60s-30.833 38.667 -50.5 54s-42 25.833 -67 31.5s-52.5 3.16699 -82.5 -7.5s-52 -25.667 -66 -45s-22.167 -40.333 -24.5 -63s-0.666016 -45.834 5.00098 -69.501s12.834 -45.167 21.501 -64.5s20 -39.5 34 -60.5s30.833 -39 50.5 -54s42 -25.5 67 -31.5
s52.5 -3.66699 82.5 7zM229.998 611.999c16.667 1.33301 31.666 -2.66309 44.999 -11.9961s28.5 -13.333 45.5 -12s31.833 7.66602 44.5 18.999l27 -35l-40 -27c-21.333 -10.667 -43 -11.334 -65 -2.00098l-21 9c-13.333 5.33301 -26.166 7.16602 -38.499 5.49902
s-24.5 -6.16699 -36.5 -13.5l-26 34c10.667 7.33301 20.667 14.666 30 21.999s21 11.333 35 12z" />
    <glyph glyph-name="odieresis" unicode="&#xf6;" horiz-adv-x="570" 
d="M294 460c44 0 81.833 -7.16309 113.5 -21.4961s57.667 -32.833 78 -55.5s35.5 -48 45.5 -76s15 -55.667 15 -83s-4.83301 -55 -14.5 -83s-24.667 -53.333 -45 -76s-46.5 -41.167 -78.5 -55.5s-70 -21.5 -114 -21.5c-56 1.33301 -102.667 13.666 -140 36.999
s-65.333 52.166 -84 86.499s-28 71.666 -28 111.999s9.33301 77.666 28 111.999s46.667 63.333 84 87s84 36.167 140 37.5zM379 33.0039c30 10.667 51.8311 25.667 65.498 45s21.834 40.5 24.501 63.5s1.16699 46.333 -4.5 70s-12.834 45.167 -21.501 64.5
s-20.167 39.333 -34.5 60s-31.333 38.667 -51 54s-42 26 -67 32s-52.5 3.66699 -82.5 -7s-51.833 -25.667 -65.5 -45s-21.667 -40.5 -24 -63.5s-0.666016 -46.333 5.00098 -70s12.834 -45.167 21.501 -64.5s20 -39.333 34 -60s30.833 -38.667 50.5 -54s42 -26 67 -32
s52.5 -3.66699 82.5 7zM271.998 570.004c0 -11.333 -3.83301 -21.666 -11.5 -30.999s-19.167 -14 -34.5 -14s-26.833 4.66699 -34.5 14s-11.5 19.666 -11.5 30.999s3.83301 21.666 11.5 30.999s19.167 14 34.5 14s26.833 -4.66699 34.5 -14s11.5 -19.666 11.5 -30.999z
M411.998 570.004c0 -11.333 -4 -21.666 -12 -30.999s-19.667 -14 -35 -14s-26.833 4.66699 -34.5 14s-11.5 19.666 -11.5 30.999s3.83301 21.666 11.5 30.999s19.167 14 34.5 14s27 -4.66699 35 -14s12 -19.666 12 -30.999z" />
    <glyph glyph-name="divide" unicode="&#xf7;" horiz-adv-x="390" 
d="M142 121c0 11.333 4.5 21.5 13.5 30.5s22.167 13.5 39.5 13.5s30.5 -4.5 39.5 -13.5s13.5 -19.167 13.5 -30.5s-4.5 -21.5 -13.5 -30.5s-22.167 -13.5 -39.5 -13.5s-30.5 4.5 -39.5 13.5s-13.5 19.167 -13.5 30.5zM195 337c-17.333 0 -30.5 4.5 -39.5 13.5
s-13.5 19.167 -13.5 30.5s4.5 21.5 13.5 30.5s22.167 13.5 39.5 13.5s30.5 -4.5 39.5 -13.5s13.5 -19.167 13.5 -30.5s-4.5 -21.5 -13.5 -30.5s-22.167 -13.5 -39.5 -13.5zM399 216h-408v70h408v-70z" />
    <glyph glyph-name="oslash" unicode="&#xf8;" horiz-adv-x="560" 
d="M493 356c24 -37.333 37.499 -77.498 40.499 -120.498s-4.5 -83 -22.5 -120s-46.167 -67.833 -84.5 -92.5s-86.5 -37.334 -144.5 -38.001c-46 0 -85.167 8 -117.5 24s-58.833 36.333 -79.5 61l-103 -72l-12 18l102 71c-16 24 -27.333 49.667 -34 77
s-8.66699 54.666 -6 81.999s10 53.5 22 78.5s28.5 47.167 49.5 66.5s46.5 35 76.5 47s64 18.333 102 19c46 0 85.333 -7.83301 118 -23.5s59.334 -36.167 80.001 -61.5l101 72l12 -18zM196.999 412.002c-33.333 -12 -56.8311 -29.001 -70.498 -51.001
s-20.834 -45.833 -21.501 -71.5s3.33301 -51.667 12 -78s18.667 -50.166 30 -71.499l258 180c-10 16 -22 31.5 -36 46.5s-29.833 27.167 -47.5 36.5s-36.834 15.333 -57.501 18s-43 -0.333008 -67 -9zM367.001 30.001c30 10.667 51.833 25.667 65.5 45
s21.834 40.5 24.501 63.5s1.16699 46.333 -4.5 70s-12.834 45.167 -21.501 64.5c-4.66699 10 -9.66699 19.667 -15 29l-258 -181c10.667 -16 23 -31.333 37 -46s29.667 -26.834 47 -36.501s36.5 -15.667 57.5 -18s43.5 0.833984 67.5 9.50098z" />
    <glyph glyph-name="ugrave" unicode="&#xf9;" horiz-adv-x="689" 
d="M333 507l-78 120l81 3l36 -121zM580 83c0 -17.333 6.16602 -32.1621 18.499 -44.4951s27.166 -18.5 44.499 -18.5h27v-21h-178v50c-26 -20.667 -52.167 -36.5 -78.5 -47.5s-52.166 -17.833 -77.499 -20.5s-49.833 -1.83398 -73.5 2.49902s-45.834 11.833 -66.501 22.5
c-10.667 6 -21.334 13.833 -32.001 23.5s-20.167 22 -28.5 37s-15.166 33.167 -20.499 54.5s-8 46.333 -8 75c0.666992 11.333 1 25.666 1 42.999s-0.333008 34.666 -1 51.999v61c0 17.333 -6 32.166 -18 44.499s-26.667 18.5 -44 18.5h-27v21h267v-21h-27
c-17.333 0 -32 -6 -44 -18s-18 -26.667 -18 -44v-178c2 -28.667 7.16699 -53 15.5 -73s19 -36.333 32 -49s27.833 -21.834 44.5 -27.501s33.667 -8.5 51 -8.5c30 0 59 7.33301 87 22s50 34 66 58v255c0 17.333 -6.16699 32.166 -18.5 44.499s-27.166 18.5 -44.499 18.5h-26
v21h267v-21h-27c-17.333 0 -32.166 -6.16699 -44.499 -18.5s-18.5 -27.166 -18.5 -44.499v-269z" />
    <glyph glyph-name="uacute" unicode="&#xfa;" horiz-adv-x="696" 
d="M352 631l81 -3l-78 -120l-38 2zM576 84c0 -17.333 5.99902 -32.166 17.999 -44.499s26.667 -18.5 44 -18.5h27v-21h-178v50c-26 -20 -52.167 -35.5 -78.5 -46.5s-52.166 -18 -77.499 -21s-49.833 -2.16699 -73.5 2.5s-45.834 12 -66.501 22
c-10.667 6 -21.334 13.833 -32.001 23.5s-20.167 22 -28.5 37s-15 33.167 -20 54.5s-7.5 46.333 -7.5 75v156c0 17.333 -6.16699 32.166 -18.5 44.499s-27.166 18.5 -44.499 18.5h-27v21h267v-21h-26c-17.333 0 -32.166 -6 -44.499 -18s-18.5 -26.667 -18.5 -44v-178
c2 -28.667 7.16699 -53 15.5 -73s19 -36.333 32 -49s27.833 -21.834 44.5 -27.501s33.667 -8.5 51 -8.5c29.333 0 58.333 7.33301 87 22s50.667 34.334 66 59.001v254c0 17.333 -6 32.166 -18 44.499s-26.667 18.5 -44 18.5h-27v21h267v-21h-27
c-17.333 0 -32 -6.16699 -44 -18.5s-18 -27.166 -18 -44.499v-269z" />
    <glyph glyph-name="ucircumflex" unicode="&#xfb;" horiz-adv-x="690" 
d="M357 621l122 -79l-29 -25l-93 42v0v0l-92 -42l-29 25zM583 83c0 -17.333 6.16504 -32.1621 18.498 -44.4951s27.166 -18.5 44.499 -18.5h27v-21h-178v50c-26 -20.667 -52.167 -36.5 -78.5 -47.5s-52.166 -17.833 -77.499 -20.5s-49.833 -1.83398 -73.5 2.49902
s-45.834 11.833 -66.501 22.5c-10.667 6 -21.334 13.833 -32.001 23.5s-20.167 22 -28.5 37s-15.166 33.167 -20.499 54.5s-8 46.333 -8 75c0.666992 11.333 1 25.666 1 42.999s-0.333008 34.666 -1 51.999v61c0 17.333 -6 32.166 -18 44.499s-26.667 18.5 -44 18.5h-27v21
h267v-21h-26c-17.333 0 -32.166 -6 -44.499 -18s-18.5 -26.667 -18.5 -44v-178c2 -28.667 7.16699 -53 15.5 -73s19 -36.333 32 -49s27.833 -21.834 44.5 -27.501s33.667 -8.5 51 -8.5c30 0 59 7.33301 87 22s50 34 66 58v255c0 17.333 -6.16699 32.166 -18.5 44.499
s-27.166 18.5 -44.499 18.5h-26v21h267v-21h-27c-17.333 0 -32.166 -6.16699 -44.499 -18.5s-18.5 -27.166 -18.5 -44.499v-269z" />
    <glyph glyph-name="udieresis" unicode="&#xfc;" horiz-adv-x="688" 
d="M578 352l-0.000976562 -268.996c0 -17.333 6.16699 -32.166 18.5 -44.499s27.166 -18.5 44.499 -18.5h27v-21h-178v50c-26 -20.667 -52.167 -36.5 -78.5 -47.5s-52.166 -17.833 -77.499 -20.5s-49.833 -1.83398 -73.5 2.49902s-45.834 11.833 -66.501 22.5
c-10.667 6 -21.334 13.833 -32.001 23.5s-20.167 22 -28.5 37s-15.166 33.167 -20.499 54.5s-8 46.333 -8 75c0.666992 11.333 1 25.666 1 42.999s-0.333008 34.666 -1 51.999v61c0 17.333 -6 32.166 -18 44.499s-26.667 18.5 -44 18.5h-27v21h267v-21h-27
c-17.333 0 -32 -6 -44 -18s-18 -26.667 -18 -44v-178c2 -28.667 7.16699 -53 15.5 -73s19 -36.333 32 -49s27.833 -21.834 44.5 -27.501s33.667 -8.5 51 -8.5c30 0 59 7.33301 87 22s50 34 66 58v255c0 17.333 -6.16699 32.166 -18.5 44.499s-27.166 18.5 -44.499 18.5h-26
v21h267v-21h-27c-17.333 0 -32.166 -6.16699 -44.499 -18.5s-18.5 -27.166 -18.5 -44.499zM227.999 561.004c0 11.333 3.83301 21.666 11.5 30.999s19.167 14 34.5 14s27 -4.66699 35 -14s12 -19.666 12 -30.999s-4 -21.666 -12 -30.999s-19.667 -14 -35 -14
s-26.833 4.66699 -34.5 14s-11.5 19.666 -11.5 30.999zM367.999 561.004c0 11.333 3.83301 21.666 11.5 30.999s19.167 14 34.5 14s27 -4.66699 35 -14s12 -19.666 12 -30.999s-4 -21.666 -12 -30.999s-19.667 -14 -35 -14s-26.833 4.66699 -34.5 14
s-11.5 19.666 -11.5 30.999z" />
    <glyph glyph-name="yacute" unicode="&#xfd;" horiz-adv-x="728" 
d="M400 629l81 -2l-78 -120l-39 2zM717 437l-0.00390625 -20.999h-62c-11.333 0 -21.666 -2.5 -30.999 -7.5s-16.666 -11.833 -21.999 -20.5v-1l-11 -22.5l-29 -59.5l-41 -84.5l-47 -97l-47 -97l-41.5 -85l-29.5 -60l-11 -22.5c-5.33301 -8 -10.833 -13.333 -16.5 -16
s-12.167 -4.33398 -19.5 -5.00098v0h-1v0v0c-6 0 -13.5 0.333008 -22.5 1s-18.667 3.5 -29 8.5s-21.5 13.333 -33.5 25s-24.667 28.5 -38 50.5c-1.33301 1.33301 -2 2.33301 -2 3l-1 1c-0.666992 1.33301 -1.33398 3 -2.00098 5
c-1.33301 1.33301 -2.16602 2.83301 -2.49902 4.5s-1.16602 3.5 -2.49902 5.5c-2 4.66699 -4.33301 9.66699 -7 15l79 40l71 -134c4.66699 2.66699 9 7 13 13c4 8 8.5 17.5 13.5 28.5s10.333 22.167 16 33.5l16.5 33.5l14 28.5h-77l-196 388
c-5.33301 8.66699 -12.5 15.5 -21.5 20.5s-19.167 7.5 -30.5 7.5h-55v21h283v-21h-41c-10 0 -17.5 -4.33301 -22.5 -13s-5.16699 -17.667 -0.5 -27l171 -354l173 359c3.33301 8 2.33301 15.833 -3 23.5s-12.666 11.5 -21.999 11.5h-51v21h219z" />
    <glyph glyph-name="thorn" unicode="&#xfe;" horiz-adv-x="600" 
d="M375 457c19.333 -4 40.501 -11.498 63.501 -22.498s44.5 -25.667 64.5 -44s36.667 -41 50 -68s20 -59.167 20 -96.5c-0.666992 -45.333 -10.334 -84 -29.001 -116s-42.334 -57.667 -71.001 -77s-60.667 -32.333 -96 -39s-70.166 -7.33398 -104.499 -2.00098
s-66.333 16.666 -96 33.999s-53.167 40 -70.5 68v-294h-79v823h79v-240c16 16 33.5 30 52.5 42s39.5 21.5 61.5 28.5s45.833 11 71.5 12s53.5 -1.83301 83.5 -8.5zM340.001 75.002c24.667 10.667 43.335 26 56.002 46s21.167 41.5 25.5 64.5s5.66602 45.5 3.99902 67.5
s-4.83398 40.333 -9.50098 55c-14 38.667 -33.5 68.167 -58.5 88.5s-52.333 31.833 -82 34.5s-59.5 -3 -89.5 -17s-56.667 -36.333 -80 -67v-209c10 -18.667 24.5 -34 43.5 -46s39.667 -20.5 62 -25.5s44.833 -6.83301 67.5 -5.5s43 6 61 14z" />
    <glyph glyph-name="ydieresis" unicode="&#xff;" horiz-adv-x="730" 
d="M274 560c0 11.333 4 21.666 12 30.999s19.667 14 35 14s27 -4.66699 35 -14s12 -19.666 12 -30.999s-4 -21.666 -12 -30.999s-19.667 -14 -35 -14s-27 4.66699 -35 14s-12 19.666 -12 30.999zM414 560c0 11.333 4 21.666 12 30.999s19.667 14 35 14s27 -4.66699 35 -14
s12 -19.666 12 -30.999s-4 -21.666 -12 -30.999s-19.667 -14 -35 -14s-27 4.66699 -35 14s-12 19.666 -12 30.999zM718 437l-0.00292969 -21.002h-62c-11.333 0 -21.666 -2.66699 -30.999 -8s-16.666 -12.333 -21.999 -21v0l-128 -264l-47 -97l-41 -85l-29.5 -60l-11.5 -23
c-5.33301 -7.33301 -10.833 -12.333 -16.5 -15s-12.167 -4.66699 -19.5 -6v1h-1v0v-1c-6 0 -13.333 0.333008 -22 1s-18.334 3.5 -29.001 8.5s-22 13.333 -34 25s-24.667 28.834 -38 51.501c-1.33301 1.33301 -2 2.33301 -2 3l-1 1c-0.666992 1.33301 -1.33398 3 -2.00098 5
c-1.33301 1.33301 -2.16602 2.83301 -2.49902 4.5s-1.16602 3.5 -2.49902 5.5c-2 4.66699 -4.33301 9.66699 -7 15l79 40l71 -134c4.66699 2.66699 9 6.66699 13 12c4 8 8.5 17.5 13.5 28.5l16 34l16.5 33.5l14 28h-77l-98 194l-35.5 71.5l-31.5 61.5l-30 61
c-6 8.66699 -13.5 15.667 -22.5 21s-19.167 8 -30.5 8h-55v21h283v-21h-41c-10 0 -17.5 -4.5 -22.5 -13.5s-5.16699 -17.833 -0.5 -26.5l171 -355l8 15.5c5.33301 10.333 12 24 20 41l27.5 57.5l31.5 66l86 179c3.33301 8.66699 2.33301 16.834 -3 24.501
s-12.666 11.5 -21.999 11.5h-51v21h219z" />
    <glyph glyph-name="Amacron" unicode="&#x100;" horiz-adv-x="701" 
d="M444 757h-221v50h221v-50zM113 0l-102.998 -0.00195312v21h43c25.333 1.33301 43.333 13.333 54 36l208 415l-54 112l60 77l12.5 -26l33 -68.5l46.5 -96.5l53 -110.5l53 -110.5l46.5 -96.5l33 -68.5l12.5 -26l2 -3v0c4.66699 -9.33301 11.667 -17.166 21 -23.499
s19.666 -9.83301 30.999 -10.5h26v-21h-236v21h37c9.33301 0 16.666 4 21.999 12s6.33301 16.333 3 25l-84 172h-209c-4 -7.33301 -9.83301 -18.833 -17.5 -34.5l-24.5 -49.5l-25 -49.5l-18 -35.5v0c-4.66699 -8.66699 -4.66699 -17.167 0 -25.5s11.667 -13.166 21 -14.499
h90v-21h-137zM330.002 440.998l-96 -190h189z" />
    <glyph glyph-name="amacron" unicode="&#x101;" horiz-adv-x="598" 
d="M399 550h-222v50h222v-50zM582 21l0.000976562 -21.0068h-162v58c-20.667 -18 -43.5 -33 -68.5 -45s-51.5 -20 -79.5 -24c-16.667 -2.66699 -34.5 -3.66699 -53.5 -3s-37.5 3 -55.5 7s-35.167 9.66699 -51.5 17s-30.5 17 -42.5 29c-13.333 12.667 -23.166 28 -29.499 46
s-9 36.333 -8 55s5.33301 36.334 13 53.001s18.5 30.334 32.5 41.001c11.333 9.33301 24.5 16.5 39.5 21.5s31.333 8.66699 49 11s35.667 3.66602 54 3.99902s36.5 0.5 54.5 0.5h146c-2.66699 40.667 -12 72.667 -28 96c-17.333 28 -39.833 47.167 -67.5 57.5
s-55.834 11.833 -84.501 4.5c-32.667 -6.66699 -58 -22 -76 -46c-6.66699 -9.33301 -11 -19.166 -13 -29.499s-2.66699 -20.833 -2 -31.5h-80c10.667 34.667 29.667 62.834 57 84.501s58.333 36.834 93 45.501s70 10.834 106 6.50098s67.667 -15.166 95 -32.499
c7.33301 -3.33301 14.666 -8.5 21.999 -15.5s14.166 -14.667 20.499 -23s12 -16.833 17 -25.5s8.83301 -17 11.5 -25v-2h1l3 -9c3.33301 -11.333 6.16602 -24.166 8.49902 -38.499s3.5 -27.833 3.5 -40.5c0 -5.33301 0.166992 -11.833 0.5 -19.5s0.5 -15.167 0.5 -22.5v-124
c0.666992 -16.667 6.83398 -31 18.501 -43s25.834 -17.667 42.501 -17h13zM420.001 249.993c-10 -0.666992 -19.1699 -1.00293 -27.5029 -1.00293h-28.5h-58c-18.667 0 -39.667 0.333008 -63 1c-13.333 0 -26.666 -1.16699 -39.999 -3.5s-25.666 -6.16602 -36.999 -11.499
s-21.166 -12.666 -29.499 -21.999s-14.5 -20.666 -18.5 -33.999c-4 -16 -4 -33.667 0 -53c8 -27.333 18.667 -49.166 32 -65.499s28.5 -28 45.5 -35s35.167 -9.83301 54.5 -8.5s39 5.83301 59 13.5s39.5 17.667 58.5 30s36.5 26.166 52.5 41.499v148z" />
    <glyph glyph-name="Abreve" unicode="&#x102;" horiz-adv-x="704" 
d="M472 784c-42 -28 -82.5 -42 -121.5 -42s-79.5 14 -121.5 42v0l29 35v0c18 -8.66699 34.333 -15.334 49 -20.001s29.167 -7 43.5 -7s28.833 2.33301 43.5 7s31 11.334 49 20.001zM113 0l-102.998 -0.00195312v21h43c25.333 1.33301 43.333 13.333 54 36l208 415l-54 112
l60 77l12.5 -26l33 -68.5l46.5 -96.5l53 -110.5l53 -110.5l46.5 -96.5l33 -68.5l12.5 -26l2 -3v0c4.66699 -9.33301 11.667 -17.166 21 -23.499s19.666 -9.83301 30.999 -10.5h26v-21h-236v21h37c9.33301 0 16.666 4 21.999 12s6.33301 16.333 3 25l-84 172h-209
c-4 -7.33301 -9.83301 -18.833 -17.5 -34.5l-24.5 -49.5l-25 -49.5l-18 -35.5v0c-4.66699 -8.66699 -4.66699 -17.167 0 -25.5s11.667 -13.166 21 -14.499h90v-21h-137zM330.002 440.998l-96 -190h189z" />
    <glyph glyph-name="abreve" unicode="&#x103;" horiz-adv-x="613" 
d="M407 577c-42 -28 -82.332 -42 -120.999 -42s-79.334 14 -122.001 42l30 35c18 -8.66699 34.333 -15.334 49 -20.001s29 -7 43 -7s28.333 2.33301 43 7s31 11.334 49 20.001zM598.001 21l0.00195312 -21.0078h-16v0h-162v58c-20.667 -18 -43.5 -33 -68.5 -45
s-51.5 -20 -79.5 -24c-16.667 -2.66699 -34.5 -3.66699 -53.5 -3s-37.5 3 -55.5 7s-35.167 9.66699 -51.5 17s-30.5 17 -42.5 29c-13.333 12.667 -23.166 28 -29.499 46s-9 36.333 -8 55s5.33301 36.334 13 53.001s18.5 30.334 32.5 41.001
c11.333 9.33301 24.5 16.5 39.5 21.5s31.333 8.66699 49 11s35.667 3.66602 54 3.99902s36.5 0.5 54.5 0.5h146c-2.66699 40.667 -12 72.667 -28 96c-17.333 28 -39.833 47.167 -67.5 57.5s-55.834 11.833 -84.501 4.5c-32.667 -6.66699 -58 -22 -76 -46
c-6.66699 -9.33301 -11 -19.166 -13 -29.499s-2.66699 -20.833 -2 -31.5h-80c10.667 34.667 29.667 62.834 57 84.501s58.333 36.834 93 45.501s70 10.834 106 6.50098s67.667 -15.166 95 -32.499c7.33301 -3.33301 14.666 -8.5 21.999 -15.5s14.166 -14.667 20.499 -23
s12 -16.833 17 -25.5s8.83301 -17 11.5 -25v-2h1l3 -9c3.33301 -11.333 6.16602 -24.166 8.49902 -38.499s3.5 -27.833 3.5 -40.5c0 -5.33301 0.166992 -11.833 0.5 -19.5s0.5 -15.167 0.5 -22.5v-124c0.666992 -15.333 5.83398 -28.666 15.501 -39.999s22.167 -18 37.5 -20
h37zM420.003 249.992c-10 -0.666992 -19.1699 -1.00293 -27.5029 -1.00293h-28.5h-58c-18.667 0 -39.667 0.333008 -63 1c-13.333 0 -26.666 -1.16699 -39.999 -3.5s-25.666 -6.16602 -36.999 -11.499s-21.166 -12.666 -29.499 -21.999s-14.5 -20.666 -18.5 -33.999
c-4 -16 -4 -33.667 0 -53c8 -27.333 18.667 -49.166 32 -65.499s28.5 -28 45.5 -35s35.167 -9.83301 54.5 -8.5s39 5.83301 59 13.5s39.5 17.667 58.5 30s36.5 26.166 52.5 41.499v148z" />
    <glyph glyph-name="Aogonek" unicode="&#x104;" horiz-adv-x="700" 
d="M568 0c-18.667 -2 -31.832 -9.50488 -39.499 -22.5049s-11.5 -27.167 -11.5 -42.5c0.666992 -19.333 8.33398 -36.333 23.001 -51s32.334 -22 53.001 -22c6 0 11.5 0.333008 16.5 1s9.83301 1.66699 14.5 3l5 -19c-19.333 -13.333 -38.5 -20.666 -57.5 -21.999
s-36.333 1.16699 -52 7.5s-28.834 16 -39.501 29s-17.5 27.333 -20.5 43s-1.5 31.834 4.5 48.501s18 32.334 36 47.001h-45v21h37c9.33301 0 16.666 4 21.999 12s6.33301 16.333 3 25l-84 172h-209c-4 -7.33301 -9.83301 -18.833 -17.5 -34.5l-24.5 -49.5l-25 -49.5
l-18 -35.5v0c-4.66699 -8.66699 -4.66699 -17.167 0 -25.5s11.667 -13.166 21 -14.499h90v-21h-240v21h43c25.333 1.33301 43.333 13.333 54 36l208 415l-54 111l60 78l12.5 -26l33 -68.5l46.5 -96.5l53 -110.5l53 -110.5l46.5 -96.5l33 -68.5l12.5 -26l2 -3v0
c4.66699 -9.33301 11.667 -17.166 21 -23.499s19.666 -9.83301 30.999 -10.5h26v-21h-123zM423.002 250.995l-93 190l-96 -190h189z" />
    <glyph glyph-name="aogonek" unicode="&#x105;" horiz-adv-x="599" 
d="M442 -3c-18.667 -2.66699 -31.667 -10.5029 -39 -23.5029s-11 -26.833 -11 -41.5c0.666992 -19.333 8.33398 -36.333 23.001 -51s32 -22 52 -22c6 0 11.667 0.333008 17 1s10.333 1.66699 15 3l5 -20c-24.667 -15.333 -47.834 -22.666 -69.501 -21.999
s-40.334 6 -56.001 16s-27.667 23.5 -36 40.5s-11.5 34.5 -9.5 52.5s9.83301 35 23.5 51s34.834 28 63.501 36v38c-20.667 -18 -43.5 -33 -68.5 -45s-51.5 -20 -79.5 -24c-16.667 -2.66699 -34.5 -3.83398 -53.5 -3.50098s-37.5 2.5 -55.5 6.5s-35.167 9.66699 -51.5 17
s-30.5 17 -42.5 29c-13.333 12.667 -23.166 28 -29.499 46s-9 36.333 -8 55s5.33301 36.5 13 53.5s18.5 30.833 32.5 41.5c11.333 9.33301 24.5 16.5 39.5 21.5s31.333 8.66699 49 11s35.667 3.66602 54 3.99902s36.5 0.5 54.5 0.5h146c-2.66699 40 -12 72 -28 96
c-17.333 28 -39.833 47.167 -67.5 57.5s-55.834 11.833 -84.501 4.5c-16.667 -4 -31.167 -9.66699 -43.5 -17s-23.166 -17.333 -32.499 -30c-6.66699 -8.66699 -11 -18.334 -13 -29.001s-2.66699 -21 -2 -31h-80c10.667 34.667 29.667 62.834 57 84.501
s58.333 36.834 93 45.501s70 10.834 106 6.50098s67.667 -15.166 95 -32.499c7.33301 -4 14.666 -9.33301 21.999 -16s14.166 -14.167 20.499 -22.5s12 -16.833 17 -25.5s8.83301 -17 11.5 -25v-2h1l3 -9c3.33301 -11.333 6.16602 -24.166 8.49902 -38.499
s3.5 -27.833 3.5 -40.5c0 -5.33301 0.166992 -12 0.5 -20s0.5 -15.667 0.5 -23v-123c0.666992 -17.333 6.83398 -31.833 18.501 -43.5s25.834 -17.5 42.501 -17.5h13v-20h-140zM118 121.997c8 -27.333 18.6641 -49.166 31.9971 -65.499s28.5 -27.833 45.5 -34.5
s35.167 -9.33398 54.5 -8.00098s39 5.83301 59 13.5s39.5 17.667 58.5 30s36.5 26.166 52.5 41.499v148c-10 -1.33301 -19.167 -1.83301 -27.5 -1.5s-17.833 0.5 -28.5 0.5h-58c-18.667 0 -39.667 0.333008 -63 1c-13.333 0 -26.666 -1.16699 -39.999 -3.5
s-25.666 -6.33301 -36.999 -12s-21.166 -13.167 -29.499 -22.5s-14.5 -20.666 -18.5 -33.999c-4 -15.333 -4 -33 0 -53z" />
    <glyph glyph-name="Cacute" unicode="&#x106;" horiz-adv-x="621" 
d="M341 -9c-48 0 -90.3359 9.33203 -127.003 27.999s-67.334 43.5 -92.001 74.5s-43.334 66.167 -56.001 105.5s-19.167 79.5 -19.5 120.5s5.66699 81.167 18 120.5s31.333 74.333 57 105s58 55.334 97 74.001s84.833 27.667 137.5 27
c14.667 0 29.834 -0.833008 45.501 -2.5s31 -3.83398 46 -6.50098s29.5 -6 43.5 -10s26.333 -9 37 -15h27c4 -8 8.66699 -18 14 -30l16.5 -37l16.5 -37l14 -31l-111 43h-2c-1.33301 3.33301 -3.33301 7.66602 -6 12.999l-8.5 17l-8.5 17.5l-6 12.5
c-26 20.667 -52.667 33.834 -80 39.501s-53.666 5.66699 -78.999 0s-49.166 -16.334 -71.499 -32.001s-41.666 -34.5 -57.999 -56.5s-29.166 -46.667 -38.499 -74s-13.666 -55.666 -12.999 -84.999c-0.666992 -57.333 6.66602 -107.833 21.999 -151.5s36 -79.667 62 -108
s55.833 -48.666 89.5 -60.999s68.334 -15.5 104.001 -9.5s71 21.333 106 46s66.5 59.667 94.5 105l10 1c-8.66699 -30 -21 -57.5 -37 -82.5s-35.833 -46.333 -59.5 -64s-50.834 -31.5 -81.501 -41.5s-65 -15 -103 -15zM347.997 683.999l-39 2l35 121l82 -3z" />
    <glyph glyph-name="cacute" unicode="&#x107;" horiz-adv-x="504" 
d="M476 138c-12.667 -44 -37.665 -79.6631 -74.998 -106.996s-84 -41 -140 -41c-44.667 1.33301 -83 10.5 -115 27.5s-57.833 39 -77.5 66s-33 56.833 -40 89.5s-7.83301 65.167 -2.5 97.5s17 62.833 35 91.5s42 52 72 70s66 29 108 33s90 -2.33301 144 -19h37
c3.33301 -6.66699 7.16602 -14.834 11.499 -24.501l13 -30c4.33301 -10.333 8.83301 -20.333 13.5 -30s8.33398 -18.167 11.001 -25.5l-85 35c-1.33301 2.66699 -2.5 5.5 -3.5 8.5s-2.16699 5.83301 -3.5 8.5v0c-8.66699 19.333 -23.334 34.166 -44.001 44.499
s-41.667 15.5 -63 15.5c-24.667 0 -46.667 -5.33301 -66 -16s-35.833 -24.667 -49.5 -42s-24 -37 -31 -59s-10.5 -44 -10.5 -66c0 -46.667 4.66699 -85.334 14 -116.001s23.666 -55.334 42.999 -74.001c24.667 -24.667 51.167 -40 79.5 -46s56 -5.16699 83 2.5
s51.5 21.167 73.5 40.5s39 41.333 51 66h17zM408.002 404.004v-1l1 1h-1v0zM271.002 514.004l-39 2l35 121l82 -3z" />
    <glyph glyph-name="Ccircumflex" unicode="&#x108;" horiz-adv-x="621" 
d="M321 -9c-48 0 -90.335 9.49902 -127.002 28.499s-67.334 43.833 -92.001 74.5s-43.5 65.667 -56.5 105s-19.667 79.666 -20 120.999s5.66699 81.5 18 120.5s31.333 73.833 57 104.5s58 55.334 97 74.001s84.833 27.667 137.5 27c29.333 0 60.166 -2.83301 92.499 -8.5
s59.166 -14.167 80.499 -25.5h27c4 -8 8.66699 -18 14 -30l16.5 -37l16.5 -37c5.33301 -12 10 -22 14 -30l-112 42l-1 1l-14.5 30l-14.5 30c-26 20.667 -52.667 33.834 -80 39.501s-53.666 5.66699 -78.999 0s-49.166 -16.334 -71.499 -32.001s-41.666 -34.667 -57.999 -57
s-29.166 -47.166 -38.499 -74.499s-13.666 -55.333 -12.999 -84c-0.666992 -57.333 6.66602 -108 21.999 -152s36 -80.167 62 -108.5s55.833 -48.5 89.5 -60.5s68.334 -15 104.001 -9s71 21.333 106 46s66.5 59.667 94.5 105h9c-8.66699 -30 -21 -57.333 -37 -82
s-35.667 -46 -59 -64s-50.333 -32 -81 -42s-65 -15 -103 -15zM235.998 686.999l-29 24l121 79l122 -79l-29 -24l-93 41v0v0z" />
    <glyph glyph-name="ccircumflex" unicode="&#x109;" horiz-adv-x="498" 
d="M483 136c-12.667 -44 -37.668 -79.6631 -75.001 -106.996s-84.333 -41 -141 -41c-44.667 1.33301 -83 10.5 -115 27.5s-57.833 39 -77.5 66s-33 56.833 -40 89.5s-7.83301 65.167 -2.5 97.5s17 62.833 35 91.5s42 52 72 70s66 29 108 33s90 -2.33301 144 -19h37
c3.33301 -6.66699 7.16602 -14.834 11.499 -24.501l13.5 -30l13.5 -30l11.5 -25.5l-86 35c-0.666992 2.66699 -1.5 5.5 -2.5 8.5s-2.16699 5.83301 -3.5 8.5v0c-8.66699 19.333 -23.334 34.166 -44.001 44.499s-42 15.5 -64 15.5c-24.667 0 -46.667 -5.33301 -66 -16
s-35.666 -24.667 -48.999 -42s-23.5 -37 -30.5 -59s-10.5 -44 -10.5 -66c0 -46.667 4.5 -85.334 13.5 -116.001s23.167 -55.334 42.5 -74.001c24.667 -24.667 51.334 -40 80.001 -46s56.334 -5.16699 83.001 2.5s51 21.167 73 40.5s39 41.333 51 66h18zM413.999 402.004v-1
l1 1h-1v0zM186.999 514.004l-29 24l121 80l122 -80l-30 -24l-92 41v0v0z" />
    <glyph glyph-name="Cdotaccent" unicode="&#x10a;" horiz-adv-x="621" 
d="M318 -10c-48 0 -90.1709 9.33203 -126.504 27.999s-67 43.5 -92 74.5s-43.833 66.167 -56.5 105.5s-19.167 79.5 -19.5 120.5s5.66699 81 18 120s31.333 73.833 57 104.5s58 55.334 97 74.001s84.833 27.667 137.5 27c29.333 0 60 -2.66699 92 -8s59 -13.666 81 -24.999
h26c4 -8 8.66699 -18 14 -30l16.5 -37.5l16.5 -37.5c5.33301 -12 10 -22 14 -30l-111 42l-2 1l-14.5 30l-14.5 30c-26 20.667 -52.667 33.834 -80 39.501s-53.666 5.66699 -78.999 0s-49.166 -16.334 -71.499 -32.001s-41.666 -34.667 -57.999 -57s-29 -47 -38 -74
s-13.167 -55.167 -12.5 -84.5c-0.666992 -57.333 6.5 -108 21.5 -152s35.5 -80.167 61.5 -108.5s55.833 -48.5 89.5 -60.5s68.334 -15 104.001 -9s71 21.333 106 46s66.833 59.667 95.5 105h9c-8.66699 -30 -21 -57.333 -37 -82s-35.667 -45.834 -59 -63.501
s-50.5 -31.5 -81.5 -41.5s-65.5 -15 -103.5 -15zM326.996 690.999c-15.333 0 -26.833 4.83301 -34.5 14.5s-11.5 20.167 -11.5 31.5c0 15.333 4.83301 26.666 14.5 33.999s20.167 11 31.5 11s21.833 -3.66699 31.5 -11s14.5 -18.666 14.5 -33.999
c0 -11.333 -3.83301 -21.833 -11.5 -31.5s-19.167 -14.5 -34.5 -14.5z" />
    <glyph glyph-name="cdotaccent" unicode="&#x10b;" horiz-adv-x="507" 
d="M474 136c-12.667 -44 -37.668 -79.6631 -75.001 -106.996s-84.333 -41 -141 -41c-44.667 1.33301 -83 10.5 -115 27.5s-57.833 39 -77.5 66s-33 56.833 -40 89.5s-7.83301 65.167 -2.5 97.5s17 62.833 35 91.5s42 52 72 70s66 29 108 33s90 -2.33301 144 -19h37
c3.33301 -6.66699 7.16602 -14.834 11.499 -24.501l13.5 -30l13.5 -30l11.5 -25.5l-86 35c-0.666992 2.66699 -1.5 5.5 -2.5 8.5s-2.16699 5.83301 -3.5 8.5v0c-8.66699 19.333 -23.334 34.166 -44.001 44.499s-42 15.5 -64 15.5c-24.667 0 -46.667 -5.33301 -66 -16
s-35.666 -24.667 -48.999 -42s-23.5 -37 -30.5 -59s-10.5 -44 -10.5 -66c0 -46.667 4.5 -85.334 13.5 -116.001s23.167 -55.334 42.5 -74.001c24.667 -24.667 51.334 -40 80.001 -46s56.334 -5.16699 83.001 2.5s51 21.167 73 40.5s39 41.333 51 66h18zM404.999 402.004v-1
l1 1h-1v0zM272.999 520.004c-15.333 0 -26.834 4.83301 -34.501 14.5s-11.5 20.167 -11.5 31.5c0 15.333 4.83301 26.666 14.5 33.999s20.334 11 32.001 11s22.167 -3.66699 31.5 -11s14 -18.666 14 -33.999c0 -11.333 -3.83301 -21.833 -11.5 -31.5
s-19.167 -14.5 -34.5 -14.5z" />
    <glyph glyph-name="Ccaron" unicode="&#x10c;" horiz-adv-x="621" 
d="M321 -9c-48 0 -90.335 9.3291 -127.002 27.9961s-67.334 43.5 -92.001 74.5s-43.5 66.167 -56.5 105.5s-19.667 79.5 -20 120.5s5.66699 81.167 18 120.5s31.333 74.333 57 105s58 55.334 97 74.001s84.833 27.667 137.5 27c30 -0.666992 60.833 -3.66699 92.5 -9
s58.5 -13.666 80.5 -24.999h26c4 -8 8.66699 -18 14 -30l16.5 -37l17 -37l14.5 -31l-112 43h-1c-2 3.33301 -4.33301 7.66602 -7 12.999s-5.33398 11 -8.00098 17l-8 17.5c-2.66699 5.66699 -5 9.83398 -7 12.501c-26 20.667 -52.667 33.834 -80 39.501
s-53.666 5.66699 -78.999 0s-49 -16.334 -71 -32.001s-41.167 -34.5 -57.5 -56.5s-29.166 -46.667 -38.499 -74s-13.666 -55.666 -12.999 -84.999c-0.666992 -57.333 6.5 -107.833 21.5 -151.5s35.5 -79.667 61.5 -108s55.833 -48.666 89.5 -60.999
s68.334 -15.5 104.001 -9.5s71 21.333 106 46s66.833 59.667 95.5 105l9 1c-8.66699 -30 -21 -57.5 -37 -82.5s-35.667 -46.333 -59 -64s-50.333 -31.5 -81 -41.5s-65 -15 -103 -15zM328.998 685.996l-121 80l29 24l92 -41v0v0l93 41l29 -24z" />
    <glyph glyph-name="ccaron" unicode="&#x10d;" horiz-adv-x="496" 
d="M476 136c-12.667 -44 -37.668 -79.6631 -75.001 -106.996s-84.333 -41 -141 -41c-44.667 1.33301 -83 10.5 -115 27.5s-57.833 39 -77.5 66s-33 56.833 -40 89.5s-7.83301 65.167 -2.5 97.5s17 62.833 35 91.5s42 52 72 70s66 29 108 33s90 -2.33301 144 -19h37
c3.33301 -6.66699 7.16602 -14.834 11.499 -24.501l13.5 -30l13.5 -30l11.5 -25.5l-86 35c-0.666992 2.66699 -1.5 5.5 -2.5 8.5s-2.16699 5.83301 -3.5 8.5v0c-8.66699 19.333 -23.334 34.166 -44.001 44.499s-42 15.5 -64 15.5c-24.667 0 -46.667 -5.33301 -66 -16
s-35.666 -24.667 -48.999 -42s-23.5 -37 -30.5 -59s-10.5 -44 -10.5 -66c0 -46.667 4.5 -85.334 13.5 -116.001s23.167 -55.334 42.5 -74.001c24.667 -24.667 51.334 -40 80.001 -46s56.334 -5.16699 83.001 2.5s51 21.167 73 40.5s39 41.333 51 66h18zM406.999 402.004v-1
l1 1h-1v0zM248.999 514.004l-121 79l29 25l92 -42v0v0l93 42l29 -25z" />
    <glyph glyph-name="Dcaron" unicode="&#x10e;" horiz-adv-x="681" 
d="M332 745l93 41l29 -24l-122 -80l-121 80l29 24l92 -41v0v0zM119 0h-89v21h27c17.333 0 32 6.16699 44 18.5s18 27.166 18 44.499v452c0 17.333 -6 32.166 -18 44.499s-26.667 18.5 -44 18.5h-27v21h89v0h89v0h161h4c46.667 -0.666992 87.667 -9 123 -25s65 -38 89 -66
s42 -60.667 54 -98s18 -77.666 18 -120.999s-6 -83.666 -18 -120.999s-30 -70 -54 -98s-53.667 -50 -89 -66s-76.333 -24.333 -123 -25h-4h-161v0h-89zM208 21h151c17.333 0 34 2 50 6c23.333 4.66699 43.333 13.167 60 25.5s31 27 43 44s21.833 35.833 29.5 56.5
s13.5 41.667 17.5 63c5.33301 34 8 65.333 8 94s-2.66699 59.667 -8 93c-4 21.333 -9.83301 42.333 -17.5 63s-17.5 39.667 -29.5 57s-26.333 32 -43 44s-36.667 20.333 -60 25c-8 2 -16 3.66699 -24 5s-16.667 2 -26 2h-151v-578z" />
    <glyph glyph-name="dcaron" unicode="&#x10f;" horiz-adv-x="731" 
d="M618 41l0.00195312 -21h-178v63c-20 -24 -46.5 -43.333 -79.5 -58s-75.167 -19.667 -126.5 -15c-22 2 -45 9.16699 -69 21.5s-46 28.666 -66 48.999s-36.5 44.166 -49.5 71.499s-19.5 57.333 -19.5 90c0.666992 44 8.33398 81.5 23.001 112.5s33.667 56.167 57 75.5
s49.666 33.333 78.999 42s59.166 12.334 89.499 11.001s59.666 -7.16602 87.999 -17.499s52.833 -24.5 73.5 -42.5v133c0 17.333 -6 32.166 -18 44.499s-26.667 18.5 -44 18.5h-27v21h178v-536c0 -17.333 6 -32.166 18 -44.499s26.667 -18.5 44 -18.5h27zM440.002 374
c-29.333 32.667 -59.9951 55.332 -91.9951 67.999s-65 16 -99 10c-22 -4 -41.833 -12.167 -59.5 -24.5s-32.334 -27.166 -44.001 -44.499s-19.834 -37.166 -24.501 -59.499s-5.33398 -45.5 -2.00098 -69.5c7.33301 -44.667 23.666 -81.834 48.999 -111.501
s54.166 -50.5 86.499 -62.5s65.333 -14.333 99 -7s62.5 26 86.5 56v245zM638.007 554.998l-38 2l29 98l76 -3z" />
    <glyph glyph-name="Dcroat" unicode="&#x110;" horiz-adv-x="713" 
d="M148 306h-122v21h122v209c0 17.333 -6 32.166 -18 44.499s-26.667 18.5 -44 18.5h-27v21h89v0h89v0h161h4c46.667 -0.666992 87.667 -9 123 -25s65 -38 89 -66s42 -60.667 54 -98s18 -77.666 18 -120.999s-6 -83.666 -18 -120.999s-30 -70 -54 -98s-53.667 -50 -89 -66
s-76.333 -24.333 -123 -25h-4h-161v0h-89v0h-89v21h27c17.333 0 32 6.16699 44 18.5s18 27.166 18 44.499v222zM237 327h192v-21h-192v-285h151c17.333 0 34 2 50 6c23.333 4.66699 43.333 13.167 60 25.5s31 27 43 44s21.833 35.833 29.5 56.5s13.5 41.667 17.5 63
c5.33301 34 8 65.333 8 94s-2.66699 59.667 -8 93c-4 21.333 -9.83301 42.333 -17.5 63s-17.5 39.667 -29.5 57s-26.333 32 -43 44s-36.667 20.333 -60 25c-8 2 -16 3.66699 -24 5s-16.667 2 -26 2h-151v-272z" />
    <glyph glyph-name="dcroat" unicode="&#x111;" horiz-adv-x="636" 
d="M618 41l0.00195312 -21.001h-178v63c-20 -24 -46.5 -43.333 -79.5 -58s-75.167 -19.667 -126.5 -15c-22 2 -45 9.16699 -69 21.5s-46 28.666 -66 48.999s-36.5 44.166 -49.5 71.499s-19.5 57.333 -19.5 90c0.666992 44 8.33398 81.5 23.001 112.5s33.667 56.167 57 75.5
s49.666 33.333 78.999 42s59.166 12.334 89.499 11.001s59.666 -7.16602 87.999 -17.499s52.833 -24.5 73.5 -42.5v107h-227v21h227c1.33301 18 -4 33.833 -16 47.5s-27.333 20.5 -46 20.5h-27v21h178v-89h61v-21h-61v-426c0 -17.333 6 -32.166 18 -44.499
s26.667 -18.5 44 -18.5h27zM440.002 373.999c-29.333 32.667 -59.9951 55.332 -91.9951 67.999s-65 16 -99 10c-22 -4 -41.833 -12.167 -59.5 -24.5s-32.334 -27.166 -44.001 -44.499s-19.834 -37.166 -24.501 -59.499s-5.33398 -45.5 -2.00098 -69.5
c7.33301 -44.667 23.666 -81.834 48.999 -111.501s54.166 -50.5 86.499 -62.5s65.333 -14.333 99 -7s62.5 26 86.5 56v245z" />
    <glyph glyph-name="Emacron" unicode="&#x112;" horiz-adv-x="640" 
d="M231 760h222v-50h-222v50zM206 620h308h27v0l12.5 -26l23 -48.5l23.5 -49l14 -28.5l-115 44l-42 87h-249v-274h107v0c18.667 0.666992 34.667 5.66699 48 15s24.333 20.833 33 34.5s15 28.334 19 44.001s6 30.167 6 43.5h22v-291h-22c0 13.333 -2 27.833 -6 43.5
s-10.333 30.334 -19 44.001s-19.667 25.167 -33 34.5s-29.333 14.333 -48 15v0h-107v-287h249l42 86l115 44c-2 -3.33301 -6.66699 -12.5 -14 -27.5l-23.5 -49l-23 -48.5l-12.5 -26v0h-27h-306v0h-89v0h-89v21h27c17.333 0 32 6.16699 44 18.5s18 27.166 18 44.499v452
c0 17.333 -6 32.166 -18 44.499s-26.667 18.5 -44 18.5h-27v21h89v0h87v0z" />
    <glyph glyph-name="emacron" unicode="&#x113;" horiz-adv-x="524" 
d="M175 76c24.667 -23.333 50.998 -38.3359 78.998 -45.0029s55.333 -6.5 82 0.5s51.167 20 73.5 39s40.5 41.833 54.5 68.5h18c-12.667 -44 -38.667 -79.667 -78 -107s-87 -41 -143 -41c-35.333 0 -67.666 6.16699 -96.999 18.5s-54.333 29.333 -75 51
s-36.667 46.834 -48 75.501s-17 59.334 -17 92.001c0 34 5 65.5 15 94.5s25 54 45 75s45.333 37.5 76 49.5s66.334 18 107.001 18c45.333 0 83 -7.5 113 -22.5s54 -33.5 72 -55.5s30.667 -45.833 38 -71.5s11 -49.167 11 -70.5v0h-385c2 -40.667 8.33301 -74.167 19 -100.5
s24 -49.166 40 -68.499zM405.998 265.997c0 41.333 -7 75.499 -21 102.499s-31.667 47.333 -53 61s-44.5 20.334 -69.5 20.001s-48.167 -7.33301 -69.5 -21s-39.5 -34.167 -54.5 -61.5s-22.833 -61 -23.5 -101h291zM154.998 593.996h221v-49h-221v49z" />
    <glyph glyph-name="Ebreve" unicode="&#x114;" horiz-adv-x="639" 
d="M462 736c-42.667 -28 -83.333 -42 -122 -42s-79 14 -121 42v0l29 35c18 -9.33301 34.333 -16.333 49 -21s29.167 -7 43.5 -7s28.833 2.33301 43.5 7s31 11.667 49 21zM515.001 619h28v0l12.5 -26l23 -48.5l23.5 -49l14 -28.5l-115 44l-42 86h-250v-273h107v0
c18.667 0.666992 34.667 5.66699 48 15s24.333 20.666 33 33.999s15.167 28 19.5 44s6.5 30.667 6.5 44h21v-291h-21c0 13.333 -2.16699 27.833 -6.5 43.5s-10.833 30.334 -19.5 44.001s-19.667 25 -33 34s-29.333 13.833 -48 14.5v1h-107v-287h250l42 86l115 44
c-2 -3.33301 -6.66699 -12.666 -14 -27.999l-23.5 -49l-23 -48l-12.5 -26v0h-28h-306v0h-88v0h-90v21h27c17.333 0 32.166 6.16699 44.499 18.5s18.5 27.166 18.5 44.499v452c0 17.333 -6.16699 32 -18.5 44s-27.166 18 -44.499 18h-27v22h484z" />
    <glyph glyph-name="Edotaccent" unicode="&#x116;" horiz-adv-x="647" 
d="M338 689c-15.333 0 -26.835 4.66699 -34.502 14s-11.5 19.666 -11.5 30.999c0 15.333 4.83301 26.666 14.5 33.999s20.334 11 32.001 11s22.334 -3.66699 32.001 -11s14.5 -18.666 14.5 -33.999c0 -11.333 -4 -21.666 -12 -30.999s-19.667 -14 -35 -14zM205.998 620h308
h27v0l12.5 -26l23 -48.5l23.5 -49l14 -28.5l-115 44l-42 87h-249v-274h107v0c18.667 0.666992 34.667 5.66699 48 15s24.333 20.833 33 34.5s15 28.334 19 44.001s6 30.167 6 43.5h22v-291h-22c0 13.333 -2 27.833 -6 43.5s-10.333 30.334 -19 44.001
s-19.667 25.167 -33 34.5s-29.333 14.333 -48 15v0h-107v-287h249l42 86l115 44c-2 -3.33301 -6.66699 -12.5 -14 -27.5l-23.5 -49l-23 -48.5l-12.5 -26v0h-27h-306v0h-89v0h-89v21h27c17.333 0 32 6.16699 44 18.5s18 27.166 18 44.499v452c0 17.333 -6 32.166 -18 44.499
s-26.667 18.5 -44 18.5h-27v21h89v0h87z" />
    <glyph glyph-name="edotaccent" unicode="&#x117;" horiz-adv-x="520" 
d="M172 76c24.667 -24 51.001 -39.1699 79.001 -45.5029s55.333 -6 82 1s51.334 19.833 74.001 38.5s41 41.334 55 68.001l17 1c-6 -22 -15.667 -42.167 -29 -60.5s-29.5 -34 -48.5 -47s-40.5 -23.167 -64.5 -30.5s-50 -11 -78 -11c-38.667 0 -72.834 6.83301 -102.501 20.5
s-54.334 31.834 -74.001 54.501s-34.667 48.334 -45 77.001s-15.666 58.167 -15.999 88.5s4.33398 59.833 14.001 88.5s24.667 54 45 76s45.666 39.5 75.999 52.5s66.166 18.833 107.499 17.5c45.333 0 83 -7.5 113 -22.5s54 -33.667 72 -56s30.667 -46.333 38 -72
s11 -49.167 11 -70.5v0h-385c2 -40.667 8.33301 -74.167 19 -100.5s24 -48.833 40 -67.5zM403.001 264.997c0 41.333 -7 75.668 -21 103.001s-31.667 47.666 -53 60.999s-44.333 19.833 -69 19.5s-47.667 -7.33301 -69 -21s-39.333 -34 -54 -61s-22.667 -60.833 -24 -101.5
h290zM307.001 567.999c0 -11.333 -3.83301 -21.834 -11.5 -31.501s-19.167 -14.5 -34.5 -14.5s-26.833 4.66699 -34.5 14s-11.5 19.833 -11.5 31.5s3.83301 22.167 11.5 31.5s19.167 14 34.5 14s26.833 -4.66699 34.5 -14s11.5 -19.666 11.5 -30.999z" />
    <glyph glyph-name="Eogonek" unicode="&#x118;" horiz-adv-x="643" 
d="M208 325l106.999 -0.00292969v0c18.667 0.666992 34.667 5.66699 48 15s24.333 20.833 33 34.5s15 28.334 19 44.001s6 30.167 6 43.5h22v-291h-22c0 13.333 -2 27.833 -6 43.5s-10.333 30.334 -19 44.001s-19.667 25.167 -33 34.5s-29.333 14.333 -48 15v0h-107v-287
h249l42 86l115 44c-2 -3.33301 -6.66699 -12.5 -14 -27.5l-23.5 -49l-23 -48.5l-12.5 -26v0h-13c-19.333 -2 -32.833 -9.5 -40.5 -22.5s-11.5 -27.167 -11.5 -42.5c0.666992 -19.333 8.33398 -36.333 23.001 -51s32.334 -22 53.001 -22c5.33301 0 10.666 0.333008 15.999 1
s10.333 1.66699 15 3l5 -20c-19.333 -12.667 -38.5 -19.667 -57.5 -21s-36.333 1.33398 -52 8.00098s-29 16.334 -40 29.001s-18 26.834 -21 42.501s-1.5 32 4.5 49s18.333 32.5 37 46.5h-251v0h-89v0h-89v21h27c17.333 0 32 6.16699 44 18.5s18 27.166 18 44.499v452
c0 17.333 -6 32.166 -18 44.499s-26.667 18.5 -44 18.5h-27v21h89v0h87v0h308h27v0l12.5 -26l23 -48.5l23.5 -49l14 -28.5l-115 44l-42 87h-249v-274z" />
    <glyph glyph-name="eogonek" unicode="&#x119;" horiz-adv-x="517" 
d="M175 77c24.667 -24 51.001 -39.168 79.001 -45.501s55.333 -6 82 1s51.334 19.833 74.001 38.5s41 41.334 55 68.001l17 1c-10.667 -37.333 -30.834 -68.666 -60.501 -93.999s-65.834 -42 -108.501 -50l-3 -4l-38 -58c29.333 -5.33301 53.166 -17.5 71.499 -36.5
s27.5 -40.167 27.5 -63.5c-0.666992 -20 -6.66699 -37.667 -18 -53s-25.666 -26.833 -42.999 -34.5s-36.166 -10.834 -56.499 -9.50098s-39.833 8.66602 -58.5 21.999l4 20c26 -8 47 -10.167 63 -6.5s28 10.167 36 19.5s12.667 20 14 32s0.333008 22.667 -3 32
c-4 13.333 -10.167 25.5 -18.5 36.5s-20.166 17.5 -35.499 19.5h-6c-4.66699 0 -8.66699 0.333008 -12 1c-4.66699 0 -10.334 0.333008 -17.001 1l22 78c-48.667 3.33301 -89.334 17.5 -122.001 42.5s-57 55.333 -73 91s-23.5 73.834 -22.5 114.501s10.5 78 28.5 112
s44.833 62 80.5 84s80.167 32 133.5 30c45.333 0 83 -7.5 113 -22.5s54 -33.667 72 -56s30.667 -46.333 38 -72s11 -49.167 11 -70.5v0h-385c2 -40.667 8.5 -74.167 19.5 -100.5s24.167 -48.833 39.5 -67.5zM406.001 265.999c0 41.333 -7 75.668 -21 103.001
s-31.5 47.666 -52.5 60.999s-44 19.833 -69 19.5s-48.167 -7.33301 -69.5 -21s-39.333 -34 -54 -61s-22.667 -60.833 -24 -101.5h290z" />
    <glyph glyph-name="Ecaron" unicode="&#x11a;" horiz-adv-x="652" 
d="M336 745l92 41l29 -24l-121 -80l-122 80l29 24l93 -41v-1v1zM206 620h308h27v0l12.5 -26l23 -48.5l23.5 -49l14 -28.5l-115 44l-42 87h-249v-274h107v0c18.667 0.666992 34.667 5.66699 48 15s24.333 20.833 33 34.5s15 28.334 19 44.001s6 30.167 6 43.5h22v-291h-22
c0 13.333 -2 27.833 -6 43.5s-10.333 30.334 -19 44.001s-19.667 25.167 -33 34.5s-29.333 14.333 -48 15v0h-107v-287h249l42 86l115 44c-2 -3.33301 -6.66699 -12.5 -14 -27.5l-23.5 -49l-23 -48.5l-12.5 -26v0h-27h-306v0h-89v0h-89v21h27c17.333 0 32 6.16699 44 18.5
s18 27.166 18 44.499v452c0 17.333 -6 32.166 -18 44.499s-26.667 18.5 -44 18.5h-27v21h89v0h87v0z" />
    <glyph glyph-name="ecaron" unicode="&#x11b;" horiz-adv-x="532" 
d="M181 77c24.667 -24 50.999 -39.1689 78.999 -45.502s55.333 -6 82 1s51.334 19.833 74.001 38.5s41 41.334 55 68.001l17 1c-12.667 -44 -38.5 -79.667 -77.5 -107s-86.833 -41 -143.5 -41c-35.333 0 -67.666 6.16699 -96.999 18.5s-54.333 29.333 -75 51
s-36.667 46.834 -48 75.501s-17 59.334 -17 92.001c0 34 5 65.5 15 94.5s25.167 54 45.5 75s45.666 37.5 75.999 49.5s65.833 18 106.5 18c45.333 0 83 -7.5 113 -22.5s54 -33.5 72 -55.5s30.667 -45.833 38 -71.5s11 -49.167 11 -70.5v-1h-385
c2 -40 8.33301 -73.333 19 -100s24 -49.334 40 -68.001zM272.999 449.998c-24.667 0 -46.502 -5.33301 -65.502 -16s-34.833 -24.667 -47.5 -42s-22.167 -37 -28.5 -59s-9.5 -44 -9.5 -66h290c0 20 -2.66699 40.833 -8 62.5s-13.666 41.5 -24.999 59.5
s-25.666 32.667 -42.999 44s-38.333 17 -63 17zM364.997 620.998l29 -24l-121 -80l-122 80l29 24l93 -42v0v0z" />
    <glyph glyph-name="Gcircumflex" unicode="&#x11c;" horiz-adv-x="719" 
d="M241 688l-29 24l121 80l122 -80l-30 -24l-92 41v0v0zM320 -8c-48 0 -90.3359 9.32715 -127.003 27.9941s-67.334 43.5 -92.001 74.5s-43.334 66.167 -56.001 105.5s-19.167 79.5 -19.5 120.5s5.66699 81 18 120s31.333 73.833 57 104.5s58 55.334 97 74.001
s84.833 27.667 137.5 27c29.333 0 60 -2.66699 92 -8s59 -13.666 81 -24.999h26c4 -8 8.66699 -18 14 -30l16.5 -37l16.5 -37l14 -31l-111 43h-2l-14.5 30l-14.5 30c-26 20.667 -52.667 33.834 -80 39.501s-53.666 5.66699 -78.999 0s-49.166 -16.334 -71.499 -32.001
s-41.666 -34.5 -57.999 -56.5s-29 -46.667 -38 -74s-13.167 -55.666 -12.5 -84.999c0 -64 8.16699 -117.833 24.5 -161.5s37.5 -78.167 63.5 -103.5c21.333 -22.667 45 -39.667 71 -51s52.667 -17.166 80 -17.499s54.333 4.33398 81 14.001s51.334 23.5 74.001 41.5v107
c0 17.333 -6 32.166 -18 44.499s-26.667 18.5 -44 18.5h-41v21h12v0h89v0h186v-21h-34c-17.333 0 -32.166 -6.16699 -44.499 -18.5s-18.5 -27.166 -18.5 -44.499v-182l-84 32c-23.333 -19.333 -50.5 -34.166 -81.5 -44.499s-67.5 -15.5 -109.5 -15.5z" />
    <glyph glyph-name="gcircumflex" unicode="&#x11d;" horiz-adv-x="640" 
d="M620 437v-21.0039h-27c-17.333 0 -32.166 -6.16699 -44.499 -18.5s-18.5 -27.166 -18.5 -44.499v-330c0.666992 -3.33301 1 -7.66602 1 -12.999v-2v-25v-1c0 -3.33301 -0.166992 -6.33301 -0.5 -9s-0.5 -5.66699 -0.5 -9c-2 -23.333 -6 -44 -12 -62v0v-1
c0 -0.666992 -0.166992 -1.16699 -0.5 -1.5s-0.5 -0.833008 -0.5 -1.5s-0.333008 -1 -1 -1v-2l-1 -1v-1v0v0v0v-1v0v0c-2.66699 -6.66699 -6 -13.667 -10 -21v-1c-8.66699 -15.333 -18.334 -29 -29.001 -41s-21.667 -21.333 -33 -28
c-16 -10.667 -36.333 -18.834 -61 -24.501s-50.834 -8.66699 -78.501 -9s-55.5 2.16699 -83.5 7.5s-53.333 13.666 -76 24.999s-41.5 25.833 -56.5 43.5s-23.5 38.834 -25.5 63.501h91c2 -9.33301 5.33301 -19 10 -29s11 -19.5 19 -28.5s17.667 -17.167 29 -24.5
s24.333 -13 39 -17c11.333 -2.66699 25.833 -4.66699 43.5 -6s35.834 0.333984 54.501 5.00098s36 13.5 52 26.5s27.667 32.5 35 58.5c4.66699 16 7.16699 32.5 7.5 49.5s0.5 33.167 0.5 48.5v26h-1v47c-19.333 -24 -42.666 -42 -69.999 -54s-56 -18.667 -86 -20
s-59.833 2.66699 -89.5 12s-56.5 24 -80.5 44s-43.667 44.833 -59 74.5s-23.666 63.834 -24.999 102.501c0.666992 44 8.33398 81.5 23.001 112.5s33.667 56.167 57 75.5s49.666 33.333 78.999 42s59.166 12.334 89.499 11.001s59.666 -7 87.999 -17
s52.833 -24.333 73.5 -43v34h178zM442 353.996c-20.667 25.333 -43.668 44.335 -69.001 57.002s-50.5 20.167 -75.5 22.5s-49 -0.666992 -72 -9s-43 -21 -60 -38s-29.667 -38.5 -38 -64.5s-10.5 -55.333 -6.5 -88c7.33301 -44.667 23.5 -81.834 48.5 -111.501
s53.833 -50.5 86.5 -62.5s65.834 -14.333 99.501 -7s62.5 25.666 86.5 54.999v246zM232.999 512.998l-29 24l122 80l121 -80l-29 -24l-92 41v0v0z" />
    <glyph glyph-name="Gbreve" unicode="&#x11e;" horiz-adv-x="706" 
d="M23 324c0 65.333 13.4971 122 40.4971 170s62.667 85.333 107 112s95.666 41.334 153.999 44.001s119.166 -9 182.499 -35h26c4 -8 8.66699 -18 14 -30l16.5 -37l16.5 -37l14 -31l-111 43l-2 1c-1.33301 3.33301 -3.33301 7.66602 -6 12.999l-8.5 17l-8.5 17l-6 12
c-26 20.667 -52.667 34 -80 40s-53.666 6.16699 -78.999 0.5s-49 -16.334 -71 -32.001s-41.167 -34.667 -57.5 -57s-29.166 -47.166 -38.499 -74.499s-13.666 -55.666 -12.999 -84.999c0 -63.333 8.16699 -116.833 24.5 -160.5s37.5 -78.167 63.5 -103.5
c21.333 -22.667 45 -39.667 71 -51s52.667 -17.333 80 -18s54.333 3.83301 81 13.5s51.334 23.5 74.001 41.5v108c0 17.333 -6 32.166 -18 44.499s-26.667 18.5 -44 18.5h-41v21h12v0h90v0h185v-21h-34c-17.333 0 -32.166 -6.16699 -44.499 -18.5
s-18.5 -27.166 -18.5 -44.499v-182l-84 31c-23.333 -18.667 -50.5 -33.334 -81.5 -44.001s-67.5 -16 -109.5 -16c-44 0 -84.167 8.83301 -120.5 26.5s-67.5 41.5 -93.5 71.5s-46.167 65 -60.5 105s-21.5 82.333 -21.5 127zM462.997 746c-42 -28 -82.5 -42 -121.5 -42
s-79.5 14 -121.5 42v0l29 34v0c18 -8.66699 34.333 -15.334 49 -20.001s29.167 -7 43.5 -7s28.833 2.33301 43.5 7s31 11.334 49 20.001z" />
    <glyph glyph-name="gbreve" unicode="&#x11f;" horiz-adv-x="639" 
d="M613 438l0.00585938 -21.0039h-26c-17.333 0 -32.166 -6 -44.499 -18s-18.5 -26.667 -18.5 -44v-331v-6.5c0 -2.33301 0.333008 -4.5 1 -6.5v-2v-24c0 -0.666992 -0.333008 -1.33398 -1 -2.00098v-18c-1.33301 -11.333 -2.83301 -22.166 -4.5 -32.499
s-4.16699 -19.833 -7.5 -28.5v-1v-1c-0.666992 -0.666992 -1.33398 -1.66699 -2.00098 -3v-1c0 -0.666992 -0.333008 -1 -1 -1v-2v0v0v-1h-1v-1v0v0l-4 -10c-1.33301 -3.33301 -3 -6.66602 -5 -9.99902c0 -0.666992 -0.333008 -1.33398 -1 -2.00098
c-8 -15.333 -17.5 -29 -28.5 -41s-22.167 -21.333 -33.5 -28c-16 -10.667 -36.333 -18.834 -61 -24.501s-50.834 -8.66699 -78.501 -9s-55.334 2.16699 -83.001 7.5s-53 13.833 -76 25.5s-42 26.334 -57 44.001s-23.5 38.5 -25.5 62.5h91c2 -9.33301 5.33301 -19 10 -29
s11 -19.5 19 -28.5s17.667 -17.167 29 -24.5s24.333 -12.666 39 -15.999c11.333 -2.66699 25.833 -4.83398 43.5 -6.50098s35.834 -0.166992 54.501 4.5s36 13.5 52 26.5s28 32.833 36 59.5c4 15.333 6.16699 31.666 6.5 48.999s0.5 33.333 0.5 48v26v0v47
c-19.333 -24 -42.833 -42 -70.5 -54s-56.334 -18.667 -86.001 -20s-59.5 2.83398 -89.5 12.501s-56.833 24.334 -80.5 44.001s-43.334 44.334 -59.001 74.001s-24.167 64.167 -25.5 103.5c0.666992 43.333 8.33398 80.5 23.001 111.5s33.667 56.167 57 75.5
s49.666 33.333 78.999 42s59.166 12.334 89.499 11.001s59.666 -7.16602 87.999 -17.499s53.166 -24.5 74.499 -42.5v34h177zM436.006 354.996c-20.667 25.333 -43.666 44.334 -68.999 57.001s-50.5 20.167 -75.5 22.5s-49 -0.666992 -72 -9s-43 -21 -60 -38
s-29.667 -38.333 -38 -64s-10.5 -54.834 -6.5 -87.501c6.66699 -44.667 22.667 -82 48 -112s54.166 -51 86.499 -63s65.5 -14.333 99.5 -7s63 26 87 56v245zM448.007 572.997c-42 -28 -82.5 -42 -121.5 -42s-79.5 14 -121.5 42l29 35c18 -8.66699 34.333 -15.334 49 -20.001
s29.167 -7 43.5 -7s28.833 2.33301 43.5 7s31 11.334 49 20.001z" />
    <glyph glyph-name="Gdotaccent" unicode="&#x120;" horiz-adv-x="706" 
d="M380 739c0 -11.333 -3.83301 -21.667 -11.5 -31s-19.167 -14 -34.5 -14s-26.833 4.66699 -34.5 14s-11.5 19.833 -11.5 31.5s3.83301 22.167 11.5 31.5s19.167 14 34.5 14s26.833 -4.83301 34.5 -14.5s11.5 -20.167 11.5 -31.5zM31 320.999
c0 43.333 6.15918 82.999 18.4922 118.999s29.333 67.667 51 95s47.5 50 77.5 68s62.833 30.5 98.5 37.5s73.667 8.33301 114 4s81.5 -15.166 123.5 -32.499h27c4 -8 8.66699 -18 14 -30l16.5 -37l16.5 -37c5.33301 -12 10 -22 14 -30l-111 42l-2 1l-14.5 30l-14.5 30
c-26 20.667 -52.667 33.834 -80 39.501s-53.666 5.66699 -78.999 0s-49.166 -16.334 -71.499 -32.001s-41.666 -34.667 -57.999 -57s-29.166 -47.166 -38.499 -74.499s-13.666 -55.333 -12.999 -84c0 -64 8.16699 -117.833 24.5 -161.5s37.833 -78.167 64.5 -103.5
c21.333 -22.667 45 -39.667 71 -51s52.667 -17.333 80 -18s54.333 3.83301 81 13.5s51.334 23.5 74.001 41.5v108c0 17.333 -6.16699 32.166 -18.5 44.499s-27.166 18.5 -44.499 18.5h-40v21h12v0h89v0h186v-21h-35c-17.333 0 -32 -6.16699 -44 -18.5
s-18 -27.166 -18 -44.499v-182l-85 31c-22.667 -18.667 -49.667 -33.334 -81 -44.001s-67.666 -16 -108.999 -16c-44 0 -84.167 8.83301 -120.5 26.5s-67.5 41.5 -93.5 71.5s-46.167 65 -60.5 105s-21.5 82.333 -21.5 127z" />
    <glyph glyph-name="gdotaccent" unicode="&#x121;" horiz-adv-x="650" 
d="M623 437l0.00488281 -21.001h-26c-17.333 0 -32.166 -6 -44.499 -18s-18.5 -26.667 -18.5 -44v-331v-6.5c0 -2.33301 0.333008 -4.5 1 -6.5v-2v-24v-2c-0.666992 -3.33301 -1 -6.33301 -1 -9v-9c-2 -24 -6 -44.333 -12 -61v-1v-1
c-0.666992 -0.666992 -1 -1.16699 -1 -1.5s-0.333008 -0.833008 -1 -1.5v-1c0 -0.666992 -0.333008 -1 -1 -1v-2v0v-1v0h-1v-1v0v0l-4 -10c-1.33301 -3.33301 -3 -6.66602 -5 -9.99902c0 -0.666992 -0.333008 -1.33398 -1 -2.00098c-8 -15.333 -17.5 -29 -28.5 -41
s-22.167 -21.333 -33.5 -28c-16 -10.667 -36.333 -18.834 -61 -24.501s-50.834 -8.66699 -78.501 -9s-55.334 2.16699 -83.001 7.5s-53 13.666 -76 24.999s-42 25.833 -57 43.5s-23.5 38.834 -25.5 63.501h91c2 -9.33301 5.33301 -19 10 -29s11 -19.5 19 -28.5
s17.667 -17.167 29 -24.5s24.333 -12.666 39 -15.999c11.333 -2.66699 25.833 -4.83398 43.5 -6.50098s35.834 -0.166992 54.501 4.5s36 13.5 52 26.5s28 32.833 36 59.5c4 15.333 6.16699 31.5 6.5 48.5s0.5 33.167 0.5 48.5v26v0v47c-19.333 -24 -42.833 -42 -70.5 -54
s-56.334 -18.667 -86.001 -20s-59.5 2.66699 -89.5 12s-56.833 24 -80.5 44s-43.334 44.833 -59.001 74.5s-24.167 63.834 -25.5 102.501c0.666992 44 8.33398 81.5 23.001 112.5s33.667 56.167 57 75.5s49.666 33.333 78.999 42s59.166 12.334 89.499 11.001
s59.666 -7 87.999 -17s53.166 -24.333 74.499 -43v34h177zM446.005 353.999c-30 32.667 -60.9961 55.332 -92.9961 67.999s-64.667 16 -98 10c-22.667 -4 -42.834 -12.167 -60.501 -24.5s-32.334 -27.166 -44.001 -44.499s-19.834 -37 -24.501 -59s-5 -45 -1 -69
c6.66699 -44.667 22.667 -82 48 -112s54.166 -51 86.499 -63s65.5 -14.333 99.5 -7s63 26 87 56v245zM323.009 609.997c15.333 0 26.835 -4.66699 34.502 -14s11.5 -19.666 11.5 -30.999c0 -14.667 -4.83301 -25.834 -14.5 -33.501s-20.334 -11.5 -32.001 -11.5
s-22.334 3.83301 -32.001 11.5s-14.5 18.834 -14.5 33.501c0 11.333 4 21.666 12 30.999s19.667 14 35 14z" />
    <glyph glyph-name="uni0122" unicode="&#x122;" horiz-adv-x="706" 
d="M393 -59l-78 -120l-38 2l35 120zM25 322c0 43.333 6.15918 83 18.4922 119s29.333 67.667 51 95s47.5 50 77.5 68s62.833 30.5 98.5 37.5s73.667 8.33301 114 4s81.5 -15.166 123.5 -32.499h27c4 -8 8.66699 -18 14 -30l16.5 -37l16.5 -37c5.33301 -12 10 -22 14 -30
l-111 42l-2 1l-14.5 30l-14.5 30c-26 20.667 -52.667 33.834 -80 39.501s-53.666 5.66699 -78.999 0s-49.166 -16.334 -71.499 -32.001s-41.666 -34.667 -57.999 -57s-29.166 -47 -38.499 -74s-13.666 -55.167 -12.999 -84.5c0 -64 8.16699 -117.833 24.5 -161.5
s37.833 -78.167 64.5 -103.5c21.333 -22.667 45 -39.667 71 -51s52.667 -17.333 80 -18s54.333 3.83301 81 13.5s51.334 23.5 74.001 41.5v108c0 17.333 -6.16699 32.166 -18.5 44.499s-27.166 18.5 -44.499 18.5h-40v21h12v0h89v0h186v-21h-35
c-17.333 0 -32 -6.16699 -44 -18.5s-18 -27.166 -18 -44.499v-182l-85 31c-22.667 -18.667 -49.667 -33.334 -81 -44.001s-67.666 -16 -108.999 -16c-44 0 -84.167 8.83301 -120.5 26.5s-67.5 41.5 -93.5 71.5s-46.167 65 -60.5 105s-21.5 82.333 -21.5 127z" />
    <glyph glyph-name="uni0123" unicode="&#x123;" horiz-adv-x="643" 
d="M622 438l0.00488281 -22.0039h-26c-17.333 0 -32.166 -6 -44.499 -18s-18.5 -26.667 -18.5 -44v-331c0 -5.33301 0.333008 -9.66602 1 -12.999v-2v-24c0 -0.666992 -0.333008 -1.33398 -1 -2.00098v-18c-1.33301 -11.333 -2.83301 -22.166 -4.5 -32.499
s-4.16699 -19.833 -7.5 -28.5v-1v0c-0.666992 -0.666992 -1 -1.16699 -1 -1.5s-0.333008 -0.833008 -1 -1.5v-1c0 -0.666992 -0.333008 -1.33398 -1 -2.00098v-2v0v0v0l-1 -1v0v-1v0c-1.33301 -3.33301 -2.83301 -6.66602 -4.5 -9.99902s-3.16699 -6.66602 -4.5 -9.99902
c0 -0.666992 -0.333008 -1 -1 -1c-8 -15.333 -17.5 -29.166 -28.5 -41.499s-22.167 -21.833 -33.5 -28.5c-16 -10.667 -36.333 -18.834 -61 -24.501s-50.834 -8.5 -78.501 -8.5s-55.334 2.66699 -83.001 8s-53 13.666 -76 24.999s-42 25.833 -57 43.5s-23.5 38.5 -25.5 62.5
h91c2 -8.66699 5.33301 -18 10 -28s11 -19.667 19 -29s17.667 -17.666 29 -24.999s24.333 -12.666 39 -15.999c11.333 -2.66699 25.833 -4.83398 43.5 -6.50098s35.834 -0.166992 54.501 4.5s36 13.5 52 26.5s28 32.833 36 59.5c4 15.333 6.16699 31.666 6.5 48.999
s0.5 33.333 0.5 48v26v0v47c-19.333 -24 -42.833 -42 -70.5 -54s-56.334 -18.667 -86.001 -20s-59.5 2.83398 -89.5 12.501s-56.833 24.334 -80.5 44.001s-43.334 44.334 -59.001 74.001s-24.167 64.167 -25.5 103.5c0.666992 43.333 8.33398 80.5 23.001 111.5
s33.667 56.167 57 75.5s49.666 33.333 78.999 42s59.166 12.5 89.499 11.5s59.666 -6.66699 87.999 -17s53.166 -24.5 74.499 -42.5v34h177zM445.005 354.996c-20.667 24.667 -43.666 43.498 -68.999 56.498s-50.5 20.5 -75.5 22.5s-49 -1 -72 -9s-43 -20.667 -60 -38
s-29.667 -38.666 -38 -63.999s-10.5 -54.666 -6.5 -87.999c6.66699 -44.667 22.667 -82 48 -112s54.166 -51 86.499 -63s65.5 -14.333 99.5 -7s63 26 87 56v246zM351.006 510.994l-81 3l78 120l38 -2z" />
    <glyph glyph-name="Hcircumflex" unicode="&#x124;" horiz-adv-x="728" 
d="M613 536l0.00195312 -452.003c0 -17.333 6 -32.166 18 -44.499s26.667 -18.5 44 -18.5h27v-21h-178v0h-89v21h27c15.333 0 28.666 5 39.999 15s18.333 22.333 21 37c0.666992 2.66699 1 6.33398 1 11.001v218h-315v-218c0 -18.667 6.66699 -34 20 -46
c11.333 -10 25.666 -15.667 42.999 -17h27v-21h-178v0h-90v21h27c17.333 0 32.166 6.16699 44.499 18.5s18.5 27.166 18.5 44.499v452c0 17.333 -6.16699 32.166 -18.5 44.499s-27.166 18.5 -44.499 18.5h-27v21h90v0h88v0h90v-21h-27
c-17.333 0 -32.166 -6.16699 -44.499 -18.5s-18.5 -27.166 -18.5 -44.499v-212h315v212c0 4.66699 -0.333008 8.33398 -1 11.001v0c-2.66699 14.667 -9.83398 27 -21.501 37s-25.167 15 -40.5 15h-27v21h90v0h89v0h89v-21h-27c-17.333 0 -32 -6.16699 -44 -18.5
s-18 -27.166 -18 -44.499zM245.002 705.997l122 80l121 -80l-29 -24l-92 41v0v0l-93 -41z" />
    <glyph glyph-name="hcircumflex" unicode="&#x125;" horiz-adv-x="691" 
d="M672 21l0.00390625 -20.999h-267v21h27c17.333 0 32.166 6.16699 44.499 18.5s18.5 27.166 18.5 44.499v159c2 40.667 -2.16699 73.667 -12.5 99s-24.333 44.666 -42 57.999s-37.834 21 -60.501 23s-45.334 -0.166992 -68.001 -6.5s-44.167 -16.333 -64.5 -30
s-36.833 -29.5 -49.5 -47.5v-255c0 -17.333 6.16699 -32.166 18.5 -44.499s27.166 -18.5 44.499 -18.5h27v-21h-267v21h26c17.333 0 32.166 6.16699 44.499 18.5s18.5 27.166 18.5 44.499v452c0 17.333 -6.16699 32.166 -18.5 44.499s-27.166 18.5 -44.499 18.5h-26v21h177
v-233c26.667 20.667 53.167 36.5 79.5 47.5s52 17.833 77 20.5s49.333 1.83398 73 -2.49902s46.167 -11.833 67.5 -22.5c10.667 -6 21.334 -13.833 32.001 -23.5s20.167 -22 28.5 -37s15 -33 20 -54s7.5 -46.167 7.5 -75.5v-156c0 -17.333 6.16699 -32.166 18.5 -44.499
s27.166 -18.5 44.499 -18.5h26zM65.0039 705.001l-29 24l121 80l122 -80l-29 -24l-93 41v0v0zM672.004 21.001l0.000976562 -21.0039h-267v21h27c17.333 0 32 6 44 18s18 26.667 18 44v160c2.66699 45.333 -2.16602 81 -14.499 107s-28.5 44.833 -48.5 56.5
s-41.833 17.334 -65.5 17.001s-45.5 -4.16602 -65.5 -11.499c-25.333 -9.33301 -46.166 -20.166 -62.499 -32.499s-29.5 -25.833 -39.5 -40.5v-255c0 -17.333 6.16699 -32.166 18.5 -44.499s27.166 -18.5 44.499 -18.5h27v-21h-267v21h26
c17.333 0 32.166 6.16699 44.499 18.5s18.5 27.166 18.5 44.499v452c0 17.333 -6.16699 32.166 -18.5 44.499s-27.166 18.5 -44.499 18.5h-26v21h177v-233c26 20.667 52.167 36.5 78.5 47.5s52.166 17.833 77.499 20.5s49.833 1.83398 73.5 -2.49902
s45.834 -11.833 66.501 -22.5c11.333 -6 22.166 -13.833 32.499 -23.5s19.833 -22 28.5 -37s15.5 -33 20.5 -54s7.5 -46.167 7.5 -75.5v-156v0c0 -17.333 6.16699 -32.166 18.5 -44.499s27.166 -18.5 44.499 -18.5h26z" />
    <glyph glyph-name="Hbar" unicode="&#x126;" horiz-adv-x="727" 
d="M674 599c-17.333 0 -32.166 -6.16699 -44.499 -18.5s-18.5 -27.166 -18.5 -44.499v-97h89v-21h-89v-334c0 -17.333 6.16699 -32.166 18.5 -44.499s27.166 -18.5 44.499 -18.5h26v-21h-267v21h27c17.333 0 32.166 6.16699 44.499 18.5s18.5 27.166 18.5 44.499v218h-315
v-218c0 -17.333 6 -32.166 18 -44.499s26.667 -18.5 44 -18.5h27v-21h-267v21h27c17.333 0 32 6.16699 44 18.5s18 27.166 18 44.499v334h-89v21h89v97c0 17.333 -6 32.166 -18 44.499s-26.667 18.5 -44 18.5h-27v21h89h178v-21h-27c-17.333 0 -32 -6.16699 -44 -18.5
s-18 -27.166 -18 -44.499v-97h315v97c0 17.333 -6.16699 32.166 -18.5 44.499s-27.166 18.5 -44.499 18.5h-27v21h267v-21h-26zM523 418h-315v-95h315v95z" />
    <glyph glyph-name="hbar" unicode="&#x127;" horiz-adv-x="684" 
d="M668 21l0.00292969 -21.0039h-267v21h27c17.333 0 32.166 6.16699 44.499 18.5s18.5 27.166 18.5 44.499v0v159c2 45.333 -3.16699 81 -15.5 107s-28.333 44.833 -48 56.5s-41.334 17.334 -65.001 17.001s-45.5 -4.16602 -65.5 -11.499
c-25.333 -9.33301 -46.333 -20.166 -63 -32.499s-29.667 -25.833 -39 -40.5v-255c0 -17.333 6 -32.166 18 -44.499s26.667 -18.5 44 -18.5h27v-21h-267v21h27c17.333 0 32 6.16699 44 18.5s18 27.166 18 44.499v432h-147v22h147c-0.666992 16.667 -6.83398 31 -18.501 43
s-26.167 18 -43.5 18h-27v21h178v-82h167v-22h-167v-129c26 20.667 52.167 36.5 78.5 47.5s52.166 17.833 77.499 20.5s49.833 1.83398 73.5 -2.49902s45.834 -11.833 66.501 -22.5c10.667 -6 21.334 -13.833 32.001 -23.5s20.167 -22 28.5 -37s15 -33 20 -54
s7.5 -46.167 7.5 -75.5v-156v0c0 -17.333 6.16699 -32.166 18.5 -44.499s27.166 -18.5 44.499 -18.5h26z" />
    <glyph glyph-name="Itilde" unicode="&#x128;" horiz-adv-x="320" 
d="M207 536v-452c0 -17.333 6 -32.166 18 -44.499s26.667 -18.5 44 -18.5h27v-21h-178v0h-89v21h27c17.333 0 32 6.16699 44 18.5s18 27.166 18 44.499v452c0 17.333 -6 32.166 -18 44.499s-26.667 18.5 -44 18.5h-27v21h89v0h89v0h89v-21h-27
c-17.333 0 -32 -6.16699 -44 -18.5s-18 -27.166 -18 -44.499zM157 708c-12.667 5.33301 -25.333 7.16699 -38 5.5s-24.667 -6.16699 -36 -13.5l-27 34l25 19c12 9.33301 25.833 14.5 41.5 15.5s30.167 -2.83301 43.5 -11.5c13.333 -9.33301 28.5 -13.333 45.5 -12
s31.833 7.33301 44.5 18l27 -34l-40 -27c-21.333 -11.333 -43 -12.333 -65 -3zM29.001 0.000976562v21h27c17.333 0 32 6.16699 44 18.5s18 27.166 18 44.499v452c0 17.333 -6 32.166 -18 44.499s-26.667 18.5 -44 18.5h-27v21h267v-21h-27
c-17.333 0 -32 -6.16699 -44 -18.5s-18 -27.166 -18 -44.499v-452c0 -17.333 6 -32.166 18 -44.499s26.667 -18.5 44 -18.5h27v-21h-267z" />
    <glyph glyph-name="itilde" unicode="&#x129;" horiz-adv-x="299" 
d="M240 606l26.998 -34.9971l-40 -27c-21.333 -10.667 -43 -11.334 -65 -2.00098l-20 9c-13.333 5.33301 -26.166 7.16602 -38.499 5.49902s-24.5 -6.16699 -36.5 -13.5l-27 34c10.667 7.33301 20.834 14.666 30.501 21.999s21.5 11.333 35.5 12
c16 1.33301 30.667 -2.66699 44 -12c13.333 -8.66699 27.833 -12.667 43.5 -12s29.5 5.66699 41.5 15zM108.998 0.00292969l-89 0.000976562v21h27c17.333 0 32 6.16699 44 18.5s18 27.166 18 44.499v269c0 17.333 -6 32.166 -18 44.499s-26.667 18.5 -44 18.5h-27v21h178
v-353c0 -17.333 6 -32.166 18 -44.499s26.667 -18.5 44 -18.5h27v-21h-178z" />
    <glyph glyph-name="Imacron" unicode="&#x12a;" horiz-adv-x="327" 
d="M274 706h-221v49h221v-49zM30 0v21h27c17.333 0 32 6.16699 44 18.5s18 27.166 18 44.499v452c0 17.333 -6 32.166 -18 44.499s-26.667 18.5 -44 18.5h-27v21h89v0h89v0h89v-21h-27c-17.333 0 -32 -6.16699 -44 -18.5s-18 -27.166 -18 -44.499v-452
c0 -17.333 6 -32.166 18 -44.499s26.667 -18.5 44 -18.5h27v-21h-267z" />
    <glyph glyph-name="imacron" unicode="&#x12b;" horiz-adv-x="301" 
d="M43 599h221v-49h-221v49zM109 0l-89 0.000976562v21h27c17.333 0 32 6.16699 44 18.5s18 27.166 18 44.499v269c0 17.333 -6 32.166 -18 44.499s-26.667 18.5 -44 18.5h-27v21h178v-353c0 -17.333 6 -32.166 18 -44.499s26.667 -18.5 44 -18.5h27v-21h-178z" />
    <glyph glyph-name="Ibreve" unicode="&#x12c;" horiz-adv-x="320" 
d="M284 734c-42 -28 -82.5 -42 -121.5 -42s-79.5 14 -121.5 42v0l29 35v0c18 -9.33301 34.333 -16.333 49 -21s29.167 -7 43.5 -7s28.833 2.33301 43.5 7s31 11.667 49 21zM269 599c-17.333 0 -32 -6.16699 -44 -18.5s-18 -27.166 -18 -44.499v-452
c0 -17.333 6 -32.166 18 -44.499s26.667 -18.5 44 -18.5h27v-21h-267v21h27c17.333 0 32 6.16699 44 18.5s18 27.166 18 44.499v452c0 17.333 -6 32.166 -18 44.499s-26.667 18.5 -44 18.5h-27v21h89v0h89v0h89v-21h-27z" />
    <glyph glyph-name="ibreve" unicode="&#x12d;" horiz-adv-x="299" 
d="M61 611c18 -8.66699 34.333 -15.334 49 -20.001s29.167 -7 43.5 -7s28.833 2.33301 43.5 7s31 11.334 49 20.001l29 -34v0c-42 -28 -82.5 -42 -121.5 -42s-79.5 14 -121.5 42v0zM198 84c0 -17.333 6 -32.165 18 -44.498s26.667 -18.5 44 -18.5h27v-21h-267v21h27
c17.333 0 32 6.16699 44 18.5s18 27.166 18 44.499v269c0 17.333 -6 32.166 -18 44.499s-26.667 18.5 -44 18.5h-27v21h178v-353z" />
    <glyph glyph-name="Iogonek" unicode="&#x12e;" horiz-adv-x="323" 
d="M144 0h0.99707c-23.333 0.666992 -40.166 -6 -50.499 -20s-15.5 -30 -15.5 -48c0.666992 -19.333 8.33398 -36.333 23.001 -51s32.334 -22 53.001 -22c12.667 0 23 1.33301 31 4l5 -20c-20 -13.333 -39.667 -20.5 -59 -21.5s-36.833 2 -52.5 9s-28.667 17.167 -39 30.5
s-16.833 28 -19.5 44s-0.5 32.333 6.5 49s20.167 32 39.5 46h-37v21h27c17.333 0 32 6.16699 44 18.5s18 27.166 18 44.499v452c0 17.333 -6 32.166 -18 44.499s-26.667 18.5 -44 18.5h-27v21h267v-21h-27c-17.333 0 -32 -6.16699 -44 -18.5s-18 -27.166 -18 -44.499v-452
c0 -17.333 6 -32.166 18 -44.499s26.667 -18.5 44 -18.5h27v-21h-153z" />
    <glyph glyph-name="iogonek" unicode="&#x12f;" horiz-adv-x="258" 
d="M59 -79c0 15.333 3.83301 30.0029 11.5 44.0029s18.167 25.667 31.5 35h-82v21h27c17.333 0 32 6.16699 44 18.5s18 27.166 18 44.499v269c0 17.333 -6 32.166 -18 44.499s-26.667 18.5 -44 18.5h-27v21h178v-353c0 -17.333 6 -32.166 18 -44.499s26.667 -18.5 44 -18.5
h27v-21h-111c-21.333 -0.666992 -36.333 -7.83398 -45 -21.501s-13 -28.167 -13 -43.5c0.666992 -19.333 8.33398 -36.333 23.001 -51s32.334 -22 53.001 -22c13.333 0 24 1.33301 32 4l4 -20c-18.667 -12.667 -38 -19.834 -58 -21.501s-38.333 1.33301 -55 9
s-30.334 19 -41.001 34s-16.334 32.833 -17.001 53.5zM153 519.003c-18 0 -31.498 5.33301 -40.498 16s-13.5 22.667 -13.5 36c0 17.333 5.66699 30.5 17 39.5s23.666 13.5 36.999 13.5s25.666 -4.5 36.999 -13.5s17 -22.167 17 -39.5c0 -13.333 -4.5 -25.333 -13.5 -36
s-22.5 -16 -40.5 -16z" />
    <glyph glyph-name="Idotaccent" unicode="&#x130;" horiz-adv-x="333" 
d="M116 731c0 11.333 3.83301 21.667 11.5 31s19.5 14 35.5 14c15.333 0 26.833 -4.66699 34.5 -14s11.5 -19.833 11.5 -31.5s-3.83301 -22.167 -11.5 -31.5s-19.167 -14 -34.5 -14c-16 0 -27.833 4.83301 -35.5 14.5s-11.5 20.167 -11.5 31.5zM208 620.001h89v-21h-27
c-17.333 0 -32 -6.16699 -44 -18.5s-18 -27.166 -18 -44.499v-452c0 -17.333 6 -32.166 18 -44.499s26.667 -18.5 44 -18.5h27v-21h-267v21h27c17.333 0 32 6.16699 44 18.5s18 27.166 18 44.499v452c0 17.333 -6 32.166 -18 44.499s-26.667 18.5 -44 18.5h-27v21h89v0h89z
" />
    <glyph glyph-name="dotlessi" unicode="&#x131;" horiz-adv-x="299" 
d="M287 21v-20.999h-267v21h27c17.333 0 32 6.16699 44 18.5s18 27.166 18 44.499v269c0 17.333 -6 32.166 -18 44.499s-26.667 18.5 -44 18.5h-27v21h178v-353c0 -17.333 6 -32.166 18 -44.499s26.667 -18.5 44 -18.5h27zM156 519.001c-18 0 -31.499 5.33301 -40.499 16
s-13.5 22.667 -13.5 36c0 17.333 5.66699 30.5 17 39.5s23.666 13.5 36.999 13.5s25.5 -4.5 36.5 -13.5s16.5 -22.167 16.5 -39.5c0 -13.333 -4.33301 -25.333 -13 -36s-22 -16 -40 -16z" />
    <glyph glyph-name="IJ" unicode="&#x132;" horiz-adv-x="711" 
d="M207 536v-452c0 -17.333 6 -32.166 18 -44.499s26.667 -18.5 44 -18.5h27v-21h-178v0h-89v21h27c17.333 0 32 6.16699 44 18.5s18 27.166 18 44.499v452c0 17.333 -6 32.166 -18 44.499s-26.667 18.5 -44 18.5h-27v21h89v0h89v0h89v-21h-27
c-17.333 0 -32 -6.16699 -44 -18.5s-18 -27.166 -18 -44.499zM477 598h-30v0h30zM694 619l-0.000976562 -20.998h-26c-19.333 0 -35 -7 -47 -21s-17.333 -30.333 -16 -49v0v-376v0c0 -23.333 -2.16699 -44.833 -6.5 -64.5s-11.5 -36.834 -21.5 -51.501s-23.333 -26 -40 -34
s-37 -11.667 -61 -11v0c-11.333 0 -23.166 1.83301 -35.499 5.5s-24.5 10 -36.5 19s-23.833 21.167 -35.5 36.5s-22.167 34.666 -31.5 57.999l79 40l71 -134c10.667 6.66699 18 18.5 22 35.5s6.66699 33.833 8 50.5v435c-0.666992 16 -6.66699 29.833 -18 41.5
s-25 18.167 -41 19.5h-31v21h267z" />
    <glyph glyph-name="ij" unicode="&#x133;" horiz-adv-x="575" 
d="M232 592c0 -13.333 -4.33301 -25.333 -13 -36s-22 -16 -40 -16s-31.5 5.33301 -40.5 16s-13.5 22.667 -13.5 36s4.5 25.333 13.5 36s22.5 16 40.5 16s31.333 -5.33301 40 -16s13 -22.667 13 -36zM316 21l0.000976562 -20.999h-268v21h27
c17.333 0 32.166 6.16699 44.499 18.5s18.5 27.166 18.5 44.499v269c0 17.333 -6.16699 32.166 -18.5 44.499s-27.166 18.5 -44.499 18.5h-13v21h164v-353c0 -17.333 6.16699 -32.166 18.5 -44.499s27.166 -18.5 44.499 -18.5h27zM540.001 570.001
c0 -13.333 -4.5 -25.333 -13.5 -36s-22.5 -16 -40.5 -16s-31.5 5.5 -40.5 16.5s-13.5 23 -13.5 36s4.5 25 13.5 36s22.5 16.5 40.5 16.5s31.5 -5.5 40.5 -16.5s13.5 -23.167 13.5 -36.5zM531.001 437.001l-0.00292969 -33.5v-67.5v-89.5c0 -33 0.166992 -66.667 0.5 -101
s0.333008 -67.666 0 -99.999s-0.666016 -61.333 -0.999023 -87s-0.833008 -46.667 -1.5 -63s-1.66699 -25.5 -3 -27.5c-6.66699 -35.333 -21.167 -61 -43.5 -77s-49.166 -23.667 -80.499 -23v0c-11.333 -1.33301 -23 -0.333008 -35 3s-24 9.66602 -36 18.999
s-23.833 22 -35.5 38s-22.5 35.667 -32.5 59l79 40l71 -134c10.667 6.66699 18 18.667 22 36s6.66699 34.333 8 51v473c0 17.333 -6.16699 32 -18.5 44s-27.166 18 -44.499 18h-27v22h178z" />
    </font>
</defs>
</svg>
