<svg width="40" height="39" viewBox="0 0 40 39" fill="none" xmlns="http://www.w3.org/2000/svg">
<path d="M20 3.51488C25.34 3.51488 25.9733 3.53437 28.0833 3.62863C33.5033 3.86913 36.035 6.3765 36.2817 11.622C36.3783 13.6776 36.3967 14.2951 36.3967 19.5016C36.3967 24.7098 36.3767 25.3256 36.2817 27.3813C36.0333 32.6219 33.5083 35.1341 28.0833 35.3746C25.9733 35.4689 25.3433 35.4884 20 35.4884C14.66 35.4884 14.0267 35.4689 11.9183 35.3746C6.485 35.1325 3.96667 32.6138 3.72 27.3796C3.62333 25.324 3.60333 24.7081 3.60333 19.5C3.60333 14.2935 3.625 13.6776 3.72 11.6204C3.96833 6.3765 6.49333 3.8675 11.9183 3.627C14.0283 3.53438 14.66 3.51488 20 3.51488ZM20 0C14.5683 0 13.8883 0.02275 11.755 0.117C4.49167 0.442 0.455 4.37125 0.121667 11.4595C0.0233333 13.5411 0 14.2041 0 19.5C0 24.7959 0.0233333 25.4605 0.12 27.5405C0.453333 34.6222 4.48333 38.558 11.7533 38.883C13.8883 38.9772 14.5683 39 20 39C25.4317 39 26.1133 38.9772 28.2467 38.883C35.5033 38.558 39.55 34.6287 39.8783 27.5405C39.9767 25.4605 40 24.7959 40 19.5C40 14.2041 39.9767 13.5411 39.88 11.4611C39.5533 4.38587 35.5183 0.443625 28.2483 0.118625C26.1133 0.02275 25.4317 0 20 0V0ZM20 9.48675C14.3283 9.48675 9.73 13.9701 9.73 19.5C9.73 25.0299 14.3283 29.5149 20 29.5149C25.6717 29.5149 30.27 25.0315 30.27 19.5C30.27 13.9701 25.6717 9.48675 20 9.48675ZM20 26C16.3183 26 13.3333 23.0912 13.3333 19.5C13.3333 15.9104 16.3183 13 20 13C23.6817 13 26.6667 15.9104 26.6667 19.5C26.6667 23.0912 23.6817 26 20 26ZM30.6767 6.75188C29.35 6.75188 28.275 7.8 28.275 9.09188C28.275 10.3837 29.35 11.4319 30.6767 11.4319C32.0017 11.4319 33.075 10.3837 33.075 9.09188C33.075 7.8 32.0017 6.75188 30.6767 6.75188Z" fill="white"/>
</svg>
