<?xml version="1.0" standalone="no"?>
<!DOCTYPE svg PUBLIC "-//W3C//DTD SVG 1.1//EN" "http://www.w3.org/Graphics/SVG/1.1/DTD/svg11.dtd" >
<svg>
<metadata>
Created by FontForge 20090914 at Tue Jan 18 09:24:22 2022
 By www-data
Copyright 2016 The Mulish Project Authors (https://github.com/googlefonts/mulish)
</metadata>
<defs>
<font id="Mulish-ExtraLight" horiz-adv-x="0" >
  <font-face 
    font-family="Mulish ExtraLight"
    font-weight="200"
    font-stretch="normal"
    units-per-em="1000"
    panose-1="0 0 0 0 0 0 0 0 0 0"
    ascent="800"
    descent="-200"
    x-height="500"
    cap-height="705"
    bbox="-238 -270 1264 1036"
    underline-thickness="44"
    underline-position="-63"
    unicode-range="U+000D-U+FB02"
  />
<missing-glyph horiz-adv-x="500" 
 />
    <glyph glyph-name="fi" unicode="fi" horiz-adv-x="527" 
d="M108 0l-0.000976562 464h-100v36h110l-10 -11v89c0 51.333 12.5 91.166 37.5 119.499s60.5 42.5 106.5 42.5c11.333 0 23.333 -1.16699 36 -3.5s22.667 -5.16602 30 -8.49902v-40c-7.33301 3.33301 -16.666 6.33301 -27.999 9s-23.333 4 -36 4
c-35.333 0 -61.5 -11 -78.5 -33s-25.5 -54.333 -25.5 -97v-85l-8 14h297v-500h-42v464h-247v-464h-42zM384.999 631v63h65v-63h-65z" />
    <glyph glyph-name="fl" unicode="fl" horiz-adv-x="529" 
d="M108 0l-0.000976562 464h-100v36h110l-10 -11v89c0 51.333 12.5 91.166 37.5 119.499s60.5 42.5 106.5 42.5c11.333 0 23.333 -1.16699 36 -3.5s22.667 -5.16602 30 -8.49902v-40c-7.33301 3.33301 -16.666 6.33301 -27.999 9s-23.333 4 -36 4
c-23.333 0 -42.833 -5 -58.5 -15s-27.167 -24.5 -34.5 -43.5s-11 -42.833 -11 -71.5v-85l-8 14h155v-36h-147v-464h-42zM398.999 0v736h42v-736h-42z" />
    <glyph glyph-name=".notdef" horiz-adv-x="500" 
 />
    <glyph glyph-name="uni0000" 
 />
    <glyph glyph-name="uni0000" 
 />
    <glyph glyph-name="CR" unicode="&#xd;" horiz-adv-x="250" 
 />
    <glyph glyph-name="space" unicode=" " horiz-adv-x="250" 
 />
    <glyph glyph-name="exclam" unicode="!" horiz-adv-x="211" 
d="M92 162l-13 543h53l-13 -543h-27zM71 0v70h69v-70h-69z" />
    <glyph glyph-name="quotedbl" unicode="&#x22;" horiz-adv-x="342" 
d="M88 440l-13 265h52l-11 -265h-28zM228 440l-13 265h52l-11 -265h-28z" />
    <glyph glyph-name="numbersign" unicode="#" horiz-adv-x="600" 
d="M93 0l39 191h-109v40h116l51 251h-147v40h155l37 183h42l-36 -183h184l36 183h44l-37 -183h109v-40h-117l-51 -251h148v-40h-155l-39 -191h-44l39 191h-183l-38 -191h-44zM182 231h184l51 251h-184z" />
    <glyph glyph-name="dollar" unicode="$" horiz-adv-x="600" 
d="M290 -115l-0.00195312 123.998l13 -13c-47.333 0 -92.166 6.83301 -134.499 20.5s-79.833 35.834 -112.5 66.501l22 36c32.667 -28.667 65.834 -49.5 99.501 -62.5s75.5 -19.5 125.5 -19.5c63.333 0 111.166 13.333 143.499 40s48.5 61.334 48.5 104.001
c0 35.333 -11.833 63 -35.5 83s-62.167 35.667 -115.5 47l-95 20c-60 12.667 -104.5 33.667 -133.5 63s-43.5 68.333 -43.5 117c0 38 9.33301 71.833 28 101.5s44.834 53 78.501 70s72.5 25.833 116.5 26.5l-5 -13v124h40v-124l-7 12c34 -0.666992 69 -8.33398 105 -23.001
s67.333 -37 94 -67l-20 -36c-28 30.667 -58.167 52.667 -90.5 66s-69.166 20 -110.499 20c-56.667 0 -102.167 -14.333 -136.5 -43s-51.5 -66.667 -51.5 -114c0 -38 11 -68 33 -90s57 -38 105 -48l95 -20c65.333 -13.333 113.666 -33.5 144.999 -60.5s47 -63.833 47 -110.5
c0 -37.333 -9.5 -69.666 -28.5 -96.999s-45 -48.5 -78 -63.5s-71.167 -23.5 -114.5 -25.5l13 14v-125h-40z" />
    <glyph glyph-name="percent" unicode="%" horiz-adv-x="926" 
d="M273 0h-42l422 705h42zM228 281c-52 0 -92.999 18.833 -122.999 56.5s-45 90.834 -45 159.501s15.167 121.667 45.5 159s71.166 56 122.499 56c52 0 93 -18.667 123 -56s45 -90.333 45 -159s-15 -121.834 -45 -159.501s-71 -56.5 -123 -56.5zM228.001 318
c39.333 0 70.166 15.167 92.499 45.5s33.5 74.833 33.5 133.5c0 58 -11.167 102.167 -33.5 132.5s-53.166 45.5 -92.499 45.5c-38.667 0 -69.167 -15.167 -91.5 -45.5s-33.5 -74.5 -33.5 -132.5c0 -58.667 11.167 -103.167 33.5 -133.5s52.833 -45.5 91.5 -45.5zM698.001 -8
c-52 0 -92.999 18.6689 -122.999 56.002s-45 90.666 -45 159.999c0 68.667 15.167 121.667 45.5 159s71.166 56 122.499 56c52 0 93 -18.667 123 -56s45 -90.333 45 -159s-15 -121.834 -45 -159.501s-71 -56.5 -123 -56.5zM698.002 29.002
c39.333 0 70.166 15.167 92.499 45.5s33.5 74.833 33.5 133.5c0 58 -11.167 102.167 -33.5 132.5s-53.166 45.5 -92.499 45.5c-38.667 0 -69.167 -15.167 -91.5 -45.5s-33.5 -74.5 -33.5 -132.5c0 -58.667 11.167 -103.167 33.5 -133.5s52.833 -45.5 91.5 -45.5z" />
    <glyph glyph-name="ampersand" unicode="&#x26;" horiz-adv-x="655" 
d="M646 -8c-30.667 17.333 -58.498 36.835 -83.498 58.502s-45.167 41.5 -60.5 59.5h13c-26.667 -37.333 -60.334 -66.333 -101.001 -87s-85.667 -31 -135 -31c-45.333 0 -84 7 -116 21s-56.333 33.5 -73 58.5s-25 54.5 -25 88.5c0 46 13.333 85.167 40 117.5
s65.667 66.166 117 101.499l32 22l-5 -8c-33.333 37.333 -57.333 69 -72 95s-22 53 -22 81c0 28.667 6.5 53.667 19.5 75s31.333 38.166 55 50.499s51.5 18.5 83.5 18.5c40 0 73.833 -11.833 101.5 -35.5s41.5 -56.167 41.5 -97.5c0 -22.667 -4.66699 -44 -14 -64
s-25.333 -40.5 -48 -61.5s-54.667 -44.833 -96 -71.5l2 13l210 -236h-11c17.333 28 31.166 63.5 41.499 106.5s15.833 88.833 16.5 137.5h41c-1.33301 -56 -8.33301 -107.5 -21 -154.5s-29.667 -88.167 -51 -123.5l-2 18c16 -18.667 37 -39.167 63 -61.5
s53.667 -41.5 83 -57.5zM278.002 31.002c46 0 86.6689 9.5 122.002 28.5s65.333 46.5 90 82.5v-18l-224 249h14l-33 -23c-32.667 -22.667 -59.334 -43.5 -80.001 -62.5s-35.834 -38.333 -45.501 -58s-14.5 -42.5 -14.5 -68.5c0 -40.667 14.5 -72.5 43.5 -95.5
s71.5 -34.5 127.5 -34.5zM313.004 674.002c-34.667 0 -62.667 -9.66699 -84 -29s-32 -45 -32 -77c0 -16 2.66699 -30.833 8 -44.5s14.5 -29 27.5 -46s30.833 -38.5 53.5 -64.5l-15 -4c50.667 33.333 87.334 62.5 110.001 87.5s34 51.5 34 79.5c0 29.333 -9.33301 53 -28 71
s-43.334 27 -74.001 27z" />
    <glyph glyph-name="quotesingle" unicode="'" horiz-adv-x="202" 
d="M88 440l-13 265h52l-11 -265h-28z" />
    <glyph glyph-name="parenleft" unicode="(" horiz-adv-x="284" 
d="M215 -180c-24.667 50 -45.167 98.999 -61.5 146.999s-28.5 96.333 -36.5 145s-12 99 -12 151s4 102.333 12 151s20.167 96.834 36.5 144.501s36.833 96.5 61.5 146.5h38c-33.333 -72.667 -59 -146 -77 -220s-27 -148 -27 -222s9 -148.167 27 -222.5
s43.667 -147.833 77 -220.5h-38z" />
    <glyph glyph-name="parenright" unicode=")" horiz-adv-x="284" 
d="M69 -180h-38c33.333 72.667 59 146 77 220s27 148 27 222s-9 148.167 -27 222.5s-43.667 147.833 -77 220.5h38c24.667 -50 45.167 -99 61.5 -147s28.5 -96.333 36.5 -145s12 -99 12 -151s-4 -102.167 -12 -150.5s-20.167 -96.5 -36.5 -144.5s-36.833 -97 -61.5 -147z
" />
    <glyph glyph-name="asterisk" unicode="*" horiz-adv-x="452" 
d="M128 377l-31 23l102 135l-162 51l13 37l159 -56l-4 169h40l-3 -170l162 57l11 -37l-162 -51l102 -135l-32 -23l-96 141z" />
    <glyph glyph-name="plus" unicode="+" horiz-adv-x="600" 
d="M280 37v230h-228v39h228v226h40v-226h228v-39h-228v-230h-40z" />
    <glyph glyph-name="comma" unicode="," horiz-adv-x="211" 
d="M96 -98l-26.001 19.999c14.667 16 23.834 30.833 27.501 44.5s5.5 26.834 5.5 39.501l10 -6h-42v70h69v-55c0 -20.667 -3 -40.5 -9 -59.5s-17.667 -36.833 -35 -53.5z" />
    <glyph glyph-name="hyphen" unicode="-" horiz-adv-x="420" 
d="M76 254v38h268v-38h-268z" />
    <glyph glyph-name="period" unicode="." horiz-adv-x="211" 
d="M71 0v70h69v-70h-69z" />
    <glyph glyph-name="slash" unicode="/" horiz-adv-x="259" 
d="M20 -52h-41l260 796h41z" />
    <glyph glyph-name="zero" unicode="0" horiz-adv-x="600" 
d="M300 -8c-77.333 0 -136.667 30.668 -178 92.001s-62 150.666 -62 267.999c0 118.667 20.667 208.5 62 269.5s100.666 91.5 177.999 91.5c78 0 137.5 -30.5 178.5 -91.5s61.5 -150.5 61.5 -268.5s-20.667 -207.667 -62 -269s-100.666 -92 -177.999 -92zM299.999 33.001
c65.333 0 114.166 26.167 146.499 78.5s48.5 132.833 48.5 241.5c0 109.333 -16.167 189.833 -48.5 241.5s-81.166 77.5 -146.499 77.5c-64.667 0 -113.334 -26.167 -146.001 -78.5s-49 -132.5 -49 -240.5c0 -108.667 16.333 -189.167 49 -241.5s81.334 -78.5 146.001 -78.5
z" />
    <glyph glyph-name="one" unicode="1" horiz-adv-x="600" 
d="M142 0v39h169v628h27l-181 -118v47l165 109h31v-666h159v-39h-370z" />
    <glyph glyph-name="two" unicode="2" horiz-adv-x="600" 
d="M94 0l0.00390625 32l264 277c35.333 36.667 62.166 72.667 80.499 108s27.5 72.333 27.5 111c0 47.333 -14.333 83.166 -43 107.499s-70.334 36.5 -125.001 36.5c-41.333 0 -78.833 -7.33301 -112.5 -22s-65.167 -37 -94.5 -67l-20 36c25.333 28 58.166 50.667 98.499 68
s83.166 26 128.499 26c67.333 0 119.5 -16 156.5 -48s55.5 -77.333 55.5 -136c0 -44.667 -11.333 -87.667 -34 -129s-54 -82.666 -94 -123.999l-244 -251v14h403v-39h-447z" />
    <glyph glyph-name="three" unicode="3" horiz-adv-x="600" 
d="M303 -8c-46.667 0 -90.999 7.50195 -132.999 22.502s-78.333 36.833 -109 65.5l21 36c34.667 -29.333 69.667 -50.5 105 -63.5s74 -19.5 116 -19.5c59.333 0 104.666 13.333 135.999 40s47 65 47 115c0 49.333 -16.333 86.833 -49 112.5s-80.667 38.5 -144 38.5h-99v39
h97c53.333 0 96 14.333 128 43s48 67.334 48 116.001c0 43.333 -14.5 76.666 -43.5 99.999s-69.833 35 -122.5 35c-80.667 0 -149.667 -29.667 -207 -89l-20 36c26 29.333 59.167 52.333 99.5 69s82.833 25 127.5 25c65.333 0 116.666 -15.5 153.999 -46.5
s56 -74.167 56 -129.5c0 -44.667 -12.667 -82.834 -38 -114.501s-59.666 -53.167 -102.999 -64.5v10c51.333 -8.66699 90.833 -28.834 118.5 -60.501s41.5 -71.5 41.5 -119.5c0 -60.667 -20.167 -108.5 -60.5 -143.5s-95.833 -52.5 -166.5 -52.5z" />
    <glyph glyph-name="four" unicode="4" horiz-adv-x="600" 
d="M413 0v166h-355v33l362 506h35v-500h115v-39h-115v-166h-42zM413 205v450h20l-331 -462v12h311z" />
    <glyph glyph-name="five" unicode="5" horiz-adv-x="600" 
d="M321 -8c-30.667 0 -60.3359 3.33301 -89.0029 10s-55.667 16.667 -81 30s-48 29.333 -68 48l21 36c34 -28.667 68.5 -49.667 103.5 -63s72.833 -20 113.5 -20c57.333 0 102.5 16.167 135.5 48.5s49.5 74.833 49.5 127.5c0 54 -15.667 98.333 -47 133s-75 52 -131 52
c-39.333 0 -74.166 -8 -104.499 -24s-56.166 -41.333 -77.499 -76h-38v411h400v-39h-357v-330h-14c18.667 31.333 45 55.666 79 72.999s72.333 26 115 26c45.333 0 84.333 -9.33301 117 -28s57.834 -44.5 75.501 -77.5s26.5 -71.833 26.5 -116.5
c0 -43.333 -9.33301 -81.666 -28 -114.999s-45 -59.333 -79 -78s-74.667 -28 -122 -28z" />
    <glyph glyph-name="six" unicode="6" horiz-adv-x="600" 
d="M321 -8c-82.667 0 -146.166 29.8311 -190.499 89.498s-66.5 142.834 -66.5 249.501c0 82.667 11 152.334 33 209.001s53.833 99.667 95.5 129s91.5 44 149.5 44c36 0 72.667 -8.16699 110 -24.5s67 -38.166 89 -65.499l-20 -36c-25.333 28.667 -53.5 50 -84.5 64
s-62.833 21 -95.5 21c-74.667 0 -132.334 -27.833 -173.001 -83.5s-61 -138.5 -61 -248.5v-110h-6c3.33301 42 14.833 78.167 34.5 108.5s45.5 53.833 77.5 70.5s68 25 108 25c44 0 82.667 -9.33301 116 -28s59.5 -44.5 78.5 -77.5s28.5 -71.167 28.5 -114.5
c0 -42.667 -9.5 -80.834 -28.5 -114.501s-45.333 -60 -79 -79s-72.167 -28.5 -115.5 -28.5zM317.001 32.998c36 0 67.833 7.66699 95.5 23s49.167 36.5 64.5 63.5s23 58.167 23 93.5s-7.66699 66.5 -23 93.5s-36.833 48.167 -64.5 63.5s-59.5 23 -95.5 23
s-67.833 -7.66699 -95.5 -23s-49.167 -36.5 -64.5 -63.5s-23 -58.167 -23 -93.5s7.66699 -66.5 23 -93.5s36.833 -48.167 64.5 -63.5s59.5 -23 95.5 -23z" />
    <glyph glyph-name="seven" unicode="7" horiz-adv-x="600" 
d="M136 0l353 694v-28h-413v39h448v-31l-341 -674h-47z" />
    <glyph glyph-name="eight" unicode="8" horiz-adv-x="600" 
d="M300 -8c-78.667 0 -139.168 16.833 -181.501 50.5s-63.5 80.834 -63.5 141.501c0 48.667 15.167 89 45.5 121s70.5 51.333 120.5 58v-9c-46 9.33301 -82.333 29.833 -109 61.5s-40 68.834 -40 111.501c0 58.667 20.333 104.334 61 137.001s96.334 49 167.001 49
c71.333 0 127.333 -16.333 168 -49s61 -78.334 61 -137.001c0 -42.667 -12.5 -79.834 -37.5 -111.501s-60.5 -52.167 -106.5 -61.5v9c50 -6.66699 89.167 -26 117.5 -58s42.5 -72.333 42.5 -121c0 -60.667 -21 -107.834 -63 -141.501s-102.667 -50.5 -182 -50.5zM299.999 32
c68 0 118.501 12.667 151.501 38s49.5 63.666 49.5 114.999s-16.5 89.5 -49.5 114.5s-83.5 37.5 -151.5 37.5s-118.5 -12.5 -151.5 -37.5s-49.5 -63.167 -49.5 -114.5s16.667 -89.666 50 -114.999s83.666 -38 150.999 -38zM300 377c59.333 0 104.833 13.167 136.5 39.5
s47.5 62.833 47.5 109.5s-15.833 82.834 -47.5 108.501s-77.167 38.5 -136.5 38.5s-104.833 -12.833 -136.5 -38.5s-47.5 -61.834 -47.5 -108.501s15.833 -83.167 47.5 -109.5s77.167 -39.5 136.5 -39.5z" />
    <glyph glyph-name="nine" unicode="9" horiz-adv-x="600" 
d="M259 -8c-36 0 -72.667 8.33301 -110 25s-67.333 38.334 -90 65.001l21 36c25.333 -28.667 53.5 -50 84.5 -64s62.833 -21 95.5 -21c74 0 131.333 27.833 172 83.5s61 138.5 61 248.5v110h7c-3.33301 -41.333 -15 -77.333 -35 -108s-45.833 -54.334 -77.5 -71.001
s-67.5 -25 -107.5 -25c-44 0 -82.833 9.33301 -116.5 28s-60 44.667 -79 78s-28.5 71.333 -28.5 114c0 43.333 9.5 81.666 28.5 114.999s45.333 59.5 79 78.5s72.167 28.5 115.5 28.5c83.333 0 147.166 -29.667 191.499 -89s66.5 -142.666 66.5 -249.999
c0 -82 -11.167 -151.5 -33.5 -208.5s-54.166 -100.167 -95.499 -129.5s-91 -44 -149 -44zM284 312c36 0 67.833 7.66699 95.5 23s49.167 36.5 64.5 63.5s23 58.167 23 93.5s-7.66699 66.5 -23 93.5s-36.833 48.167 -64.5 63.5s-59.5 23 -95.5 23s-67.833 -7.66699 -95.5 -23
s-49.167 -36.5 -64.5 -63.5s-23 -58.167 -23 -93.5s7.66699 -66.5 23 -93.5s36.833 -48.167 64.5 -63.5s59.5 -23 95.5 -23z" />
    <glyph glyph-name="colon" unicode=":" horiz-adv-x="211" 
d="M71 430v70h69v-70h-69zM71 0v70h69v-70h-69z" />
    <glyph glyph-name="semicolon" unicode=";" horiz-adv-x="211" 
d="M96 -98l-26.001 19.999c14.667 16 23.834 30.833 27.501 44.5s5.5 26.834 5.5 39.501l19 -6h-51v70h69v-55c0 -20.667 -3 -40.5 -9 -59.5s-17.667 -36.833 -35 -53.5zM70.999 429.999v70h69v-70h-69z" />
    <glyph glyph-name="less" unicode="&#x3c;" horiz-adv-x="600" 
d="M547 36l-495 233v36l495 233v-44l-466 -218v22l466 -217v-45z" />
    <glyph glyph-name="equal" unicode="=" horiz-adv-x="600" 
d="M52 367v39h496v-39h-496zM52 168v39h496v-39h-496z" />
    <glyph glyph-name="greater" unicode="&#x3e;" horiz-adv-x="600" 
d="M53 36v45l466 217v-22l-466 218v44l495 -233v-36z" />
    <glyph glyph-name="question" unicode="?" horiz-adv-x="433" 
d="M173 162v20.002c0 35.333 7 69.333 21 102s39.333 70 76 112c30 34 51 63.5 63 88.5s18 50.833 18 77.5c0 34.667 -12.167 61.667 -36.5 81s-57.5 29 -99.5 29c-26 0 -50.333 -3 -73 -9s-44.667 -14.667 -66 -26v46c20.667 9.33301 42.667 16.666 66 21.999
s47.333 8 72 8c36.667 0 68.5 -6.33301 95.5 -19s48 -30.167 63 -52.5s22.5 -48.833 22.5 -79.5c0 -21.333 -3 -41.5 -9 -60.5s-15.833 -38.833 -29.5 -59.5s-32.167 -44.334 -55.5 -71.001c-32.667 -38 -56 -71 -70 -99s-22.667 -57.333 -26 -88l-2 -22h-30z
M153 0.00195312v70h69v-70h-69z" />
    <glyph glyph-name="at" unicode="@" horiz-adv-x="973" 
d="M498 -162c-65.333 0 -124.337 10.168 -177.004 30.501s-97.834 49.5 -135.501 87.5s-66.667 84 -87 138s-30.5 114.667 -30.5 182c0 64.667 10.667 123.667 32 177s51.666 99.5 90.999 138.5s86 69 140 90s113.333 31.5 178 31.5c78.667 0 147.667 -15.333 207 -46
s105.666 -73.667 138.999 -129s50 -119.666 50 -192.999c0 -57.333 -8.16699 -107.5 -24.5 -150.5s-39.166 -76.333 -68.499 -100s-63.666 -35.5 -102.999 -35.5s-68.666 11.833 -87.999 35.5s-25.333 54.834 -18 93.501l8 -19c-18 -34.667 -42.667 -61.667 -74 -81
s-64 -29 -98 -29c-51.333 0 -91.166 15.667 -119.499 47s-42.5 74.666 -42.5 129.999c0 50 9.83301 94.167 29.5 132.5s46.5 68.5 80.5 90.5s72.333 33 115 33c38.667 0 70.334 -9.16699 95.001 -27.5s40 -43.5 46 -75.5h-7l17 95h42l-49 -275
c-1.33301 -7.33301 -2.33301 -14.5 -3 -21.5s-1 -13.5 -1 -19.5c0 -24 5.83301 -42 17.5 -54s29.167 -18 52.5 -18c30.667 0 57.334 10.333 80.001 31s40.5 49.667 53.5 87s19.5 81 19.5 131c0 65.333 -15.167 122.666 -45.5 171.999s-72.166 87.833 -125.499 115.5
s-115.333 41.5 -186 41.5c-79.333 0 -148.833 -16.667 -208.5 -50s-106 -79.833 -139 -139.5s-49.5 -129.167 -49.5 -208.5c0 -82.667 15.833 -153.834 47.5 -213.501s76.5 -105.5 134.5 -137.5s126.333 -48 205 -48c59.333 0 113 9.5 161 28.5s86.333 45.833 115 80.5
l27 -32c-33.333 -37.333 -76.333 -66 -129 -86s-110.667 -30 -174 -30zM439.996 98.001c35.333 0 66.667 9.83398 94 29.501s49 46.834 65 81.501s24 73.667 24 117s-9.66699 75.333 -29 96s-49.666 31 -90.999 31c-34.667 0 -65.834 -9.33301 -93.501 -28
s-49.5 -44.334 -65.5 -77.001s-24 -70 -24 -112c0 -44.667 10.5 -78.834 31.5 -102.501s50.5 -35.5 88.5 -35.5z" />
    <glyph glyph-name="A" unicode="A" horiz-adv-x="721" 
d="M34 0l303 705h41l309 -705h-46l-89 204l23 -9h-437l28 9l-87 -204h-45zM356 649l-179 -421l-22 6h403l-16 -6l-184 421h-2z" />
    <glyph glyph-name="B" unicode="B" horiz-adv-x="672" 
d="M97 0v704.998h257c74 0 131 -15.833 171 -47.5s60 -77.167 60 -136.5c0 -45.333 -13.833 -82.666 -41.5 -111.999s-65.167 -48.666 -112.5 -57.999v14c52.667 -4.66699 94.167 -22 124.5 -52s45.5 -70.667 45.5 -122c0 -62.667 -20 -110.167 -60 -142.5
s-97.667 -48.5 -173 -48.5h-271zM139 38.998h228c57.333 0 103.333 11.333 138 34s52 61 52 115c0 54.667 -17.333 93.167 -52 115.5s-80.667 33.5 -138 33.5h-228v-298zM139 375.998h213c62 0 109 12.5 141 37.5s48 60.833 48 107.5c0 47.333 -16 83.333 -48 108
s-79 37 -141 37h-213v-290z" />
    <glyph glyph-name="C" unicode="C" horiz-adv-x="684" 
d="M385 -8c-68 0 -125.5 14.499 -172.5 43.499s-82.833 70.5 -107.5 124.5s-37 118.333 -37 193s12.333 138.834 37 192.501s60.5 95 107.5 124s104.5 43.5 172.5 43.5c51.333 0 96.5 -8.16699 135.5 -24.5s73.5 -40.166 103.5 -71.499l-22 -35
c-32.667 31.333 -65.834 54.166 -99.501 68.499s-73.167 21.5 -118.5 21.5c-88.667 0 -156 -27.833 -202 -83.5s-69 -134.167 -69 -235.5s23 -180 69 -236s113.333 -84 202 -84c45.333 0 84.833 7.16699 118.5 21.5s66.834 37.166 99.501 68.499l22 -35
c-30 -31.333 -64.667 -55.166 -104 -71.499s-84.333 -24.5 -135 -24.5z" />
    <glyph glyph-name="D" unicode="D" horiz-adv-x="733" 
d="M97 0v705.002h214c76 0 140.333 -13.333 193 -40s92.667 -66.167 120 -118.5s41 -116.833 41 -193.5s-13.667 -141.334 -41 -194.001s-67.333 -92.334 -120 -119.001s-117 -40 -193 -40h-214zM139 39.002h168c105.333 0 183.833 26.167 235.5 78.5
s77.5 130.833 77.5 235.5s-25.833 183 -77.5 235s-130.167 78 -235.5 78h-168v-627z" />
    <glyph glyph-name="E" unicode="E" horiz-adv-x="582" 
d="M97 0v705h428v-39h-386v-289h364v-39h-364v-299h386v-39h-428z" />
    <glyph glyph-name="F" unicode="F" horiz-adv-x="554" 
d="M97 0v705h418v-39h-376v-289h355v-39h-355v-338h-42z" />
    <glyph glyph-name="G" unicode="G" horiz-adv-x="723" 
d="M406 -8c-74.667 0 -137.169 14.165 -187.502 42.498s-88 69.5 -113 123.5s-37.5 119 -37.5 195c0 74.667 12.833 138.834 38.5 192.501s62.667 95 111 124s106.5 43.5 174.5 43.5c51.333 0 95.5 -8.16699 132.5 -24.5s70.833 -40.166 101.5 -71.499l-22 -35
c-22 21.333 -43.5 38.5 -64.5 51.5s-43.167 22.667 -66.5 29s-50.666 9.5 -81.999 9.5c-88.667 0 -157.167 -28 -205.5 -84s-72.5 -134.667 -72.5 -236c0 -103.333 23.833 -182.333 71.5 -237s121.5 -82 221.5 -82c38 0 73.5 3.5 106.5 10.5s64.167 17.167 93.5 30.5
l-12 -36v280h-194v39h234v-316c-25.333 -14 -59.166 -25.667 -101.499 -35s-84.5 -14 -126.5 -14z" />
    <glyph glyph-name="H" unicode="H" horiz-adv-x="759" 
d="M97 0v705h42v-328h481v328h42v-705h-42v338h-481v-338h-42z" />
    <glyph glyph-name="I" unicode="I" horiz-adv-x="236" 
d="M97 0v705h42v-705h-42z" />
    <glyph glyph-name="J" unicode="J" horiz-adv-x="300" 
d="M70 -186c-10.667 0 -21.8311 0.500977 -33.498 1.50098s-23.834 3.16699 -36.501 6.5v39c12.667 -2.66699 24.167 -4.83398 34.5 -6.50098s20.166 -2.5 29.499 -2.5c30.667 0 54.5 10 71.5 30s25.5 51.333 25.5 94v729h42v-731c0 -33.333 -5 -62 -15 -86
s-24.833 -42.333 -44.5 -55s-44.167 -19 -73.5 -19z" />
    <glyph glyph-name="K" unicode="K" horiz-adv-x="605" 
d="M97 0v705h42v-328h2l366 328h61l-408 -362l1 30l438 -373h-63l-395 338h-2v-338h-42z" />
    <glyph glyph-name="L" unicode="L" horiz-adv-x="532" 
d="M97 0v705h42v-666h378v-39h-420z" />
    <glyph glyph-name="M" unicode="M" horiz-adv-x="848" 
d="M97 0v705h37l304 -688h-28l305 688h36v-705h-39v664h24l-294 -664h-35l-295 665h24v-665h-39z" />
    <glyph glyph-name="N" unicode="N" horiz-adv-x="739" 
d="M97 0v705h36l491 -663h-21v663h39v-705h-35l-491 663h20v-663h-39z" />
    <glyph glyph-name="O" unicode="O" horiz-adv-x="759" 
d="M68 353c0 74.667 12.168 138.833 36.501 192.5s59.666 95 105.999 124s102.5 43.5 168.5 43.5c64 0 119.333 -14.5 166 -43.5s82.667 -70.333 108 -124s38 -117.5 38 -191.5c0 -74.667 -12.833 -139 -38.5 -193s-61.834 -95.667 -108.501 -125s-101.667 -44 -165 -44
c-65.333 0 -121.166 14.667 -167.499 44s-81.833 71 -106.5 125s-37 118 -37 192zM113.001 352.999c0 -100.667 22.668 -179.167 68.001 -235.5s111.333 -84.5 198 -84.5c83.333 0 148.666 28 195.999 84s71 134.667 71 236s-23.5 179.833 -70.5 235.5
s-112.5 83.5 -196.5 83.5c-86.667 0 -152.667 -27.833 -198 -83.5s-68 -134.167 -68 -235.5z" />
    <glyph glyph-name="P" unicode="P" horiz-adv-x="638" 
d="M97 0v705h263c71.333 0 126.666 -17 165.999 -51s59 -81.667 59 -143c0 -60.667 -19.667 -108.167 -59 -142.5s-94.666 -51.5 -165.999 -51.5h-221v-317h-42zM139 356h220c59.333 0 104.333 13.5 135 40.5s46 65.167 46 114.5s-15.333 87.5 -46 114.5
s-75.667 40.5 -135 40.5h-220v-310z" />
    <glyph glyph-name="Q" unicode="Q" horiz-adv-x="759" 
d="M571 -191c-18 13.333 -36.833 30.334 -56.5 51.001s-38.5 43.167 -56.5 67.5s-33.667 48.833 -47 73.5l46 11c18 -34.667 40 -66.334 66 -95.001s52 -53.667 78 -75zM68 353.001c0 74.667 12.168 138.833 36.501 192.5s59.666 95 105.999 124s102.5 43.5 168.5 43.5
c64 0 119.333 -14.5 166 -43.5s82.667 -70.333 108 -124s38 -117.5 38 -191.5c0 -74.667 -12.833 -139 -38.5 -193s-61.834 -95.667 -108.501 -125s-101.667 -44 -165 -44c-65.333 0 -121.166 14.667 -167.499 44s-81.833 71 -106.5 125s-37 118 -37 192zM113.001 353
c0 -100.667 22.668 -179.167 68.001 -235.5s111.333 -84.5 198 -84.5c83.333 0 148.666 28 195.999 84s71 134.667 71 236s-23.5 179.833 -70.5 235.5s-112.5 83.5 -196.5 83.5c-86.667 0 -152.667 -27.833 -198 -83.5s-68 -134.167 -68 -235.5z" />
    <glyph glyph-name="R" unicode="R" horiz-adv-x="684" 
d="M97 0l0.00195312 705h270c71.333 0 126.666 -16.667 165.999 -50s59 -80.333 59 -141c0 -39.333 -9 -72.833 -27 -100.5s-42.5 -48.667 -73.5 -63s-66.5 -21.5 -106.5 -21.5l21 8h8c26.667 0 50.5 -6.16699 71.5 -18.5s37.833 -34.5 50.5 -66.5l97 -252h-47l-88 236
c-13.333 36.667 -32.833 60.167 -58.5 70.5s-58.834 15.5 -99.501 15.5h-201v-322h-42zM139.002 361l224 0.000976562c60 0 105.667 13.167 137 39.5s47 64.166 47 113.499s-15.667 87 -47 113s-77 39 -137 39h-224v-305z" />
    <glyph glyph-name="S" unicode="S" horiz-adv-x="604" 
d="M313 -8c-56.667 0 -106.003 7.5 -148.003 22.5s-79.667 36.833 -113 65.5l21 36c24.667 -19.333 48.334 -35.166 71.001 -47.499s47.5 -21.333 74.5 -27s58.167 -8.5 93.5 -8.5c65.333 0 114.833 13.167 148.5 39.5s50.5 61.5 50.5 105.5c0 37.333 -11.833 66 -35.5 86
s-64.167 35.667 -121.5 47l-99 20c-64.667 13.333 -112.667 34.333 -144 63s-47 68.334 -47 119.001c0 40 10.333 75 31 105s49.334 53.333 86.001 70s79.334 25 128.001 25c49.333 0 94.333 -7.66699 135 -23s75.667 -38.333 105 -69l-20 -36
c-32.667 31.333 -66.334 53.666 -101.001 66.999s-74.334 20 -119.001 20c-61.333 0 -110.166 -14.333 -146.499 -43s-54.5 -67.334 -54.5 -116.001c0 -39.333 11.667 -69.833 35 -91.5s61 -37.834 113 -48.501l100 -20c69.333 -14 119.833 -34.167 151.5 -60.5
s47.5 -64.166 47.5 -113.499c0 -36.667 -9.66699 -69.167 -29 -97.5s-47.166 -50.333 -83.499 -66s-79.5 -23.5 -129.5 -23.5z" />
    <glyph glyph-name="T" unicode="T" horiz-adv-x="590" 
d="M272 0v666h-262v39h566v-39h-262v-666h-42z" />
    <glyph glyph-name="U" unicode="U" horiz-adv-x="722" 
d="M361 -8c-91.333 0 -159 23.667 -203 71s-66 116.333 -66 207v435h42v-429c0 -81.333 18.167 -142.166 54.5 -182.499s93.833 -60.5 172.5 -60.5c74 0 130.333 20.167 169 60.5s58 101.166 58 182.499v429h42v-435c0 -90.667 -23 -159.667 -69 -207s-112.667 -71 -200 -71
z" />
    <glyph glyph-name="V" unicode="V" horiz-adv-x="677" 
d="M314 0l-302 705h45l292 -681h-22l294 681h44l-305 -705h-46z" />
    <glyph glyph-name="W" unicode="W" horiz-adv-x="1104" 
d="M285 0l-243 705h45l235 -686h-30l243 686h39l233 -686h-27l239 686h43l-246 -705h-44l-227 672h20l-238 -672h-42z" />
    <glyph glyph-name="X" unicode="X" horiz-adv-x="636" 
d="M24 0l274 367v-10l-259 348h51l236 -318h-12l232 318h51l-258 -348v10l273 -367h-51l-253 342h21l-254 -342h-51z" />
    <glyph glyph-name="Y" unicode="Y" horiz-adv-x="587" 
d="M272 0v326l11 -38l-282 417h49l252 -378h-15l252 378h47l-282 -417l10 38v-326h-42z" />
    <glyph glyph-name="Z" unicode="Z" horiz-adv-x="585" 
d="M42 0v31l454 658v-23h-454v39h494v-31l-455 -658v23h465v-39h-504z" />
    <glyph glyph-name="bracketleft" unicode="[" horiz-adv-x="284" 
d="M110 -180v885h170v-37h-128v-811h128v-37h-170z" />
    <glyph glyph-name="backslash" unicode="\" horiz-adv-x="259" 
d="M239 -52l-260 796h41l260 -796h-41z" />
    <glyph glyph-name="bracketright" unicode="]" horiz-adv-x="284" 
d="M4 -180v37h127v811h-127v37h169v-885h-169z" />
    <glyph glyph-name="asciicircum" unicode="^" horiz-adv-x="600" 
d="M47 142l234 486h36l236 -486h-43l-222 457h22l-221 -457h-42z" />
    <glyph glyph-name="underscore" unicode="_" horiz-adv-x="505" 
d="M4 -33v33h497v-33h-497z" />
    <glyph glyph-name="grave" unicode="`" horiz-adv-x="500" 
d="M232 549l-122 200h54l104 -200h-36z" />
    <glyph glyph-name="a" unicode="a" horiz-adv-x="583" 
d="M276 -8c-45.333 0 -84.667 10.332 -118 30.999s-59 50.334 -77 89.001s-27 84.667 -27 138c0 54 9.16699 100.167 27.5 138.5s44.166 67.833 77.499 88.5s72.333 31 117 31c47.333 0 87.833 -12.333 121.5 -37s55.834 -58.667 66.501 -102h-12l10 131h41
c-2 -18.667 -3.83301 -37 -5.5 -55s-2.5 -35.667 -2.5 -53v-392h-42v131h11c-10.667 -43.333 -33 -77.333 -67 -102s-74.333 -37 -121 -37zM275.999 30.999c54.667 0 98 18.833 130 56.5s48 91.834 48 162.501s-16 124.834 -48 162.501s-75.333 56.5 -130 56.5
s-98.167 -18.833 -130.5 -56.5s-48.5 -91.834 -48.5 -162.501s16.167 -124.834 48.5 -162.501s75.833 -56.5 130.5 -56.5z" />
    <glyph glyph-name="b" unicode="b" horiz-adv-x="583" 
d="M308 -8c-48 0 -88.667 12.334 -122 37.001s-55.666 58.667 -66.999 102h11v-131h-42v736h42v-367h-11c11.333 43.333 33.666 77.333 66.999 102s74 37 122 37c45.333 0 84.5 -10.333 117.5 -31s58.5 -50.167 76.5 -88.5s27 -84.5 27 -138.5
c0 -53.333 -9.16699 -99.333 -27.5 -138s-44 -68.334 -77 -89.001s-71.833 -31 -116.5 -31zM307 31.001c54.667 0 98.167 18.833 130.5 56.5s48.5 91.834 48.5 162.501s-16.167 124.834 -48.5 162.501s-75.833 56.5 -130.5 56.5s-98 -18.833 -130 -56.5
s-48 -91.834 -48 -162.501s16 -124.834 48 -162.501s75.333 -56.5 130 -56.5z" />
    <glyph glyph-name="c" unicode="c" horiz-adv-x="487" 
d="M281 -8c-46.667 0 -86.999 10.5 -120.999 31.5s-60.167 51.167 -78.5 90.5s-27.5 86 -27.5 140s9.33301 100 28 138s45 66.833 79 86.5s74 29.5 120 29.5c31.333 0 61.5 -6.16699 90.5 -18.5s53.167 -29.5 72.5 -51.5l-21 -32c-21.333 22 -44.333 38 -69 48
s-49.334 15 -74.001 15c-57.333 0 -102.166 -18.5 -134.499 -55.5s-48.5 -90.5 -48.5 -160.5c0 -70.667 16.167 -125.334 48.5 -164.001s77.166 -58 134.499 -58c23.333 0 47.5 4.83301 72.5 14.5s48.5 25.834 70.5 48.501l21 -32c-20 -22.667 -44.833 -40 -74.5 -52
s-59.167 -18 -88.5 -18z" />
    <glyph glyph-name="d" unicode="d" horiz-adv-x="583" 
d="M274 -8c-44.667 0 -83.5 10.332 -116.5 30.999s-58.5 50.334 -76.5 89.001s-27 84.667 -27 138c0 54 9 100.167 27 138.5s43.5 67.833 76.5 88.5s71.833 31 116.5 31c47.333 0 88 -12.333 122 -37s56.667 -58.667 68 -102h-11v367h42v-736h-42v131h11
c-11.333 -43.333 -34 -77.333 -68 -102s-74.667 -37 -122 -37zM275 30.999c54 0 97.333 18.833 130 56.5s49 91.834 49 162.501s-16.333 124.834 -49 162.501s-76 56.5 -130 56.5c-54.667 0 -98 -18.833 -130 -56.5s-48 -91.834 -48 -162.501s16 -124.834 48 -162.501
s75.333 -56.5 130 -56.5z" />
    <glyph glyph-name="e" unicode="e" horiz-adv-x="541" 
d="M294 -8c-73.333 0 -131.663 22.499 -174.996 67.499s-65 107.833 -65 188.5c0 53.333 9.66699 99.333 29 138s46.5 68.667 81.5 90s75.167 32 120.5 32c43.333 0 80.166 -9.16699 110.499 -27.5s53.666 -44.666 69.999 -78.999s24.5 -75.166 24.5 -122.499v-27h-409v38
h387l-17 -13c0 60 -14 107.167 -42 141.5s-69.667 51.5 -125 51.5c-58.667 0 -104.5 -20 -137.5 -60s-49.5 -92.333 -49.5 -157v-5c0 -70.667 17.333 -124.5 52 -161.5s83 -55.5 145 -55.5c31.333 0 60.666 5 87.999 15s53.666 27 78.999 51l21 -33
c-20.667 -22.667 -48 -40.334 -82 -53.001s-69.333 -19 -106 -19z" />
    <glyph glyph-name="f" unicode="f" horiz-adv-x="311" 
d="M108 0l-0.000976562 464h-100v36h110l-10 -11v89c0 51.333 12.5 91.166 37.5 119.499s60.5 42.5 106.5 42.5c11.333 0 23.333 -1.16699 36 -3.5s22.667 -5.16602 30 -8.49902v-40c-7.33301 3.33301 -16.666 6.33301 -27.999 9s-23.333 4 -36 4
c-23.333 0 -42.833 -5 -58.5 -15s-27.167 -24.5 -34.5 -43.5s-11 -42.833 -11 -71.5v-85l-8 14h155v-36h-147v-464h-42z" />
    <glyph glyph-name="g" unicode="g" horiz-adv-x="587" 
d="M298 -223c-40.667 0 -78.832 5.83301 -114.499 17.5s-67.834 29.167 -96.501 52.5l20 34c22 -16 42.667 -28.667 62 -38s39.5 -16.166 60.5 -20.499s44.167 -6.5 69.5 -6.5c52 0 91.5 14.167 118.5 42.5s40.5 68.833 40.5 121.5v171h11
c-10.667 -44 -33.167 -78.333 -67.5 -103s-75.166 -37 -122.499 -37c-46 0 -85.833 10.167 -119.5 30.5s-59.667 49.166 -78 86.499s-27.5 81.333 -27.5 132s9.16699 94.5 27.5 131.5s44.333 65.667 78 86s73.5 30.5 119.5 30.5c47.333 0 88.166 -12.333 122.499 -37
s56.833 -59.334 67.5 -104.001l-11 13l9 120h41c-2 -18.667 -3.83301 -37 -5.5 -55s-2.5 -35.667 -2.5 -53v-405c0 -69.333 -17 -121.666 -51 -156.999s-84.333 -53 -151 -53zM278.002 50c55.333 0 99.166 18.5 131.499 55.5s48.5 88.5 48.5 154.5
s-16.167 117.333 -48.5 154s-76.166 55 -131.499 55s-99.333 -18.333 -132 -55s-49 -88 -49 -154s16.333 -117.5 49 -154.5s76.667 -55.5 132 -55.5z" />
    <glyph glyph-name="h" unicode="h" horiz-adv-x="570" 
d="M88 0l-0.000976562 736h42v-357h-12c13.333 42.667 37 74.834 71 96.501s73.333 32.5 118 32.5c60.667 0 105.5 -15.667 134.5 -47s43.5 -78.333 43.5 -141v-320h-42v316c0 53.333 -10.667 92.166 -32 116.499s-56 36.5 -104 36.5
c-53.333 0 -96.166 -16.333 -128.499 -49s-48.5 -76 -48.5 -130v-290h-42z" />
    <glyph glyph-name="i" unicode="i" horiz-adv-x="218" 
d="M88 0v500h42v-500h-42zM77 631v63h64v-63h-64z" />
    <glyph glyph-name="j" unicode="j" horiz-adv-x="218" 
d="M9 -218c-6.66699 0 -16.499 1.16797 -29.499 3.50098s-23.167 4.83301 -30.5 7.5v40c7.33301 -2.66699 16.666 -5.33398 27.999 -8.00098s21.333 -4 30 -4c31.333 0 54 10.333 68 31s21 53 21 97v551h42v-560c0 -52 -11 -91.333 -33 -118s-54 -40 -96 -40z
M85.001 631.001v63h64v-63h-64z" />
    <glyph glyph-name="k" unicode="k" horiz-adv-x="482" 
d="M88 0v736h42v-467h2l259 231h58l-293 -259l3 33l323 -274h-61l-289 245h-2v-245h-42z" />
    <glyph glyph-name="l" unicode="l" horiz-adv-x="218" 
d="M88 0v736h42v-736h-42z" />
    <glyph glyph-name="m" unicode="m" horiz-adv-x="860" 
d="M88 0l-0.00292969 392.001c0 17.333 -0.833008 35 -2.5 53s-3.5 36.333 -5.5 55h41l9 -120h-12c12.667 41.333 33.667 73 63 95s65 33 107 33c44 0 79.333 -10.5 106 -31.5s44 -53.5 52 -97.5h-14c11.333 39.333 32.833 70.666 64.5 93.999s69.834 35 114.501 35
c53.333 0 94 -15.333 122 -46s42 -78.667 42 -144v-318h-42v314c0 54 -9.66699 93.333 -29 118s-50.666 37 -93.999 37c-48.667 0 -87.167 -16.333 -115.5 -49s-42.5 -76.667 -42.5 -132v-288h-42v314c0 54 -9.66699 93.333 -29 118s-50.666 37 -93.999 37
c-48.667 0 -87 -16.333 -115 -49s-42 -76.667 -42 -132v-288h-42z" />
    <glyph glyph-name="n" unicode="n" horiz-adv-x="570" 
d="M88 0l0.000976562 392c0 17.333 -0.833008 35 -2.5 53s-3.5 36.333 -5.5 55h41l9 -120h-12c14 42 37.5 73.833 70.5 95.5s71.833 32.5 116.5 32.5c59.333 0 104.166 -15.333 134.499 -46s45.5 -78.667 45.5 -144v-318h-42v314c0 54 -11 93.333 -33 118
s-56.667 37 -104 37c-54 0 -96.833 -16.333 -128.5 -49s-47.5 -76.667 -47.5 -132v-288h-42z" />
    <glyph glyph-name="o" unicode="o" horiz-adv-x="553" 
d="M276 -8c-45.333 0 -84.666 10.333 -117.999 31s-59 50.334 -77 89.001s-27 84.667 -27 138s9 99.333 27 138s43.667 68.334 77 89.001s72.666 31 117.999 31s84.666 -10.333 117.999 -31s59.166 -50.334 77.499 -89.001s27.5 -84.667 27.5 -138
s-9.16699 -99.333 -27.5 -138s-44.166 -68.334 -77.499 -89.001s-72.666 -31 -117.999 -31zM276 31c54.667 0 98.334 18.833 131.001 56.5s49 91.834 49 162.501s-16.333 124.834 -49 162.501s-76.334 56.5 -131.001 56.5s-98.167 -18.833 -130.5 -56.5
s-48.5 -91.834 -48.5 -162.501s16.167 -124.834 48.5 -162.501s75.833 -56.5 130.5 -56.5z" />
    <glyph glyph-name="p" unicode="p" horiz-adv-x="583" 
d="M88 -216l-0.000976562 608.001c0 17.333 -0.833008 35 -2.5 53s-3.5 36.333 -5.5 55h41l10 -131h-12c11.333 43.333 33.5 77.333 66.5 102s73.5 37 121.5 37c45.333 0 84.5 -10.333 117.5 -31s58.667 -50.167 77 -88.5s27.5 -84.5 27.5 -138.5
c0 -53.333 -9 -99.333 -27 -138s-43.667 -68.334 -77 -89.001s-72.666 -31 -117.999 -31c-48 0 -88.5 12.333 -121.5 37s-55.167 58.667 -66.5 102h11v-347h-42zM306.999 31.001c54.667 0 98.167 18.833 130.5 56.5s48.5 91.834 48.5 162.501s-16.167 124.834 -48.5 162.501
s-75.833 56.5 -130.5 56.5s-98 -18.833 -130 -56.5s-48 -91.834 -48 -162.501s16 -124.834 48 -162.501s75.333 -56.5 130 -56.5z" />
    <glyph glyph-name="q" unicode="q" horiz-adv-x="583" 
d="M453 -216l-0.000976562 346.999h11c-10.667 -43.333 -33 -77.333 -67 -102s-74.333 -37 -121 -37c-45.333 0 -84.666 10.333 -117.999 31s-59 50.334 -77 89.001s-27 84.667 -27 138c0 54 9.16699 100.167 27.5 138.5s44.166 67.833 77.499 88.5s72.333 31 117 31
c47.333 0 87.833 -12.333 121.5 -37s55.834 -58.667 66.501 -102h-12l10 131h41c-2 -18.667 -3.83301 -37 -5.5 -55s-2.5 -35.667 -2.5 -53v-608h-42zM275.999 30.999c54.667 0 98 18.833 130 56.5s48 91.834 48 162.501s-16 124.834 -48 162.501s-75.333 56.5 -130 56.5
s-98.167 -18.833 -130.5 -56.5s-48.5 -91.834 -48.5 -162.501s16.167 -124.834 48.5 -162.501s75.833 -56.5 130.5 -56.5z" />
    <glyph glyph-name="r" unicode="r" horiz-adv-x="336" 
d="M86 0v386c0 18.667 -0.5 37.667 -1.5 57s-2.5 38.333 -4.5 57h41l6 -109l-9 -1c6.66699 26.667 18.834 48.667 36.501 66s38 30.333 61 39s45.833 13 68.5 13c8 0 15.833 -0.333008 23.5 -1s14.834 -2 21.501 -4l-2 -39c-6.66699 2 -13.834 3.33301 -21.501 4
s-15.834 1 -24.501 1c-30.667 0 -57.5 -7.83301 -80.5 -23.5s-40.833 -35 -53.5 -58s-19 -45.5 -19 -67.5v-320h-42z" />
    <glyph glyph-name="s" unicode="s" horiz-adv-x="492" 
d="M244 -8c-37.333 0 -72.498 5.83691 -105.498 17.5039s-59.833 27.834 -80.5 48.501l21 33c24 -20.667 50 -35.834 78 -45.501s57.667 -14.5 89 -14.5c45.333 0 80 8.66699 104 26s36 41 36 71c0 23.333 -7.66699 42.166 -23 56.499s-40.666 25.166 -75.999 32.499l-87 19
c-42.667 10 -74.334 26 -95.001 48s-31 49.333 -31 82c0 27.333 7.16699 51.666 21.5 72.999s35 38.166 62 50.499s58.833 18.5 95.5 18.5c35.333 0 67.833 -6 97.5 -18s53.5 -28.667 71.5 -50l-22 -33c-20 20.667 -42.333 36.167 -67 46.5s-51.334 15.5 -80.001 15.5
c-43.333 0 -76.5 -9.33301 -99.5 -28s-34.5 -43.334 -34.5 -74.001c0 -23.333 7.16699 -42.333 21.5 -57s37.166 -25.667 68.499 -33l87 -20c45.333 -10.667 79 -26.167 101 -46.5s33 -47.166 33 -80.499c0 -28 -7.66699 -52.333 -23 -73s-37 -36.667 -65 -48
s-60.667 -17 -98 -17z" />
    <glyph glyph-name="t" unicode="t" horiz-adv-x="324" 
d="M234 -8c-40.667 0 -71.835 12.8311 -93.502 38.498s-32.5 64.834 -32.5 117.501v316h-100v36h100v143l42 16v-159h152v-36h-152v-307c0 -44 6.83301 -76 20.5 -96s35.834 -30 66.501 -30c13.333 0 25.333 1.33301 36 4s19.667 5.66699 27 9v-40
c-7.33301 -3.33301 -17.166 -6.16602 -29.499 -8.49902s-24.5 -3.5 -36.5 -3.5z" />
    <glyph glyph-name="u" unicode="u" horiz-adv-x="561" 
d="M262 -8c-58 0 -102.002 15.667 -132.002 47s-45 79.333 -45 144v317h42v-313c0 -54 11 -93.5 33 -118.5s56 -37.5 102 -37.5c51.333 0 92.333 16.5 123 49.5s46 76.833 46 131.5v288h42v-500h-41v122h12c-13.333 -41.333 -36.166 -73.333 -68.499 -96
s-70.166 -34 -113.499 -34z" />
    <glyph glyph-name="v" unicode="v" horiz-adv-x="520" 
d="M236 0l-212 500h48l200 -484h-24l201 484h47l-212 -500h-48z" />
    <glyph glyph-name="w" unicode="w" horiz-adv-x="857" 
d="M218 0l-176 500h47l167 -486h-27l174 486h53l171 -486h-27l169 486h46l-177 -500h-50l-173 491h30l-176 -491h-51z" />
    <glyph glyph-name="x" unicode="x" horiz-adv-x="522" 
d="M30 0l216 271v-26l-205 255h53l175 -221h-15l174 221h52l-201 -252v19l213 -267h-54l-185 235h16l-187 -235h-52z" />
    <glyph glyph-name="y" unicode="y" horiz-adv-x="520" 
d="M60 -227l-9.99902 39.001c31.333 7.33301 57.166 16.5 77.499 27.5s37.5 25.167 51.5 42.5s26.667 39 38 65l26 60l-1 -21l-218 514h48l201 -484h-23l198 484h48l-233 -554c-12 -28.667 -25 -52.834 -39 -72.501s-29.167 -36.167 -45.5 -49.5s-34.333 -24 -54 -32
s-41.167 -14.333 -64.5 -19z" />
    <glyph glyph-name="z" unicode="z" horiz-adv-x="512" 
d="M51 0v30l359 447l1 -13h-360v36h401v-30l-361 -448l-1 14h374v-36h-413z" />
    <glyph glyph-name="braceleft" unicode="{" horiz-adv-x="322" 
d="M233 -180c-27.333 0 -48.166 7.16602 -62.499 21.499s-21.5 35.833 -21.5 64.5v256c0 28 -6 48.333 -18 61s-32.333 19.667 -61 21l-20 1v36l20 1c28 1.33301 48.167 8.16602 60.5 20.499s18.5 32.833 18.5 61.5v255c0 28.667 7.16699 50.167 21.5 64.5
s35.166 21.5 62.499 21.5h85v-37h-81c-15.333 0 -26.833 -4 -34.5 -12s-11.5 -19.667 -11.5 -35v-260c0 -19.333 -3.83301 -36.666 -11.5 -51.999s-18.167 -27.166 -31.5 -35.499s-28.666 -12.5 -45.999 -12.5v4c17.333 0 32.666 -4.16699 45.999 -12.5s23.833 -20 31.5 -35
s11.5 -32.5 11.5 -52.5v-261c0 -15.333 3.83301 -27 11.5 -35s19.167 -12 34.5 -12h81v-37h-85z" />
    <glyph glyph-name="bar" unicode="|" horiz-adv-x="248" 
d="M103 -188v901h42v-901h-42z" />
    <glyph glyph-name="braceright" unicode="}" horiz-adv-x="322" 
d="M4 -180v37.001h81c15.333 0 26.833 4 34.5 12s11.5 19.667 11.5 35v260c0 20 3.83301 37.5 11.5 52.5s18.167 26.667 31.5 35s28.666 12.5 45.999 12.5v-4c-17.333 0 -32.666 4.16699 -45.999 12.5s-23.833 20.166 -31.5 35.499s-11.5 32.666 -11.5 51.999v261
c0 15.333 -3.83301 27 -11.5 35s-19.167 12 -34.5 12h-81v37h85c27.333 0 48.166 -7.16699 62.499 -21.5s21.5 -35.833 21.5 -64.5v-256c0 -28 6 -48.333 18 -61s32.333 -19.667 61 -21l20 -1v-36l-20 -1c-28 -1.33301 -48.167 -8.16602 -60.5 -20.499
s-18.5 -32.833 -18.5 -61.5v-255c0 -28.667 -7.16699 -50.167 -21.5 -64.5s-35.166 -21.5 -62.499 -21.5h-85z" />
    <glyph glyph-name="asciitilde" unicode="~" horiz-adv-x="600" 
d="M422 224c-18 0 -37.502 3.50098 -58.502 10.501s-46.5 18.833 -76.5 35.5s-52.333 27.667 -67 33s-28 8 -40 8c-40 0 -70.667 -23 -92 -69l-36 15c14.667 31.333 32.334 54.666 53.001 69.999s45 23 73 23c18 0 36.667 -3.16699 56 -9.5s44.333 -17.5 75 -33.5
c28 -14.667 50 -25.667 66 -33s31 -11 45 -11c40.667 0 71.334 23 92.001 69l36 -15c-14.667 -32 -32.167 -55.5 -52.5 -70.5s-44.833 -22.5 -73.5 -22.5z" />
    <glyph glyph-name="uni00A0" unicode="&#xa0;" horiz-adv-x="250" 
 />
    <glyph glyph-name="exclamdown" unicode="&#xa1;" horiz-adv-x="211" 
d="M79 -180l13 519h27l13 -519h-53zM71 430v70h69v-70h-69z" />
    <glyph glyph-name="cent" unicode="&#xa2;" horiz-adv-x="600" 
d="M296 -115l0.00390625 123.001l10 -14c-40.667 2 -76.5 13.833 -107.5 35.5s-55.333 51 -73 88s-26.5 78.833 -26.5 125.5c0 45.333 8.5 86 25.5 122s41 65 72 87s67.167 34.667 108.5 38l-9 -22v136h40v-136l-9 22c29.333 0 59.166 -5.83301 89.499 -17.5
s54.166 -27.5 71.499 -47.5l-20 -33c-19.333 20 -41.5 34.833 -66.5 44.5s-51.167 14.5 -78.5 14.5c-54.667 0 -98.5 -19 -131.5 -57s-49.5 -88.667 -49.5 -152c0 -64.667 16.167 -115.667 48.5 -153s76.166 -56 131.499 -56c27.333 0 53.666 4.66699 78.999 14
s47.666 24 66.999 44l20 -32c-18.667 -20.667 -43.167 -36.834 -73.5 -48.501s-60.166 -17.5 -89.499 -17.5l11 15v-123h-40z" />
    <glyph glyph-name="sterling" unicode="&#xa3;" horiz-adv-x="600" 
d="M49 0v33c35.333 15.333 63.5 33.5 84.5 54.5s31.5 47.5 31.5 79.5v169h-116v36h116v150c0 42 7.66699 77.167 23 105.5s38.166 49.666 68.499 63.999s67.833 21.5 112.5 21.5c37.333 0 72.833 -7.16699 106.5 -21.5s62.834 -35.166 87.501 -62.499l-23 -37
c-20.667 27.333 -45.667 47.5 -75 60.5s-64 19.5 -104 19.5c-50.667 0 -89 -12.333 -115 -37s-39 -61.667 -39 -111v-152h199v-36h-199v-150c0 -42.667 -9 -76 -27 -100s-41 -41.667 -69 -53v6h448v-39h-510z" />
    <glyph glyph-name="currency" unicode="&#xa4;" horiz-adv-x="600" 
d="M74 -22l-35.002 35.998l74 76c-16 21.333 -28.667 45.333 -38 72s-14 54.334 -14 83.001c0 29.333 4.5 57.333 13.5 84s21.833 50.334 38.5 71.001l-74 76l35 36l74 -76c20.667 18 44.167 32 70.5 42s53.833 15 82.5 15s55.834 -4.83301 81.501 -14.5
s48.834 -23.167 69.501 -40.5l71 74l36 -36l-73 -73c17.333 -22 30.833 -46.333 40.5 -73s14.5 -55 14.5 -85s-4.83301 -58.333 -14.5 -85s-23.167 -50.667 -40.5 -72l73 -74l-36 -36l-72 74c-20.667 -17.333 -43.667 -30.833 -69 -40.5s-52.333 -14.5 -81 -14.5
s-56 5 -82 15s-49.667 23.667 -71 41zM299.998 39.998c36 0 68.5 9.16699 97.5 27.5s52 43 69 74s25.5 65.5 25.5 103.5s-8.5 72.5 -25.5 103.5s-40 55.833 -69 74.5s-61.5 27.667 -97.5 27c-35.333 0 -67.5 -9.16699 -96.5 -27.5s-52.167 -43 -69.5 -74
s-26 -65.5 -26 -103.5s8.66699 -72.5 26 -103.5s40.5 -55.667 69.5 -74s61.167 -27.5 96.5 -27.5z" />
    <glyph glyph-name="yen" unicode="&#xa5;" horiz-adv-x="600" 
d="M279 0v189h-203v36h203v114h-203v36h179v-7l-250 337h50l253 -343h-15l252 343h50l-248 -337v7h177v-36h-203v-114h203v-36h-203v-189h-42z" />
    <glyph glyph-name="brokenbar" unicode="&#xa6;" horiz-adv-x="248" 
d="M103 372v341h42v-341h-42zM103 -188v341h42v-341h-42z" />
    <glyph glyph-name="section" unicode="&#xa7;" horiz-adv-x="518" 
d="M232 -188c-41.333 0 -78.6689 5.82812 -112.002 17.4951s-60.333 27.834 -81 48.501l21 34c13.333 -12.667 29.333 -23.667 48 -33s38.834 -16.333 60.501 -21s43.834 -7 66.501 -7c47.333 0 85.666 11.667 114.999 35s44 56.333 44 99c0 30 -7.83301 55.833 -23.5 77.5
s-43.834 41.834 -84.501 60.501l-98 46c-38.667 18.667 -68.834 36.5 -90.501 53.5s-36.834 35.167 -45.501 54.5s-13 41 -13 65c0 25.333 6.16699 50 18.5 74s27.5 43.333 45.5 58l-5 -14c-4 7.33301 -7.83301 17.333 -11.5 30s-5.5 28.667 -5.5 48
c0 36.667 8.83301 67.834 26.5 93.501s41.667 45.5 72 59.5s64.5 21 102.5 21s73.333 -5.66699 106 -17s59.334 -27.666 80.001 -48.999l-21 -34c-20 19.333 -45 34.333 -75 45s-61 16 -93 16c-44.667 0 -81.5 -11.5 -110.5 -34.5s-43.5 -56.167 -43.5 -99.5
c0 -30 7.83301 -55.667 23.5 -77s43.834 -41.666 84.501 -60.999l98 -46c38.667 -18 68.834 -35.667 90.501 -53s36.834 -35.5 45.501 -54.5s13 -40.833 13 -65.5s-6.16699 -49.167 -18.5 -73.5s-27.5 -43.833 -45.5 -58.5l5 14c4 -7.33301 7.83301 -17.333 11.5 -30
s5.5 -28.667 5.5 -48c0 -36 -8.83301 -67 -26.5 -93s-42 -46 -73 -60s-66.5 -21 -106.5 -21zM80.9971 344.995c0 -27.333 8.5 -51.333 25.5 -72s49.833 -42.334 98.5 -65.001l83 -39c31.333 -14.667 57 -29.5 77 -44.5s35.333 -30.167 46 -45.5l-19 1
c31.333 25.333 47 58.333 47 99c0 27.333 -8.66699 51.333 -26 72s-50.333 42.334 -99 65.001l-83 39c-31.333 15.333 -57 30.5 -77 45.5s-35.333 29.833 -46 44.5l19 -1c-14.667 -12 -26 -26.5 -34 -43.5s-12 -35.5 -12 -55.5z" />
    <glyph glyph-name="dieresis" unicode="&#xa8;" horiz-adv-x="500" 
d="M300 620v60h61v-60h-61zM139 620v60h61v-60h-61z" />
    <glyph glyph-name="copyright" unicode="&#xa9;" horiz-adv-x="815" 
d="M408 -8c-50.667 0 -98.001 9.16699 -142.001 27.5s-82.333 43.833 -115 76.5s-58.167 71 -76.5 115s-27.5 91.333 -27.5 142c0 51.333 9.16699 98.833 27.5 142.5s43.833 81.667 76.5 114s70.834 57.666 114.501 75.999s91.167 27.5 142.5 27.5
s98.833 -9.16699 142.5 -27.5s81.667 -43.666 114 -75.999s57.666 -70.333 75.999 -114s27.5 -91.167 27.5 -142.5c0 -50.667 -9.16699 -98 -27.5 -142s-43.666 -82.333 -75.999 -115s-70.333 -58.167 -114 -76.5s-91.167 -27.5 -142.5 -27.5zM416.999 137
c-62.667 0 -111.667 20.166 -147 60.499s-53 93.166 -53 158.499s17.667 117 53 155s84.333 57 147 57c26.667 0 52.667 -5.16699 78 -15.5s46.333 -24.166 63 -41.499l-18 -32c-19.333 18.667 -39.833 31.834 -61.5 39.501s-42.5 11.5 -62.5 11.5
c-49.333 0 -88 -15.333 -116 -46s-42 -73.667 -42 -129c0 -54.667 14 -98.334 42 -131.001s66.667 -49 116 -49c20 0 40.833 4 62.5 12s42.167 21.333 61.5 40l18 -33c-16.667 -17.333 -38 -31.166 -64 -41.499s-51.667 -15.5 -77 -15.5zM407.999 27.999
c45.333 0 87.666 8.16699 126.999 24.5s73.666 39.333 102.999 69s52.166 64.167 68.499 103.5s24.5 82 24.5 128s-8.16699 88.667 -24.5 128s-39.166 73.666 -68.499 102.999s-63.666 52.166 -102.999 68.499s-81.666 24.5 -126.999 24.5
c-46 0 -88.667 -8.16699 -128 -24.5s-73.666 -39.166 -102.999 -68.499s-52.166 -63.666 -68.499 -102.999s-24.5 -82 -24.5 -128s8.16699 -88.667 24.5 -128s39.166 -73.833 68.499 -103.5s63.666 -52.667 102.999 -69s82 -24.5 128 -24.5z" />
    <glyph glyph-name="ordfeminine" unicode="&#xaa;" horiz-adv-x="313" 
d="M132 413c-30 0 -55.0049 8.33301 -75.0049 25s-30 37.667 -30 63c0 29.333 13.833 50.666 41.5 63.999s62.834 20 105.501 20h67v-29h-66c-36.667 0 -64.5 -4.5 -83.5 -13.5s-28.5 -22.833 -28.5 -41.5c0 -16 5.83301 -29.5 17.5 -40.5s30.5 -16.5 56.5 -16.5
c28.667 0 52.167 9.33301 70.5 28s27.5 44.334 27.5 77.001v57c0 25.333 -6.66699 44.333 -20 57s-32.666 19 -57.999 19c-19.333 0 -38 -2.5 -56 -7.5s-34.667 -12.833 -50 -23.5l-12 30c16 11.333 34.333 19.5 55 24.5s41.334 7.5 62.001 7.5c75.333 0 113 -36 113 -108
v-187h-34v53h-2c-11.333 -20.667 -25.166 -35.5 -41.499 -44.5s-36.166 -13.5 -59.499 -13.5z" />
    <glyph glyph-name="guillemotleft" unicode="&#xab;" horiz-adv-x="398" 
d="M154 89l-125 179l125 179h41l-113 -179l113 -179h-41zM314 89l-125 179l125 179h41l-113 -179l113 -179h-41z" />
    <glyph glyph-name="logicalnot" unicode="&#xac;" horiz-adv-x="600" 
d="M507 156v214h-455v39h496v-253h-41z" />
    <glyph glyph-name="uni00AD" unicode="&#xad;" horiz-adv-x="420" 
d="M76 254v38h268v-38h-268z" />
    <glyph glyph-name="registered" unicode="&#xae;" horiz-adv-x="815" 
d="M408 -8c-50.667 0 -98.001 9.16699 -142.001 27.5s-82.333 43.833 -115 76.5s-58.167 71 -76.5 115s-27.5 91.333 -27.5 142c0 51.333 9.16699 98.833 27.5 142.5s43.833 81.667 76.5 114s70.834 57.666 114.501 75.999s91.167 27.5 142.5 27.5
s98.833 -9.16699 142.5 -27.5s81.667 -43.666 114 -75.999s57.666 -70.333 75.999 -114s27.5 -91.167 27.5 -142.5c0 -50.667 -9.16699 -98 -27.5 -142s-43.666 -82.333 -75.999 -115s-70.333 -58.167 -114 -76.5s-91.167 -27.5 -142.5 -27.5zM407.999 28
c45.333 0 87.666 8.16699 126.999 24.5s73.666 39.333 102.999 69s52.166 64.167 68.499 103.5s24.5 82 24.5 128s-8.16699 88.667 -24.5 128s-39.166 73.666 -68.499 102.999s-63.666 52.166 -102.999 68.499s-81.666 24.5 -126.999 24.5
c-46 0 -88.667 -8.16699 -128 -24.5s-73.666 -39.166 -102.999 -68.499s-52.166 -63.666 -68.499 -102.999s-24.5 -82 -24.5 -128s8.16699 -88.667 24.5 -128s39.166 -73.833 68.499 -103.5s63.666 -52.667 102.999 -69s82 -24.5 128 -24.5zM272.999 142
l0.000976562 421.001h162c43.333 0 76.666 -10.333 99.999 -31s35 -50.334 35 -89.001c0 -38 -11.833 -67.167 -35.5 -87.5s-57.167 -30.5 -100.5 -30.5l3 9c19.333 0 35.833 -4 49.5 -12s24.5 -21.667 32.5 -41l57 -139h-43l-56 134c-8 18.667 -19.167 31.167 -33.5 37.5
s-31.833 9.5 -52.5 9.5h-88l11 9v-190h-41zM314 360.001h116.001c33.333 0 58.166 6.66699 74.499 20s24.5 34.333 24.5 63c0 28 -8 48.833 -24 62.5s-41 20.5 -75 20.5h-116v-166z" />
    <glyph glyph-name="macron" unicode="&#xaf;" horiz-adv-x="500" 
d="M110 633v38h280v-38h-280z" />
    <glyph glyph-name="degree" unicode="&#xb0;" horiz-adv-x="364" 
d="M182 429c-26.667 0 -50.667 6.33203 -72 18.999s-38.166 29.667 -50.499 51s-18.5 45.333 -18.5 72s6.16699 50.667 18.5 72s29.166 38.333 50.499 51s45.333 19 72 19s50.5 -6.16699 71.5 -18.5s37.667 -29.166 50 -50.499s18.5 -45.666 18.5 -72.999
c0 -26.667 -6.16699 -50.834 -18.5 -72.501s-29 -38.667 -50 -51s-44.833 -18.5 -71.5 -18.5zM182 468.999c29.333 0 53 9.5 71 28.5s27 43.5 27 73.5s-9 54.5 -27 73.5s-41.667 28.5 -71 28.5c-28.667 0 -52.167 -9.5 -70.5 -28.5s-27.5 -43.5 -27.5 -73.5
s9.16699 -54.5 27.5 -73.5s41.833 -28.5 70.5 -28.5z" />
    <glyph glyph-name="plusminus" unicode="&#xb1;" horiz-adv-x="600" 
d="M280 116v187h-228v39h228v186h40v-186h228v-39h-228v-187h-40zM52 0v39h496v-39h-496z" />
    <glyph glyph-name="uni00B2" unicode="&#xb2;" horiz-adv-x="380" 
d="M57 282v29l155 161c21.333 23.333 36.833 44.333 46.5 63s14.5 38.334 14.5 59.001c0 52 -28.667 78 -86 78c-21.333 0 -43 -4.5 -65 -13.5s-41.333 -21.5 -58 -37.5l-23 30c18 18 40 32.167 66 42.5s53.333 15.5 82 15.5c39.333 0 70.166 -10.167 92.499 -30.5
s33.5 -48.166 33.5 -83.499c0 -22.667 -5.66699 -45.334 -17 -68.001s-28.666 -46.334 -51.999 -71.001l-143 -147v10h233v-37h-279z" />
    <glyph glyph-name="uni00B3" unicode="&#xb3;" horiz-adv-x="380" 
d="M186 279c-30.667 0 -59.167 5.16699 -85.5 15.5s-47.833 24.5 -64.5 42.5l22 30c16 -16 35.167 -28.5 57.5 -37.5s45.833 -13.5 70.5 -13.5c27.333 0 50.333 6.5 69 19.5s28 33.833 28 62.5s-9.83301 49.167 -29.5 61.5s-46.167 18.5 -79.5 18.5h-73v37h64
c32.667 0 58.5 7 77.5 21s28.5 34.667 28.5 62c0 23.333 -7.83301 41.5 -23.5 54.5s-37.167 19.5 -64.5 19.5c-21.333 0 -43 -4.5 -65 -13.5s-41.333 -21.833 -58 -38.5l-23 31c18 18 40 32.167 66 42.5s53.333 15.5 82 15.5c39.333 0 70.5 -9.83301 93.5 -29.5
s34.5 -45.834 34.5 -78.501c0 -28 -7.83301 -50.667 -23.5 -68s-34.5 -29.666 -56.5 -36.999v6c27.333 -5.33301 49.5 -16.833 66.5 -34.5s25.5 -41.167 25.5 -70.5c0 -38 -13.333 -67.167 -40 -87.5s-59.667 -30.5 -99 -30.5z" />
    <glyph glyph-name="acute" unicode="&#xb4;" horiz-adv-x="500" 
d="M232 549l104 200h54l-122 -200h-36z" />
    <glyph glyph-name="uni00B5" unicode="&#xb5;" horiz-adv-x="561" 
d="M85 -216l-0.000976562 715.999h42v-316c0 -52.667 11 -91 33 -115s55.333 -36 100 -36c51.333 0 92.666 16 123.999 48s47 75 47 129v290h42v-500h-41v121h12c-13.333 -41.333 -36.166 -73.166 -68.499 -95.499s-70.166 -33.5 -113.499 -33.5
c-34.667 0 -65.667 6.16699 -93 18.5s-48 35.833 -62 70.5h16l4 -297h-42z" />
    <glyph glyph-name="paragraph" unicode="&#xb6;" horiz-adv-x="570" 
d="M246 -180l0.000976562 515c-39.333 0 -73.5 8 -102.5 24s-51.333 38 -67 66s-23.5 59.667 -23.5 95c0 36 7.83301 67.833 23.5 95.5s38.167 49.5 67.5 65.5s63.666 24 102.999 24h226v-885h-42v847h-143v-847h-42z" />
    <glyph glyph-name="periodcentered" unicode="&#xb7;" horiz-adv-x="214" 
d="M72 238v70h70v-70h-70z" />
    <glyph glyph-name="cedilla" unicode="&#xb8;" horiz-adv-x="500" 
d="M255 -190c-15.333 0 -29.833 1.66797 -43.5 5.00098s-25.167 7.66602 -34.5 12.999l9 34c12.667 -6 24 -10.167 34 -12.5s23 -3.5 39 -3.5c18 0 32.833 3.66699 44.5 11s17.5 18 17.5 32c0 21.333 -13 32 -39 32c-7.33301 0 -14.833 -0.666992 -22.5 -2
s-17.167 -4 -28.5 -8l-15 13l15 96h38l-13 -75l-18 2c8 2 15.833 3.66699 23.5 5s14.834 2 21.501 2c21.333 0 39.666 -5.66699 54.999 -17s23 -27.333 23 -48c0 -23.333 -9.83301 -42.333 -29.5 -57s-45.167 -22 -76.5 -22z" />
    <glyph glyph-name="uni00B9" unicode="&#xb9;" horiz-adv-x="380" 
d="M100 282v37h96v351h21l-110 -72v44l95 63h33v-386h86v-37h-221z" />
    <glyph glyph-name="ordmasculine" unicode="&#xba;" horiz-adv-x="328" 
d="M164 413c-26.667 0 -50.167 6.16699 -70.5 18.5s-36.5 29.833 -48.5 52.5s-18 49 -18 79c0 30.667 6 57.167 18 79.5s28.167 39.666 48.5 51.999s43.833 18.5 70.5 18.5s50.167 -6.16699 70.5 -18.5s36.5 -29.666 48.5 -51.999s18 -48.833 18 -79.5
c0 -30 -6 -56.333 -18 -79s-28.167 -40.167 -48.5 -52.5s-43.833 -18.5 -70.5 -18.5zM164 444c31.333 0 56 10.167 74 30.5s27 49.833 27 88.5s-9 68.167 -27 88.5s-42.667 30.5 -74 30.5c-30.667 0 -55.167 -10.167 -73.5 -30.5s-27.5 -49.833 -27.5 -88.5
s9.16699 -68.167 27.5 -88.5s42.833 -30.5 73.5 -30.5z" />
    <glyph glyph-name="guillemotright" unicode="&#xbb;" horiz-adv-x="398" 
d="M84 89h-41l113 179l-113 179h41l125 -179zM244 89h-41l113 179l-113 179h41l125 -179z" />
    <glyph glyph-name="onequarter" unicode="&#xbc;" horiz-adv-x="880" 
d="M100 282v37h96v351h21l-110 -72v44l95 63h33v-386h86v-37h-221zM266 -8h-42l430 721h42zM749 0v94h-206v33l212 296h33v-292h69v-37h-69v-94h-39zM749 131v238h10l-183 -253v15h173z" />
    <glyph glyph-name="onehalf" unicode="&#xbd;" horiz-adv-x="920" 
d="M100 282v37h96v351h21l-110 -72v44l95 63h33v-386h86v-37h-221zM266 -8h-42l430 721h42zM597 0v29l155 161c21.333 23.333 36.833 44.333 46.5 63s14.5 38.334 14.5 59.001c0 52 -28.667 78 -86 78c-21.333 0 -43 -4.5 -65 -13.5s-41.333 -21.5 -58 -37.5l-23 30
c18 18 40 32.167 66 42.5s53.333 15.5 82 15.5c39.333 0 70.166 -10.167 92.499 -30.5s33.5 -48.166 33.5 -83.499c0 -22.667 -5.66699 -45.334 -17 -68.001s-28.666 -46.334 -51.999 -71.001l-143 -147v10h233v-37h-279z" />
    <glyph glyph-name="threequarters" unicode="&#xbe;" horiz-adv-x="880" 
d="M186 279c-30.667 0 -59.167 5.16699 -85.5 15.5s-47.833 24.5 -64.5 42.5l22 30c16 -16 35.167 -28.5 57.5 -37.5s45.833 -13.5 70.5 -13.5c27.333 0 50.333 6.5 69 19.5s28 33.833 28 62.5s-9.83301 49.167 -29.5 61.5s-46.167 18.5 -79.5 18.5h-73v37h64
c32.667 0 58.5 7 77.5 21s28.5 34.667 28.5 62c0 23.333 -7.83301 41.5 -23.5 54.5s-37.167 19.5 -64.5 19.5c-21.333 0 -43 -4.5 -65 -13.5s-41.333 -21.833 -58 -38.5l-23 31c18 18 40 32.167 66 42.5s53.333 15.5 82 15.5c39.333 0 70.5 -9.83301 93.5 -29.5
s34.5 -45.834 34.5 -78.501c0 -28 -7.83301 -50.667 -23.5 -68s-34.5 -29.666 -56.5 -36.999v6c27.333 -5.33301 49.5 -16.833 66.5 -34.5s25.5 -41.167 25.5 -70.5c0 -38 -13.333 -67.167 -40 -87.5s-59.667 -30.5 -99 -30.5zM266 -8h-42l430 721h42zM749 0v94h-206v33
l212 296h33v-292h69v-37h-69v-94h-39zM749 131v238h10l-183 -253v15h173z" />
    <glyph glyph-name="questiondown" unicode="&#xbf;" horiz-adv-x="433" 
d="M219 -214c-36 0 -67.667 6.33008 -95 18.9971s-48.5 30.334 -63.5 53.001s-22.5 49 -22.5 79c0 21.333 3 41.5 9 60.5s15.833 38.833 29.5 59.5s32.167 44.334 55.5 71.001c33.333 38 57 71 71 99s22.333 57.333 25 88l2 22h30v-20
c0 -35.333 -6.83301 -69.333 -20.5 -102s-39.167 -70 -76.5 -112c-30 -34 -51 -63.333 -63 -88s-18 -50.667 -18 -78c0 -34.667 12.167 -61.667 36.5 -81s57.5 -29 99.5 -29c26 0 50.5 3 73.5 9s44.833 14.667 65.5 26v-46c-20.667 -9.33301 -42.667 -16.666 -66 -21.999
s-47.333 -8 -72 -8zM280 498.997v-70h-69v70h69z" />
    <glyph glyph-name="Agrave" unicode="&#xc0;" horiz-adv-x="721" 
d="M34 0l303 705h41l309 -705h-46l-89 204l23 -9h-437l28 9l-87 -204h-45zM356 649l-179 -421l-22 6h403l-16 -6l-184 421h-2zM339 765l-136 170h56l118 -170h-38z" />
    <glyph glyph-name="Aacute" unicode="&#xc1;" horiz-adv-x="721" 
d="M34 0l303 705h41l309 -705h-46l-89 204l23 -9h-437l28 9l-87 -204h-45zM356 649l-179 -421l-22 6h403l-16 -6l-184 421h-2zM339 765l118 170h56l-136 -170h-38z" />
    <glyph glyph-name="Acircumflex" unicode="&#xc2;" horiz-adv-x="721" 
d="M34 0l303 705h41l309 -705h-46l-89 204l23 -9h-437l28 9l-87 -204h-45zM356 649l-179 -421l-22 6h403l-16 -6l-184 421h-2zM213 765l121 170h48l121 -170h-37l-108 132l-108 -132h-37z" />
    <glyph glyph-name="Atilde" unicode="&#xc3;" horiz-adv-x="721" 
d="M34 0l303 705h41l309 -705h-46l-89 204l23 -9h-437l28 9l-87 -204h-45zM356 649l-179 -421l-22 6h403l-16 -6l-184 421h-2zM194 792l-32.002 2.00195c4.66699 38.667 16.334 68.5 35.001 89.5s42.667 31.5 72 31.5c15.333 0 30.666 -3.66699 45.999 -11s34 -19 56 -35
c21.333 -14.667 37.333 -24.834 48 -30.501s21 -8.5 31 -8.5c20 0 35.833 7.5 47.5 22.5s19.834 36.5 24.501 64.5l32 -2c-4.66699 -38.667 -16.167 -68.5 -34.5 -89.5s-42.166 -31.5 -71.499 -31.5c-14.667 0 -30 3.66699 -46 11s-36 19.666 -60 36.999
c-18.667 14 -33.667 23.667 -45 29s-21.666 8 -30.999 8c-20 0 -35.833 -7.5 -47.5 -22.5s-19.834 -36.5 -24.501 -64.5z" />
    <glyph glyph-name="Adieresis" unicode="&#xc4;" horiz-adv-x="721" 
d="M34 0l303 705h41l309 -705h-46l-89 204l23 -9h-437l28 9l-87 -204h-45zM356 649l-179 -421l-22 6h403l-16 -6l-184 421h-2zM408 820v60h61v-60h-61zM247 820v60h61v-60h-61z" />
    <glyph glyph-name="Aring" unicode="&#xc5;" horiz-adv-x="721" 
d="M34 0l303 705h41l309 -705h-46l-89 204l23 -9h-437l28 9l-87 -204h-45zM356 649l-179 -421l-22 6h403l-16 -6l-184 421h-2zM358 760c-20.667 0 -39.5 5 -56.5 15s-30.5 23.333 -40.5 40s-15 35 -15 55c0 20.667 5 39.167 15 55.5s23.5 29.5 40.5 39.5s35.833 15 56.5 15
c21.333 0 40.333 -5 57 -15s30 -23.167 40 -39.5s15 -34.833 15 -55.5c0 -20 -5 -38.333 -15 -55s-23.333 -30 -40 -40s-35.667 -15 -57 -15zM358 792c23.333 0 42.166 7.5 56.499 22.5s21.5 33.5 21.5 55.5s-7.16699 40.5 -21.5 55.5s-33.166 22.5 -56.499 22.5
c-22.667 0 -41.334 -7.5 -56.001 -22.5s-22 -33.5 -22 -55.5s7.33301 -40.5 22 -55.5s33.334 -22.5 56.001 -22.5z" />
    <glyph glyph-name="AE" unicode="&#xc6;" horiz-adv-x="996" 
d="M14 0l423 705h502v-39h-419l20 24l31 -324l-17 11h364v-39h-354l8 10l32 -328l-7 19h342v-39h-376l-19 198l24 -3h-398l19 12l-125 -207h-50zM461 665l-262 -441l-9 10h359l-7 -9l-42 440h-39z" />
    <glyph glyph-name="Ccedilla" unicode="&#xc7;" horiz-adv-x="684" 
d="M385 -8c-68 0 -125.5 14.499 -172.5 43.499s-82.833 70.5 -107.5 124.5s-37 118.333 -37 193s12.333 138.834 37 192.501s60.5 95 107.5 124s104.5 43.5 172.5 43.5c51.333 0 96.5 -8.16699 135.5 -24.5s73.5 -40.166 103.5 -71.499l-22 -35
c-32.667 31.333 -65.834 54.166 -99.501 68.499s-73.167 21.5 -118.5 21.5c-88.667 0 -156 -27.833 -202 -83.5s-69 -134.167 -69 -235.5s23 -180 69 -236s113.333 -84 202 -84c45.333 0 84.833 7.16699 118.5 21.5s66.834 37.166 99.501 68.499l22 -35
c-30 -31.333 -64.667 -55.166 -104 -71.499s-84.333 -24.5 -135 -24.5zM389 -190.001c-15.333 0 -29.833 1.66797 -43.5 5.00098s-25.167 7.66602 -34.5 12.999l9 34c12.667 -6 24 -10.167 34 -12.5s23 -3.5 39 -3.5c18 0 32.833 3.66699 44.5 11s17.5 18 17.5 32
c0 21.333 -13 32 -39 32c-7.33301 0 -14.833 -0.666992 -22.5 -2s-17.167 -4 -28.5 -8l-15 13l15 96h38l-13 -75l-18 2c8 2 15.833 3.66699 23.5 5s14.834 2 21.501 2c21.333 0 39.666 -5.66699 54.999 -17s23 -27.333 23 -48c0 -23.333 -9.83301 -42.333 -29.5 -57
s-45.167 -22 -76.5 -22z" />
    <glyph glyph-name="Egrave" unicode="&#xc8;" horiz-adv-x="582" 
d="M97 0v705h428v-39h-386v-289h364v-39h-364v-299h386v-39h-428zM304 765l-136 170h56l118 -170h-38z" />
    <glyph glyph-name="Eacute" unicode="&#xc9;" horiz-adv-x="582" 
d="M97 0v705h428v-39h-386v-289h364v-39h-364v-299h386v-39h-428zM304 765l118 170h56l-136 -170h-38z" />
    <glyph glyph-name="Ecircumflex" unicode="&#xca;" horiz-adv-x="582" 
d="M97 0v705h428v-39h-386v-289h364v-39h-364v-299h386v-39h-428zM178 765l121 170h48l121 -170h-37l-108 132l-108 -132h-37z" />
    <glyph glyph-name="Edieresis" unicode="&#xcb;" horiz-adv-x="582" 
d="M97 0v705h428v-39h-386v-289h364v-39h-364v-299h386v-39h-428zM373 820v60h61v-60h-61zM212 820v60h61v-60h-61z" />
    <glyph glyph-name="Igrave" unicode="&#xcc;" horiz-adv-x="236" 
d="M97 0v705h42v-705h-42zM99 765l-136 170h56l118 -170h-38z" />
    <glyph glyph-name="Iacute" unicode="&#xcd;" horiz-adv-x="236" 
d="M97 0v705h42v-705h-42zM99 765l118 170h56l-136 -170h-38z" />
    <glyph glyph-name="Icircumflex" unicode="&#xce;" horiz-adv-x="236" 
d="M97 0v705h42v-705h-42zM-27 765l121 170h48l121 -170h-37l-108 132l-108 -132h-37z" />
    <glyph glyph-name="Idieresis" unicode="&#xcf;" horiz-adv-x="236" 
d="M97 0v705h42v-705h-42zM168 820v60h61v-60h-61zM7 820v60h61v-60h-61z" />
    <glyph glyph-name="Eth" unicode="&#xd0;" horiz-adv-x="733" 
d="M97 0v705.002h214c76 0 140.333 -13.333 193 -40s92.667 -66.167 120 -118.5s41 -116.833 41 -193.5s-13.667 -141.334 -41 -194.001s-67.333 -92.334 -120 -119.001s-117 -40 -193 -40h-214zM139 39.002h168c105.333 0 183.833 26.167 235.5 78.5
s77.5 130.833 77.5 235.5s-25.833 183 -77.5 235s-130.167 78 -235.5 78h-168v-627zM9 340.002v37h334v-37h-334z" />
    <glyph glyph-name="Ntilde" unicode="&#xd1;" horiz-adv-x="739" 
d="M97 0v705h36l491 -663h-21v663h39v-705h-35l-491 663h20v-663h-39zM206 792l-32.002 2.00195c4.66699 38.667 16.334 68.5 35.001 89.5s42.667 31.5 72 31.5c15.333 0 30.666 -3.66699 45.999 -11s34 -19 56 -35c21.333 -14.667 37.333 -24.834 48 -30.501
s21 -8.5 31 -8.5c20 0 35.833 7.5 47.5 22.5s19.834 36.5 24.501 64.5l32 -2c-4.66699 -38.667 -16.167 -68.5 -34.5 -89.5s-42.166 -31.5 -71.499 -31.5c-14.667 0 -30 3.66699 -46 11s-36 19.666 -60 36.999c-18.667 14 -33.667 23.667 -45 29s-21.666 8 -30.999 8
c-20 0 -35.833 -7.5 -47.5 -22.5s-19.834 -36.5 -24.501 -64.5z" />
    <glyph glyph-name="Ograve" unicode="&#xd2;" horiz-adv-x="759" 
d="M68 353c0 74.667 12.168 138.833 36.501 192.5s59.666 95 105.999 124s102.5 43.5 168.5 43.5c64 0 119.333 -14.5 166 -43.5s82.667 -70.333 108 -124s38 -117.5 38 -191.5c0 -74.667 -12.833 -139 -38.5 -193s-61.834 -95.667 -108.501 -125s-101.667 -44 -165 -44
c-65.333 0 -121.166 14.667 -167.499 44s-81.833 71 -106.5 125s-37 118 -37 192zM113.001 352.999c0 -100.667 22.668 -179.167 68.001 -235.5s111.333 -84.5 198 -84.5c83.333 0 148.666 28 195.999 84s71 134.667 71 236s-23.5 179.833 -70.5 235.5
s-112.5 83.5 -196.5 83.5c-86.667 0 -152.667 -27.833 -198 -83.5s-68 -134.167 -68 -235.5zM360.002 764.999l-136 170h56l118 -170h-38z" />
    <glyph glyph-name="Oacute" unicode="&#xd3;" horiz-adv-x="759" 
d="M68 353c0 74.667 12.168 138.833 36.501 192.5s59.666 95 105.999 124s102.5 43.5 168.5 43.5c64 0 119.333 -14.5 166 -43.5s82.667 -70.333 108 -124s38 -117.5 38 -191.5c0 -74.667 -12.833 -139 -38.5 -193s-61.834 -95.667 -108.501 -125s-101.667 -44 -165 -44
c-65.333 0 -121.166 14.667 -167.499 44s-81.833 71 -106.5 125s-37 118 -37 192zM113.001 352.999c0 -100.667 22.668 -179.167 68.001 -235.5s111.333 -84.5 198 -84.5c83.333 0 148.666 28 195.999 84s71 134.667 71 236s-23.5 179.833 -70.5 235.5
s-112.5 83.5 -196.5 83.5c-86.667 0 -152.667 -27.833 -198 -83.5s-68 -134.167 -68 -235.5zM360.002 764.999l118 170h56l-136 -170h-38z" />
    <glyph glyph-name="Ocircumflex" unicode="&#xd4;" horiz-adv-x="759" 
d="M68 353c0 74.667 12.168 138.833 36.501 192.5s59.666 95 105.999 124s102.5 43.5 168.5 43.5c64 0 119.333 -14.5 166 -43.5s82.667 -70.333 108 -124s38 -117.5 38 -191.5c0 -74.667 -12.833 -139 -38.5 -193s-61.834 -95.667 -108.501 -125s-101.667 -44 -165 -44
c-65.333 0 -121.166 14.667 -167.499 44s-81.833 71 -106.5 125s-37 118 -37 192zM113.001 352.999c0 -100.667 22.668 -179.167 68.001 -235.5s111.333 -84.5 198 -84.5c83.333 0 148.666 28 195.999 84s71 134.667 71 236s-23.5 179.833 -70.5 235.5
s-112.5 83.5 -196.5 83.5c-86.667 0 -152.667 -27.833 -198 -83.5s-68 -134.167 -68 -235.5zM234.002 764.999l121 170h48l121 -170h-37l-108 132l-108 -132h-37z" />
    <glyph glyph-name="Otilde" unicode="&#xd5;" horiz-adv-x="759" 
d="M68 353c0 74.667 12.168 138.833 36.501 192.5s59.666 95 105.999 124s102.5 43.5 168.5 43.5c64 0 119.333 -14.5 166 -43.5s82.667 -70.333 108 -124s38 -117.5 38 -191.5c0 -74.667 -12.833 -139 -38.5 -193s-61.834 -95.667 -108.501 -125s-101.667 -44 -165 -44
c-65.333 0 -121.166 14.667 -167.499 44s-81.833 71 -106.5 125s-37 118 -37 192zM113.001 352.999c0 -100.667 22.668 -179.167 68.001 -235.5s111.333 -84.5 198 -84.5c83.333 0 148.666 28 195.999 84s71 134.667 71 236s-23.5 179.833 -70.5 235.5
s-112.5 83.5 -196.5 83.5c-86.667 0 -152.667 -27.833 -198 -83.5s-68 -134.167 -68 -235.5zM215.002 791.999l-32.002 2.00195c4.66699 38.667 16.334 68.5 35.001 89.5s42.667 31.5 72 31.5c15.333 0 30.666 -3.66699 45.999 -11s34 -19 56 -35
c21.333 -14.667 37.333 -24.834 48 -30.501s21 -8.5 31 -8.5c20 0 35.833 7.5 47.5 22.5s19.834 36.5 24.501 64.5l32 -2c-4.66699 -38.667 -16.167 -68.5 -34.5 -89.5s-42.166 -31.5 -71.499 -31.5c-14.667 0 -30 3.66699 -46 11s-36 19.666 -60 36.999
c-18.667 14 -33.667 23.667 -45 29s-21.666 8 -30.999 8c-20 0 -35.833 -7.5 -47.5 -22.5s-19.834 -36.5 -24.501 -64.5z" />
    <glyph glyph-name="Odieresis" unicode="&#xd6;" horiz-adv-x="759" 
d="M68 353c0 74.667 12.168 138.833 36.501 192.5s59.666 95 105.999 124s102.5 43.5 168.5 43.5c64 0 119.333 -14.5 166 -43.5s82.667 -70.333 108 -124s38 -117.5 38 -191.5c0 -74.667 -12.833 -139 -38.5 -193s-61.834 -95.667 -108.501 -125s-101.667 -44 -165 -44
c-65.333 0 -121.166 14.667 -167.499 44s-81.833 71 -106.5 125s-37 118 -37 192zM113.001 352.999c0 -100.667 22.668 -179.167 68.001 -235.5s111.333 -84.5 198 -84.5c83.333 0 148.666 28 195.999 84s71 134.667 71 236s-23.5 179.833 -70.5 235.5
s-112.5 83.5 -196.5 83.5c-86.667 0 -152.667 -27.833 -198 -83.5s-68 -134.167 -68 -235.5zM429.002 819.999v60h61v-60h-61zM268.002 819.999v60h61v-60h-61z" />
    <glyph glyph-name="multiply" unicode="&#xd7;" horiz-adv-x="600" 
d="M93 49l-28 27l207 208l-207 208l28 27l207 -207l207 207l28 -27l-207 -208l207 -208l-28 -27l-207 207z" />
    <glyph glyph-name="Oslash" unicode="&#xd8;" horiz-adv-x="759" 
d="M68 353c0 74.667 12.168 138.833 36.501 192.5s59.666 95 105.999 124s102.5 43.5 168.5 43.5c64 0 119.333 -14.5 166 -43.5s82.667 -70.333 108 -124s38 -117.5 38 -191.5c0 -74.667 -12.833 -139 -38.5 -193s-61.834 -95.667 -108.501 -125s-101.667 -44 -165 -44
c-65.333 0 -121.166 14.667 -167.499 44s-81.833 71 -106.5 125s-37 118 -37 192zM113.001 352.999c0 -100.667 22.668 -179.167 68.001 -235.5s111.333 -84.5 198 -84.5c83.333 0 148.666 28 195.999 84s71 134.667 71 236s-23.5 179.833 -70.5 235.5
s-112.5 83.5 -196.5 83.5c-86.667 0 -152.667 -27.833 -198 -83.5s-68 -134.167 -68 -235.5zM221.002 42.999l-46 -78l-33 18l46 79l13 22l324 556l13 22l46 78l33 -18l-46 -79l-13 -22l-324 -556z" />
    <glyph glyph-name="Ugrave" unicode="&#xd9;" horiz-adv-x="722" 
d="M361 -8c-91.333 0 -159 23.667 -203 71s-66 116.333 -66 207v435h42v-429c0 -81.333 18.167 -142.166 54.5 -182.499s93.833 -60.5 172.5 -60.5c74 0 130.333 20.167 169 60.5s58 101.166 58 182.499v429h42v-435c0 -90.667 -23 -159.667 -69 -207s-112.667 -71 -200 -71
zM342 765l-136 170h56l118 -170h-38z" />
    <glyph glyph-name="Uacute" unicode="&#xda;" horiz-adv-x="722" 
d="M361 -8c-91.333 0 -159 23.667 -203 71s-66 116.333 -66 207v435h42v-429c0 -81.333 18.167 -142.166 54.5 -182.499s93.833 -60.5 172.5 -60.5c74 0 130.333 20.167 169 60.5s58 101.166 58 182.499v429h42v-435c0 -90.667 -23 -159.667 -69 -207s-112.667 -71 -200 -71
zM342 765l118 170h56l-136 -170h-38z" />
    <glyph glyph-name="Ucircumflex" unicode="&#xdb;" horiz-adv-x="722" 
d="M361 -8c-91.333 0 -159 23.667 -203 71s-66 116.333 -66 207v435h42v-429c0 -81.333 18.167 -142.166 54.5 -182.499s93.833 -60.5 172.5 -60.5c74 0 130.333 20.167 169 60.5s58 101.166 58 182.499v429h42v-435c0 -90.667 -23 -159.667 -69 -207s-112.667 -71 -200 -71
zM216 765l121 170h48l121 -170h-37l-108 132l-108 -132h-37z" />
    <glyph glyph-name="Udieresis" unicode="&#xdc;" horiz-adv-x="722" 
d="M361 -8c-91.333 0 -159 23.667 -203 71s-66 116.333 -66 207v435h42v-429c0 -81.333 18.167 -142.166 54.5 -182.499s93.833 -60.5 172.5 -60.5c74 0 130.333 20.167 169 60.5s58 101.166 58 182.499v429h42v-435c0 -90.667 -23 -159.667 -69 -207s-112.667 -71 -200 -71
zM411 820v60h61v-60h-61zM250 820v60h61v-60h-61z" />
    <glyph glyph-name="Yacute" unicode="&#xdd;" horiz-adv-x="587" 
d="M272 0v326l11 -38l-282 417h49l252 -378h-15l252 378h47l-282 -417l10 38v-326h-42zM275 765l118 170h56l-136 -170h-38z" />
    <glyph glyph-name="Thorn" unicode="&#xde;" horiz-adv-x="638" 
d="M97 0v705h42v-146h221c71.333 0 126.666 -17 165.999 -51s59 -81.667 59 -143c0 -60.667 -19.667 -108.167 -59 -142.5s-94.666 -51.5 -165.999 -51.5h-221v-171h-42zM139 210h220c59.333 0 104.333 13.5 135 40.5s46 65.167 46 114.5s-15.333 87.5 -46 114.5
s-75.667 40.5 -135 40.5h-220v-310z" />
    <glyph glyph-name="germandbls" unicode="&#xdf;" horiz-adv-x="599" 
d="M88 0v509.998c0 74 17.5 130.833 52.5 170.5s88.167 59.5 159.5 59.5c37.333 0 69.166 -6.33301 95.499 -19s46.5 -30.667 60.5 -54s21 -51.333 21 -84c0 -46.667 -13 -88 -39 -124s-72.667 -67.333 -140 -94v9c65.333 -17.333 117.333 -37.166 156 -59.499
s66.334 -47 83.001 -74s25 -56.5 25 -88.5c0 -32.667 -7.5 -61 -22.5 -85s-36.167 -42.5 -63.5 -55.5s-59.666 -19.5 -96.999 -19.5c-24 0 -46.667 2.5 -68 7.5s-41.166 12.333 -59.499 22s-34.5 21.5 -48.5 35.5l20 34c25.333 -21.333 50.666 -36.666 75.999 -45.999
s53 -14 83 -14c42.667 0 76 10.333 100 31s36 50.334 36 89.001c0 26.667 -7.33301 51.167 -22 73.5s-40.834 43.5 -78.501 63.5s-91.167 39.333 -160.5 58v38c46.667 18.667 83 38.167 109 58.5s44.333 42.333 55 66s16 49.167 16 76.5c0 35.333 -11.667 63.5 -35 84.5
s-57 31.5 -101 31.5c-60 0 -103.5 -15.833 -130.5 -47.5s-40.5 -78.834 -40.5 -141.501v-512h-42z" />
    <glyph glyph-name="agrave" unicode="&#xe0;" horiz-adv-x="583" 
d="M276 -8c-45.333 0 -84.667 10.332 -118 30.999s-59 50.334 -77 89.001s-27 84.667 -27 138c0 54 9.16699 100.167 27.5 138.5s44.166 67.833 77.499 88.5s72.333 31 117 31c47.333 0 87.833 -12.333 121.5 -37s55.834 -58.667 66.501 -102h-12l10 131h41
c-2 -18.667 -3.83301 -37 -5.5 -55s-2.5 -35.667 -2.5 -53v-392h-42v131h11c-10.667 -43.333 -33 -77.333 -67 -102s-74.333 -37 -121 -37zM275.999 30.999c54.667 0 98 18.833 130 56.5s48 91.834 48 162.501s-16 124.834 -48 162.501s-75.333 56.5 -130 56.5
s-98.167 -18.833 -130.5 -56.5s-48.5 -91.834 -48.5 -162.501s16.167 -124.834 48.5 -162.501s75.833 -56.5 130.5 -56.5zM266.999 548.999l-122 200h54l104 -200h-36z" />
    <glyph glyph-name="aacute" unicode="&#xe1;" horiz-adv-x="583" 
d="M276 -8c-45.333 0 -84.667 10.332 -118 30.999s-59 50.334 -77 89.001s-27 84.667 -27 138c0 54 9.16699 100.167 27.5 138.5s44.166 67.833 77.499 88.5s72.333 31 117 31c47.333 0 87.833 -12.333 121.5 -37s55.834 -58.667 66.501 -102h-12l10 131h41
c-2 -18.667 -3.83301 -37 -5.5 -55s-2.5 -35.667 -2.5 -53v-392h-42v131h11c-10.667 -43.333 -33 -77.333 -67 -102s-74.333 -37 -121 -37zM275.999 30.999c54.667 0 98 18.833 130 56.5s48 91.834 48 162.501s-16 124.834 -48 162.501s-75.333 56.5 -130 56.5
s-98.167 -18.833 -130.5 -56.5s-48.5 -91.834 -48.5 -162.501s16.167 -124.834 48.5 -162.501s75.833 -56.5 130.5 -56.5zM266.999 548.999l104 200h54l-122 -200h-36z" />
    <glyph glyph-name="acircumflex" unicode="&#xe2;" horiz-adv-x="583" 
d="M276 -8c-45.333 0 -84.667 10.332 -118 30.999s-59 50.334 -77 89.001s-27 84.667 -27 138c0 54 9.16699 100.167 27.5 138.5s44.166 67.833 77.499 88.5s72.333 31 117 31c47.333 0 87.833 -12.333 121.5 -37s55.834 -58.667 66.501 -102h-12l10 131h41
c-2 -18.667 -3.83301 -37 -5.5 -55s-2.5 -35.667 -2.5 -53v-392h-42v131h11c-10.667 -43.333 -33 -77.333 -67 -102s-74.333 -37 -121 -37zM275.999 30.999c54.667 0 98 18.833 130 56.5s48 91.834 48 162.501s-16 124.834 -48 162.501s-75.333 56.5 -130 56.5
s-98.167 -18.833 -130.5 -56.5s-48.5 -91.834 -48.5 -162.501s16.167 -124.834 48.5 -162.501s75.833 -56.5 130.5 -56.5zM151.999 548.999l109 200h48l109 -200h-35l-98 161l-98 -161h-35z" />
    <glyph glyph-name="atilde" unicode="&#xe3;" horiz-adv-x="583" 
d="M276 -8c-45.333 0 -84.667 10.332 -118 30.999s-59 50.334 -77 89.001s-27 84.667 -27 138c0 54 9.16699 100.167 27.5 138.5s44.166 67.833 77.499 88.5s72.333 31 117 31c47.333 0 87.833 -12.333 121.5 -37s55.834 -58.667 66.501 -102h-12l10 131h41
c-2 -18.667 -3.83301 -37 -5.5 -55s-2.5 -35.667 -2.5 -53v-392h-42v131h11c-10.667 -43.333 -33 -77.333 -67 -102s-74.333 -37 -121 -37zM275.999 30.999c54.667 0 98 18.833 130 56.5s48 91.834 48 162.501s-16 124.834 -48 162.501s-75.333 56.5 -130 56.5
s-98.167 -18.833 -130.5 -56.5s-48.5 -91.834 -48.5 -162.501s16.167 -124.834 48.5 -162.501s75.833 -56.5 130.5 -56.5zM148.999 594.999l-32.002 2c4 38.667 14.333 68.5 31 89.5s38.334 31.5 65.001 31.5c14 0 27.167 -3.83301 39.5 -11.5s26.5 -19.5 42.5 -35.5
c14.667 -14.667 26.5 -24.667 35.5 -30s17.833 -8 26.5 -8c34.667 0 56 29 64 87l32 -2c-4 -38.667 -14.333 -68.5 -31 -89.5s-38 -31.5 -64 -31.5c-13.333 0 -26.166 3.83301 -38.499 11.5s-27.166 19.5 -44.499 35.5c-14.667 14 -26.334 23.833 -35.001 29.5
s-17.667 8.5 -27 8.5c-17.333 0 -31.333 -7.5 -42 -22.5s-18 -36.5 -22 -64.5z" />
    <glyph glyph-name="adieresis" unicode="&#xe4;" horiz-adv-x="583" 
d="M276 -8c-45.333 0 -84.667 10.332 -118 30.999s-59 50.334 -77 89.001s-27 84.667 -27 138c0 54 9.16699 100.167 27.5 138.5s44.166 67.833 77.499 88.5s72.333 31 117 31c47.333 0 87.833 -12.333 121.5 -37s55.834 -58.667 66.501 -102h-12l10 131h41
c-2 -18.667 -3.83301 -37 -5.5 -55s-2.5 -35.667 -2.5 -53v-392h-42v131h11c-10.667 -43.333 -33 -77.333 -67 -102s-74.333 -37 -121 -37zM275.999 30.999c54.667 0 98 18.833 130 56.5s48 91.834 48 162.501s-16 124.834 -48 162.501s-75.333 56.5 -130 56.5
s-98.167 -18.833 -130.5 -56.5s-48.5 -91.834 -48.5 -162.501s16.167 -124.834 48.5 -162.501s75.833 -56.5 130.5 -56.5zM334.999 619.999v60h61v-60h-61zM173.999 619.999v60h61v-60h-61z" />
    <glyph glyph-name="aring" unicode="&#xe5;" horiz-adv-x="583" 
d="M276 -8c-45.333 0 -84.667 10.332 -118 30.999s-59 50.334 -77 89.001s-27 84.667 -27 138c0 54 9.16699 100.167 27.5 138.5s44.166 67.833 77.499 88.5s72.333 31 117 31c47.333 0 87.833 -12.333 121.5 -37s55.834 -58.667 66.501 -102h-12l10 131h41
c-2 -18.667 -3.83301 -37 -5.5 -55s-2.5 -35.667 -2.5 -53v-392h-42v131h11c-10.667 -43.333 -33 -77.333 -67 -102s-74.333 -37 -121 -37zM275.999 30.999c54.667 0 98 18.833 130 56.5s48 91.834 48 162.501s-16 124.834 -48 162.501s-75.333 56.5 -130 56.5
s-98.167 -18.833 -130.5 -56.5s-48.5 -91.834 -48.5 -162.501s16.167 -124.834 48.5 -162.501s75.833 -56.5 130.5 -56.5zM284.999 546.999c-20.667 0 -39.5 5 -56.5 15s-30.5 23.333 -40.5 40s-15 35 -15 55c0 20.667 5 39.167 15 55.5s23.5 29.5 40.5 39.5
s35.833 15 56.5 15c21.333 0 40.333 -5 57 -15s30 -23.167 40 -39.5s15 -34.833 15 -55.5c0 -20 -5 -38.333 -15 -55s-23.333 -30 -40 -40s-35.667 -15 -57 -15zM284.999 578.999c23.333 0 42.166 7.5 56.499 22.5s21.5 33.5 21.5 55.5s-7.16699 40.5 -21.5 55.5
s-33.166 22.5 -56.499 22.5c-22.667 0 -41.334 -7.5 -56.001 -22.5s-22 -33.5 -22 -55.5s7.33301 -40.5 22 -55.5s33.334 -22.5 56.001 -22.5z" />
    <glyph glyph-name="ae" unicode="&#xe6;" horiz-adv-x="890" 
d="M247 -8c-33.333 0 -63.1621 6.5 -89.4951 19.5s-47.166 30.667 -62.499 53s-23 47.833 -23 76.5c0 39.333 9 70 27 92s48.667 37.5 92 46.5s102.666 13.5 177.999 13.5h52v-37h-50c-66.667 0 -118.334 -3.16699 -155.001 -9.5s-62.167 -17.5 -76.5 -33.5
s-21.5 -39 -21.5 -69c0 -34 11.833 -61.5 35.5 -82.5s55.834 -31.5 96.501 -31.5c32 0 60.167 7.5 84.5 22.5s43.5 36 57.5 63s21 58.167 21 93.5v119c0 50 -10.5 86 -31.5 108s-53.167 33 -96.5 33c-32 0 -61.667 -4.33301 -89 -13s-55 -23 -83 -43l-20 36
c25.333 18.667 54.666 33.167 87.999 43.5s67.333 15.5 102 15.5c53.333 0 93.666 -12.167 120.999 -36.5s44 -59.5 50 -105.5h-19c17.333 46 43.5 81.167 78.5 105.5s76.833 36.5 125.5 36.5c62 0 110.833 -20.5 146.5 -61.5s53.5 -96.833 53.5 -167.5v-24h-394v38h372
l-17 -13c0 58.667 -14 105 -42 139s-68.667 51 -122 51c-54.667 0 -98.334 -17.5 -131.001 -52.5s-49 -85.167 -49 -150.5v-7c0 -70.667 16.5 -126.5 49.5 -167.5s79.833 -61.5 140.5 -61.5c30 0 58.5 5.33301 85.5 16s53.167 27.334 78.5 50.001l21 -33
c-20.667 -22.667 -47.834 -40.334 -81.501 -53.001s-67.834 -19 -102.501 -19c-60 0 -109 14.667 -147 44s-63.667 71.666 -77 126.999h19c-8.66699 -53.333 -30.5 -95.166 -65.5 -125.499s-78.167 -45.5 -129.5 -45.5z" />
    <glyph glyph-name="ccedilla" unicode="&#xe7;" horiz-adv-x="487" 
d="M281 -8c-46.667 0 -86.999 10.5 -120.999 31.5s-60.167 51.167 -78.5 90.5s-27.5 86 -27.5 140s9.33301 100 28 138s45 66.833 79 86.5s74 29.5 120 29.5c31.333 0 61.5 -6.16699 90.5 -18.5s53.167 -29.5 72.5 -51.5l-21 -32c-21.333 22 -44.333 38 -69 48
s-49.334 15 -74.001 15c-57.333 0 -102.166 -18.5 -134.499 -55.5s-48.5 -90.5 -48.5 -160.5c0 -70.667 16.167 -125.334 48.5 -164.001s77.166 -58 134.499 -58c23.333 0 47.5 4.83301 72.5 14.5s48.5 25.834 70.5 48.501l21 -32c-20 -22.667 -44.833 -40 -74.5 -52
s-59.167 -18 -88.5 -18zM286.001 -190c-15.333 0 -29.833 1.66797 -43.5 5.00098s-25.167 7.66602 -34.5 12.999l9 34c12.667 -6 24 -10.167 34 -12.5s23 -3.5 39 -3.5c18 0 32.833 3.66699 44.5 11s17.5 18 17.5 32c0 21.333 -13 32 -39 32
c-7.33301 0 -14.833 -0.666992 -22.5 -2s-17.167 -4 -28.5 -8l-15 13l15 96h38l-13 -75l-18 2c8 2 15.833 3.66699 23.5 5s14.834 2 21.501 2c21.333 0 39.666 -5.66699 54.999 -17s23 -27.333 23 -48c0 -23.333 -9.83301 -42.333 -29.5 -57s-45.167 -22 -76.5 -22z" />
    <glyph glyph-name="egrave" unicode="&#xe8;" horiz-adv-x="541" 
d="M294 -8c-73.333 0 -131.663 22.499 -174.996 67.499s-65 107.833 -65 188.5c0 53.333 9.66699 99.333 29 138s46.5 68.667 81.5 90s75.167 32 120.5 32c43.333 0 80.166 -9.16699 110.499 -27.5s53.666 -44.666 69.999 -78.999s24.5 -75.166 24.5 -122.499v-27h-409v38
h387l-17 -13c0 60 -14 107.167 -42 141.5s-69.667 51.5 -125 51.5c-58.667 0 -104.5 -20 -137.5 -60s-49.5 -92.333 -49.5 -157v-5c0 -70.667 17.333 -124.5 52 -161.5s83 -55.5 145 -55.5c31.333 0 60.666 5 87.999 15s53.666 27 78.999 51l21 -33
c-20.667 -22.667 -48 -40.334 -82 -53.001s-69.333 -19 -106 -19zM267.003 548.999l-122 200h54l104 -200h-36z" />
    <glyph glyph-name="eacute" unicode="&#xe9;" horiz-adv-x="541" 
d="M294 -8c-73.333 0 -131.663 22.499 -174.996 67.499s-65 107.833 -65 188.5c0 53.333 9.66699 99.333 29 138s46.5 68.667 81.5 90s75.167 32 120.5 32c43.333 0 80.166 -9.16699 110.499 -27.5s53.666 -44.666 69.999 -78.999s24.5 -75.166 24.5 -122.499v-27h-409v38
h387l-17 -13c0 60 -14 107.167 -42 141.5s-69.667 51.5 -125 51.5c-58.667 0 -104.5 -20 -137.5 -60s-49.5 -92.333 -49.5 -157v-5c0 -70.667 17.333 -124.5 52 -161.5s83 -55.5 145 -55.5c31.333 0 60.666 5 87.999 15s53.666 27 78.999 51l21 -33
c-20.667 -22.667 -48 -40.334 -82 -53.001s-69.333 -19 -106 -19zM267.003 548.999l104 200h54l-122 -200h-36z" />
    <glyph glyph-name="ecircumflex" unicode="&#xea;" horiz-adv-x="541" 
d="M294 -8c-73.333 0 -131.663 22.499 -174.996 67.499s-65 107.833 -65 188.5c0 53.333 9.66699 99.333 29 138s46.5 68.667 81.5 90s75.167 32 120.5 32c43.333 0 80.166 -9.16699 110.499 -27.5s53.666 -44.666 69.999 -78.999s24.5 -75.166 24.5 -122.499v-27h-409v38
h387l-17 -13c0 60 -14 107.167 -42 141.5s-69.667 51.5 -125 51.5c-58.667 0 -104.5 -20 -137.5 -60s-49.5 -92.333 -49.5 -157v-5c0 -70.667 17.333 -124.5 52 -161.5s83 -55.5 145 -55.5c31.333 0 60.666 5 87.999 15s53.666 27 78.999 51l21 -33
c-20.667 -22.667 -48 -40.334 -82 -53.001s-69.333 -19 -106 -19zM152.003 548.999l109 200h48l109 -200h-35l-98 161l-98 -161h-35z" />
    <glyph glyph-name="edieresis" unicode="&#xeb;" horiz-adv-x="541" 
d="M294 -8c-73.333 0 -131.663 22.499 -174.996 67.499s-65 107.833 -65 188.5c0 53.333 9.66699 99.333 29 138s46.5 68.667 81.5 90s75.167 32 120.5 32c43.333 0 80.166 -9.16699 110.499 -27.5s53.666 -44.666 69.999 -78.999s24.5 -75.166 24.5 -122.499v-27h-409v38
h387l-17 -13c0 60 -14 107.167 -42 141.5s-69.667 51.5 -125 51.5c-58.667 0 -104.5 -20 -137.5 -60s-49.5 -92.333 -49.5 -157v-5c0 -70.667 17.333 -124.5 52 -161.5s83 -55.5 145 -55.5c31.333 0 60.666 5 87.999 15s53.666 27 78.999 51l21 -33
c-20.667 -22.667 -48 -40.334 -82 -53.001s-69.333 -19 -106 -19zM335.003 619.999v60h61v-60h-61zM174.003 619.999v60h61v-60h-61z" />
    <glyph glyph-name="igrave" unicode="&#xec;" horiz-adv-x="218" 
d="M88 0v500h42v-500h-42zM91 549l-122 200h54l104 -200h-36z" />
    <glyph glyph-name="iacute" unicode="&#xed;" horiz-adv-x="218" 
d="M88 0v500h42v-500h-42zM91 549l104 200h54l-122 -200h-36z" />
    <glyph glyph-name="icircumflex" unicode="&#xee;" horiz-adv-x="218" 
d="M88 0v500h42v-500h-42zM-24 549l109 200h48l109 -200h-35l-98 161l-98 -161h-35z" />
    <glyph glyph-name="idieresis" unicode="&#xef;" horiz-adv-x="218" 
d="M88 0v500h42v-500h-42zM159 620v60h61v-60h-61zM-2 620v60h61v-60h-61z" />
    <glyph glyph-name="eth" unicode="&#xf0;" horiz-adv-x="556" 
d="M277 -8c-44.667 0 -83.834 9.67188 -117.501 29.0049s-59.667 46.666 -78 81.999s-27.5 76.666 -27.5 123.999c0 48 9.33301 89.667 28 125s45 62.666 79 81.999s73.667 29 119 29c53.333 0 96.666 -14.167 129.999 -42.5s56.333 -70.833 69 -127.5h-19
c0.666992 65.333 -11.166 127.166 -35.499 185.499s-61.5 107.833 -111.5 148.5l17 -3l-194 -79l-13 33l176 72l-1 -12c-20 15.333 -42.167 28.833 -66.5 40.5s-50.5 21.5 -78.5 29.5l12 33c33.333 -10 64.333 -22.167 93 -36.5s54.667 -30.5 78 -48.5l-14 3l113 46l13 -33
l-97 -40l1 11c34 -28.667 62 -61.834 84 -99.501s38.5 -78.834 49.5 -123.501s16.5 -92.667 16.5 -144c0 -62 -8.66699 -114.167 -26 -156.5s-42.666 -74.166 -75.999 -95.499s-74.333 -32 -123 -32zM276 31.0049c55.333 0 99.3311 17.5 131.998 52.5s49 82.833 49 143.5
c0 61.333 -16.167 109.333 -48.5 144s-76.166 52 -131.499 52s-99.166 -17.333 -131.499 -52s-48.5 -82.667 -48.5 -144c0 -62 15.833 -110.167 47.5 -144.5s75.5 -51.5 131.5 -51.5z" />
    <glyph glyph-name="ntilde" unicode="&#xf1;" horiz-adv-x="570" 
d="M88 0l0.000976562 392c0 17.333 -0.833008 35 -2.5 53s-3.5 36.333 -5.5 55h41l9 -120h-12c14 42 37.5 73.833 70.5 95.5s71.833 32.5 116.5 32.5c59.333 0 104.166 -15.333 134.499 -46s45.5 -78.667 45.5 -144v-318h-42v314c0 54 -11 93.333 -33 118
s-56.667 37 -104 37c-54 0 -96.833 -16.333 -128.5 -49s-47.5 -76.667 -47.5 -132v-288h-42zM148.001 595l-32.002 2c4 38.667 14.333 68.5 31 89.5s38.334 31.5 65.001 31.5c14 0 27.167 -3.83301 39.5 -11.5s26.5 -19.5 42.5 -35.5c14.667 -14.667 26.5 -24.667 35.5 -30
s17.833 -8 26.5 -8c34.667 0 56 29 64 87l32 -2c-4 -38.667 -14.333 -68.5 -31 -89.5s-38 -31.5 -64 -31.5c-13.333 0 -26.166 3.83301 -38.499 11.5s-27.166 19.5 -44.499 35.5c-14.667 14 -26.334 23.833 -35.001 29.5s-17.667 8.5 -27 8.5
c-17.333 0 -31.333 -7.5 -42 -22.5s-18 -36.5 -22 -64.5z" />
    <glyph glyph-name="ograve" unicode="&#xf2;" horiz-adv-x="553" 
d="M276 -8c-45.333 0 -84.666 10.333 -117.999 31s-59 50.334 -77 89.001s-27 84.667 -27 138s9 99.333 27 138s43.667 68.334 77 89.001s72.666 31 117.999 31s84.666 -10.333 117.999 -31s59.166 -50.334 77.499 -89.001s27.5 -84.667 27.5 -138
s-9.16699 -99.333 -27.5 -138s-44.166 -68.334 -77.499 -89.001s-72.666 -31 -117.999 -31zM276 31c54.667 0 98.334 18.833 131.001 56.5s49 91.834 49 162.501s-16.333 124.834 -49 162.501s-76.334 56.5 -131.001 56.5s-98.167 -18.833 -130.5 -56.5
s-48.5 -91.834 -48.5 -162.501s16.167 -124.834 48.5 -162.501s75.833 -56.5 130.5 -56.5zM259 549l-122 200h54l104 -200h-36z" />
    <glyph glyph-name="oacute" unicode="&#xf3;" horiz-adv-x="553" 
d="M276 -8c-45.333 0 -84.666 10.333 -117.999 31s-59 50.334 -77 89.001s-27 84.667 -27 138s9 99.333 27 138s43.667 68.334 77 89.001s72.666 31 117.999 31s84.666 -10.333 117.999 -31s59.166 -50.334 77.499 -89.001s27.5 -84.667 27.5 -138
s-9.16699 -99.333 -27.5 -138s-44.166 -68.334 -77.499 -89.001s-72.666 -31 -117.999 -31zM276 31c54.667 0 98.334 18.833 131.001 56.5s49 91.834 49 162.501s-16.333 124.834 -49 162.501s-76.334 56.5 -131.001 56.5s-98.167 -18.833 -130.5 -56.5
s-48.5 -91.834 -48.5 -162.501s16.167 -124.834 48.5 -162.501s75.833 -56.5 130.5 -56.5zM259 549l104 200h54l-122 -200h-36z" />
    <glyph glyph-name="ocircumflex" unicode="&#xf4;" horiz-adv-x="553" 
d="M276 -8c-45.333 0 -84.666 10.333 -117.999 31s-59 50.334 -77 89.001s-27 84.667 -27 138s9 99.333 27 138s43.667 68.334 77 89.001s72.666 31 117.999 31s84.666 -10.333 117.999 -31s59.166 -50.334 77.499 -89.001s27.5 -84.667 27.5 -138
s-9.16699 -99.333 -27.5 -138s-44.166 -68.334 -77.499 -89.001s-72.666 -31 -117.999 -31zM276 31c54.667 0 98.334 18.833 131.001 56.5s49 91.834 49 162.501s-16.333 124.834 -49 162.501s-76.334 56.5 -131.001 56.5s-98.167 -18.833 -130.5 -56.5
s-48.5 -91.834 -48.5 -162.501s16.167 -124.834 48.5 -162.501s75.833 -56.5 130.5 -56.5zM144 549l109 200h48l109 -200h-35l-98 161l-98 -161h-35z" />
    <glyph glyph-name="otilde" unicode="&#xf5;" horiz-adv-x="553" 
d="M276 -8c-45.333 0 -84.666 10.333 -117.999 31s-59 50.334 -77 89.001s-27 84.667 -27 138s9 99.333 27 138s43.667 68.334 77 89.001s72.666 31 117.999 31s84.666 -10.333 117.999 -31s59.166 -50.334 77.499 -89.001s27.5 -84.667 27.5 -138
s-9.16699 -99.333 -27.5 -138s-44.166 -68.334 -77.499 -89.001s-72.666 -31 -117.999 -31zM276 31c54.667 0 98.334 18.833 131.001 56.5s49 91.834 49 162.501s-16.333 124.834 -49 162.501s-76.334 56.5 -131.001 56.5s-98.167 -18.833 -130.5 -56.5
s-48.5 -91.834 -48.5 -162.501s16.167 -124.834 48.5 -162.501s75.833 -56.5 130.5 -56.5zM141 595l-32.002 2c4 38.667 14.333 68.5 31 89.5s38.334 31.5 65.001 31.5c14 0 27.167 -3.83301 39.5 -11.5s26.5 -19.5 42.5 -35.5c14.667 -14.667 26.5 -24.667 35.5 -30
s17.833 -8 26.5 -8c34.667 0 56 29 64 87l32 -2c-4 -38.667 -14.333 -68.5 -31 -89.5s-38 -31.5 -64 -31.5c-13.333 0 -26.166 3.83301 -38.499 11.5s-27.166 19.5 -44.499 35.5c-14.667 14 -26.334 23.833 -35.001 29.5s-17.667 8.5 -27 8.5
c-17.333 0 -31.333 -7.5 -42 -22.5s-18 -36.5 -22 -64.5z" />
    <glyph glyph-name="odieresis" unicode="&#xf6;" horiz-adv-x="553" 
d="M276 -8c-45.333 0 -84.666 10.333 -117.999 31s-59 50.334 -77 89.001s-27 84.667 -27 138s9 99.333 27 138s43.667 68.334 77 89.001s72.666 31 117.999 31s84.666 -10.333 117.999 -31s59.166 -50.334 77.499 -89.001s27.5 -84.667 27.5 -138
s-9.16699 -99.333 -27.5 -138s-44.166 -68.334 -77.499 -89.001s-72.666 -31 -117.999 -31zM276 31c54.667 0 98.334 18.833 131.001 56.5s49 91.834 49 162.501s-16.333 124.834 -49 162.501s-76.334 56.5 -131.001 56.5s-98.167 -18.833 -130.5 -56.5
s-48.5 -91.834 -48.5 -162.501s16.167 -124.834 48.5 -162.501s75.833 -56.5 130.5 -56.5zM327 620v60h61v-60h-61zM166 620v60h61v-60h-61z" />
    <glyph glyph-name="divide" unicode="&#xf7;" horiz-adv-x="600" 
d="M52 267v39h496v-39h-496zM260 51v70h70v-70h-70zM260 452v70h70v-70h-70z" />
    <glyph glyph-name="oslash" unicode="&#xf8;" horiz-adv-x="553" 
d="M276 -8c-45.333 0 -84.666 10.333 -117.999 31s-59 50.334 -77 89.001s-27 84.667 -27 138s9 99.333 27 138s43.667 68.334 77 89.001s72.666 31 117.999 31s84.666 -10.333 117.999 -31s59.166 -50.334 77.499 -89.001s27.5 -84.667 27.5 -138
s-9.16699 -99.333 -27.5 -138s-44.166 -68.334 -77.499 -89.001s-72.666 -31 -117.999 -31zM276 31c54.667 0 98.334 18.833 131.001 56.5s49 91.834 49 162.501s-16.333 124.834 -49 162.501s-76.334 56.5 -131.001 56.5s-98.167 -18.833 -130.5 -56.5
s-48.5 -91.834 -48.5 -162.501s16.167 -124.834 48.5 -162.501s75.833 -56.5 130.5 -56.5zM135 -31l-30 19l314 543l30 -19z" />
    <glyph glyph-name="ugrave" unicode="&#xf9;" horiz-adv-x="561" 
d="M262 -8c-58 0 -102.002 15.667 -132.002 47s-45 79.333 -45 144v317h42v-313c0 -54 11 -93.5 33 -118.5s56 -37.5 102 -37.5c51.333 0 92.333 16.5 123 49.5s46 76.833 46 131.5v288h42v-500h-41v122h12c-13.333 -41.333 -36.166 -73.333 -68.499 -96
s-70.166 -34 -113.499 -34zM262.998 550l-122 200h54l104 -200h-36z" />
    <glyph glyph-name="uacute" unicode="&#xfa;" horiz-adv-x="561" 
d="M262 -8c-58 0 -102.002 15.667 -132.002 47s-45 79.333 -45 144v317h42v-313c0 -54 11 -93.5 33 -118.5s56 -37.5 102 -37.5c51.333 0 92.333 16.5 123 49.5s46 76.833 46 131.5v288h42v-500h-41v122h12c-13.333 -41.333 -36.166 -73.333 -68.499 -96
s-70.166 -34 -113.499 -34zM262.998 550l104 200h54l-122 -200h-36z" />
    <glyph glyph-name="ucircumflex" unicode="&#xfb;" horiz-adv-x="561" 
d="M262 -8c-58 0 -102.002 15.667 -132.002 47s-45 79.333 -45 144v317h42v-313c0 -54 11 -93.5 33 -118.5s56 -37.5 102 -37.5c51.333 0 92.333 16.5 123 49.5s46 76.833 46 131.5v288h42v-500h-41v122h12c-13.333 -41.333 -36.166 -73.333 -68.499 -96
s-70.166 -34 -113.499 -34zM147.998 550l109 200h48l109 -200h-35l-98 161l-98 -161h-35z" />
    <glyph glyph-name="udieresis" unicode="&#xfc;" horiz-adv-x="561" 
d="M262 -8c-58 0 -102.002 15.667 -132.002 47s-45 79.333 -45 144v317h42v-313c0 -54 11 -93.5 33 -118.5s56 -37.5 102 -37.5c51.333 0 92.333 16.5 123 49.5s46 76.833 46 131.5v288h42v-500h-41v122h12c-13.333 -41.333 -36.166 -73.333 -68.499 -96
s-70.166 -34 -113.499 -34zM330.998 621v60h61v-60h-61zM169.998 621v60h61v-60h-61z" />
    <glyph glyph-name="yacute" unicode="&#xfd;" horiz-adv-x="520" 
d="M60 -227l-9.99902 39.001c31.333 7.33301 57.166 16.5 77.499 27.5s37.5 25.167 51.5 42.5s26.667 39 38 65l26 60l-1 -21l-218 514h48l201 -484h-23l198 484h48l-233 -554c-12 -28.667 -25 -52.834 -39 -72.501s-29.167 -36.167 -45.5 -49.5s-34.333 -24 -54 -32
s-41.167 -14.333 -64.5 -19zM241.001 549.001l104 200h54l-122 -200h-36z" />
    <glyph glyph-name="thorn" unicode="&#xfe;" horiz-adv-x="583" 
d="M88 -216v952.001h42v-367h-11c11.333 43.333 33.666 77.333 66.999 102s74 37 122 37c45.333 0 84.5 -10.333 117.5 -31s58.5 -50.167 76.5 -88.5s27 -84.5 27 -138.5c0 -53.333 -9 -99.333 -27 -138s-43.5 -68.334 -76.5 -89.001s-72.167 -31 -117.5 -31
c-48 0 -88.667 12.333 -122 37s-55.666 58.667 -66.999 102h11v-347h-42zM308 31.001c54.667 0 98 18.833 130 56.5s48 91.834 48 162.501s-16 124.834 -48 162.501s-75.333 56.5 -130 56.5s-98.167 -18.833 -130.5 -56.5s-48.5 -91.834 -48.5 -162.501
s16.167 -124.834 48.5 -162.501s75.833 -56.5 130.5 -56.5z" />
    <glyph glyph-name="ydieresis" unicode="&#xff;" horiz-adv-x="520" 
d="M60 -227l-9.99902 39.001c31.333 7.33301 57.166 16.5 77.499 27.5s37.5 25.167 51.5 42.5s26.667 39 38 65l26 60l-1 -21l-218 514h48l201 -484h-23l198 484h48l-233 -554c-12 -28.667 -25 -52.834 -39 -72.501s-29.167 -36.167 -45.5 -49.5s-34.333 -24 -54 -32
s-41.167 -14.333 -64.5 -19zM309.001 620.001v60h61v-60h-61zM148.001 620.001v60h61v-60h-61z" />
    <glyph glyph-name="Amacron" unicode="&#x100;" horiz-adv-x="721" 
d="M34 0l303 705h41l309 -705h-46l-89 204l23 -9h-437l28 9l-87 -204h-45zM356 649l-179 -421l-22 6h403l-16 -6l-184 421h-2zM203 822v38h310v-38h-310z" />
    <glyph glyph-name="amacron" unicode="&#x101;" horiz-adv-x="583" 
d="M276 -8c-45.333 0 -84.667 10.332 -118 30.999s-59 50.334 -77 89.001s-27 84.667 -27 138c0 54 9.16699 100.167 27.5 138.5s44.166 67.833 77.499 88.5s72.333 31 117 31c47.333 0 87.833 -12.333 121.5 -37s55.834 -58.667 66.501 -102h-12l10 131h41
c-2 -18.667 -3.83301 -37 -5.5 -55s-2.5 -35.667 -2.5 -53v-392h-42v131h11c-10.667 -43.333 -33 -77.333 -67 -102s-74.333 -37 -121 -37zM275.999 30.999c54.667 0 98 18.833 130 56.5s48 91.834 48 162.501s-16 124.834 -48 162.501s-75.333 56.5 -130 56.5
s-98.167 -18.833 -130.5 -56.5s-48.5 -91.834 -48.5 -162.501s16.167 -124.834 48.5 -162.501s75.833 -56.5 130.5 -56.5zM144.999 632.999v38h280v-38h-280z" />
    <glyph glyph-name="Abreve" unicode="&#x102;" horiz-adv-x="721" 
d="M34 0l303 705h41l309 -705h-46l-89 204l23 -9h-437l28 9l-87 -204h-45zM356 649l-179 -421l-22 6h403l-16 -6l-184 421h-2zM358 760c-42.667 0 -78.3291 14.833 -106.996 44.5s-45.334 70.5 -50.001 122.5l33 4c3.33301 -42.667 16 -75.834 38 -99.501
s50.667 -35.5 86 -35.5s64.166 11.833 86.499 35.5s34.833 56.834 37.5 99.501l33 -4c-4.66699 -52 -21.334 -92.833 -50.001 -122.5s-64.334 -44.5 -107.001 -44.5z" />
    <glyph glyph-name="abreve" unicode="&#x103;" horiz-adv-x="583" 
d="M276 -8c-45.333 0 -84.667 10.332 -118 30.999s-59 50.334 -77 89.001s-27 84.667 -27 138c0 54 9.16699 100.167 27.5 138.5s44.166 67.833 77.499 88.5s72.333 31 117 31c47.333 0 87.833 -12.333 121.5 -37s55.834 -58.667 66.501 -102h-12l10 131h41
c-2 -18.667 -3.83301 -37 -5.5 -55s-2.5 -35.667 -2.5 -53v-392h-42v131h11c-10.667 -43.333 -33 -77.333 -67 -102s-74.333 -37 -121 -37zM275.999 30.999c54.667 0 98 18.833 130 56.5s48 91.834 48 162.501s-16 124.834 -48 162.501s-75.333 56.5 -130 56.5
s-98.167 -18.833 -130.5 -56.5s-48.5 -91.834 -48.5 -162.501s16.167 -124.834 48.5 -162.501s75.833 -56.5 130.5 -56.5zM284.999 546.999c-27.333 0 -51.5 7.5 -72.5 22.5s-37.5 36.5 -49.5 64.5s-19.333 61.333 -22 100l33 4c2.66699 -49.333 13.667 -87.5 33 -114.5
s45.333 -40.5 78 -40.5c33.333 0 59.5 13.5 78.5 40.5s29.833 65.167 32.5 114.5l33 -4c-2 -38.667 -9.16699 -72 -21.5 -100s-28.833 -49.5 -49.5 -64.5s-45 -22.5 -73 -22.5z" />
    <glyph glyph-name="Aogonek" unicode="&#x104;" horiz-adv-x="721" 
d="M34 0l303 705h41l309 -705h-46l-89 204l23 -9h-437l28 9l-87 -204h-45zM356 649l-179 -421l-22 6h403l-16 -6l-184 421h-2zM670 -190c-27.333 0 -49.835 8.33496 -67.502 25.002s-26.5 39 -26.5 67c0 25.333 7.83301 49.5 23.5 72.5s37.834 41.833 66.501 56.5l21 -31
c-10 -4 -20.5 -10.333 -31.5 -19s-20.5 -19.334 -28.5 -32.001s-12 -27 -12 -43c0 -20.667 5.83301 -35.834 17.5 -45.501s25.834 -14.5 42.501 -14.5c8.66699 0 17.334 1 26.001 3s17.667 5.33301 27 10l13 -32c-6.66699 -4.66699 -16.334 -8.66699 -29.001 -12
s-26.667 -5 -42 -5z" />
    <glyph glyph-name="aogonek" unicode="&#x105;" horiz-adv-x="583" 
d="M276 -8c-45.333 0 -84.667 10.332 -118 30.999s-59 50.334 -77 89.001s-27 84.667 -27 138c0 54 9.16699 100.167 27.5 138.5s44.166 67.833 77.499 88.5s72.333 31 117 31c47.333 0 87.833 -12.333 121.5 -37s55.834 -58.667 66.501 -102h-12l10 131h41
c-2 -18.667 -3.83301 -37 -5.5 -55s-2.5 -35.667 -2.5 -53v-392h-42v131h11c-10.667 -43.333 -33 -77.333 -67 -102s-74.333 -37 -121 -37zM275.999 30.999c54.667 0 98 18.833 130 56.5s48 91.834 48 162.501s-16 124.834 -48 162.501s-75.333 56.5 -130 56.5
s-98.167 -18.833 -130.5 -56.5s-48.5 -91.834 -48.5 -162.501s16.167 -124.834 48.5 -162.501s75.833 -56.5 130.5 -56.5zM477.999 -190.001c-27.333 0 -49.835 8.33496 -67.502 25.002s-26.5 39 -26.5 67c0 25.333 7.83301 49.5 23.5 72.5s37.834 41.833 66.501 56.5
l21 -31c-10 -4 -20.5 -10.333 -31.5 -19s-20.5 -19.334 -28.5 -32.001s-12 -27 -12 -43c0 -20.667 5.83301 -35.834 17.5 -45.501s25.834 -14.5 42.501 -14.5c8.66699 0 17.334 1 26.001 3s17.667 5.33301 27 10l13 -32c-6.66699 -4.66699 -16.334 -8.66699 -29.001 -12
s-26.667 -5 -42 -5z" />
    <glyph glyph-name="Cacute" unicode="&#x106;" horiz-adv-x="684" 
d="M385 -8c-68 0 -125.5 14.499 -172.5 43.499s-82.833 70.5 -107.5 124.5s-37 118.333 -37 193s12.333 138.834 37 192.501s60.5 95 107.5 124s104.5 43.5 172.5 43.5c51.333 0 96.5 -8.16699 135.5 -24.5s73.5 -40.166 103.5 -71.499l-22 -35
c-32.667 31.333 -65.834 54.166 -99.501 68.499s-73.167 21.5 -118.5 21.5c-88.667 0 -156 -27.833 -202 -83.5s-69 -134.167 -69 -235.5s23 -180 69 -236s113.333 -84 202 -84c45.333 0 84.833 7.16699 118.5 21.5s66.834 37.166 99.501 68.499l22 -35
c-30 -31.333 -64.667 -55.166 -104 -71.499s-84.333 -24.5 -135 -24.5zM367 764.999l118 170h56l-136 -170h-38z" />
    <glyph glyph-name="cacute" unicode="&#x107;" horiz-adv-x="487" 
d="M281 -8c-46.667 0 -86.999 10.5 -120.999 31.5s-60.167 51.167 -78.5 90.5s-27.5 86 -27.5 140s9.33301 100 28 138s45 66.833 79 86.5s74 29.5 120 29.5c31.333 0 61.5 -6.16699 90.5 -18.5s53.167 -29.5 72.5 -51.5l-21 -32c-21.333 22 -44.333 38 -69 48
s-49.334 15 -74.001 15c-57.333 0 -102.166 -18.5 -134.499 -55.5s-48.5 -90.5 -48.5 -160.5c0 -70.667 16.167 -125.334 48.5 -164.001s77.166 -58 134.499 -58c23.333 0 47.5 4.83301 72.5 14.5s48.5 25.834 70.5 48.501l21 -32c-20 -22.667 -44.833 -40 -74.5 -52
s-59.167 -18 -88.5 -18zM263.001 549l104 200h54l-122 -200h-36z" />
    <glyph glyph-name="Ccircumflex" unicode="&#x108;" horiz-adv-x="684" 
d="M385 -8c-68 0 -125.5 14.499 -172.5 43.499s-82.833 70.5 -107.5 124.5s-37 118.333 -37 193s12.333 138.834 37 192.501s60.5 95 107.5 124s104.5 43.5 172.5 43.5c51.333 0 96.5 -8.16699 135.5 -24.5s73.5 -40.166 103.5 -71.499l-22 -35
c-32.667 31.333 -65.834 54.166 -99.501 68.499s-73.167 21.5 -118.5 21.5c-88.667 0 -156 -27.833 -202 -83.5s-69 -134.167 -69 -235.5s23 -180 69 -236s113.333 -84 202 -84c45.333 0 84.833 7.16699 118.5 21.5s66.834 37.166 99.501 68.499l22 -35
c-30 -31.333 -64.667 -55.166 -104 -71.499s-84.333 -24.5 -135 -24.5zM241 764.999l121 170h48l121 -170h-37l-108 132l-108 -132h-37z" />
    <glyph glyph-name="ccircumflex" unicode="&#x109;" horiz-adv-x="487" 
d="M281 -8c-46.667 0 -86.999 10.5 -120.999 31.5s-60.167 51.167 -78.5 90.5s-27.5 86 -27.5 140s9.33301 100 28 138s45 66.833 79 86.5s74 29.5 120 29.5c31.333 0 61.5 -6.16699 90.5 -18.5s53.167 -29.5 72.5 -51.5l-21 -32c-21.333 22 -44.333 38 -69 48
s-49.334 15 -74.001 15c-57.333 0 -102.166 -18.5 -134.499 -55.5s-48.5 -90.5 -48.5 -160.5c0 -70.667 16.167 -125.334 48.5 -164.001s77.166 -58 134.499 -58c23.333 0 47.5 4.83301 72.5 14.5s48.5 25.834 70.5 48.501l21 -32c-20 -22.667 -44.833 -40 -74.5 -52
s-59.167 -18 -88.5 -18zM148.001 549l109 200h48l109 -200h-35l-98 161l-98 -161h-35z" />
    <glyph glyph-name="Cdotaccent" unicode="&#x10a;" horiz-adv-x="684" 
d="M385 -8c-68 0 -125.5 14.499 -172.5 43.499s-82.833 70.5 -107.5 124.5s-37 118.333 -37 193s12.333 138.834 37 192.501s60.5 95 107.5 124s104.5 43.5 172.5 43.5c51.333 0 96.5 -8.16699 135.5 -24.5s73.5 -40.166 103.5 -71.499l-22 -35
c-32.667 31.333 -65.834 54.166 -99.501 68.499s-73.167 21.5 -118.5 21.5c-88.667 0 -156 -27.833 -202 -83.5s-69 -134.167 -69 -235.5s23 -180 69 -236s113.333 -84 202 -84c45.333 0 84.833 7.16699 118.5 21.5s66.834 37.166 99.501 68.499l22 -35
c-30 -31.333 -64.667 -55.166 -104 -71.499s-84.333 -24.5 -135 -24.5zM355 817.999v63h62v-63h-62z" />
    <glyph glyph-name="cdotaccent" unicode="&#x10b;" horiz-adv-x="487" 
d="M281 -8c-46.667 0 -86.999 10.5 -120.999 31.5s-60.167 51.167 -78.5 90.5s-27.5 86 -27.5 140s9.33301 100 28 138s45 66.833 79 86.5s74 29.5 120 29.5c31.333 0 61.5 -6.16699 90.5 -18.5s53.167 -29.5 72.5 -51.5l-21 -32c-21.333 22 -44.333 38 -69 48
s-49.334 15 -74.001 15c-57.333 0 -102.166 -18.5 -134.499 -55.5s-48.5 -90.5 -48.5 -160.5c0 -70.667 16.167 -125.334 48.5 -164.001s77.166 -58 134.499 -58c23.333 0 47.5 4.83301 72.5 14.5s48.5 25.834 70.5 48.501l21 -32c-20 -22.667 -44.833 -40 -74.5 -52
s-59.167 -18 -88.5 -18zM249.001 619v63h64v-63h-64z" />
    <glyph glyph-name="Ccaron" unicode="&#x10c;" horiz-adv-x="684" 
d="M385 -8c-68 0 -125.5 14.499 -172.5 43.499s-82.833 70.5 -107.5 124.5s-37 118.333 -37 193s12.333 138.834 37 192.501s60.5 95 107.5 124s104.5 43.5 172.5 43.5c51.333 0 96.5 -8.16699 135.5 -24.5s73.5 -40.166 103.5 -71.499l-22 -35
c-32.667 31.333 -65.834 54.166 -99.501 68.499s-73.167 21.5 -118.5 21.5c-88.667 0 -156 -27.833 -202 -83.5s-69 -134.167 -69 -235.5s23 -180 69 -236s113.333 -84 202 -84c45.333 0 84.833 7.16699 118.5 21.5s66.834 37.166 99.501 68.499l22 -35
c-30 -31.333 -64.667 -55.166 -104 -71.499s-84.333 -24.5 -135 -24.5zM362 764.999l-121 170h37l108 -132l108 132h37l-121 -170h-48z" />
    <glyph glyph-name="ccaron" unicode="&#x10d;" horiz-adv-x="487" 
d="M281 -8c-46.667 0 -86.999 10.5 -120.999 31.5s-60.167 51.167 -78.5 90.5s-27.5 86 -27.5 140s9.33301 100 28 138s45 66.833 79 86.5s74 29.5 120 29.5c31.333 0 61.5 -6.16699 90.5 -18.5s53.167 -29.5 72.5 -51.5l-21 -32c-21.333 22 -44.333 38 -69 48
s-49.334 15 -74.001 15c-57.333 0 -102.166 -18.5 -134.499 -55.5s-48.5 -90.5 -48.5 -160.5c0 -70.667 16.167 -125.334 48.5 -164.001s77.166 -58 134.499 -58c23.333 0 47.5 4.83301 72.5 14.5s48.5 25.834 70.5 48.501l21 -32c-20 -22.667 -44.833 -40 -74.5 -52
s-59.167 -18 -88.5 -18zM257.001 549l-109 200h35l98 -161l98 161h35l-109 -200h-48z" />
    <glyph glyph-name="Dcaron" unicode="&#x10e;" horiz-adv-x="733" 
d="M97 0v705.002h214c76 0 140.333 -13.333 193 -40s92.667 -66.167 120 -118.5s41 -116.833 41 -193.5s-13.667 -141.334 -41 -194.001s-67.333 -92.334 -120 -119.001s-117 -40 -193 -40h-214zM139 39.002h168c105.333 0 183.833 26.167 235.5 78.5
s77.5 130.833 77.5 235.5s-25.833 183 -77.5 235s-130.167 78 -235.5 78h-168v-627zM348 765.002l-121 170h37l108 -132l108 132h37l-121 -170h-48z" />
    <glyph glyph-name="dcaron" unicode="&#x10f;" horiz-adv-x="583" 
d="M274 -8c-44.667 0 -83.5 10.332 -116.5 30.999s-58.5 50.334 -76.5 89.001s-27 84.667 -27 138c0 54 9 100.167 27 138.5s43.5 67.833 76.5 88.5s71.833 31 116.5 31c47.333 0 88 -12.333 122 -37s56.667 -58.667 68 -102h-11v367h42v-736h-42v131h11
c-11.333 -43.333 -34 -77.333 -68 -102s-74.667 -37 -122 -37zM275 30.999c54 0 97.333 18.833 130 56.5s49 91.834 49 162.501s-16.333 124.834 -49 162.501s-76 56.5 -130 56.5c-54.667 0 -98 -18.833 -130 -56.5s-48 -91.834 -48 -162.501s16 -124.834 48 -162.501
s75.333 -56.5 130 -56.5zM550 547.999v188h49l-22 -188h-27z" />
    <glyph glyph-name="Dcroat" unicode="&#x110;" horiz-adv-x="733" 
d="M97 0v705.002h214c76 0 140.333 -13.333 193 -40s92.667 -66.167 120 -118.5s41 -116.833 41 -193.5s-13.667 -141.334 -41 -194.001s-67.333 -92.334 -120 -119.001s-117 -40 -193 -40h-214zM139 39.002h168c105.333 0 183.833 26.167 235.5 78.5
s77.5 130.833 77.5 235.5s-25.833 183 -77.5 235s-130.167 78 -235.5 78h-168v-627zM9 340.002v37h334v-37h-334z" />
    <glyph glyph-name="dcroat" unicode="&#x111;" horiz-adv-x="583" 
d="M275 -8c-44.667 0 -83.667 10.332 -117 30.999s-59 50.334 -77 89.001s-27 84.667 -27 138c0 54 9 100.167 27 138.5s43.667 67.833 77 88.5s72.333 31 117 31c47.333 0 87.833 -12.333 121.5 -37s56.167 -58.667 67.5 -102h-11v225h-196v37h196v105h42v-105h98v-37h-98
v-594h-42v131h11c-11.333 -43.333 -33.833 -77.333 -67.5 -102s-74.167 -37 -121.5 -37zM276 30.999c53.333 0 96.333 18.833 129 56.5s49 91.834 49 162.501s-16.333 124.834 -49 162.501s-75.667 56.5 -129 56.5c-54.667 0 -98.167 -18.833 -130.5 -56.5
s-48.5 -91.834 -48.5 -162.501s16.167 -124.834 48.5 -162.501s75.833 -56.5 130.5 -56.5z" />
    <glyph glyph-name="Emacron" unicode="&#x112;" horiz-adv-x="582" 
d="M97 0v705h428v-39h-386v-289h364v-39h-364v-299h386v-39h-428zM168 822v38h310v-38h-310z" />
    <glyph glyph-name="emacron" unicode="&#x113;" horiz-adv-x="541" 
d="M294 -8c-73.333 0 -131.663 22.499 -174.996 67.499s-65 107.833 -65 188.5c0 53.333 9.66699 99.333 29 138s46.5 68.667 81.5 90s75.167 32 120.5 32c43.333 0 80.166 -9.16699 110.499 -27.5s53.666 -44.666 69.999 -78.999s24.5 -75.166 24.5 -122.499v-27h-409v38
h387l-17 -13c0 60 -14 107.167 -42 141.5s-69.667 51.5 -125 51.5c-58.667 0 -104.5 -20 -137.5 -60s-49.5 -92.333 -49.5 -157v-5c0 -70.667 17.333 -124.5 52 -161.5s83 -55.5 145 -55.5c31.333 0 60.666 5 87.999 15s53.666 27 78.999 51l21 -33
c-20.667 -22.667 -48 -40.334 -82 -53.001s-69.333 -19 -106 -19zM145.003 632.999v38h280v-38h-280z" />
    <glyph glyph-name="Ebreve" unicode="&#x114;" horiz-adv-x="582" 
d="M97 0v705h428v-39h-386v-289h364v-39h-364v-299h386v-39h-428zM323 760c-42.667 0 -78.3291 14.833 -106.996 44.5s-45.334 70.5 -50.001 122.5l33 4c3.33301 -42.667 16 -75.834 38 -99.501s50.667 -35.5 86 -35.5s64.166 11.833 86.499 35.5s34.833 56.834 37.5 99.501
l33 -4c-4.66699 -52 -21.334 -92.833 -50.001 -122.5s-64.334 -44.5 -107.001 -44.5z" />
    <glyph glyph-name="ebreve" unicode="&#x115;" horiz-adv-x="541" 
d="M294 -8c-73.333 0 -131.663 22.499 -174.996 67.499s-65 107.833 -65 188.5c0 53.333 9.66699 99.333 29 138s46.5 68.667 81.5 90s75.167 32 120.5 32c43.333 0 80.166 -9.16699 110.499 -27.5s53.666 -44.666 69.999 -78.999s24.5 -75.166 24.5 -122.499v-27h-409v38
h387l-17 -13c0 60 -14 107.167 -42 141.5s-69.667 51.5 -125 51.5c-58.667 0 -104.5 -20 -137.5 -60s-49.5 -92.333 -49.5 -157v-5c0 -70.667 17.333 -124.5 52 -161.5s83 -55.5 145 -55.5c31.333 0 60.666 5 87.999 15s53.666 27 78.999 51l21 -33
c-20.667 -22.667 -48 -40.334 -82 -53.001s-69.333 -19 -106 -19zM285.003 546.999c-27.333 0 -51.5 7.5 -72.5 22.5s-37.5 36.5 -49.5 64.5s-19.333 61.333 -22 100l33 4c2.66699 -49.333 13.667 -87.5 33 -114.5s45.333 -40.5 78 -40.5c33.333 0 59.5 13.5 78.5 40.5
s29.833 65.167 32.5 114.5l33 -4c-2 -38.667 -9.16699 -72 -21.5 -100s-28.833 -49.5 -49.5 -64.5s-45 -22.5 -73 -22.5z" />
    <glyph glyph-name="Edotaccent" unicode="&#x116;" horiz-adv-x="582" 
d="M97 0v705h428v-39h-386v-289h364v-39h-364v-299h386v-39h-428zM292 818v63h62v-63h-62z" />
    <glyph glyph-name="edotaccent" unicode="&#x117;" horiz-adv-x="541" 
d="M294 -8c-73.333 0 -131.663 22.499 -174.996 67.499s-65 107.833 -65 188.5c0 53.333 9.66699 99.333 29 138s46.5 68.667 81.5 90s75.167 32 120.5 32c43.333 0 80.166 -9.16699 110.499 -27.5s53.666 -44.666 69.999 -78.999s24.5 -75.166 24.5 -122.499v-27h-409v38
h387l-17 -13c0 60 -14 107.167 -42 141.5s-69.667 51.5 -125 51.5c-58.667 0 -104.5 -20 -137.5 -60s-49.5 -92.333 -49.5 -157v-5c0 -70.667 17.333 -124.5 52 -161.5s83 -55.5 145 -55.5c31.333 0 60.666 5 87.999 15s53.666 27 78.999 51l21 -33
c-20.667 -22.667 -48 -40.334 -82 -53.001s-69.333 -19 -106 -19zM253.003 618.999v63h64v-63h-64z" />
    <glyph glyph-name="Eogonek" unicode="&#x118;" horiz-adv-x="582" 
d="M97 0v705h428v-39h-386v-289h364v-39h-364v-299h386v-39h-428zM482 -190c-27.333 0 -49.835 8.33496 -67.502 25.002s-26.5 39 -26.5 67c0 25.333 7.83301 49.5 23.5 72.5s37.834 41.833 66.501 56.5l21 -31c-10 -4 -20.5 -10.333 -31.5 -19s-20.5 -19.334 -28.5 -32.001
s-12 -27 -12 -43c0 -20.667 5.83301 -35.834 17.5 -45.501s25.834 -14.5 42.501 -14.5c8.66699 0 17.334 1 26.001 3s17.667 5.33301 27 10l13 -32c-6.66699 -4.66699 -16.334 -8.66699 -29.001 -12s-26.667 -5 -42 -5z" />
    <glyph glyph-name="eogonek" unicode="&#x119;" horiz-adv-x="541" 
d="M294 -8c-73.333 0 -131.663 22.499 -174.996 67.499s-65 107.833 -65 188.5c0 53.333 9.66699 99.333 29 138s46.5 68.667 81.5 90s75.167 32 120.5 32c43.333 0 80.166 -9.16699 110.499 -27.5s53.666 -44.666 69.999 -78.999s24.5 -75.166 24.5 -122.499v-27h-409v38
h387l-17 -13c0 60 -14 107.167 -42 141.5s-69.667 51.5 -125 51.5c-58.667 0 -104.5 -20 -137.5 -60s-49.5 -92.333 -49.5 -157v-5c0 -70.667 17.333 -124.5 52 -161.5s83 -55.5 145 -55.5c31.333 0 60.666 5 87.999 15s53.666 27 78.999 51l21 -33
c-20.667 -22.667 -48 -40.334 -82 -53.001s-69.333 -19 -106 -19zM337.003 -190.001c-27.333 0 -49.835 8.33496 -67.502 25.002s-26.5 39 -26.5 67c0 25.333 7.83301 49.5 23.5 72.5s37.834 41.833 66.501 56.5l21 -31c-10 -4 -20.5 -10.333 -31.5 -19
s-20.5 -19.334 -28.5 -32.001s-12 -27 -12 -43c0 -20.667 5.83301 -35.834 17.5 -45.501s25.834 -14.5 42.501 -14.5c8.66699 0 17.334 1 26.001 3s17.667 5.33301 27 10l13 -32c-6.66699 -4.66699 -16.334 -8.66699 -29.001 -12s-26.667 -5 -42 -5z" />
    <glyph glyph-name="Ecaron" unicode="&#x11a;" horiz-adv-x="582" 
d="M97 0v705h428v-39h-386v-289h364v-39h-364v-299h386v-39h-428zM299 765l-121 170h37l108 -132l108 132h37l-121 -170h-48z" />
    <glyph glyph-name="ecaron" unicode="&#x11b;" horiz-adv-x="541" 
d="M294 -8c-73.333 0 -131.663 22.499 -174.996 67.499s-65 107.833 -65 188.5c0 53.333 9.66699 99.333 29 138s46.5 68.667 81.5 90s75.167 32 120.5 32c43.333 0 80.166 -9.16699 110.499 -27.5s53.666 -44.666 69.999 -78.999s24.5 -75.166 24.5 -122.499v-27h-409v38
h387l-17 -13c0 60 -14 107.167 -42 141.5s-69.667 51.5 -125 51.5c-58.667 0 -104.5 -20 -137.5 -60s-49.5 -92.333 -49.5 -157v-5c0 -70.667 17.333 -124.5 52 -161.5s83 -55.5 145 -55.5c31.333 0 60.666 5 87.999 15s53.666 27 78.999 51l21 -33
c-20.667 -22.667 -48 -40.334 -82 -53.001s-69.333 -19 -106 -19zM261.003 548.999l-109 200h35l98 -161l98 161h35l-109 -200h-48z" />
    <glyph glyph-name="Gcircumflex" unicode="&#x11c;" horiz-adv-x="723" 
d="M406 -8c-74.667 0 -137.169 14.165 -187.502 42.498s-88 69.5 -113 123.5s-37.5 119 -37.5 195c0 74.667 12.833 138.834 38.5 192.501s62.667 95 111 124s106.5 43.5 174.5 43.5c51.333 0 95.5 -8.16699 132.5 -24.5s70.833 -40.166 101.5 -71.499l-22 -35
c-22 21.333 -43.5 38.5 -64.5 51.5s-43.167 22.667 -66.5 29s-50.666 9.5 -81.999 9.5c-88.667 0 -157.167 -28 -205.5 -84s-72.5 -134.667 -72.5 -236c0 -103.333 23.833 -182.333 71.5 -237s121.5 -82 221.5 -82c38 0 73.5 3.5 106.5 10.5s64.167 17.167 93.5 30.5
l-12 -36v280h-194v39h234v-316c-25.333 -14 -59.166 -25.667 -101.499 -35s-84.5 -14 -126.5 -14zM245.998 764.998l121 170h48l121 -170h-37l-108 132l-108 -132h-37z" />
    <glyph glyph-name="gcircumflex" unicode="&#x11d;" horiz-adv-x="587" 
d="M298 -223c-40.667 0 -78.832 5.83301 -114.499 17.5s-67.834 29.167 -96.501 52.5l20 34c22 -16 42.667 -28.667 62 -38s39.5 -16.166 60.5 -20.499s44.167 -6.5 69.5 -6.5c52 0 91.5 14.167 118.5 42.5s40.5 68.833 40.5 121.5v171h11
c-10.667 -44 -33.167 -78.333 -67.5 -103s-75.166 -37 -122.499 -37c-46 0 -85.833 10.167 -119.5 30.5s-59.667 49.166 -78 86.499s-27.5 81.333 -27.5 132s9.16699 94.5 27.5 131.5s44.333 65.667 78 86s73.5 30.5 119.5 30.5c47.333 0 88.166 -12.333 122.499 -37
s56.833 -59.334 67.5 -104.001l-11 13l9 120h41c-2 -18.667 -3.83301 -37 -5.5 -55s-2.5 -35.667 -2.5 -53v-405c0 -69.333 -17 -121.666 -51 -156.999s-84.333 -53 -151 -53zM278.002 50c55.333 0 99.166 18.5 131.499 55.5s48.5 88.5 48.5 154.5
s-16.167 117.333 -48.5 154s-76.166 55 -131.499 55s-99.333 -18.333 -132 -55s-49 -88 -49 -154s16.333 -117.5 49 -154.5s76.667 -55.5 132 -55.5zM163.002 549l109 200h48l109 -200h-35l-98 161l-98 -161h-35z" />
    <glyph glyph-name="Gbreve" unicode="&#x11e;" horiz-adv-x="723" 
d="M406 -8c-74.667 0 -137.169 14.165 -187.502 42.498s-88 69.5 -113 123.5s-37.5 119 -37.5 195c0 74.667 12.833 138.834 38.5 192.501s62.667 95 111 124s106.5 43.5 174.5 43.5c51.333 0 95.5 -8.16699 132.5 -24.5s70.833 -40.166 101.5 -71.499l-22 -35
c-22 21.333 -43.5 38.5 -64.5 51.5s-43.167 22.667 -66.5 29s-50.666 9.5 -81.999 9.5c-88.667 0 -157.167 -28 -205.5 -84s-72.5 -134.667 -72.5 -236c0 -103.333 23.833 -182.333 71.5 -237s121.5 -82 221.5 -82c38 0 73.5 3.5 106.5 10.5s64.167 17.167 93.5 30.5
l-12 -36v280h-194v39h234v-316c-25.333 -14 -59.166 -25.667 -101.499 -35s-84.5 -14 -126.5 -14zM390.998 759.998c-42.667 0 -78.3291 14.833 -106.996 44.5s-45.334 70.5 -50.001 122.5l33 4c3.33301 -42.667 16 -75.834 38 -99.501s50.667 -35.5 86 -35.5
s64.166 11.833 86.499 35.5s34.833 56.834 37.5 99.501l33 -4c-4.66699 -52 -21.334 -92.833 -50.001 -122.5s-64.334 -44.5 -107.001 -44.5z" />
    <glyph glyph-name="gbreve" unicode="&#x11f;" horiz-adv-x="587" 
d="M298 -223c-40.667 0 -78.832 5.83301 -114.499 17.5s-67.834 29.167 -96.501 52.5l20 34c22 -16 42.667 -28.667 62 -38s39.5 -16.166 60.5 -20.499s44.167 -6.5 69.5 -6.5c52 0 91.5 14.167 118.5 42.5s40.5 68.833 40.5 121.5v171h11
c-10.667 -44 -33.167 -78.333 -67.5 -103s-75.166 -37 -122.499 -37c-46 0 -85.833 10.167 -119.5 30.5s-59.667 49.166 -78 86.499s-27.5 81.333 -27.5 132s9.16699 94.5 27.5 131.5s44.333 65.667 78 86s73.5 30.5 119.5 30.5c47.333 0 88.166 -12.333 122.499 -37
s56.833 -59.334 67.5 -104.001l-11 13l9 120h41c-2 -18.667 -3.83301 -37 -5.5 -55s-2.5 -35.667 -2.5 -53v-405c0 -69.333 -17 -121.666 -51 -156.999s-84.333 -53 -151 -53zM278.002 50c55.333 0 99.166 18.5 131.499 55.5s48.5 88.5 48.5 154.5
s-16.167 117.333 -48.5 154s-76.166 55 -131.499 55s-99.333 -18.333 -132 -55s-49 -88 -49 -154s16.333 -117.5 49 -154.5s76.667 -55.5 132 -55.5zM296.002 547c-27.333 0 -51.5 7.5 -72.5 22.5s-37.5 36.5 -49.5 64.5s-19.333 61.333 -22 100l33 4
c2.66699 -49.333 13.667 -87.5 33 -114.5s45.333 -40.5 78 -40.5c33.333 0 59.5 13.5 78.5 40.5s29.833 65.167 32.5 114.5l33 -4c-2 -38.667 -9.16699 -72 -21.5 -100s-28.833 -49.5 -49.5 -64.5s-45 -22.5 -73 -22.5z" />
    <glyph glyph-name="Gdotaccent" unicode="&#x120;" horiz-adv-x="723" 
d="M406 -8c-74.667 0 -137.169 14.165 -187.502 42.498s-88 69.5 -113 123.5s-37.5 119 -37.5 195c0 74.667 12.833 138.834 38.5 192.501s62.667 95 111 124s106.5 43.5 174.5 43.5c51.333 0 95.5 -8.16699 132.5 -24.5s70.833 -40.166 101.5 -71.499l-22 -35
c-22 21.333 -43.5 38.5 -64.5 51.5s-43.167 22.667 -66.5 29s-50.666 9.5 -81.999 9.5c-88.667 0 -157.167 -28 -205.5 -84s-72.5 -134.667 -72.5 -236c0 -103.333 23.833 -182.333 71.5 -237s121.5 -82 221.5 -82c38 0 73.5 3.5 106.5 10.5s64.167 17.167 93.5 30.5
l-12 -36v280h-194v39h234v-316c-25.333 -14 -59.166 -25.667 -101.499 -35s-84.5 -14 -126.5 -14zM359.998 817.998v63h62v-63h-62z" />
    <glyph glyph-name="gdotaccent" unicode="&#x121;" horiz-adv-x="587" 
d="M298 -223c-40.667 0 -78.832 5.83301 -114.499 17.5s-67.834 29.167 -96.501 52.5l20 34c22 -16 42.667 -28.667 62 -38s39.5 -16.166 60.5 -20.499s44.167 -6.5 69.5 -6.5c52 0 91.5 14.167 118.5 42.5s40.5 68.833 40.5 121.5v171h11
c-10.667 -44 -33.167 -78.333 -67.5 -103s-75.166 -37 -122.499 -37c-46 0 -85.833 10.167 -119.5 30.5s-59.667 49.166 -78 86.499s-27.5 81.333 -27.5 132s9.16699 94.5 27.5 131.5s44.333 65.667 78 86s73.5 30.5 119.5 30.5c47.333 0 88.166 -12.333 122.499 -37
s56.833 -59.334 67.5 -104.001l-11 13l9 120h41c-2 -18.667 -3.83301 -37 -5.5 -55s-2.5 -35.667 -2.5 -53v-405c0 -69.333 -17 -121.666 -51 -156.999s-84.333 -53 -151 -53zM278.002 50c55.333 0 99.166 18.5 131.499 55.5s48.5 88.5 48.5 154.5
s-16.167 117.333 -48.5 154s-76.166 55 -131.499 55s-99.333 -18.333 -132 -55s-49 -88 -49 -154s16.333 -117.5 49 -154.5s76.667 -55.5 132 -55.5zM264.002 619v63h64v-63h-64z" />
    <glyph glyph-name="uni0122" unicode="&#x122;" horiz-adv-x="723" 
d="M406 -8c-74.667 0 -137.169 14.165 -187.502 42.498s-88 69.5 -113 123.5s-37.5 119 -37.5 195c0 74.667 12.833 138.834 38.5 192.501s62.667 95 111 124s106.5 43.5 174.5 43.5c51.333 0 95.5 -8.16699 132.5 -24.5s70.833 -40.166 101.5 -71.499l-22 -35
c-22 21.333 -43.5 38.5 -64.5 51.5s-43.167 22.667 -66.5 29s-50.666 9.5 -81.999 9.5c-88.667 0 -157.167 -28 -205.5 -84s-72.5 -134.667 -72.5 -236c0 -103.333 23.833 -182.333 71.5 -237s121.5 -82 221.5 -82c38 0 73.5 3.5 106.5 10.5s64.167 17.167 93.5 30.5
l-12 -36v280h-194v39h234v-316c-25.333 -14 -59.166 -25.667 -101.499 -35s-84.5 -14 -126.5 -14zM393.998 -259.002l-26 19.999c15.333 17.333 25.5 33.333 30.5 48s7.5 30.334 7.5 47.001l15 -7h-50v65h70v-54c0 -22.667 -4 -44.167 -12 -64.5s-19.667 -38.5 -35 -54.5z
" />
    <glyph glyph-name="uni0123" unicode="&#x123;" horiz-adv-x="587" 
d="M298 -223c-40.667 0 -78.832 5.83301 -114.499 17.5s-67.834 29.167 -96.501 52.5l20 34c22 -16 42.667 -28.667 62 -38s39.5 -16.166 60.5 -20.499s44.167 -6.5 69.5 -6.5c52 0 91.5 14.167 118.5 42.5s40.5 68.833 40.5 121.5v171h11
c-10.667 -44 -33.167 -78.333 -67.5 -103s-75.166 -37 -122.499 -37c-46 0 -85.833 10.167 -119.5 30.5s-59.667 49.166 -78 86.499s-27.5 81.333 -27.5 132s9.16699 94.5 27.5 131.5s44.333 65.667 78 86s73.5 30.5 119.5 30.5c47.333 0 88.166 -12.333 122.499 -37
s56.833 -59.334 67.5 -104.001l-11 13l9 120h41c-2 -18.667 -3.83301 -37 -5.5 -55s-2.5 -35.667 -2.5 -53v-405c0 -69.333 -17 -121.666 -51 -156.999s-84.333 -53 -151 -53zM278.002 50c55.333 0 99.166 18.5 131.499 55.5s48.5 88.5 48.5 154.5
s-16.167 117.333 -48.5 154s-76.166 55 -131.499 55s-99.333 -18.333 -132 -55s-49 -88 -49 -154s16.333 -117.5 49 -154.5s76.667 -55.5 132 -55.5zM261.002 570v54.001c0 22.667 4 44.167 12 64.5s19.667 38.5 35 54.5l26 -20c-15.333 -17.333 -25.5 -33.333 -30.5 -48
s-7.5 -30.334 -7.5 -47.001l-15 7h50v-65h-70z" />
    <glyph glyph-name="Hcircumflex" unicode="&#x124;" horiz-adv-x="759" 
d="M97 0v705h42v-328h481v328h42v-705h-42v338h-481v-338h-42zM235 765l121 170h48l121 -170h-37l-108 132l-108 -132h-37z" />
    <glyph glyph-name="hcircumflex" unicode="&#x125;" horiz-adv-x="570" 
d="M88 0l-0.000976562 736h42v-357h-12c13.333 42.667 37 74.834 71 96.501s73.333 32.5 118 32.5c60.667 0 105.5 -15.667 134.5 -47s43.5 -78.333 43.5 -141v-320h-42v316c0 53.333 -10.667 92.166 -32 116.499s-56 36.5 -104 36.5
c-53.333 0 -96.166 -16.333 -128.499 -49s-48.5 -76 -48.5 -130v-290h-42zM144.999 765l121 170h48l121 -170h-37l-108 132l-108 -132h-37z" />
    <glyph glyph-name="Hbar" unicode="&#x126;" horiz-adv-x="767" 
d="M102 0v527h-98v38h98v140h42v-140h479v140h42v-140h98v-38h-98v-527h-42v338h-479v-338h-42zM144 377h479v150h-479v-150z" />
    <glyph glyph-name="hbar" unicode="&#x127;" horiz-adv-x="570" 
d="M88 0l-0.000976562 594.001h-99v37h99v105h42v-105h204v-37h-204v-214h-12c13.333 42 37 73.833 71 95.5s73.333 32.5 118 32.5c59.333 0 103.833 -15.667 133.5 -47s44.5 -78.333 44.5 -141v-320h-42v316c0 53.333 -10.833 92.166 -32.5 116.499
s-56.167 36.5 -103.5 36.5c-53.333 0 -96.166 -16.333 -128.499 -49s-48.5 -76 -48.5 -130v-290h-42z" />
    <glyph glyph-name="Itilde" unicode="&#x128;" horiz-adv-x="236" 
d="M97 0v705h42v-705h-42zM-46 792l-32.002 2.00195c4.66699 38.667 16.334 68.5 35.001 89.5s42.667 31.5 72 31.5c15.333 0 30.666 -3.66699 45.999 -11s34 -19 56 -35c21.333 -14.667 37.333 -24.834 48 -30.501s21 -8.5 31 -8.5c20 0 35.833 7.5 47.5 22.5
s19.834 36.5 24.501 64.5l32 -2c-4.66699 -38.667 -16.167 -68.5 -34.5 -89.5s-42.166 -31.5 -71.499 -31.5c-14.667 0 -30 3.66699 -46 11s-36 19.666 -60 36.999c-18.667 14 -33.667 23.667 -45 29s-21.666 8 -30.999 8c-20 0 -35.833 -7.5 -47.5 -22.5
s-19.834 -36.5 -24.501 -64.5z" />
    <glyph glyph-name="itilde" unicode="&#x129;" horiz-adv-x="218" 
d="M88 0v500h42v-500h-42zM-27 595l-32.002 2c4 38.667 14.333 68.5 31 89.5s38.334 31.5 65.001 31.5c14 0 27.167 -3.83301 39.5 -11.5s26.5 -19.5 42.5 -35.5c14.667 -14.667 26.5 -24.667 35.5 -30s17.833 -8 26.5 -8c34.667 0 56 29 64 87l32 -2
c-4 -38.667 -14.333 -68.5 -31 -89.5s-38 -31.5 -64 -31.5c-13.333 0 -26.166 3.83301 -38.499 11.5s-27.166 19.5 -44.499 35.5c-14.667 14 -26.334 23.833 -35.001 29.5s-17.667 8.5 -27 8.5c-17.333 0 -31.333 -7.5 -42 -22.5s-18 -36.5 -22 -64.5z" />
    <glyph glyph-name="Imacron" unicode="&#x12a;" horiz-adv-x="236" 
d="M97 0v705h42v-705h-42zM-37 822v38h310v-38h-310z" />
    <glyph glyph-name="imacron" unicode="&#x12b;" horiz-adv-x="218" 
d="M88 0v500h42v-500h-42zM-31 633v38h280v-38h-280z" />
    <glyph glyph-name="Ibreve" unicode="&#x12c;" horiz-adv-x="236" 
d="M97 0v705h42v-705h-42zM118 760c-42.667 0 -78.3291 14.833 -106.996 44.5s-45.334 70.5 -50.001 122.5l33 4c3.33301 -42.667 16 -75.834 38 -99.501s50.667 -35.5 86 -35.5s64.166 11.833 86.499 35.5s34.833 56.834 37.5 99.501l33 -4
c-4.66699 -52 -21.334 -92.833 -50.001 -122.5s-64.334 -44.5 -107.001 -44.5z" />
    <glyph glyph-name="ibreve" unicode="&#x12d;" horiz-adv-x="218" 
d="M88 0v500h42v-500h-42zM109 547c-27.333 0 -51.5 7.5 -72.5 22.5s-37.5 36.5 -49.5 64.5s-19.333 61.333 -22 100l33 4c2.66699 -49.333 13.667 -87.5 33 -114.5s45.333 -40.5 78 -40.5c33.333 0 59.5 13.5 78.5 40.5s29.833 65.167 32.5 114.5l33 -4
c-2 -38.667 -9.16699 -72 -21.5 -100s-28.833 -49.5 -49.5 -64.5s-45 -22.5 -73 -22.5z" />
    <glyph glyph-name="Iogonek" unicode="&#x12e;" horiz-adv-x="236" 
d="M97 0v705h42v-705h-42zM122 -190c-27.333 0 -49.835 8.33496 -67.502 25.002s-26.5 39 -26.5 67c0 25.333 7.83301 49.5 23.5 72.5s37.834 41.833 66.501 56.5l21 -31c-10 -4 -20.5 -10.333 -31.5 -19s-20.5 -19.334 -28.5 -32.001s-12 -27 -12 -43
c0 -20.667 5.83301 -35.834 17.5 -45.501s25.834 -14.5 42.501 -14.5c8.66699 0 17.334 1 26.001 3s17.667 5.33301 27 10l13 -32c-6.66699 -4.66699 -16.334 -8.66699 -29.001 -12s-26.667 -5 -42 -5z" />
    <glyph glyph-name="iogonek" unicode="&#x12f;" horiz-adv-x="218" 
d="M88 0v500h42v-500h-42zM77 619v63h64v-63h-64zM114 -190c-27.333 0 -49.835 8.33496 -67.502 25.002s-26.5 39 -26.5 67c0 25.333 7.83301 49.5 23.5 72.5s37.834 41.833 66.501 56.5l21 -31c-10 -4 -20.5 -10.333 -31.5 -19s-20.5 -19.334 -28.5 -32.001
s-12 -27 -12 -43c0 -20.667 5.83301 -35.834 17.5 -45.501s25.834 -14.5 42.501 -14.5c8.66699 0 17.334 1 26.001 3s17.667 5.33301 27 10l13 -32c-6.66699 -4.66699 -16.334 -8.66699 -29.001 -12s-26.667 -5 -42 -5z" />
    <glyph glyph-name="Idotaccent" unicode="&#x130;" horiz-adv-x="236" 
d="M97 0v705h42v-705h-42zM87 818v63h62v-63h-62z" />
    <glyph glyph-name="dotlessi" unicode="&#x131;" horiz-adv-x="218" 
d="M88 0v500h42v-500h-42z" />
    <glyph glyph-name="IJ" unicode="&#x132;" horiz-adv-x="536" 
d="M97 0v705h42v-705h-42zM306 -186c-10.667 0 -21.8311 0.500977 -33.498 1.50098s-23.834 3.16699 -36.501 6.5v39c12.667 -2.66699 24.167 -4.83398 34.5 -6.50098s20.166 -2.5 29.499 -2.5c30.667 0 54.5 10 71.5 30s25.5 51.333 25.5 94v729h42v-731
c0 -33.333 -5 -62 -15 -86s-24.833 -42.333 -44.5 -55s-44.167 -19 -73.5 -19z" />
    <glyph glyph-name="Jcircumflex" unicode="&#x134;" horiz-adv-x="300" 
d="M70 -186c-10.667 0 -21.8311 0.500977 -33.498 1.50098s-23.834 3.16699 -36.501 6.5v39c12.667 -2.66699 24.167 -4.83398 34.5 -6.50098s20.166 -2.5 29.499 -2.5c30.667 0 54.5 10 71.5 30s25.5 51.333 25.5 94v729h42v-731c0 -33.333 -5 -62 -15 -86
s-24.833 -42.333 -44.5 -55s-44.167 -19 -73.5 -19zM36.0029 765.001l121 170h48l121 -170h-37l-108 132l-108 -132h-37z" />
    <glyph glyph-name="jcircumflex" unicode="&#x135;" horiz-adv-x="218" 
d="M9 -218c-6.66699 0 -16.499 1.16797 -29.499 3.50098s-23.167 4.83301 -30.5 7.5v40c7.33301 -2.66699 16.666 -5.33398 27.999 -8.00098s21.333 -4 30 -4c31.333 0 54 10.333 68 31s21 53 21 97v551h42v-560c0 -52 -11 -91.333 -33 -118s-54 -40 -96 -40z
M-15.999 549.001l109 200h48l109 -200h-35l-98 161l-98 -161h-35z" />
    <glyph glyph-name="uni0136" unicode="&#x136;" horiz-adv-x="605" 
d="M97 0v705h42v-328h2l366 328h61l-408 -362l1 30l438 -373h-63l-395 338h-2v-338h-42zM297 -259l-26 19.999c15.333 17.333 25.5 33.333 30.5 48s7.5 30.334 7.5 47.001l15 -7h-50v65h70v-54c0 -22.667 -4 -44.167 -12 -64.5s-19.667 -38.5 -35 -54.5z" />
    <glyph glyph-name="uni0137" unicode="&#x137;" horiz-adv-x="482" 
d="M88 0v736h42v-467h2l259 231h58l-293 -259l3 33l323 -274h-61l-289 245h-2v-245h-42zM229 -259l-26 19.999c15.333 17.333 25.5 33.333 30.5 48s7.5 30.334 7.5 47.001l15 -7h-50v65h70v-54c0 -22.667 -4 -44.167 -12 -64.5s-19.667 -38.5 -35 -54.5z" />
    <glyph glyph-name="kgreenlandic" unicode="&#x138;" horiz-adv-x="482" 
d="M88 0v500h42v-231h2l259 231h58l-293 -259l3 33l323 -274h-61l-289 245h-2v-245h-42z" />
    <glyph glyph-name="Lacute" unicode="&#x139;" horiz-adv-x="532" 
d="M97 0v705h42v-666h378v-39h-420zM99 765l118 170h56l-136 -170h-38z" />
    <glyph glyph-name="lacute" unicode="&#x13a;" horiz-adv-x="218" 
d="M88 0v736h42v-736h-42zM90 765l118 170h56l-136 -170h-38z" />
    <glyph glyph-name="uni013B" unicode="&#x13b;" horiz-adv-x="532" 
d="M97 0v705h42v-666h378v-39h-420zM291 -259l-26 19.999c15.333 17.333 25.5 33.333 30.5 48s7.5 30.334 7.5 47.001l15 -7h-50v65h70v-54c0 -22.667 -4 -44.167 -12 -64.5s-19.667 -38.5 -35 -54.5z" />
    <glyph glyph-name="uni013C" unicode="&#x13c;" horiz-adv-x="218" 
d="M88 0v736h42v-736h-42zM97 -259l-26 19.999c15.333 17.333 25.5 33.333 30.5 48s7.5 30.334 7.5 47.001l15 -7h-50v65h70v-54c0 -22.667 -4 -44.167 -12 -64.5s-19.667 -38.5 -35 -54.5z" />
    <glyph glyph-name="Lcaron" unicode="&#x13d;" horiz-adv-x="532" 
d="M97 0v705h42v-666h378v-39h-420zM256 489v216h49l-19 -216h-30z" />
    <glyph glyph-name="lcaron" unicode="&#x13e;" horiz-adv-x="218" 
d="M88 0v736h42v-736h-42zM182 548v188h49l-22 -188h-27z" />
    <glyph glyph-name="Ldot" unicode="&#x13f;" horiz-adv-x="532" 
d="M97 0v705h42v-666h378v-39h-420zM350 352v68h69v-68h-69z" />
    <glyph glyph-name="ldot" unicode="&#x140;" horiz-adv-x="218" 
d="M88 0v736h42v-736h-42zM186 323v68h69v-68h-69z" />
    <glyph glyph-name="Lslash" unicode="&#x141;" horiz-adv-x="532" 
d="M97 0v705h42v-666h378v-39h-420zM11 277l-20 34l324 186l20 -33z" />
    <glyph glyph-name="lslash" unicode="&#x142;" horiz-adv-x="218" 
d="M88 0v736h42v-736h-42zM5 274l-20 33l228 133l20 -33z" />
    <glyph glyph-name="Nacute" unicode="&#x143;" horiz-adv-x="739" 
d="M97 0v705h36l491 -663h-21v663h39v-705h-35l-491 663h20v-663h-39zM351 765l118 170h56l-136 -170h-38z" />
    <glyph glyph-name="nacute" unicode="&#x144;" horiz-adv-x="570" 
d="M88 0l0.000976562 392c0 17.333 -0.833008 35 -2.5 53s-3.5 36.333 -5.5 55h41l9 -120h-12c14 42 37.5 73.833 70.5 95.5s71.833 32.5 116.5 32.5c59.333 0 104.166 -15.333 134.499 -46s45.5 -78.667 45.5 -144v-318h-42v314c0 54 -11 93.333 -33 118
s-56.667 37 -104 37c-54 0 -96.833 -16.333 -128.5 -49s-47.5 -76.667 -47.5 -132v-288h-42zM266.001 549l104 200h54l-122 -200h-36z" />
    <glyph glyph-name="uni0145" unicode="&#x145;" horiz-adv-x="739" 
d="M97 0v705h36l491 -663h-21v663h39v-705h-35l-491 663h20v-663h-39zM358 -259l-26 19.999c15.333 17.333 25.5 33.333 30.5 48s7.5 30.334 7.5 47.001l15 -7h-50v65h70v-54c0 -22.667 -4 -44.167 -12 -64.5s-19.667 -38.5 -35 -54.5z" />
    <glyph glyph-name="uni0146" unicode="&#x146;" horiz-adv-x="570" 
d="M88 0l0.000976562 392c0 17.333 -0.833008 35 -2.5 53s-3.5 36.333 -5.5 55h41l9 -120h-12c14 42 37.5 73.833 70.5 95.5s71.833 32.5 116.5 32.5c59.333 0 104.166 -15.333 134.499 -46s45.5 -78.667 45.5 -144v-318h-42v314c0 54 -11 93.333 -33 118
s-56.667 37 -104 37c-54 0 -96.833 -16.333 -128.5 -49s-47.5 -76.667 -47.5 -132v-288h-42zM272.001 -259l-26 19.999c15.333 17.333 25.5 33.333 30.5 48s7.5 30.334 7.5 47.001l15 -7h-50v65h70v-54c0 -22.667 -4 -44.167 -12 -64.5s-19.667 -38.5 -35 -54.5z" />
    <glyph glyph-name="Ncaron" unicode="&#x147;" horiz-adv-x="739" 
d="M97 0v705h36l491 -663h-21v663h39v-705h-35l-491 663h20v-663h-39zM346 765l-121 170h37l108 -132l108 132h37l-121 -170h-48z" />
    <glyph glyph-name="ncaron" unicode="&#x148;" horiz-adv-x="570" 
d="M88 0l0.000976562 392c0 17.333 -0.833008 35 -2.5 53s-3.5 36.333 -5.5 55h41l9 -120h-12c14 42 37.5 73.833 70.5 95.5s71.833 32.5 116.5 32.5c59.333 0 104.166 -15.333 134.499 -46s45.5 -78.667 45.5 -144v-318h-42v314c0 54 -11 93.333 -33 118
s-56.667 37 -104 37c-54 0 -96.833 -16.333 -128.5 -49s-47.5 -76.667 -47.5 -132v-288h-42zM260.001 549l-109 200h35l98 -161l98 161h35l-109 -200h-48z" />
    <glyph glyph-name="napostrophe" unicode="&#x149;" horiz-adv-x="662" 
d="M111 575l-26.001 19.999c14.667 16 23.834 30.833 27.501 44.5s5.5 26.834 5.5 39.501l19 -6h-51v70h69v-55c0 -20.667 -3 -40.5 -9 -59.5s-17.667 -36.833 -35 -53.5zM179.999 -0.000976562l0.000976562 392c0 17.333 -0.833008 35 -2.5 53s-3.5 36.333 -5.5 55h41
l9 -120h-12c14 42 37.5 73.833 70.5 95.5s71.833 32.5 116.5 32.5c59.333 0 104.166 -15.333 134.499 -46s45.5 -78.667 45.5 -144v-318h-42v314c0 54 -11 93.333 -33 118s-56.667 37 -104 37c-54 0 -96.833 -16.333 -128.5 -49s-47.5 -76.667 -47.5 -132v-288h-42z" />
    <glyph glyph-name="Eng" unicode="&#x14a;" horiz-adv-x="739" 
d="M451 -193l-2.99805 38.001l43 3c36 2.66699 63.667 15 83 37s29 53 29 93v48l4 -26l-491 663h20v-663h-39v705h36l491 -663h-21v663h39v-726c0 -34 -5.83301 -63.333 -17.5 -88s-28.334 -43.834 -50.001 -57.501s-47.834 -21.5 -78.501 -23.5z" />
    <glyph glyph-name="eng" unicode="&#x14b;" horiz-adv-x="570" 
d="M88 0v392.001c0 17.333 -0.833008 35 -2.5 53s-3.5 36.333 -5.5 55h41l9 -120h-12c14 42 37.667 73.833 71 95.5s72.333 32.5 117 32.5c59.333 0 104 -15.333 134 -46s45 -78.667 45 -144v-372c0 -52 -12.333 -92.333 -37 -121s-60 -43 -106 -43
c-10.667 0 -21.5 1.16699 -32.5 3.5s-20.167 4.83301 -27.5 7.5v40c7.33301 -2.66699 15.5 -5.33398 24.5 -8.00098s19.833 -4 32.5 -4c36 0 62.333 11.333 79 34s25 56 25 100v359c0 54 -10.833 93.333 -32.5 118s-56.167 37 -103.5 37c-54 0 -97 -16.333 -129 -49
s-48 -76.667 -48 -132v-288h-42z" />
    <glyph glyph-name="Omacron" unicode="&#x14c;" horiz-adv-x="759" 
d="M68 353c0 74.667 12.168 138.833 36.501 192.5s59.666 95 105.999 124s102.5 43.5 168.5 43.5c64 0 119.333 -14.5 166 -43.5s82.667 -70.333 108 -124s38 -117.5 38 -191.5c0 -74.667 -12.833 -139 -38.5 -193s-61.834 -95.667 -108.501 -125s-101.667 -44 -165 -44
c-65.333 0 -121.166 14.667 -167.499 44s-81.833 71 -106.5 125s-37 118 -37 192zM113.001 352.999c0 -100.667 22.668 -179.167 68.001 -235.5s111.333 -84.5 198 -84.5c83.333 0 148.666 28 195.999 84s71 134.667 71 236s-23.5 179.833 -70.5 235.5
s-112.5 83.5 -196.5 83.5c-86.667 0 -152.667 -27.833 -198 -83.5s-68 -134.167 -68 -235.5zM224.002 821.999v38h310v-38h-310z" />
    <glyph glyph-name="omacron" unicode="&#x14d;" horiz-adv-x="553" 
d="M276 -8c-45.333 0 -84.666 10.333 -117.999 31s-59 50.334 -77 89.001s-27 84.667 -27 138s9 99.333 27 138s43.667 68.334 77 89.001s72.666 31 117.999 31s84.666 -10.333 117.999 -31s59.166 -50.334 77.499 -89.001s27.5 -84.667 27.5 -138
s-9.16699 -99.333 -27.5 -138s-44.166 -68.334 -77.499 -89.001s-72.666 -31 -117.999 -31zM276 31c54.667 0 98.334 18.833 131.001 56.5s49 91.834 49 162.501s-16.333 124.834 -49 162.501s-76.334 56.5 -131.001 56.5s-98.167 -18.833 -130.5 -56.5
s-48.5 -91.834 -48.5 -162.501s16.167 -124.834 48.5 -162.501s75.833 -56.5 130.5 -56.5zM137 633v38h280v-38h-280z" />
    <glyph glyph-name="Obreve" unicode="&#x14e;" horiz-adv-x="759" 
d="M68 353c0 74.667 12.168 138.833 36.501 192.5s59.666 95 105.999 124s102.5 43.5 168.5 43.5c64 0 119.333 -14.5 166 -43.5s82.667 -70.333 108 -124s38 -117.5 38 -191.5c0 -74.667 -12.833 -139 -38.5 -193s-61.834 -95.667 -108.501 -125s-101.667 -44 -165 -44
c-65.333 0 -121.166 14.667 -167.499 44s-81.833 71 -106.5 125s-37 118 -37 192zM113.001 352.999c0 -100.667 22.668 -179.167 68.001 -235.5s111.333 -84.5 198 -84.5c83.333 0 148.666 28 195.999 84s71 134.667 71 236s-23.5 179.833 -70.5 235.5
s-112.5 83.5 -196.5 83.5c-86.667 0 -152.667 -27.833 -198 -83.5s-68 -134.167 -68 -235.5zM379.002 759.999c-42.667 0 -78.3291 14.833 -106.996 44.5s-45.334 70.5 -50.001 122.5l33 4c3.33301 -42.667 16 -75.834 38 -99.501s50.667 -35.5 86 -35.5
s64.166 11.833 86.499 35.5s34.833 56.834 37.5 99.501l33 -4c-4.66699 -52 -21.334 -92.833 -50.001 -122.5s-64.334 -44.5 -107.001 -44.5z" />
    <glyph glyph-name="obreve" unicode="&#x14f;" horiz-adv-x="553" 
d="M276 -8c-45.333 0 -84.666 10.333 -117.999 31s-59 50.334 -77 89.001s-27 84.667 -27 138s9 99.333 27 138s43.667 68.334 77 89.001s72.666 31 117.999 31s84.666 -10.333 117.999 -31s59.166 -50.334 77.499 -89.001s27.5 -84.667 27.5 -138
s-9.16699 -99.333 -27.5 -138s-44.166 -68.334 -77.499 -89.001s-72.666 -31 -117.999 -31zM276 31c54.667 0 98.334 18.833 131.001 56.5s49 91.834 49 162.501s-16.333 124.834 -49 162.501s-76.334 56.5 -131.001 56.5s-98.167 -18.833 -130.5 -56.5
s-48.5 -91.834 -48.5 -162.501s16.167 -124.834 48.5 -162.501s75.833 -56.5 130.5 -56.5zM277 547c-27.333 0 -51.5 7.5 -72.5 22.5s-37.5 36.5 -49.5 64.5s-19.333 61.333 -22 100l33 4c2.66699 -49.333 13.667 -87.5 33 -114.5s45.333 -40.5 78 -40.5
c33.333 0 59.5 13.5 78.5 40.5s29.833 65.167 32.5 114.5l33 -4c-2 -38.667 -9.16699 -72 -21.5 -100s-28.833 -49.5 -49.5 -64.5s-45 -22.5 -73 -22.5z" />
    <glyph glyph-name="Ohungarumlaut" unicode="&#x150;" horiz-adv-x="759" 
d="M68 353c0 74.667 12.168 138.833 36.501 192.5s59.666 95 105.999 124s102.5 43.5 168.5 43.5c64 0 119.333 -14.5 166 -43.5s82.667 -70.333 108 -124s38 -117.5 38 -191.5c0 -74.667 -12.833 -139 -38.5 -193s-61.834 -95.667 -108.501 -125s-101.667 -44 -165 -44
c-65.333 0 -121.166 14.667 -167.499 44s-81.833 71 -106.5 125s-37 118 -37 192zM113.001 352.999c0 -100.667 22.668 -179.167 68.001 -235.5s111.333 -84.5 198 -84.5c83.333 0 148.666 28 195.999 84s71 134.667 71 236s-23.5 179.833 -70.5 235.5
s-112.5 83.5 -196.5 83.5c-86.667 0 -152.667 -27.833 -198 -83.5s-68 -134.167 -68 -235.5zM311.002 764.999l86 170h52l-111 -170h-27zM420.002 764.999l85 170h52l-110 -170h-27z" />
    <glyph glyph-name="ohungarumlaut" unicode="&#x151;" horiz-adv-x="553" 
d="M276 -8c-45.333 0 -84.666 10.333 -117.999 31s-59 50.334 -77 89.001s-27 84.667 -27 138s9 99.333 27 138s43.667 68.334 77 89.001s72.666 31 117.999 31s84.666 -10.333 117.999 -31s59.166 -50.334 77.499 -89.001s27.5 -84.667 27.5 -138
s-9.16699 -99.333 -27.5 -138s-44.166 -68.334 -77.499 -89.001s-72.666 -31 -117.999 -31zM276 31c54.667 0 98.334 18.833 131.001 56.5s49 91.834 49 162.501s-16.333 124.834 -49 162.501s-76.334 56.5 -131.001 56.5s-98.167 -18.833 -130.5 -56.5
s-48.5 -91.834 -48.5 -162.501s16.167 -124.834 48.5 -162.501s75.833 -56.5 130.5 -56.5zM318 549l58 200h48l-79 -200h-27zM209 549l58 200h48l-79 -200h-27z" />
    <glyph glyph-name="OE" unicode="&#x152;" horiz-adv-x="1057" 
d="M572 0v705h428v-39h-386v-289h366v-39h-366v-299h386v-39h-428zM379 -8c-65.333 0 -121.165 14.668 -167.498 44.001s-81.833 71 -106.5 125s-37 118 -37 192c0 74.667 12.167 138.834 36.5 192.501s59.666 95 105.999 124s102.5 43.5 168.5 43.5
c43.333 0 82.666 -4.83301 117.999 -14.5s66 -26.5 92 -50.5v-63c-22.667 33.333 -51.667 56.166 -87 68.499s-76.333 18.5 -123 18.5c-86.667 0 -152.667 -27.833 -198 -83.5s-68 -134.167 -68 -235.5c0 -100.667 22.667 -179.167 68 -235.5s111.333 -84.5 198 -84.5
c48 0 90.167 8.16699 126.5 24.5s65.833 42.166 88.5 77.499v-67c-18 -16.667 -38 -30.667 -60 -42s-46 -19.833 -72 -25.5s-53.667 -8.5 -83 -8.5z" />
    <glyph glyph-name="oe" unicode="&#x153;" horiz-adv-x="936" 
d="M277 -8c-45.333 0 -84.665 10.3301 -117.998 30.9971s-59.166 50.334 -77.499 89.001s-27.5 84.667 -27.5 138s9.16699 99.333 27.5 138s44.166 68.334 77.499 89.001s72.666 31 117.999 31c53.333 0 98.833 -15.333 136.5 -46s62.834 -74.334 75.501 -131.001h-21
c13.333 56.667 39.5 100.334 78.5 131.001s85.167 46 138.5 46c62.667 0 111.667 -20.5 147 -61.5s53 -96.833 53 -167.5v-27h-404v38h382l-17 -10c0 58.667 -14 105 -42 139s-68.667 51 -122 51c-56.667 0 -101 -20 -133 -60s-48 -92 -48 -156v-6
c0 -70 16.667 -123.667 50 -161s80.666 -56 141.999 -56c29.333 0 57.5 5.33301 84.5 16s53.167 27.334 78.5 50.001l21 -33c-13.333 -15.333 -29.833 -28.333 -49.5 -39s-41 -18.834 -64 -24.501s-46.167 -8.5 -69.5 -8.5c-60.667 0 -110.334 14.833 -149.001 44.5
s-64.667 72.834 -78 129.501h20c-12.667 -56 -37.5 -99 -74.5 -129s-82.167 -45 -135.5 -45zM277.001 30.9971c54.667 0 98.334 18.833 131.001 56.5s49 91.834 49 162.501s-16.333 124.834 -49 162.501s-76.334 56.5 -131.001 56.5s-98.334 -18.833 -131.001 -56.5
s-49 -91.834 -49 -162.501s16.333 -124.834 49 -162.501s76.334 -56.5 131.001 -56.5z" />
    <glyph glyph-name="Racute" unicode="&#x154;" horiz-adv-x="684" 
d="M97 0l0.00195312 705h270c71.333 0 126.666 -16.667 165.999 -50s59 -80.333 59 -141c0 -39.333 -9 -72.833 -27 -100.5s-42.5 -48.667 -73.5 -63s-66.5 -21.5 -106.5 -21.5l21 8h8c26.667 0 50.5 -6.16699 71.5 -18.5s37.833 -34.5 50.5 -66.5l97 -252h-47l-88 236
c-13.333 36.667 -32.833 60.167 -58.5 70.5s-58.834 15.5 -99.501 15.5h-201v-322h-42zM139.002 361l224 0.000976562c60 0 105.667 13.167 137 39.5s47 64.166 47 113.499s-15.667 87 -47 113s-77 39 -137 39h-224v-305zM319.002 765.001l118 170h56l-136 -170h-38z" />
    <glyph glyph-name="racute" unicode="&#x155;" horiz-adv-x="336" 
d="M86 0v386c0 18.667 -0.5 37.667 -1.5 57s-2.5 38.333 -4.5 57h41l6 -109l-9 -1c6.66699 26.667 18.834 48.667 36.501 66s38 30.333 61 39s45.833 13 68.5 13c8 0 15.833 -0.333008 23.5 -1s14.834 -2 21.501 -4l-2 -39c-6.66699 2 -13.834 3.33301 -21.501 4
s-15.834 1 -24.501 1c-30.667 0 -57.5 -7.83301 -80.5 -23.5s-40.833 -35 -53.5 -58s-19 -45.5 -19 -67.5v-320h-42zM190 549l104 200h54l-122 -200h-36z" />
    <glyph glyph-name="uni0156" unicode="&#x156;" horiz-adv-x="684" 
d="M97 0l0.00195312 705h270c71.333 0 126.666 -16.667 165.999 -50s59 -80.333 59 -141c0 -39.333 -9 -72.833 -27 -100.5s-42.5 -48.667 -73.5 -63s-66.5 -21.5 -106.5 -21.5l21 8h8c26.667 0 50.5 -6.16699 71.5 -18.5s37.833 -34.5 50.5 -66.5l97 -252h-47l-88 236
c-13.333 36.667 -32.833 60.167 -58.5 70.5s-58.834 15.5 -99.501 15.5h-201v-322h-42zM139.002 361l224 0.000976562c60 0 105.667 13.167 137 39.5s47 64.166 47 113.499s-15.667 87 -47 113s-77 39 -137 39h-224v-305zM326.002 -258.999l-26 19.999
c15.333 17.333 25.5 33.333 30.5 48s7.5 30.334 7.5 47.001l15 -7h-50v65h70v-54c0 -22.667 -4 -44.167 -12 -64.5s-19.667 -38.5 -35 -54.5z" />
    <glyph glyph-name="uni0157" unicode="&#x157;" horiz-adv-x="336" 
d="M86 0v386c0 18.667 -0.5 37.667 -1.5 57s-2.5 38.333 -4.5 57h41l6 -109l-9 -1c6.66699 26.667 18.834 48.667 36.501 66s38 30.333 61 39s45.833 13 68.5 13c8 0 15.833 -0.333008 23.5 -1s14.834 -2 21.501 -4l-2 -39c-6.66699 2 -13.834 3.33301 -21.501 4
s-15.834 1 -24.501 1c-30.667 0 -57.5 -7.83301 -80.5 -23.5s-40.833 -35 -53.5 -58s-19 -45.5 -19 -67.5v-320h-42zM95 -259l-26 19.999c15.333 17.333 25.5 33.333 30.5 48s7.5 30.334 7.5 47.001l15 -7h-50v65h70v-54c0 -22.667 -4 -44.167 -12 -64.5
s-19.667 -38.5 -35 -54.5z" />
    <glyph glyph-name="Rcaron" unicode="&#x158;" horiz-adv-x="684" 
d="M97 0l0.00195312 705h270c71.333 0 126.666 -16.667 165.999 -50s59 -80.333 59 -141c0 -39.333 -9 -72.833 -27 -100.5s-42.5 -48.667 -73.5 -63s-66.5 -21.5 -106.5 -21.5l21 8h8c26.667 0 50.5 -6.16699 71.5 -18.5s37.833 -34.5 50.5 -66.5l97 -252h-47l-88 236
c-13.333 36.667 -32.833 60.167 -58.5 70.5s-58.834 15.5 -99.501 15.5h-201v-322h-42zM139.002 361l224 0.000976562c60 0 105.667 13.167 137 39.5s47 64.166 47 113.499s-15.667 87 -47 113s-77 39 -137 39h-224v-305zM314.002 765.001l-121 170h37l108 -132l108 132h37
l-121 -170h-48z" />
    <glyph glyph-name="rcaron" unicode="&#x159;" horiz-adv-x="336" 
d="M86 0v386c0 18.667 -0.5 37.667 -1.5 57s-2.5 38.333 -4.5 57h41l6 -109l-9 -1c6.66699 26.667 18.834 48.667 36.501 66s38 30.333 61 39s45.833 13 68.5 13c8 0 15.833 -0.333008 23.5 -1s14.834 -2 21.501 -4l-2 -39c-6.66699 2 -13.834 3.33301 -21.501 4
s-15.834 1 -24.501 1c-30.667 0 -57.5 -7.83301 -80.5 -23.5s-40.833 -35 -53.5 -58s-19 -45.5 -19 -67.5v-320h-42zM184 549l-109 200h35l98 -161l98 161h35l-109 -200h-48z" />
    <glyph glyph-name="Sacute" unicode="&#x15a;" horiz-adv-x="604" 
d="M313 -8c-56.667 0 -106.003 7.5 -148.003 22.5s-79.667 36.833 -113 65.5l21 36c24.667 -19.333 48.334 -35.166 71.001 -47.499s47.5 -21.333 74.5 -27s58.167 -8.5 93.5 -8.5c65.333 0 114.833 13.167 148.5 39.5s50.5 61.5 50.5 105.5c0 37.333 -11.833 66 -35.5 86
s-64.167 35.667 -121.5 47l-99 20c-64.667 13.333 -112.667 34.333 -144 63s-47 68.334 -47 119.001c0 40 10.333 75 31 105s49.334 53.333 86.001 70s79.334 25 128.001 25c49.333 0 94.333 -7.66699 135 -23s75.667 -38.333 105 -69l-20 -36
c-32.667 31.333 -66.334 53.666 -101.001 66.999s-74.334 20 -119.001 20c-61.333 0 -110.166 -14.333 -146.499 -43s-54.5 -67.334 -54.5 -116.001c0 -39.333 11.667 -69.833 35 -91.5s61 -37.834 113 -48.501l100 -20c69.333 -14 119.833 -34.167 151.5 -60.5
s47.5 -64.166 47.5 -113.499c0 -36.667 -9.66699 -69.167 -29 -97.5s-47.166 -50.333 -83.499 -66s-79.5 -23.5 -129.5 -23.5zM293.997 765l118 170h56l-136 -170h-38z" />
    <glyph glyph-name="sacute" unicode="&#x15b;" horiz-adv-x="492" 
d="M244 -8c-37.333 0 -72.498 5.83691 -105.498 17.5039s-59.833 27.834 -80.5 48.501l21 33c24 -20.667 50 -35.834 78 -45.501s57.667 -14.5 89 -14.5c45.333 0 80 8.66699 104 26s36 41 36 71c0 23.333 -7.66699 42.166 -23 56.499s-40.666 25.166 -75.999 32.499l-87 19
c-42.667 10 -74.334 26 -95.001 48s-31 49.333 -31 82c0 27.333 7.16699 51.666 21.5 72.999s35 38.166 62 50.499s58.833 18.5 95.5 18.5c35.333 0 67.833 -6 97.5 -18s53.5 -28.667 71.5 -50l-22 -33c-20 20.667 -42.333 36.167 -67 46.5s-51.334 15.5 -80.001 15.5
c-43.333 0 -76.5 -9.33301 -99.5 -28s-34.5 -43.334 -34.5 -74.001c0 -23.333 7.16699 -42.333 21.5 -57s37.166 -25.667 68.499 -33l87 -20c45.333 -10.667 79 -26.167 101 -46.5s33 -47.166 33 -80.499c0 -28 -7.66699 -52.333 -23 -73s-37 -36.667 -65 -48
s-60.667 -17 -98 -17zM234.002 549.004l104 200h54l-122 -200h-36z" />
    <glyph glyph-name="Scircumflex" unicode="&#x15c;" horiz-adv-x="604" 
d="M313 -8c-56.667 0 -106.003 7.5 -148.003 22.5s-79.667 36.833 -113 65.5l21 36c24.667 -19.333 48.334 -35.166 71.001 -47.499s47.5 -21.333 74.5 -27s58.167 -8.5 93.5 -8.5c65.333 0 114.833 13.167 148.5 39.5s50.5 61.5 50.5 105.5c0 37.333 -11.833 66 -35.5 86
s-64.167 35.667 -121.5 47l-99 20c-64.667 13.333 -112.667 34.333 -144 63s-47 68.334 -47 119.001c0 40 10.333 75 31 105s49.334 53.333 86.001 70s79.334 25 128.001 25c49.333 0 94.333 -7.66699 135 -23s75.667 -38.333 105 -69l-20 -36
c-32.667 31.333 -66.334 53.666 -101.001 66.999s-74.334 20 -119.001 20c-61.333 0 -110.166 -14.333 -146.499 -43s-54.5 -67.334 -54.5 -116.001c0 -39.333 11.667 -69.833 35 -91.5s61 -37.834 113 -48.501l100 -20c69.333 -14 119.833 -34.167 151.5 -60.5
s47.5 -64.166 47.5 -113.499c0 -36.667 -9.66699 -69.167 -29 -97.5s-47.166 -50.333 -83.499 -66s-79.5 -23.5 -129.5 -23.5zM167.997 765l121 170h48l121 -170h-37l-108 132l-108 -132h-37z" />
    <glyph glyph-name="scircumflex" unicode="&#x15d;" horiz-adv-x="492" 
d="M244 -8c-37.333 0 -72.498 5.83691 -105.498 17.5039s-59.833 27.834 -80.5 48.501l21 33c24 -20.667 50 -35.834 78 -45.501s57.667 -14.5 89 -14.5c45.333 0 80 8.66699 104 26s36 41 36 71c0 23.333 -7.66699 42.166 -23 56.499s-40.666 25.166 -75.999 32.499l-87 19
c-42.667 10 -74.334 26 -95.001 48s-31 49.333 -31 82c0 27.333 7.16699 51.666 21.5 72.999s35 38.166 62 50.499s58.833 18.5 95.5 18.5c35.333 0 67.833 -6 97.5 -18s53.5 -28.667 71.5 -50l-22 -33c-20 20.667 -42.333 36.167 -67 46.5s-51.334 15.5 -80.001 15.5
c-43.333 0 -76.5 -9.33301 -99.5 -28s-34.5 -43.334 -34.5 -74.001c0 -23.333 7.16699 -42.333 21.5 -57s37.166 -25.667 68.499 -33l87 -20c45.333 -10.667 79 -26.167 101 -46.5s33 -47.166 33 -80.499c0 -28 -7.66699 -52.333 -23 -73s-37 -36.667 -65 -48
s-60.667 -17 -98 -17zM119.002 549.004l109 200h48l109 -200h-35l-98 161l-98 -161h-35z" />
    <glyph glyph-name="Scedilla" unicode="&#x15e;" horiz-adv-x="604" 
d="M313 -8c-56.667 0 -106.003 7.5 -148.003 22.5s-79.667 36.833 -113 65.5l21 36c24.667 -19.333 48.334 -35.166 71.001 -47.499s47.5 -21.333 74.5 -27s58.167 -8.5 93.5 -8.5c65.333 0 114.833 13.167 148.5 39.5s50.5 61.5 50.5 105.5c0 37.333 -11.833 66 -35.5 86
s-64.167 35.667 -121.5 47l-99 20c-64.667 13.333 -112.667 34.333 -144 63s-47 68.334 -47 119.001c0 40 10.333 75 31 105s49.334 53.333 86.001 70s79.334 25 128.001 25c49.333 0 94.333 -7.66699 135 -23s75.667 -38.333 105 -69l-20 -36
c-32.667 31.333 -66.334 53.666 -101.001 66.999s-74.334 20 -119.001 20c-61.333 0 -110.166 -14.333 -146.499 -43s-54.5 -67.334 -54.5 -116.001c0 -39.333 11.667 -69.833 35 -91.5s61 -37.834 113 -48.501l100 -20c69.333 -14 119.833 -34.167 151.5 -60.5
s47.5 -64.166 47.5 -113.499c0 -36.667 -9.66699 -69.167 -29 -97.5s-47.166 -50.333 -83.499 -66s-79.5 -23.5 -129.5 -23.5zM323.997 -190c-15.333 0 -29.833 1.66797 -43.5 5.00098s-25.167 7.66602 -34.5 12.999l9 34c12.667 -6 24 -10.167 34 -12.5s23 -3.5 39 -3.5
c18 0 32.833 3.66699 44.5 11s17.5 18 17.5 32c0 21.333 -13 32 -39 32c-7.33301 0 -14.833 -0.666992 -22.5 -2s-17.167 -4 -28.5 -8l-15 13l15 96h38l-13 -75l-18 2c8 2 15.833 3.66699 23.5 5s14.834 2 21.501 2c21.333 0 39.666 -5.66699 54.999 -17s23 -27.333 23 -48
c0 -23.333 -9.83301 -42.333 -29.5 -57s-45.167 -22 -76.5 -22z" />
    <glyph glyph-name="scedilla" unicode="&#x15f;" horiz-adv-x="492" 
d="M244 -8c-37.333 0 -72.498 5.83691 -105.498 17.5039s-59.833 27.834 -80.5 48.501l21 33c24 -20.667 50 -35.834 78 -45.501s57.667 -14.5 89 -14.5c45.333 0 80 8.66699 104 26s36 41 36 71c0 23.333 -7.66699 42.166 -23 56.499s-40.666 25.166 -75.999 32.499l-87 19
c-42.667 10 -74.334 26 -95.001 48s-31 49.333 -31 82c0 27.333 7.16699 51.666 21.5 72.999s35 38.166 62 50.499s58.833 18.5 95.5 18.5c35.333 0 67.833 -6 97.5 -18s53.5 -28.667 71.5 -50l-22 -33c-20 20.667 -42.333 36.167 -67 46.5s-51.334 15.5 -80.001 15.5
c-43.333 0 -76.5 -9.33301 -99.5 -28s-34.5 -43.334 -34.5 -74.001c0 -23.333 7.16699 -42.333 21.5 -57s37.166 -25.667 68.499 -33l87 -20c45.333 -10.667 79 -26.167 101 -46.5s33 -47.166 33 -80.499c0 -28 -7.66699 -52.333 -23 -73s-37 -36.667 -65 -48
s-60.667 -17 -98 -17zM249.002 -189.996c-15.333 0 -29.833 1.66797 -43.5 5.00098s-25.167 7.66602 -34.5 12.999l9 34c12.667 -6 24 -10.167 34 -12.5s23 -3.5 39 -3.5c18 0 32.833 3.66699 44.5 11s17.5 18 17.5 32c0 21.333 -13 32 -39 32
c-7.33301 0 -14.833 -0.666992 -22.5 -2s-17.167 -4 -28.5 -8l-15 13l15 96h38l-13 -75l-18 2c8 2 15.833 3.66699 23.5 5s14.834 2 21.501 2c21.333 0 39.666 -5.66699 54.999 -17s23 -27.333 23 -48c0 -23.333 -9.83301 -42.333 -29.5 -57s-45.167 -22 -76.5 -22z" />
    <glyph glyph-name="Scaron" unicode="&#x160;" horiz-adv-x="604" 
d="M313 -8c-56.667 0 -106.003 7.5 -148.003 22.5s-79.667 36.833 -113 65.5l21 36c24.667 -19.333 48.334 -35.166 71.001 -47.499s47.5 -21.333 74.5 -27s58.167 -8.5 93.5 -8.5c65.333 0 114.833 13.167 148.5 39.5s50.5 61.5 50.5 105.5c0 37.333 -11.833 66 -35.5 86
s-64.167 35.667 -121.5 47l-99 20c-64.667 13.333 -112.667 34.333 -144 63s-47 68.334 -47 119.001c0 40 10.333 75 31 105s49.334 53.333 86.001 70s79.334 25 128.001 25c49.333 0 94.333 -7.66699 135 -23s75.667 -38.333 105 -69l-20 -36
c-32.667 31.333 -66.334 53.666 -101.001 66.999s-74.334 20 -119.001 20c-61.333 0 -110.166 -14.333 -146.499 -43s-54.5 -67.334 -54.5 -116.001c0 -39.333 11.667 -69.833 35 -91.5s61 -37.834 113 -48.501l100 -20c69.333 -14 119.833 -34.167 151.5 -60.5
s47.5 -64.166 47.5 -113.499c0 -36.667 -9.66699 -69.167 -29 -97.5s-47.166 -50.333 -83.499 -66s-79.5 -23.5 -129.5 -23.5zM288.997 765l-121 170h37l108 -132l108 132h37l-121 -170h-48z" />
    <glyph glyph-name="scaron" unicode="&#x161;" horiz-adv-x="492" 
d="M244 -8c-37.333 0 -72.498 5.83691 -105.498 17.5039s-59.833 27.834 -80.5 48.501l21 33c24 -20.667 50 -35.834 78 -45.501s57.667 -14.5 89 -14.5c45.333 0 80 8.66699 104 26s36 41 36 71c0 23.333 -7.66699 42.166 -23 56.499s-40.666 25.166 -75.999 32.499l-87 19
c-42.667 10 -74.334 26 -95.001 48s-31 49.333 -31 82c0 27.333 7.16699 51.666 21.5 72.999s35 38.166 62 50.499s58.833 18.5 95.5 18.5c35.333 0 67.833 -6 97.5 -18s53.5 -28.667 71.5 -50l-22 -33c-20 20.667 -42.333 36.167 -67 46.5s-51.334 15.5 -80.001 15.5
c-43.333 0 -76.5 -9.33301 -99.5 -28s-34.5 -43.334 -34.5 -74.001c0 -23.333 7.16699 -42.333 21.5 -57s37.166 -25.667 68.499 -33l87 -20c45.333 -10.667 79 -26.167 101 -46.5s33 -47.166 33 -80.499c0 -28 -7.66699 -52.333 -23 -73s-37 -36.667 -65 -48
s-60.667 -17 -98 -17zM228.002 549.004l-109 200h35l98 -161l98 161h35l-109 -200h-48z" />
    <glyph glyph-name="uni0162" unicode="&#x162;" horiz-adv-x="590" 
d="M272 0v666h-262v39h566v-39h-262v-666h-42zM300 -190c-15.333 0 -29.833 1.66797 -43.5 5.00098s-25.167 7.66602 -34.5 12.999l9 34c12.667 -6 24 -10.167 34 -12.5s23 -3.5 39 -3.5c18 0 32.833 3.66699 44.5 11s17.5 18 17.5 32c0 21.333 -13 32 -39 32
c-7.33301 0 -14.833 -0.666992 -22.5 -2s-17.167 -4 -28.5 -8l-15 13l15 96h38l-13 -75l-18 2c8 2 15.833 3.66699 23.5 5s14.834 2 21.501 2c21.333 0 39.666 -5.66699 54.999 -17s23 -27.333 23 -48c0 -23.333 -9.83301 -42.333 -29.5 -57s-45.167 -22 -76.5 -22z" />
    <glyph glyph-name="uni0163" unicode="&#x163;" horiz-adv-x="324" 
d="M234 -8c-40.667 0 -71.835 12.8311 -93.502 38.498s-32.5 64.834 -32.5 117.501v316h-100v36h100v143l42 16v-159h152v-36h-152v-307c0 -44 6.83301 -76 20.5 -96s35.834 -30 66.501 -30c13.333 0 25.333 1.33301 36 4s19.667 5.66699 27 9v-40
c-7.33301 -3.33301 -17.166 -6.16602 -29.499 -8.49902s-24.5 -3.5 -36.5 -3.5zM215.999 -190.002c-15.333 0 -29.833 1.66797 -43.5 5.00098s-25.167 7.66602 -34.5 12.999l9 34c12.667 -6 24 -10.167 34 -12.5s23 -3.5 39 -3.5c18 0 32.833 3.66699 44.5 11
s17.5 18 17.5 32c0 21.333 -13 32 -39 32c-7.33301 0 -14.833 -0.666992 -22.5 -2s-17.167 -4 -28.5 -8l-15 13l15 96h38l-13 -75l-18 2c8 2 15.833 3.66699 23.5 5s14.834 2 21.501 2c21.333 0 39.666 -5.66699 54.999 -17s23 -27.333 23 -48
c0 -23.333 -9.83301 -42.333 -29.5 -57s-45.167 -22 -76.5 -22z" />
    <glyph glyph-name="Tcaron" unicode="&#x164;" horiz-adv-x="590" 
d="M272 0v666h-262v39h566v-39h-262v-666h-42zM271 765l-121 170h37l108 -132l108 132h37l-121 -170h-48z" />
    <glyph glyph-name="tcaron" unicode="&#x165;" horiz-adv-x="324" 
d="M234 -8c-40.667 0 -71.835 12.8311 -93.502 38.498s-32.5 64.834 -32.5 117.501v316h-100v36h100v143l42 16v-159h152v-36h-152v-307c0 -44 6.83301 -76 20.5 -96s35.834 -30 66.501 -30c13.333 0 25.333 1.33301 36 4s19.667 5.66699 27 9v-40
c-7.33301 -3.33301 -17.166 -6.16602 -29.499 -8.49902s-24.5 -3.5 -36.5 -3.5zM232.999 534.998v170h48l-21 -170h-27z" />
    <glyph glyph-name="Tbar" unicode="&#x166;" horiz-adv-x="590" 
d="M272 0v666h-262v39h566v-39h-262v-666h-42zM128 340v37h334v-37h-334z" />
    <glyph glyph-name="tbar" unicode="&#x167;" horiz-adv-x="324" 
d="M234 -8c-40.667 0 -71.835 12.8311 -93.502 38.498s-32.5 64.834 -32.5 117.501v316h-100v36h100v143l42 16v-159h152v-36h-152v-307c0 -44 6.83301 -76 20.5 -96s35.834 -30 66.501 -30c13.333 0 25.333 1.33301 36 4s19.667 5.66699 27 9v-40
c-7.33301 -3.33301 -17.166 -6.16602 -29.499 -8.49902s-24.5 -3.5 -36.5 -3.5zM33.999 261.998v36h245v-36h-245z" />
    <glyph glyph-name="Utilde" unicode="&#x168;" horiz-adv-x="722" 
d="M361 -8c-91.333 0 -159 23.667 -203 71s-66 116.333 -66 207v435h42v-429c0 -81.333 18.167 -142.166 54.5 -182.499s93.833 -60.5 172.5 -60.5c74 0 130.333 20.167 169 60.5s58 101.166 58 182.499v429h42v-435c0 -90.667 -23 -159.667 -69 -207s-112.667 -71 -200 -71
zM197 792l-32.002 2.00195c4.66699 38.667 16.334 68.5 35.001 89.5s42.667 31.5 72 31.5c15.333 0 30.666 -3.66699 45.999 -11s34 -19 56 -35c21.333 -14.667 37.333 -24.834 48 -30.501s21 -8.5 31 -8.5c20 0 35.833 7.5 47.5 22.5s19.834 36.5 24.501 64.5l32 -2
c-4.66699 -38.667 -16.167 -68.5 -34.5 -89.5s-42.166 -31.5 -71.499 -31.5c-14.667 0 -30 3.66699 -46 11s-36 19.666 -60 36.999c-18.667 14 -33.667 23.667 -45 29s-21.666 8 -30.999 8c-20 0 -35.833 -7.5 -47.5 -22.5s-19.834 -36.5 -24.501 -64.5z" />
    <glyph glyph-name="utilde" unicode="&#x169;" horiz-adv-x="561" 
d="M262 -8c-58 0 -102.002 15.667 -132.002 47s-45 79.333 -45 144v317h42v-313c0 -54 11 -93.5 33 -118.5s56 -37.5 102 -37.5c51.333 0 92.333 16.5 123 49.5s46 76.833 46 131.5v288h42v-500h-41v122h12c-13.333 -41.333 -36.166 -73.333 -68.499 -96
s-70.166 -34 -113.499 -34zM144.998 596l-32.002 2c4 38.667 14.333 68.5 31 89.5s38.334 31.5 65.001 31.5c14 0 27.167 -3.83301 39.5 -11.5s26.5 -19.5 42.5 -35.5c14.667 -14.667 26.5 -24.667 35.5 -30s17.833 -8 26.5 -8c34.667 0 56 29 64 87l32 -2
c-4 -38.667 -14.333 -68.5 -31 -89.5s-38 -31.5 -64 -31.5c-13.333 0 -26.166 3.83301 -38.499 11.5s-27.166 19.5 -44.499 35.5c-14.667 14 -26.334 23.833 -35.001 29.5s-17.667 8.5 -27 8.5c-17.333 0 -31.333 -7.5 -42 -22.5s-18 -36.5 -22 -64.5z" />
    <glyph glyph-name="Umacron" unicode="&#x16a;" horiz-adv-x="722" 
d="M361 -8c-91.333 0 -159 23.667 -203 71s-66 116.333 -66 207v435h42v-429c0 -81.333 18.167 -142.166 54.5 -182.499s93.833 -60.5 172.5 -60.5c74 0 130.333 20.167 169 60.5s58 101.166 58 182.499v429h42v-435c0 -90.667 -23 -159.667 -69 -207s-112.667 -71 -200 -71
zM206 822v38h310v-38h-310z" />
    <glyph glyph-name="umacron" unicode="&#x16b;" horiz-adv-x="561" 
d="M262 -8c-58 0 -102.002 15.667 -132.002 47s-45 79.333 -45 144v317h42v-313c0 -54 11 -93.5 33 -118.5s56 -37.5 102 -37.5c51.333 0 92.333 16.5 123 49.5s46 76.833 46 131.5v288h42v-500h-41v122h12c-13.333 -41.333 -36.166 -73.333 -68.499 -96
s-70.166 -34 -113.499 -34zM140.998 634v38h280v-38h-280z" />
    <glyph glyph-name="Ubreve" unicode="&#x16c;" horiz-adv-x="722" 
d="M361 -8c-91.333 0 -159 23.667 -203 71s-66 116.333 -66 207v435h42v-429c0 -81.333 18.167 -142.166 54.5 -182.499s93.833 -60.5 172.5 -60.5c74 0 130.333 20.167 169 60.5s58 101.166 58 182.499v429h42v-435c0 -90.667 -23 -159.667 -69 -207s-112.667 -71 -200 -71
zM361 760c-42.667 0 -78.3291 14.833 -106.996 44.5s-45.334 70.5 -50.001 122.5l33 4c3.33301 -42.667 16 -75.834 38 -99.501s50.667 -35.5 86 -35.5s64.166 11.833 86.499 35.5s34.833 56.834 37.5 99.501l33 -4c-4.66699 -52 -21.334 -92.833 -50.001 -122.5
s-64.334 -44.5 -107.001 -44.5z" />
    <glyph glyph-name="ubreve" unicode="&#x16d;" horiz-adv-x="561" 
d="M262 -8c-58 0 -102.002 15.667 -132.002 47s-45 79.333 -45 144v317h42v-313c0 -54 11 -93.5 33 -118.5s56 -37.5 102 -37.5c51.333 0 92.333 16.5 123 49.5s46 76.833 46 131.5v288h42v-500h-41v122h12c-13.333 -41.333 -36.166 -73.333 -68.499 -96
s-70.166 -34 -113.499 -34zM280.998 548c-27.333 0 -51.5 7.5 -72.5 22.5s-37.5 36.5 -49.5 64.5s-19.333 61.333 -22 100l33 4c2.66699 -49.333 13.667 -87.5 33 -114.5s45.333 -40.5 78 -40.5c33.333 0 59.5 13.5 78.5 40.5s29.833 65.167 32.5 114.5l33 -4
c-2 -38.667 -9.16699 -72 -21.5 -100s-28.833 -49.5 -49.5 -64.5s-45 -22.5 -73 -22.5z" />
    <glyph glyph-name="Uring" unicode="&#x16e;" horiz-adv-x="722" 
d="M361 -8c-91.333 0 -159 23.667 -203 71s-66 116.333 -66 207v435h42v-429c0 -81.333 18.167 -142.166 54.5 -182.499s93.833 -60.5 172.5 -60.5c74 0 130.333 20.167 169 60.5s58 101.166 58 182.499v429h42v-435c0 -90.667 -23 -159.667 -69 -207s-112.667 -71 -200 -71
zM361 760c-20.667 0 -39.5 5 -56.5 15s-30.5 23.333 -40.5 40s-15 35 -15 55c0 20.667 5 39.167 15 55.5s23.5 29.5 40.5 39.5s35.833 15 56.5 15c21.333 0 40.333 -5 57 -15s30 -23.167 40 -39.5s15 -34.833 15 -55.5c0 -20 -5 -38.333 -15 -55s-23.333 -30 -40 -40
s-35.667 -15 -57 -15zM361 792c23.333 0 42.166 7.5 56.499 22.5s21.5 33.5 21.5 55.5s-7.16699 40.5 -21.5 55.5s-33.166 22.5 -56.499 22.5c-22.667 0 -41.334 -7.5 -56.001 -22.5s-22 -33.5 -22 -55.5s7.33301 -40.5 22 -55.5s33.334 -22.5 56.001 -22.5z" />
    <glyph glyph-name="uring" unicode="&#x16f;" horiz-adv-x="561" 
d="M262 -8c-58 0 -102.002 15.667 -132.002 47s-45 79.333 -45 144v317h42v-313c0 -54 11 -93.5 33 -118.5s56 -37.5 102 -37.5c51.333 0 92.333 16.5 123 49.5s46 76.833 46 131.5v288h42v-500h-41v122h12c-13.333 -41.333 -36.166 -73.333 -68.499 -96
s-70.166 -34 -113.499 -34zM280.998 548c-20.667 0 -39.5 5 -56.5 15s-30.5 23.333 -40.5 40s-15 35 -15 55c0 20.667 5 39.167 15 55.5s23.5 29.5 40.5 39.5s35.833 15 56.5 15c21.333 0 40.333 -5 57 -15s30 -23.167 40 -39.5s15 -34.833 15 -55.5
c0 -20 -5 -38.333 -15 -55s-23.333 -30 -40 -40s-35.667 -15 -57 -15zM280.998 580c23.333 0 42.166 7.5 56.499 22.5s21.5 33.5 21.5 55.5s-7.16699 40.5 -21.5 55.5s-33.166 22.5 -56.499 22.5c-22.667 0 -41.334 -7.5 -56.001 -22.5s-22 -33.5 -22 -55.5
s7.33301 -40.5 22 -55.5s33.334 -22.5 56.001 -22.5z" />
    <glyph glyph-name="Uhungarumlaut" unicode="&#x170;" horiz-adv-x="722" 
d="M361 -8c-91.333 0 -159 23.667 -203 71s-66 116.333 -66 207v435h42v-429c0 -81.333 18.167 -142.166 54.5 -182.499s93.833 -60.5 172.5 -60.5c74 0 130.333 20.167 169 60.5s58 101.166 58 182.499v429h42v-435c0 -90.667 -23 -159.667 -69 -207s-112.667 -71 -200 -71
zM293 765l86 170h52l-111 -170h-27zM402 765l85 170h52l-110 -170h-27z" />
    <glyph glyph-name="uhungarumlaut" unicode="&#x171;" horiz-adv-x="561" 
d="M262 -8c-58 0 -102.002 15.667 -132.002 47s-45 79.333 -45 144v317h42v-313c0 -54 11 -93.5 33 -118.5s56 -37.5 102 -37.5c51.333 0 92.333 16.5 123 49.5s46 76.833 46 131.5v288h42v-500h-41v122h12c-13.333 -41.333 -36.166 -73.333 -68.499 -96
s-70.166 -34 -113.499 -34zM321.998 550l58 200h48l-79 -200h-27zM212.998 550l58 200h48l-79 -200h-27z" />
    <glyph glyph-name="Uogonek" unicode="&#x172;" horiz-adv-x="722" 
d="M361 -8c-91.333 0 -159 23.667 -203 71s-66 116.333 -66 207v435h42v-429c0 -81.333 18.167 -142.166 54.5 -182.499s93.833 -60.5 172.5 -60.5c74 0 130.333 20.167 169 60.5s58 101.166 58 182.499v429h42v-435c0 -90.667 -23 -159.667 -69 -207s-112.667 -71 -200 -71
zM412 -190c-27.333 0 -49.835 8.33496 -67.502 25.002s-26.5 39 -26.5 67c0 25.333 7.83301 49.5 23.5 72.5s37.834 41.833 66.501 56.5l21 -31c-10 -4 -20.5 -10.333 -31.5 -19s-20.5 -19.334 -28.5 -32.001s-12 -27 -12 -43c0 -20.667 5.83301 -35.834 17.5 -45.501
s25.834 -14.5 42.501 -14.5c8.66699 0 17.334 1 26.001 3s17.667 5.33301 27 10l13 -32c-6.66699 -4.66699 -16.334 -8.66699 -29.001 -12s-26.667 -5 -42 -5z" />
    <glyph glyph-name="uogonek" unicode="&#x173;" horiz-adv-x="561" 
d="M262 -8c-58 0 -102.002 15.667 -132.002 47s-45 79.333 -45 144v317h42v-313c0 -54 11 -93.5 33 -118.5s56 -37.5 102 -37.5c51.333 0 92.333 16.5 123 49.5s46 76.833 46 131.5v288h42v-500h-41v122h12c-13.333 -41.333 -36.166 -73.333 -68.499 -96
s-70.166 -34 -113.499 -34zM455.998 -190c-27.333 0 -49.835 8.33496 -67.502 25.002s-26.5 39 -26.5 67c0 25.333 7.83301 49.5 23.5 72.5s37.834 41.833 66.501 56.5l21 -31c-10 -4 -20.5 -10.333 -31.5 -19s-20.5 -19.334 -28.5 -32.001s-12 -27 -12 -43
c0 -20.667 5.83301 -35.834 17.5 -45.501s25.834 -14.5 42.501 -14.5c8.66699 0 17.334 1 26.001 3s17.667 5.33301 27 10l13 -32c-6.66699 -4.66699 -16.334 -8.66699 -29.001 -12s-26.667 -5 -42 -5z" />
    <glyph glyph-name="Wcircumflex" unicode="&#x174;" horiz-adv-x="1104" 
d="M285 0l-243 705h45l235 -686h-30l243 686h39l233 -686h-27l239 686h43l-246 -705h-44l-227 672h20l-238 -672h-42zM407 765l121 170h48l121 -170h-37l-108 132l-108 -132h-37z" />
    <glyph glyph-name="wcircumflex" unicode="&#x175;" horiz-adv-x="857" 
d="M218 0l-176 500h47l167 -486h-27l174 486h53l171 -486h-27l169 486h46l-177 -500h-50l-173 491h30l-176 -491h-51zM295 549l109 200h48l109 -200h-35l-98 161l-98 -161h-35z" />
    <glyph glyph-name="Ycircumflex" unicode="&#x176;" horiz-adv-x="587" 
d="M272 0v326l11 -38l-282 417h49l252 -378h-15l252 378h47l-282 -417l10 38v-326h-42zM149 765l121 170h48l121 -170h-37l-108 132l-108 -132h-37z" />
    <glyph glyph-name="ycircumflex" unicode="&#x177;" horiz-adv-x="520" 
d="M60 -227l-9.99902 39.001c31.333 7.33301 57.166 16.5 77.499 27.5s37.5 25.167 51.5 42.5s26.667 39 38 65l26 60l-1 -21l-218 514h48l201 -484h-23l198 484h48l-233 -554c-12 -28.667 -25 -52.834 -39 -72.501s-29.167 -36.167 -45.5 -49.5s-34.333 -24 -54 -32
s-41.167 -14.333 -64.5 -19zM126.001 549.001l109 200h48l109 -200h-35l-98 161l-98 -161h-35z" />
    <glyph glyph-name="Ydieresis" unicode="&#x178;" horiz-adv-x="587" 
d="M272 0v326l11 -38l-282 417h49l252 -378h-15l252 378h47l-282 -417l10 38v-326h-42zM344 820v60h61v-60h-61zM183 820v60h61v-60h-61z" />
    <glyph glyph-name="Zacute" unicode="&#x179;" horiz-adv-x="585" 
d="M42 0v31l454 658v-23h-454v39h494v-31l-455 -658v23h465v-39h-504zM275 765l118 170h56l-136 -170h-38z" />
    <glyph glyph-name="zacute" unicode="&#x17a;" horiz-adv-x="512" 
d="M51 0v30l359 447l1 -13h-360v36h401v-30l-361 -448l-1 14h374v-36h-413zM233 549l104 200h54l-122 -200h-36z" />
    <glyph glyph-name="Zdotaccent" unicode="&#x17b;" horiz-adv-x="585" 
d="M42 0v31l454 658v-23h-454v39h494v-31l-455 -658v23h465v-39h-504zM263 818v63h62v-63h-62z" />
    <glyph glyph-name="zdotaccent" unicode="&#x17c;" horiz-adv-x="512" 
d="M51 0v30l359 447l1 -13h-360v36h401v-30l-361 -448l-1 14h374v-36h-413zM219 619v63h64v-63h-64z" />
    <glyph glyph-name="Zcaron" unicode="&#x17d;" horiz-adv-x="585" 
d="M42 0v31l454 658v-23h-454v39h494v-31l-455 -658v23h465v-39h-504zM270 765l-121 170h37l108 -132l108 132h37l-121 -170h-48z" />
    <glyph glyph-name="zcaron" unicode="&#x17e;" horiz-adv-x="512" 
d="M51 0v30l359 447l1 -13h-360v36h401v-30l-361 -448l-1 14h374v-36h-413zM227 549l-109 200h35l98 -161l98 161h35l-109 -200h-48z" />
    <glyph glyph-name="uni0181" unicode="&#x181;" horiz-adv-x="778" 
d="M203 0l-0.00195312 666.001h-39c-42.667 0 -74.167 -9.5 -94.5 -28.5s-30.5 -48.5 -30.5 -88.5v-43h-40v45c0 52 14.167 90.667 42.5 116s72.833 38 133.5 38h285c73.333 0 130 -15.833 170 -47.5s60 -77.167 60 -136.5c0 -44.667 -13.667 -81.834 -41 -111.501
s-64.666 -49.167 -111.999 -58.5v14c52.667 -4.66699 94.167 -22.167 124.5 -52.5s45.5 -70.833 45.5 -121.5c0 -62.667 -20.167 -110.167 -60.5 -142.5s-98.166 -48.5 -173.499 -48.5h-270zM244.998 39.001h227c63.333 0 111 12.167 143 36.5s48 61.833 48 112.5
s-15.833 88.167 -47.5 112.5s-79.167 36.5 -142.5 36.5h-228v-298zM244.998 376.001h212c62 0 109 12.5 141 37.5s48 60.833 48 107.5c0 47.333 -16 83.333 -48 108s-79 37 -141 37h-212v-290z" />
    <glyph glyph-name="uni018A" unicode="&#x18a;" horiz-adv-x="839" 
d="M203 0v666h-39c-42.667 0 -74.167 -9.5 -94.5 -28.5s-30.5 -48.5 -30.5 -88.5v-43h-40v45c0 52 13.833 90.667 41.5 116s69.5 38 125.5 38h251c114 0 201.5 -29.833 262.5 -89.5s91.5 -147.167 91.5 -262.5s-30.5 -203 -91.5 -263s-148.5 -90 -262.5 -90h-214zM245 39
h168c105.333 0 183.833 26.167 235.5 78.5s77.5 130.833 77.5 235.5s-25.833 183 -77.5 235s-130.167 78 -235.5 78h-168v-627z" />
    <glyph glyph-name="uni018F" unicode="&#x18f;" horiz-adv-x="736" 
d="M363 -8c-70.667 0 -127.669 14.6729 -171.002 44.0059s-74.833 70.666 -94.5 123.999s-29.5 116 -29.5 188v28h560v-39h-528l12 16c0 -68.667 8 -126.834 24 -174.501s42.333 -83.834 79 -108.501s85.667 -37 147 -37c84.667 0 149.334 28.167 194.001 84.5
s67 135.166 67 236.499s-23.667 179.666 -71 234.999s-115.666 83 -204.999 83c-34 0 -64 -3 -90 -9s-50.167 -15.667 -72.5 -29s-45.166 -30.666 -68.499 -51.999l-21 35c31.333 32 67.333 56 108 72s89.334 24 146.001 24c67.333 0 124.666 -14.333 171.999 -43
s83.666 -69.834 108.999 -123.501s38 -117.834 38 -192.501s-12 -139.167 -36 -193.5s-58.667 -96 -104 -125s-100.333 -43.5 -165 -43.5z" />
    <glyph glyph-name="florin" unicode="&#x192;" horiz-adv-x="600" 
d="M49 -188l-0.000976562 37h39c33.333 0 60.5 8.5 81.5 25.5s36.167 47.5 45.5 91.5l103 485l10 -3h-141v36h146l-10 -12l19 90c10 48.667 28.333 86 55 112s64.667 39 114 39h38v-39h-38c-34 0 -61.333 -8 -82 -24s-35.667 -46.667 -45 -92l-18 -86l-9 12h143v-36h-154
l16 5l-105 -491c-10.667 -48 -29.167 -85 -55.5 -111s-64.166 -39 -113.499 -39h-39z" />
    <glyph glyph-name="Ohorn" unicode="&#x1a0;" horiz-adv-x="759" 
d="M68 353c0 74.667 12.168 138.833 36.501 192.5s59.666 95 105.999 124s102.5 43.5 168.5 43.5c64 0 119.333 -14.5 166 -43.5s82.667 -70.333 108 -124s38 -117.5 38 -191.5c0 -74.667 -12.833 -139 -38.5 -193s-61.834 -95.667 -108.501 -125s-101.667 -44 -165 -44
c-65.333 0 -121.166 14.667 -167.499 44s-81.833 71 -106.5 125s-37 118 -37 192zM113.001 352.999c0 -100.667 22.668 -179.167 68.001 -235.5s111.333 -84.5 198 -84.5c83.333 0 148.666 28 195.999 84s71 134.667 71 236s-23.5 179.833 -70.5 235.5
s-112.5 83.5 -196.5 83.5c-86.667 0 -152.667 -27.833 -198 -83.5s-68 -134.167 -68 -235.5zM489.002 666.999l-54 41.999c19.333 -1.33301 36.166 -2.33301 50.499 -3s28.833 -1 43.5 -1c32.667 0 57.5 4.5 74.5 13.5s28.833 22.5 35.5 40.5s10 40 10 66v12h40v-20
c0 -31.333 -5.66699 -58.166 -17 -80.499s-27.666 -39.5 -48.999 -51.5s-47.333 -18 -78 -18h-56z" />
    <glyph glyph-name="ohorn" unicode="&#x1a1;" horiz-adv-x="553" 
d="M276 -8c-45.333 0 -84.666 10.333 -117.999 31s-59 50.334 -77 89.001s-27 84.667 -27 138s9 99.333 27 138s43.667 68.334 77 89.001s72.666 31 117.999 31s84.666 -10.333 117.999 -31s59.166 -50.334 77.499 -89.001s27.5 -84.667 27.5 -138
s-9.16699 -99.333 -27.5 -138s-44.166 -68.334 -77.499 -89.001s-72.666 -31 -117.999 -31zM276 31c54.667 0 98.334 18.833 131.001 56.5s49 91.834 49 162.501s-16.333 124.834 -49 162.501s-76.334 56.5 -131.001 56.5s-98.167 -18.833 -130.5 -56.5
s-48.5 -91.834 -48.5 -162.501s16.167 -124.834 48.5 -162.501s75.833 -56.5 130.5 -56.5zM339 462l-15 13v25c32 0.666992 56.667 5.5 74 14.5s29.333 22.5 36 40.5s10 39.667 10 65v12h40v-20c0 -31.333 -5.5 -57.833 -16.5 -79.5s-27.333 -38.5 -49 -50.5
s-48.167 -18.667 -79.5 -20z" />
    <glyph glyph-name="Uhorn" unicode="&#x1af;" horiz-adv-x="722" 
d="M361 -8c-91.333 0 -159 23.667 -203 71s-66 116.333 -66 207v435h42v-429c0 -81.333 18.167 -142.166 54.5 -182.499s93.833 -60.5 172.5 -60.5c74 0 130.333 20.167 169 60.5s58 101.166 58 182.499v429h42v-435c0 -90.667 -23 -159.667 -69 -207s-112.667 -71 -200 -71
zM611 667l-15 13v25c32.667 0.666992 57.5 5.5 74.5 14.5s28.833 22.5 35.5 40.5s10 39.667 10 65v12h40v-20c0 -31.333 -5.5 -57.833 -16.5 -79.5s-27.333 -38.5 -49 -50.5s-48.167 -18.667 -79.5 -20z" />
    <glyph glyph-name="uhorn" unicode="&#x1b0;" horiz-adv-x="561" 
d="M262 -8c-58 0 -102.002 15.667 -132.002 47s-45 79.333 -45 144v317h42v-313c0 -54 11 -93.5 33 -118.5s56 -37.5 102 -37.5c51.333 0 92.333 16.5 123 49.5s46 76.833 46 131.5v288h42v-500h-41v122h12c-13.333 -41.333 -36.166 -73.333 -68.499 -96
s-70.166 -34 -113.499 -34zM445.998 462l-15 13v25c32 0.666992 56.667 5.5 74 14.5s29.333 22.5 36 40.5s10 39.667 10 65v12h40v-20c0 -31.333 -5.5 -57.833 -16.5 -79.5s-27.333 -38.5 -49 -50.5s-48.167 -18.667 -79.5 -20z" />
    <glyph glyph-name="uni01B3" unicode="&#x1b3;" horiz-adv-x="587" 
d="M272 0l0.00195312 365.999l11 -38l-282 377h49l252 -338h-14l198 276c17.333 24.667 36.166 42.334 56.499 53.001s42.166 16 65.499 16c10.667 0 19.5 -0.5 26.5 -1.5s14.833 -3.16699 23.5 -6.5v-37c-6.66699 2.66699 -14 4.66699 -22 6s-16.667 2 -26 2
c-18 0 -34.5 -3.83301 -49.5 -11.5s-29.5 -21.167 -43.5 -40.5l-213 -295l10 38v-366h-42z" />
    <glyph glyph-name="uni01B4" unicode="&#x1b4;" horiz-adv-x="554" 
d="M60 -227l-9.99902 39c31.333 7.33301 57.166 16.5 77.499 27.5s37.5 25.167 51.5 42.5s26.667 39 38 65l26 60l-1 -21l-218 514h48l201 -484h-23l159 390c15.333 36.667 33 62.834 53 78.501s46 23.5 78 23.5c10.667 0 19.667 -0.5 27 -1.5s15 -2.83301 23 -5.5l-6 -37
c-6 2 -12.5 3.5 -19.5 4.5s-13.167 1.5 -18.5 1.5c-23.333 0 -42 -6 -56 -18s-28.667 -35.667 -44 -71l-183 -435c-12 -28.667 -25 -52.834 -39 -72.501s-29.167 -36.167 -45.5 -49.5s-34.333 -24 -54 -32s-41.167 -14.333 -64.5 -19z" />
    <glyph glyph-name="uni01C4" unicode="&#x1c4;" horiz-adv-x="1303" 
d="M97 0v705.002h214c76 0 140.333 -13.333 193 -40s92.667 -66.167 120 -118.5s41 -116.833 41 -193.5s-13.667 -141.334 -41 -194.001s-67.333 -92.334 -120 -119.001s-117 -40 -193 -40h-214zM139 39.002h168c105.333 0 183.833 26.167 235.5 78.5
s77.5 130.833 77.5 235.5s-25.833 183 -77.5 235s-130.167 78 -235.5 78h-168v-627zM760 0.00195312v31l454 658v-23h-454v39h494v-31l-455 -658v23h465v-39h-504zM988 765.002l-121 170h37l108 -132l108 132h37l-121 -170h-48z" />
    <glyph glyph-name="uni01C5" unicode="&#x1c5;" horiz-adv-x="1245" 
d="M97 0v705.002h214c76 0 140.333 -13.333 193 -40s92.667 -66.167 120 -118.5s41 -116.833 41 -193.5s-13.667 -141.334 -41 -194.001s-67.333 -92.334 -120 -119.001s-117 -40 -193 -40h-214zM139 39.002h168c105.333 0 183.833 26.167 235.5 78.5
s77.5 130.833 77.5 235.5s-25.833 183 -77.5 235s-130.167 78 -235.5 78h-168v-627zM784 0.00195312v30l359 447l1 -13h-360v36h401v-30l-361 -448l-1 14h374v-36h-413zM960 549.002l-109 200h35l98 -161l98 161h35l-109 -200h-48z" />
    <glyph glyph-name="uni01C6" unicode="&#x1c6;" horiz-adv-x="1095" 
d="M274 -8c-44.667 0 -83.5 10.332 -116.5 30.999s-58.5 50.334 -76.5 89.001s-27 84.667 -27 138c0 54 9 100.167 27 138.5s43.5 67.833 76.5 88.5s71.833 31 116.5 31c47.333 0 88 -12.333 122 -37s56.667 -58.667 68 -102h-11v367h42v-736h-42v131h11
c-11.333 -43.333 -34 -77.333 -68 -102s-74.667 -37 -122 -37zM275 30.999c54 0 97.333 18.833 130 56.5s49 91.834 49 162.501s-16.333 124.834 -49 162.501s-76 56.5 -130 56.5c-54.667 0 -98 -18.833 -130 -56.5s-48 -91.834 -48 -162.501s16 -124.834 48 -162.501
s75.333 -56.5 130 -56.5zM634 -0.000976562v30l359 447l1 -13h-360v36h401v-30l-361 -448l-1 14h374v-36h-413zM810 548.999l-109 200h35l98 -161l98 161h35l-109 -200h-48z" />
    <glyph glyph-name="uni01C7" unicode="&#x1c7;" horiz-adv-x="872" 
d="M97 0v705h42v-666h378v-39h-420zM642 -186c-10.667 0 -21.8311 0.500977 -33.498 1.50098s-23.834 3.16699 -36.501 6.5v39c12.667 -2.66699 24.167 -4.83398 34.5 -6.50098s20.166 -2.5 29.499 -2.5c30.667 0 54.5 10 71.5 30s25.5 51.333 25.5 94v729h42v-731
c0 -33.333 -5 -62 -15 -86s-24.833 -42.333 -44.5 -55s-44.167 -19 -73.5 -19z" />
    <glyph glyph-name="uni01C8" unicode="&#x1c8;" horiz-adv-x="750" 
d="M97 0v705h42v-666h378v-39h-420zM541 -218c-6.66699 0 -16.499 1.16797 -29.499 3.50098s-23.167 4.83301 -30.5 7.5v40c7.33301 -2.66699 16.666 -5.33398 27.999 -8.00098s21.333 -4 30 -4c31.333 0 54 10.333 68 31s21 53 21 97v551h42v-560
c0 -52 -11 -91.333 -33 -118s-54 -40 -96 -40zM617.001 631.001v63h64v-63h-64z" />
    <glyph glyph-name="uni01C9" unicode="&#x1c9;" horiz-adv-x="436" 
d="M88 0v736h42v-736h-42zM227 -218c-6.66699 0 -16.499 1.16797 -29.499 3.50098s-23.167 4.83301 -30.5 7.5v40c7.33301 -2.66699 16.666 -5.33398 27.999 -8.00098s21.333 -4 30 -4c31.333 0 54 10.333 68 31s21 53 21 97v551h42v-560c0 -52 -11 -91.333 -33 -118
s-54 -40 -96 -40zM303.001 631.001v63h64v-63h-64z" />
    <glyph glyph-name="uni01CA" unicode="&#x1ca;" horiz-adv-x="1039" 
d="M97 0v705h36l491 -663h-21v663h39v-705h-35l-491 663h20v-663h-39zM809 -186c-10.667 0 -21.8311 0.500977 -33.498 1.50098s-23.834 3.16699 -36.501 6.5v39c12.667 -2.66699 24.167 -4.83398 34.5 -6.50098s20.166 -2.5 29.499 -2.5c30.667 0 54.5 10 71.5 30
s25.5 51.333 25.5 94v729h42v-731c0 -33.333 -5 -62 -15 -86s-24.833 -42.333 -44.5 -55s-44.167 -19 -73.5 -19z" />
    <glyph glyph-name="uni01CB" unicode="&#x1cb;" horiz-adv-x="957" 
d="M97 0v705h36l491 -663h-21v663h39v-705h-35l-491 663h20v-663h-39zM748 -218c-6.66699 0 -16.499 1.16797 -29.499 3.50098s-23.167 4.83301 -30.5 7.5v40c7.33301 -2.66699 16.666 -5.33398 27.999 -8.00098s21.333 -4 30 -4c31.333 0 54 10.333 68 31s21 53 21 97v551
h42v-560c0 -52 -11 -91.333 -33 -118s-54 -40 -96 -40zM824.001 631.001v63h64v-63h-64z" />
    <glyph glyph-name="uni01CC" unicode="&#x1cc;" horiz-adv-x="788" 
d="M88 0l0.000976562 392c0 17.333 -0.833008 35 -2.5 53s-3.5 36.333 -5.5 55h41l9 -120h-12c14 42 37.5 73.833 70.5 95.5s71.833 32.5 116.5 32.5c59.333 0 104.166 -15.333 134.499 -46s45.5 -78.667 45.5 -144v-318h-42v314c0 54 -11 93.333 -33 118
s-56.667 37 -104 37c-54 0 -96.833 -16.333 -128.5 -49s-47.5 -76.667 -47.5 -132v-288h-42zM579.001 -218c-6.66699 0 -16.499 1.16797 -29.499 3.50098s-23.167 4.83301 -30.5 7.5v40c7.33301 -2.66699 16.666 -5.33398 27.999 -8.00098s21.333 -4 30 -4
c31.333 0 54 10.333 68 31s21 53 21 97v551h42v-560c0 -52 -11 -91.333 -33 -118s-54 -40 -96 -40zM655.002 631.001v63h64v-63h-64z" />
    <glyph glyph-name="uni01CD" unicode="&#x1cd;" horiz-adv-x="721" 
d="M34 0l303 705h41l309 -705h-46l-89 204l23 -9h-437l28 9l-87 -204h-45zM356 649l-179 -421l-22 6h403l-16 -6l-184 421h-2zM334 765l-121 170h37l108 -132l108 132h37l-121 -170h-48z" />
    <glyph glyph-name="uni01CE" unicode="&#x1ce;" horiz-adv-x="583" 
d="M276 -8c-45.333 0 -84.667 10.332 -118 30.999s-59 50.334 -77 89.001s-27 84.667 -27 138c0 54 9.16699 100.167 27.5 138.5s44.166 67.833 77.499 88.5s72.333 31 117 31c47.333 0 87.833 -12.333 121.5 -37s55.834 -58.667 66.501 -102h-12l10 131h41
c-2 -18.667 -3.83301 -37 -5.5 -55s-2.5 -35.667 -2.5 -53v-392h-42v131h11c-10.667 -43.333 -33 -77.333 -67 -102s-74.333 -37 -121 -37zM275.999 30.999c54.667 0 98 18.833 130 56.5s48 91.834 48 162.501s-16 124.834 -48 162.501s-75.333 56.5 -130 56.5
s-98.167 -18.833 -130.5 -56.5s-48.5 -91.834 -48.5 -162.501s16.167 -124.834 48.5 -162.501s75.833 -56.5 130.5 -56.5zM260.999 548.999l-109 200h35l98 -161l98 161h35l-109 -200h-48z" />
    <glyph glyph-name="uni01D4" unicode="&#x1d4;" horiz-adv-x="561" 
d="M262 -8c-58 0 -102.002 15.667 -132.002 47s-45 79.333 -45 144v317h42v-313c0 -54 11 -93.5 33 -118.5s56 -37.5 102 -37.5c51.333 0 92.333 16.5 123 49.5s46 76.833 46 131.5v288h42v-500h-41v122h12c-13.333 -41.333 -36.166 -73.333 -68.499 -96
s-70.166 -34 -113.499 -34zM256.998 550l-109 200h35l98 -161l98 161h35l-109 -200h-48z" />
    <glyph glyph-name="uni01E5" unicode="&#x1e5;" horiz-adv-x="587" 
d="M298 -223c-40.667 0 -78.834 5.83398 -114.501 17.501s-67.834 29.167 -96.501 52.5l20 34c22 -16 42.667 -28.667 62 -38s39.5 -16.166 60.5 -20.499s44.167 -6.5 69.5 -6.5c82.667 0 133.334 35 152.001 105l8 -8h-134v36h139l-8 -6c0.666992 6 1.16699 12 1.5 18
s0.5 12.333 0.5 19v171h11c-10.667 -44 -33.167 -78.333 -67.5 -103s-75.166 -37 -122.499 -37c-46 0 -85.833 10.167 -119.5 30.5s-59.667 49.166 -78 86.499s-27.5 81.333 -27.5 132s9.16699 94.5 27.5 131.5s44.333 65.667 78 86s73.5 30.5 119.5 30.5
c47.333 0 88.166 -12.333 122.499 -37s56.833 -59.334 67.5 -104.001h-17l10 133h41c-2 -18.667 -3.83301 -37 -5.5 -55s-2.5 -35.667 -2.5 -53l4 -405c0 -8 -0.166992 -15.833 -0.5 -23.5s-1.16602 -15.167 -2.49902 -22.5l-6 8h87v-36h-92l8 7
c-9.33301 -47.333 -30.5 -83 -63.5 -107s-76.833 -36 -131.5 -36zM278 50.001c55.333 0 99.166 18.5 131.499 55.5s48.5 88.5 48.5 154.5s-16.167 117.333 -48.5 154s-76.166 55 -131.499 55s-99.333 -18.333 -132 -55s-49 -88 -49 -154s16.333 -117.5 49 -154.5
s76.667 -55.5 132 -55.5z" />
    <glyph glyph-name="Gcaron" unicode="&#x1e6;" horiz-adv-x="723" 
d="M406 -8c-74.667 0 -137.169 14.165 -187.502 42.498s-88 69.5 -113 123.5s-37.5 119 -37.5 195c0 74.667 12.833 138.834 38.5 192.501s62.667 95 111 124s106.5 43.5 174.5 43.5c51.333 0 95.5 -8.16699 132.5 -24.5s70.833 -40.166 101.5 -71.499l-22 -35
c-22 21.333 -43.5 38.5 -64.5 51.5s-43.167 22.667 -66.5 29s-50.666 9.5 -81.999 9.5c-88.667 0 -157.167 -28 -205.5 -84s-72.5 -134.667 -72.5 -236c0 -103.333 23.833 -182.333 71.5 -237s121.5 -82 221.5 -82c38 0 73.5 3.5 106.5 10.5s64.167 17.167 93.5 30.5
l-12 -36v280h-194v39h234v-316c-25.333 -14 -59.166 -25.667 -101.499 -35s-84.5 -14 -126.5 -14zM366.998 764.998l-121 170h37l108 -132l108 132h37l-121 -170h-48z" />
    <glyph glyph-name="gcaron" unicode="&#x1e7;" horiz-adv-x="587" 
d="M298 -223c-40.667 0 -78.832 5.83301 -114.499 17.5s-67.834 29.167 -96.501 52.5l20 34c22 -16 42.667 -28.667 62 -38s39.5 -16.166 60.5 -20.499s44.167 -6.5 69.5 -6.5c52 0 91.5 14.167 118.5 42.5s40.5 68.833 40.5 121.5v171h11
c-10.667 -44 -33.167 -78.333 -67.5 -103s-75.166 -37 -122.499 -37c-46 0 -85.833 10.167 -119.5 30.5s-59.667 49.166 -78 86.499s-27.5 81.333 -27.5 132s9.16699 94.5 27.5 131.5s44.333 65.667 78 86s73.5 30.5 119.5 30.5c47.333 0 88.166 -12.333 122.499 -37
s56.833 -59.334 67.5 -104.001l-11 13l9 120h41c-2 -18.667 -3.83301 -37 -5.5 -55s-2.5 -35.667 -2.5 -53v-405c0 -69.333 -17 -121.666 -51 -156.999s-84.333 -53 -151 -53zM278.002 50c55.333 0 99.166 18.5 131.499 55.5s48.5 88.5 48.5 154.5
s-16.167 117.333 -48.5 154s-76.166 55 -131.499 55s-99.333 -18.333 -132 -55s-49 -88 -49 -154s16.333 -117.5 49 -154.5s76.667 -55.5 132 -55.5zM272.002 549l-109 200h35l98 -161l98 161h35l-109 -200h-48z" />
    <glyph glyph-name="uni01E9" unicode="&#x1e9;" horiz-adv-x="482" 
d="M88 0v736h42v-467h2l259 231h58l-293 -259l3 33l323 -274h-61l-289 245h-2v-245h-42zM224 765l-121 170h37l108 -132l108 132h37l-121 -170h-48z" />
    <glyph glyph-name="uni01EA" unicode="&#x1ea;" horiz-adv-x="759" 
d="M68 353c0 74.667 12.168 138.833 36.501 192.5s59.666 95 105.999 124s102.5 43.5 168.5 43.5c64 0 119.333 -14.5 166 -43.5s82.667 -70.333 108 -124s38 -117.5 38 -191.5c0 -74.667 -12.833 -139 -38.5 -193s-61.834 -95.667 -108.501 -125s-101.667 -44 -165 -44
c-65.333 0 -121.166 14.667 -167.499 44s-81.833 71 -106.5 125s-37 118 -37 192zM113.001 352.999c0 -100.667 22.668 -179.167 68.001 -235.5s111.333 -84.5 198 -84.5c83.333 0 148.666 28 195.999 84s71 134.667 71 236s-23.5 179.833 -70.5 235.5
s-112.5 83.5 -196.5 83.5c-86.667 0 -152.667 -27.833 -198 -83.5s-68 -134.167 -68 -235.5zM419.002 -190.001c-27.333 0 -49.835 8.33496 -67.502 25.002s-26.5 39 -26.5 67c0 25.333 7.83301 49.5 23.5 72.5s37.834 41.833 66.501 56.5l21 -31
c-10 -4 -20.5 -10.333 -31.5 -19s-20.5 -19.334 -28.5 -32.001s-12 -27 -12 -43c0 -20.667 5.83301 -35.834 17.5 -45.501s25.834 -14.5 42.501 -14.5c8.66699 0 17.334 1 26.001 3s17.667 5.33301 27 10l13 -32c-6.66699 -4.66699 -16.334 -8.66699 -29.001 -12
s-26.667 -5 -42 -5z" />
    <glyph glyph-name="uni01EB" unicode="&#x1eb;" horiz-adv-x="553" 
d="M276 -8c-45.333 0 -84.666 10.333 -117.999 31s-59 50.334 -77 89.001s-27 84.667 -27 138s9 99.333 27 138s43.667 68.334 77 89.001s72.666 31 117.999 31s84.666 -10.333 117.999 -31s59.166 -50.334 77.499 -89.001s27.5 -84.667 27.5 -138
s-9.16699 -99.333 -27.5 -138s-44.166 -68.334 -77.499 -89.001s-72.666 -31 -117.999 -31zM276 31c54.667 0 98.334 18.833 131.001 56.5s49 91.834 49 162.501s-16.333 124.834 -49 162.501s-76.334 56.5 -131.001 56.5s-98.167 -18.833 -130.5 -56.5
s-48.5 -91.834 -48.5 -162.501s16.167 -124.834 48.5 -162.501s75.833 -56.5 130.5 -56.5zM315 -190c-27.333 0 -49.835 8.33496 -67.502 25.002s-26.5 39 -26.5 67c0 25.333 7.83301 49.5 23.5 72.5s37.834 41.833 66.501 56.5l21 -31c-10 -4 -20.5 -10.333 -31.5 -19
s-20.5 -19.334 -28.5 -32.001s-12 -27 -12 -43c0 -20.667 5.83301 -35.834 17.5 -45.501s25.834 -14.5 42.501 -14.5c8.66699 0 17.334 1 26.001 3s17.667 5.33301 27 10l13 -32c-6.66699 -4.66699 -16.334 -8.66699 -29.001 -12s-26.667 -5 -42 -5z" />
    <glyph glyph-name="Aringacute" unicode="&#x1fa;" horiz-adv-x="721" 
d="M34 0l303 705h41l309 -705h-46l-89 204l23 -9h-437l28 9l-87 -204h-45zM356 649l-179 -421l-22 6h403l-16 -6l-184 421h-2zM358 760c-20.667 0 -39.498 5 -56.498 15s-30.5 23.333 -40.5 40s-15 35 -15 55c0 20.667 5 39.167 15 55.5s23.5 29.5 40.5 39.5
s35.833 15 56.5 15c13.333 0 25.666 -1.83301 36.999 -5.5s21.666 -9.16699 30.999 -16.5l76 71h61l-113 -95c13.333 -18.667 20 -40 20 -64c0 -20 -5 -38.333 -15 -55s-23.333 -30 -40 -40s-35.667 -15 -57 -15zM358.002 792c23.333 0 42.166 7.5 56.499 22.5
s21.5 33.5 21.5 55.5s-7.16699 40.5 -21.5 55.5s-33.166 22.5 -56.499 22.5c-22.667 0 -41.334 -7.5 -56.001 -22.5s-22 -33.5 -22 -55.5s7.33301 -40.5 22 -55.5s33.334 -22.5 56.001 -22.5z" />
    <glyph glyph-name="aringacute" unicode="&#x1fb;" horiz-adv-x="583" 
d="M276 -8c-45.333 0 -84.667 10.332 -118 30.999s-59 50.334 -77 89.001s-27 84.667 -27 138c0 54 9.16699 100.167 27.5 138.5s44.166 67.833 77.499 88.5s72.333 31 117 31c47.333 0 87.833 -12.333 121.5 -37s55.834 -58.667 66.501 -102h-12l10 131h41
c-2 -18.667 -3.83301 -37 -5.5 -55s-2.5 -35.667 -2.5 -53v-392h-42v131h11c-10.667 -43.333 -33 -77.333 -67 -102s-74.333 -37 -121 -37zM275.999 30.999c54.667 0 98 18.833 130 56.5s48 91.834 48 162.501s-16 124.834 -48 162.501s-75.333 56.5 -130 56.5
s-98.167 -18.833 -130.5 -56.5s-48.5 -91.834 -48.5 -162.501s16.167 -124.834 48.5 -162.501s75.833 -56.5 130.5 -56.5zM284.999 546.999c-20.667 0 -39.498 5 -56.498 15s-30.5 23.333 -40.5 40s-15 35 -15 55c0 20.667 5 39.167 15 55.5s23.5 29.5 40.5 39.5
s35.833 15 56.5 15c13.333 0 25.666 -1.83301 36.999 -5.5s21.666 -9.16699 30.999 -16.5l76 71h61l-113 -95c13.333 -18.667 20 -40 20 -64c0 -20 -5 -38.333 -15 -55s-23.333 -30 -40 -40s-35.667 -15 -57 -15zM285.001 578.999c23.333 0 42.166 7.5 56.499 22.5
s21.5 33.5 21.5 55.5s-7.16699 40.5 -21.5 55.5s-33.166 22.5 -56.499 22.5c-22.667 0 -41.334 -7.5 -56.001 -22.5s-22 -33.5 -22 -55.5s7.33301 -40.5 22 -55.5s33.334 -22.5 56.001 -22.5z" />
    <glyph glyph-name="AEacute" unicode="&#x1fc;" horiz-adv-x="996" 
d="M14 0l423 705h502v-39h-419l20 24l31 -324l-17 11h364v-39h-354l8 10l32 -328l-7 19h342v-39h-376l-19 198l24 -3h-398l19 12l-125 -207h-50zM461 665l-262 -441l-9 10h359l-7 -9l-42 440h-39zM495 765l118 170h56l-136 -170h-38z" />
    <glyph glyph-name="aeacute" unicode="&#x1fd;" horiz-adv-x="890" 
d="M247 -8c-33.333 0 -63.1621 6.5 -89.4951 19.5s-47.166 30.667 -62.499 53s-23 47.833 -23 76.5c0 39.333 9 70 27 92s48.667 37.5 92 46.5s102.666 13.5 177.999 13.5h52v-37h-50c-66.667 0 -118.334 -3.16699 -155.001 -9.5s-62.167 -17.5 -76.5 -33.5
s-21.5 -39 -21.5 -69c0 -34 11.833 -61.5 35.5 -82.5s55.834 -31.5 96.501 -31.5c32 0 60.167 7.5 84.5 22.5s43.5 36 57.5 63s21 58.167 21 93.5v119c0 50 -10.5 86 -31.5 108s-53.167 33 -96.5 33c-32 0 -61.667 -4.33301 -89 -13s-55 -23 -83 -43l-20 36
c25.333 18.667 54.666 33.167 87.999 43.5s67.333 15.5 102 15.5c53.333 0 93.666 -12.167 120.999 -36.5s44 -59.5 50 -105.5h-19c17.333 46 43.5 81.167 78.5 105.5s76.833 36.5 125.5 36.5c62 0 110.833 -20.5 146.5 -61.5s53.5 -96.833 53.5 -167.5v-24h-394v38h372
l-17 -13c0 58.667 -14 105 -42 139s-68.667 51 -122 51c-54.667 0 -98.334 -17.5 -131.001 -52.5s-49 -85.167 -49 -150.5v-7c0 -70.667 16.5 -126.5 49.5 -167.5s79.833 -61.5 140.5 -61.5c30 0 58.5 5.33301 85.5 16s53.167 27.334 78.5 50.001l21 -33
c-20.667 -22.667 -47.834 -40.334 -81.501 -53.001s-67.834 -19 -102.501 -19c-60 0 -109 14.667 -147 44s-63.667 71.666 -77 126.999h19c-8.66699 -53.333 -30.5 -95.166 -65.5 -125.499s-78.167 -45.5 -129.5 -45.5zM418.004 549l104 200h54l-122 -200h-36z" />
    <glyph glyph-name="Oslashacute" unicode="&#x1fe;" horiz-adv-x="759" 
d="M68 353c0 74.667 12.168 138.833 36.501 192.5s59.666 95 105.999 124s102.5 43.5 168.5 43.5c64 0 119.333 -14.5 166 -43.5s82.667 -70.333 108 -124s38 -117.5 38 -191.5c0 -74.667 -12.833 -139 -38.5 -193s-61.834 -95.667 -108.501 -125s-101.667 -44 -165 -44
c-65.333 0 -121.166 14.667 -167.499 44s-81.833 71 -106.5 125s-37 118 -37 192zM113.001 352.999c0 -100.667 22.668 -179.167 68.001 -235.5s111.333 -84.5 198 -84.5c83.333 0 148.666 28 195.999 84s71 134.667 71 236s-23.5 179.833 -70.5 235.5
s-112.5 83.5 -196.5 83.5c-86.667 0 -152.667 -27.833 -198 -83.5s-68 -134.167 -68 -235.5zM221.002 42.999l-46 -78l-33 18l46 79l13 22l324 556l13 22l46 78l33 -18l-46 -79l-13 -22l-324 -556zM360.002 764.999l118 170h56l-136 -170h-38z" />
    <glyph glyph-name="oslashacute" unicode="&#x1ff;" horiz-adv-x="553" 
d="M276 -8c-45.333 0 -84.666 10.333 -117.999 31s-59 50.334 -77 89.001s-27 84.667 -27 138s9 99.333 27 138s43.667 68.334 77 89.001s72.666 31 117.999 31s84.666 -10.333 117.999 -31s59.166 -50.334 77.499 -89.001s27.5 -84.667 27.5 -138
s-9.16699 -99.333 -27.5 -138s-44.166 -68.334 -77.499 -89.001s-72.666 -31 -117.999 -31zM276 31c54.667 0 98.334 18.833 131.001 56.5s49 91.834 49 162.501s-16.333 124.834 -49 162.501s-76.334 56.5 -131.001 56.5s-98.167 -18.833 -130.5 -56.5
s-48.5 -91.834 -48.5 -162.501s16.167 -124.834 48.5 -162.501s75.833 -56.5 130.5 -56.5zM135 -31l-30 19l314 543l30 -19zM258 549l104 200h54l-122 -200h-36z" />
    <glyph glyph-name="uni0200" unicode="&#x200;" horiz-adv-x="721" 
d="M34 0l303 705h41l309 -705h-46l-89 204l23 -9h-437l28 9l-87 -204h-45zM356 649l-179 -421l-22 6h403l-16 -6l-184 421h-2zM399 765l-111 170h52l86 -170h-27zM290 765l-110 170h52l85 -170h-27z" />
    <glyph glyph-name="uni0201" unicode="&#x201;" horiz-adv-x="583" 
d="M276 -8c-45.333 0 -84.667 10.332 -118 30.999s-59 50.334 -77 89.001s-27 84.667 -27 138c0 54 9.16699 100.167 27.5 138.5s44.166 67.833 77.499 88.5s72.333 31 117 31c47.333 0 87.833 -12.333 121.5 -37s55.834 -58.667 66.501 -102h-12l10 131h41
c-2 -18.667 -3.83301 -37 -5.5 -55s-2.5 -35.667 -2.5 -53v-392h-42v131h11c-10.667 -43.333 -33 -77.333 -67 -102s-74.333 -37 -121 -37zM275.999 30.999c54.667 0 98 18.833 130 56.5s48 91.834 48 162.501s-16 124.834 -48 162.501s-75.333 56.5 -130 56.5
s-98.167 -18.833 -130.5 -56.5s-48.5 -91.834 -48.5 -162.501s16.167 -124.834 48.5 -162.501s75.833 -56.5 130.5 -56.5zM325.999 548.999l-79 200h48l58 -200h-27zM216.999 548.999l-79 200h48l58 -200h-27z" />
    <glyph glyph-name="uni0202" unicode="&#x202;" horiz-adv-x="721" 
d="M34 0l303 705h41l309 -705h-46l-89 204l23 -9h-437l28 9l-87 -204h-45zM356 649l-179 -421l-22 6h403l-16 -6l-184 421h-2zM234 760l-33.0049 4c4.66699 52 21.334 92.833 50.001 122.5s64.334 44.5 107.001 44.5s78.334 -14.833 107.001 -44.5
s45.334 -70.5 50.001 -122.5l-33 -4c-2.66699 43.333 -15.167 76.666 -37.5 99.999s-51.166 35 -86.499 35s-64 -11.667 -86 -35s-34.667 -56.666 -38 -99.999z" />
    <glyph glyph-name="uni0203" unicode="&#x203;" horiz-adv-x="583" 
d="M276 -8c-45.333 0 -84.667 10.332 -118 30.999s-59 50.334 -77 89.001s-27 84.667 -27 138c0 54 9.16699 100.167 27.5 138.5s44.166 67.833 77.499 88.5s72.333 31 117 31c47.333 0 87.833 -12.333 121.5 -37s55.834 -58.667 66.501 -102h-12l10 131h41
c-2 -18.667 -3.83301 -37 -5.5 -55s-2.5 -35.667 -2.5 -53v-392h-42v131h11c-10.667 -43.333 -33 -77.333 -67 -102s-74.333 -37 -121 -37zM275.999 30.999c54.667 0 98 18.833 130 56.5s48 91.834 48 162.501s-16 124.834 -48 162.501s-75.333 56.5 -130 56.5
s-98.167 -18.833 -130.5 -56.5s-48.5 -91.834 -48.5 -162.501s16.167 -124.834 48.5 -162.501s75.833 -56.5 130.5 -56.5zM173.999 540.999l-33 4c2.66699 39.333 10 72.833 22 100.5s28.5 49 49.5 64s45.167 22.5 72.5 22.5c28 0 52.333 -7.5 73 -22.5
s37.167 -36.333 49.5 -64s19.5 -61.167 21.5 -100.5l-33 -4c-2.66699 49.333 -13.5 87.5 -32.5 114.5s-45.167 40.5 -78.5 40.5c-32.667 0 -58.667 -13.5 -78 -40.5s-30.333 -65.167 -33 -114.5z" />
    <glyph glyph-name="uni0204" unicode="&#x204;" horiz-adv-x="582" 
d="M97 0v705h428v-39h-386v-289h364v-39h-364v-299h386v-39h-428zM364 765l-111 170h52l86 -170h-27zM255 765l-110 170h52l85 -170h-27z" />
    <glyph glyph-name="uni0205" unicode="&#x205;" horiz-adv-x="541" 
d="M294 -8c-73.333 0 -131.663 22.499 -174.996 67.499s-65 107.833 -65 188.5c0 53.333 9.66699 99.333 29 138s46.5 68.667 81.5 90s75.167 32 120.5 32c43.333 0 80.166 -9.16699 110.499 -27.5s53.666 -44.666 69.999 -78.999s24.5 -75.166 24.5 -122.499v-27h-409v38
h387l-17 -13c0 60 -14 107.167 -42 141.5s-69.667 51.5 -125 51.5c-58.667 0 -104.5 -20 -137.5 -60s-49.5 -92.333 -49.5 -157v-5c0 -70.667 17.333 -124.5 52 -161.5s83 -55.5 145 -55.5c31.333 0 60.666 5 87.999 15s53.666 27 78.999 51l21 -33
c-20.667 -22.667 -48 -40.334 -82 -53.001s-69.333 -19 -106 -19zM326.003 548.999l-79 200h48l58 -200h-27zM217.003 548.999l-79 200h48l58 -200h-27z" />
    <glyph glyph-name="uni0206" unicode="&#x206;" horiz-adv-x="582" 
d="M97 0v705h428v-39h-386v-289h364v-39h-364v-299h386v-39h-428zM199 760l-33.0049 4c4.66699 52 21.334 92.833 50.001 122.5s64.334 44.5 107.001 44.5s78.334 -14.833 107.001 -44.5s45.334 -70.5 50.001 -122.5l-33 -4c-2.66699 43.333 -15.167 76.666 -37.5 99.999
s-51.166 35 -86.499 35s-64 -11.667 -86 -35s-34.667 -56.666 -38 -99.999z" />
    <glyph glyph-name="uni0207" unicode="&#x207;" horiz-adv-x="541" 
d="M294 -8c-73.333 0 -131.663 22.499 -174.996 67.499s-65 107.833 -65 188.5c0 53.333 9.66699 99.333 29 138s46.5 68.667 81.5 90s75.167 32 120.5 32c43.333 0 80.166 -9.16699 110.499 -27.5s53.666 -44.666 69.999 -78.999s24.5 -75.166 24.5 -122.499v-27h-409v38
h387l-17 -13c0 60 -14 107.167 -42 141.5s-69.667 51.5 -125 51.5c-58.667 0 -104.5 -20 -137.5 -60s-49.5 -92.333 -49.5 -157v-5c0 -70.667 17.333 -124.5 52 -161.5s83 -55.5 145 -55.5c31.333 0 60.666 5 87.999 15s53.666 27 78.999 51l21 -33
c-20.667 -22.667 -48 -40.334 -82 -53.001s-69.333 -19 -106 -19zM174.003 540.999l-33 4c2.66699 39.333 10 72.833 22 100.5s28.5 49 49.5 64s45.167 22.5 72.5 22.5c28 0 52.333 -7.5 73 -22.5s37.167 -36.333 49.5 -64s19.5 -61.167 21.5 -100.5l-33 -4
c-2.66699 49.333 -13.5 87.5 -32.5 114.5s-45.167 40.5 -78.5 40.5c-32.667 0 -58.667 -13.5 -78 -40.5s-30.333 -65.167 -33 -114.5z" />
    <glyph glyph-name="uni0208" unicode="&#x208;" horiz-adv-x="236" 
d="M97 0v705h42v-705h-42zM159 765l-111 170h52l86 -170h-27zM50 765l-110 170h52l85 -170h-27z" />
    <glyph glyph-name="uni0209" unicode="&#x209;" horiz-adv-x="218" 
d="M88 0v500h42v-500h-42zM150 549l-79 200h48l58 -200h-27zM41 549l-79 200h48l58 -200h-27z" />
    <glyph glyph-name="uni020A" unicode="&#x20a;" horiz-adv-x="236" 
d="M97 0v705h42v-705h-42zM-6 760l-33.0049 4c4.66699 52 21.334 92.833 50.001 122.5s64.334 44.5 107.001 44.5s78.334 -14.833 107.001 -44.5s45.334 -70.5 50.001 -122.5l-33 -4c-2.66699 43.333 -15.167 76.666 -37.5 99.999s-51.166 35 -86.499 35
s-64 -11.667 -86 -35s-34.667 -56.666 -38 -99.999z" />
    <glyph glyph-name="uni020B" unicode="&#x20b;" horiz-adv-x="218" 
d="M88 0v500h42v-500h-42zM-2 541l-33 4c2.66699 39.333 10 72.833 22 100.5s28.5 49 49.5 64s45.167 22.5 72.5 22.5c28 0 52.333 -7.5 73 -22.5s37.167 -36.333 49.5 -64s19.5 -61.167 21.5 -100.5l-33 -4c-2.66699 49.333 -13.5 87.5 -32.5 114.5
s-45.167 40.5 -78.5 40.5c-32.667 0 -58.667 -13.5 -78 -40.5s-30.333 -65.167 -33 -114.5z" />
    <glyph glyph-name="uni020C" unicode="&#x20c;" horiz-adv-x="759" 
d="M68 353c0 74.667 12.168 138.833 36.501 192.5s59.666 95 105.999 124s102.5 43.5 168.5 43.5c64 0 119.333 -14.5 166 -43.5s82.667 -70.333 108 -124s38 -117.5 38 -191.5c0 -74.667 -12.833 -139 -38.5 -193s-61.834 -95.667 -108.501 -125s-101.667 -44 -165 -44
c-65.333 0 -121.166 14.667 -167.499 44s-81.833 71 -106.5 125s-37 118 -37 192zM113.001 352.999c0 -100.667 22.668 -179.167 68.001 -235.5s111.333 -84.5 198 -84.5c83.333 0 148.666 28 195.999 84s71 134.667 71 236s-23.5 179.833 -70.5 235.5
s-112.5 83.5 -196.5 83.5c-86.667 0 -152.667 -27.833 -198 -83.5s-68 -134.167 -68 -235.5zM420.002 764.999l-111 170h52l86 -170h-27zM311.002 764.999l-110 170h52l85 -170h-27z" />
    <glyph glyph-name="uni020D" unicode="&#x20d;" horiz-adv-x="553" 
d="M276 -8c-45.333 0 -84.666 10.333 -117.999 31s-59 50.334 -77 89.001s-27 84.667 -27 138s9 99.333 27 138s43.667 68.334 77 89.001s72.666 31 117.999 31s84.666 -10.333 117.999 -31s59.166 -50.334 77.499 -89.001s27.5 -84.667 27.5 -138
s-9.16699 -99.333 -27.5 -138s-44.166 -68.334 -77.499 -89.001s-72.666 -31 -117.999 -31zM276 31c54.667 0 98.334 18.833 131.001 56.5s49 91.834 49 162.501s-16.333 124.834 -49 162.501s-76.334 56.5 -131.001 56.5s-98.167 -18.833 -130.5 -56.5
s-48.5 -91.834 -48.5 -162.501s16.167 -124.834 48.5 -162.501s75.833 -56.5 130.5 -56.5zM318 549l-79 200h48l58 -200h-27zM209 549l-79 200h48l58 -200h-27z" />
    <glyph glyph-name="uni020E" unicode="&#x20e;" horiz-adv-x="759" 
d="M68 353c0 74.667 12.168 138.833 36.501 192.5s59.666 95 105.999 124s102.5 43.5 168.5 43.5c64 0 119.333 -14.5 166 -43.5s82.667 -70.333 108 -124s38 -117.5 38 -191.5c0 -74.667 -12.833 -139 -38.5 -193s-61.834 -95.667 -108.501 -125s-101.667 -44 -165 -44
c-65.333 0 -121.166 14.667 -167.499 44s-81.833 71 -106.5 125s-37 118 -37 192zM113.001 352.999c0 -100.667 22.668 -179.167 68.001 -235.5s111.333 -84.5 198 -84.5c83.333 0 148.666 28 195.999 84s71 134.667 71 236s-23.5 179.833 -70.5 235.5
s-112.5 83.5 -196.5 83.5c-86.667 0 -152.667 -27.833 -198 -83.5s-68 -134.167 -68 -235.5zM255.002 759.999l-33.0049 4c4.66699 52 21.334 92.833 50.001 122.5s64.334 44.5 107.001 44.5s78.334 -14.833 107.001 -44.5s45.334 -70.5 50.001 -122.5l-33 -4
c-2.66699 43.333 -15.167 76.666 -37.5 99.999s-51.166 35 -86.499 35s-64 -11.667 -86 -35s-34.667 -56.666 -38 -99.999z" />
    <glyph glyph-name="uni020F" unicode="&#x20f;" horiz-adv-x="553" 
d="M276 -8c-45.333 0 -84.666 10.333 -117.999 31s-59 50.334 -77 89.001s-27 84.667 -27 138s9 99.333 27 138s43.667 68.334 77 89.001s72.666 31 117.999 31s84.666 -10.333 117.999 -31s59.166 -50.334 77.499 -89.001s27.5 -84.667 27.5 -138
s-9.16699 -99.333 -27.5 -138s-44.166 -68.334 -77.499 -89.001s-72.666 -31 -117.999 -31zM276 31c54.667 0 98.334 18.833 131.001 56.5s49 91.834 49 162.501s-16.333 124.834 -49 162.501s-76.334 56.5 -131.001 56.5s-98.167 -18.833 -130.5 -56.5
s-48.5 -91.834 -48.5 -162.501s16.167 -124.834 48.5 -162.501s75.833 -56.5 130.5 -56.5zM166 541l-33 4c2.66699 39.333 10 72.833 22 100.5s28.5 49 49.5 64s45.167 22.5 72.5 22.5c28 0 52.333 -7.5 73 -22.5s37.167 -36.333 49.5 -64s19.5 -61.167 21.5 -100.5l-33 -4
c-2.66699 49.333 -13.5 87.5 -32.5 114.5s-45.167 40.5 -78.5 40.5c-32.667 0 -58.667 -13.5 -78 -40.5s-30.333 -65.167 -33 -114.5z" />
    <glyph glyph-name="uni0210" unicode="&#x210;" horiz-adv-x="684" 
d="M97 0l0.00195312 705h270c71.333 0 126.666 -16.667 165.999 -50s59 -80.333 59 -141c0 -39.333 -9 -72.833 -27 -100.5s-42.5 -48.667 -73.5 -63s-66.5 -21.5 -106.5 -21.5l21 8h8c26.667 0 50.5 -6.16699 71.5 -18.5s37.833 -34.5 50.5 -66.5l97 -252h-47l-88 236
c-13.333 36.667 -32.833 60.167 -58.5 70.5s-58.834 15.5 -99.501 15.5h-201v-322h-42zM139.002 361l224 0.000976562c60 0 105.667 13.167 137 39.5s47 64.166 47 113.499s-15.667 87 -47 113s-77 39 -137 39h-224v-305zM379.002 765.001l-111 170h52l86 -170h-27z
M270.002 765.001l-110 170h52l85 -170h-27z" />
    <glyph glyph-name="uni0211" unicode="&#x211;" horiz-adv-x="336" 
d="M86 0v386c0 18.667 -0.5 37.667 -1.5 57s-2.5 38.333 -4.5 57h41l6 -109l-9 -1c6.66699 26.667 18.834 48.667 36.501 66s38 30.333 61 39s45.833 13 68.5 13c8 0 15.833 -0.333008 23.5 -1s14.834 -2 21.501 -4l-2 -39c-6.66699 2 -13.834 3.33301 -21.501 4
s-15.834 1 -24.501 1c-30.667 0 -57.5 -7.83301 -80.5 -23.5s-40.833 -35 -53.5 -58s-19 -45.5 -19 -67.5v-320h-42zM249 549l-79 200h48l58 -200h-27zM140 549l-79 200h48l58 -200h-27z" />
    <glyph glyph-name="uni0212" unicode="&#x212;" horiz-adv-x="684" 
d="M97 0l0.00195312 705h270c71.333 0 126.666 -16.667 165.999 -50s59 -80.333 59 -141c0 -39.333 -9 -72.833 -27 -100.5s-42.5 -48.667 -73.5 -63s-66.5 -21.5 -106.5 -21.5l21 8h8c26.667 0 50.5 -6.16699 71.5 -18.5s37.833 -34.5 50.5 -66.5l97 -252h-47l-88 236
c-13.333 36.667 -32.833 60.167 -58.5 70.5s-58.834 15.5 -99.501 15.5h-201v-322h-42zM139.002 361l224 0.000976562c60 0 105.667 13.167 137 39.5s47 64.166 47 113.499s-15.667 87 -47 113s-77 39 -137 39h-224v-305zM214.002 760.001l-33.0049 4
c4.66699 52 21.334 92.833 50.001 122.5s64.334 44.5 107.001 44.5s78.334 -14.833 107.001 -44.5s45.334 -70.5 50.001 -122.5l-33 -4c-2.66699 43.333 -15.167 76.666 -37.5 99.999s-51.166 35 -86.499 35s-64 -11.667 -86 -35s-34.667 -56.666 -38 -99.999z" />
    <glyph glyph-name="uni0213" unicode="&#x213;" horiz-adv-x="336" 
d="M86 0v386c0 18.667 -0.5 37.667 -1.5 57s-2.5 38.333 -4.5 57h41l6 -109l-9 -1c6.66699 26.667 18.834 48.667 36.501 66s38 30.333 61 39s45.833 13 68.5 13c8 0 15.833 -0.333008 23.5 -1s14.834 -2 21.501 -4l-2 -39c-6.66699 2 -13.834 3.33301 -21.501 4
s-15.834 1 -24.501 1c-30.667 0 -57.5 -7.83301 -80.5 -23.5s-40.833 -35 -53.5 -58s-19 -45.5 -19 -67.5v-320h-42zM97 541l-33 4c2.66699 39.333 10 72.833 22 100.5s28.5 49 49.5 64s45.167 22.5 72.5 22.5c28 0 52.333 -7.5 73 -22.5s37.167 -36.333 49.5 -64
s19.5 -61.167 21.5 -100.5l-33 -4c-2.66699 49.333 -13.5 87.5 -32.5 114.5s-45.167 40.5 -78.5 40.5c-32.667 0 -58.667 -13.5 -78 -40.5s-30.333 -65.167 -33 -114.5z" />
    <glyph glyph-name="uni0214" unicode="&#x214;" horiz-adv-x="722" 
d="M361 -8c-91.333 0 -159 23.667 -203 71s-66 116.333 -66 207v435h42v-429c0 -81.333 18.167 -142.166 54.5 -182.499s93.833 -60.5 172.5 -60.5c74 0 130.333 20.167 169 60.5s58 101.166 58 182.499v429h42v-435c0 -90.667 -23 -159.667 -69 -207s-112.667 -71 -200 -71
zM402 765l-111 170h52l86 -170h-27zM293 765l-110 170h52l85 -170h-27z" />
    <glyph glyph-name="uni0215" unicode="&#x215;" horiz-adv-x="561" 
d="M262 -8c-58 0 -102.002 15.667 -132.002 47s-45 79.333 -45 144v317h42v-313c0 -54 11 -93.5 33 -118.5s56 -37.5 102 -37.5c51.333 0 92.333 16.5 123 49.5s46 76.833 46 131.5v288h42v-500h-41v122h12c-13.333 -41.333 -36.166 -73.333 -68.499 -96
s-70.166 -34 -113.499 -34zM321.998 550l-79 200h48l58 -200h-27zM212.998 550l-79 200h48l58 -200h-27z" />
    <glyph glyph-name="uni0216" unicode="&#x216;" horiz-adv-x="722" 
d="M361 -8c-91.333 0 -159 23.667 -203 71s-66 116.333 -66 207v435h42v-429c0 -81.333 18.167 -142.166 54.5 -182.499s93.833 -60.5 172.5 -60.5c74 0 130.333 20.167 169 60.5s58 101.166 58 182.499v429h42v-435c0 -90.667 -23 -159.667 -69 -207s-112.667 -71 -200 -71
zM237 760l-33.0049 4c4.66699 52 21.334 92.833 50.001 122.5s64.334 44.5 107.001 44.5s78.334 -14.833 107.001 -44.5s45.334 -70.5 50.001 -122.5l-33 -4c-2.66699 43.333 -15.167 76.666 -37.5 99.999s-51.166 35 -86.499 35s-64 -11.667 -86 -35
s-34.667 -56.666 -38 -99.999z" />
    <glyph glyph-name="uni0217" unicode="&#x217;" horiz-adv-x="561" 
d="M262 -8c-58 0 -102.002 15.667 -132.002 47s-45 79.333 -45 144v317h42v-313c0 -54 11 -93.5 33 -118.5s56 -37.5 102 -37.5c51.333 0 92.333 16.5 123 49.5s46 76.833 46 131.5v288h42v-500h-41v122h12c-13.333 -41.333 -36.166 -73.333 -68.499 -96
s-70.166 -34 -113.499 -34zM169.998 542l-33 4c2.66699 39.333 10 72.833 22 100.5s28.5 49 49.5 64s45.167 22.5 72.5 22.5c28 0 52.333 -7.5 73 -22.5s37.167 -36.333 49.5 -64s19.5 -61.167 21.5 -100.5l-33 -4c-2.66699 49.333 -13.5 87.5 -32.5 114.5
s-45.167 40.5 -78.5 40.5c-32.667 0 -58.667 -13.5 -78 -40.5s-30.333 -65.167 -33 -114.5z" />
    <glyph glyph-name="uni0218" unicode="&#x218;" horiz-adv-x="604" 
d="M313 -8c-56.667 0 -106.003 7.5 -148.003 22.5s-79.667 36.833 -113 65.5l21 36c24.667 -19.333 48.334 -35.166 71.001 -47.499s47.5 -21.333 74.5 -27s58.167 -8.5 93.5 -8.5c65.333 0 114.833 13.167 148.5 39.5s50.5 61.5 50.5 105.5c0 37.333 -11.833 66 -35.5 86
s-64.167 35.667 -121.5 47l-99 20c-64.667 13.333 -112.667 34.333 -144 63s-47 68.334 -47 119.001c0 40 10.333 75 31 105s49.334 53.333 86.001 70s79.334 25 128.001 25c49.333 0 94.333 -7.66699 135 -23s75.667 -38.333 105 -69l-20 -36
c-32.667 31.333 -66.334 53.666 -101.001 66.999s-74.334 20 -119.001 20c-61.333 0 -110.166 -14.333 -146.499 -43s-54.5 -67.334 -54.5 -116.001c0 -39.333 11.667 -69.833 35 -91.5s61 -37.834 113 -48.501l100 -20c69.333 -14 119.833 -34.167 151.5 -60.5
s47.5 -64.166 47.5 -113.499c0 -36.667 -9.66699 -69.167 -29 -97.5s-47.166 -50.333 -83.499 -66s-79.5 -23.5 -129.5 -23.5zM306.997 -259l-26 19.999c15.333 17.333 25.5 33.333 30.5 48s7.5 30.334 7.5 47.001l15 -7h-50v65h70v-54c0 -22.667 -4 -44.167 -12 -64.5
s-19.667 -38.5 -35 -54.5z" />
    <glyph glyph-name="uni0219" unicode="&#x219;" horiz-adv-x="492" 
d="M244 -8c-37.333 0 -72.498 5.83691 -105.498 17.5039s-59.833 27.834 -80.5 48.501l21 33c24 -20.667 50 -35.834 78 -45.501s57.667 -14.5 89 -14.5c45.333 0 80 8.66699 104 26s36 41 36 71c0 23.333 -7.66699 42.166 -23 56.499s-40.666 25.166 -75.999 32.499l-87 19
c-42.667 10 -74.334 26 -95.001 48s-31 49.333 -31 82c0 27.333 7.16699 51.666 21.5 72.999s35 38.166 62 50.499s58.833 18.5 95.5 18.5c35.333 0 67.833 -6 97.5 -18s53.5 -28.667 71.5 -50l-22 -33c-20 20.667 -42.333 36.167 -67 46.5s-51.334 15.5 -80.001 15.5
c-43.333 0 -76.5 -9.33301 -99.5 -28s-34.5 -43.334 -34.5 -74.001c0 -23.333 7.16699 -42.333 21.5 -57s37.166 -25.667 68.499 -33l87 -20c45.333 -10.667 79 -26.167 101 -46.5s33 -47.166 33 -80.499c0 -28 -7.66699 -52.333 -23 -73s-37 -36.667 -65 -48
s-60.667 -17 -98 -17zM232.002 -258.996l-26 19.999c15.333 17.333 25.5 33.333 30.5 48s7.5 30.334 7.5 47.001l15 -7h-50v65h70v-54c0 -22.667 -4 -44.167 -12 -64.5s-19.667 -38.5 -35 -54.5z" />
    <glyph glyph-name="uni021A" unicode="&#x21a;" horiz-adv-x="590" 
d="M272 0v666h-262v39h566v-39h-262v-666h-42zM283 -259l-26 19.999c15.333 17.333 25.5 33.333 30.5 48s7.5 30.334 7.5 47.001l15 -7h-50v65h70v-54c0 -22.667 -4 -44.167 -12 -64.5s-19.667 -38.5 -35 -54.5z" />
    <glyph glyph-name="uni021B" unicode="&#x21b;" horiz-adv-x="324" 
d="M234 -8c-40.667 0 -71.835 12.8311 -93.502 38.498s-32.5 64.834 -32.5 117.501v316h-100v36h100v143l42 16v-159h152v-36h-152v-307c0 -44 6.83301 -76 20.5 -96s35.834 -30 66.501 -30c13.333 0 25.333 1.33301 36 4s19.667 5.66699 27 9v-40
c-7.33301 -3.33301 -17.166 -6.16602 -29.499 -8.49902s-24.5 -3.5 -36.5 -3.5zM198.999 -259.002l-26 19.999c15.333 17.333 25.5 33.333 30.5 48s7.5 30.334 7.5 47.001l15 -7h-50v65h70v-54c0 -22.667 -4 -44.167 -12 -64.5s-19.667 -38.5 -35 -54.5z" />
    <glyph glyph-name="uni021F" unicode="&#x21f;" horiz-adv-x="570" 
d="M88 0l-0.000976562 736h42v-357h-12c13.333 42.667 37 74.834 71 96.501s73.333 32.5 118 32.5c60.667 0 105.5 -15.667 134.5 -47s43.5 -78.333 43.5 -141v-320h-42v316c0 53.333 -10.667 92.166 -32 116.499s-56 36.5 -104 36.5
c-53.333 0 -96.166 -16.333 -128.499 -49s-48.5 -76 -48.5 -130v-290h-42zM265.999 765l-121 170h37l108 -132l108 132h37l-121 -170h-48z" />
    <glyph glyph-name="uni0226" unicode="&#x226;" horiz-adv-x="721" 
d="M34 0l303 705h41l309 -705h-46l-89 204l23 -9h-437l28 9l-87 -204h-45zM356 649l-179 -421l-22 6h403l-16 -6l-184 421h-2zM327 818v63h62v-63h-62z" />
    <glyph glyph-name="uni0227" unicode="&#x227;" horiz-adv-x="583" 
d="M276 -8c-45.333 0 -84.667 10.332 -118 30.999s-59 50.334 -77 89.001s-27 84.667 -27 138c0 54 9.16699 100.167 27.5 138.5s44.166 67.833 77.499 88.5s72.333 31 117 31c47.333 0 87.833 -12.333 121.5 -37s55.834 -58.667 66.501 -102h-12l10 131h41
c-2 -18.667 -3.83301 -37 -5.5 -55s-2.5 -35.667 -2.5 -53v-392h-42v131h11c-10.667 -43.333 -33 -77.333 -67 -102s-74.333 -37 -121 -37zM275.999 30.999c54.667 0 98 18.833 130 56.5s48 91.834 48 162.501s-16 124.834 -48 162.501s-75.333 56.5 -130 56.5
s-98.167 -18.833 -130.5 -56.5s-48.5 -91.834 -48.5 -162.501s16.167 -124.834 48.5 -162.501s75.833 -56.5 130.5 -56.5zM252.999 618.999v63h64v-63h-64z" />
    <glyph glyph-name="uni0228" unicode="&#x228;" horiz-adv-x="582" 
d="M97 0v705h428v-39h-386v-289h364v-39h-364v-299h386v-39h-428zM328 -190c-15.333 0 -29.833 1.66797 -43.5 5.00098s-25.167 7.66602 -34.5 12.999l9 34c12.667 -6 24 -10.167 34 -12.5s23 -3.5 39 -3.5c18 0 32.833 3.66699 44.5 11s17.5 18 17.5 32
c0 21.333 -13 32 -39 32c-7.33301 0 -14.833 -0.666992 -22.5 -2s-17.167 -4 -28.5 -8l-15 13l15 96h38l-13 -75l-18 2c8 2 15.833 3.66699 23.5 5s14.834 2 21.501 2c21.333 0 39.666 -5.66699 54.999 -17s23 -27.333 23 -48c0 -23.333 -9.83301 -42.333 -29.5 -57
s-45.167 -22 -76.5 -22z" />
    <glyph glyph-name="uni022A" unicode="&#x22a;" horiz-adv-x="759" 
d="M68 353c0 74.667 12.168 138.833 36.501 192.5s59.666 95 105.999 124s102.5 43.5 168.5 43.5c64 0 119.333 -14.5 166 -43.5s82.667 -70.333 108 -124s38 -117.5 38 -191.5c0 -74.667 -12.833 -139 -38.5 -193s-61.834 -95.667 -108.501 -125s-101.667 -44 -165 -44
c-65.333 0 -121.166 14.667 -167.499 44s-81.833 71 -106.5 125s-37 118 -37 192zM113.001 352.999c0 -100.667 22.668 -179.167 68.001 -235.5s111.333 -84.5 198 -84.5c83.333 0 148.666 28 195.999 84s71 134.667 71 236s-23.5 179.833 -70.5 235.5
s-112.5 83.5 -196.5 83.5c-86.667 0 -152.667 -27.833 -198 -83.5s-68 -134.167 -68 -235.5zM239.002 926.999v38h280v-38h-280zM268.002 805.999v60h61v-60h-61zM429.002 805.999v60h61v-60h-61z" />
    <glyph glyph-name="uni022B" unicode="&#x22b;" horiz-adv-x="553" 
d="M276 -8c-45.333 0 -84.666 10.333 -117.999 31s-59 50.334 -77 89.001s-27 84.667 -27 138s9 99.333 27 138s43.667 68.334 77 89.001s72.666 31 117.999 31s84.666 -10.333 117.999 -31s59.166 -50.334 77.499 -89.001s27.5 -84.667 27.5 -138
s-9.16699 -99.333 -27.5 -138s-44.166 -68.334 -77.499 -89.001s-72.666 -31 -117.999 -31zM276 31c54.667 0 98.334 18.833 131.001 56.5s49 91.834 49 162.501s-16.333 124.834 -49 162.501s-76.334 56.5 -131.001 56.5s-98.167 -18.833 -130.5 -56.5
s-48.5 -91.834 -48.5 -162.501s16.167 -124.834 48.5 -162.501s75.833 -56.5 130.5 -56.5zM137 706v38h280v-38h-280zM166 585v60h61v-60h-61zM327 585v60h61v-60h-61z" />
    <glyph glyph-name="uni022C" unicode="&#x22c;" horiz-adv-x="759" 
d="M68 353c0 74.667 12.168 138.833 36.501 192.5s59.666 95 105.999 124s102.5 43.5 168.5 43.5c64 0 119.333 -14.5 166 -43.5s82.667 -70.333 108 -124s38 -117.5 38 -191.5c0 -74.667 -12.833 -139 -38.5 -193s-61.834 -95.667 -108.501 -125s-101.667 -44 -165 -44
c-65.333 0 -121.166 14.667 -167.499 44s-81.833 71 -106.5 125s-37 118 -37 192zM113.001 352.999c0 -100.667 22.668 -179.167 68.001 -235.5s111.333 -84.5 198 -84.5c83.333 0 148.666 28 195.999 84s71 134.667 71 236s-23.5 179.833 -70.5 235.5
s-112.5 83.5 -196.5 83.5c-86.667 0 -152.667 -27.833 -198 -83.5s-68 -134.167 -68 -235.5zM239.002 926.999v38h280v-38h-280zM443.002 767.999c-12 0 -23.4951 2.66699 -34.4951 8s-24.167 14 -39.5 26c-13.333 11.333 -23.833 18.5 -31.5 21.5s-14.834 4.5 -21.501 4.5
c-14.667 0 -25.834 -4.83301 -33.501 -14.5s-13.167 -25.5 -16.5 -47.5l-33 2c3.33301 32 12.333 56 27 72s33.334 24 56.001 24c11.333 0 22 -2.33301 32 -7s22.333 -12.667 37 -24s26 -19 34 -23s15.667 -6 23 -6c15.333 0 26.666 4.83301 33.999 14.5
s12.666 25.5 15.999 47.5l33 -2c-2.66699 -32 -11.334 -56 -26.001 -72s-33.334 -24 -56.001 -24z" />
    <glyph glyph-name="uni022D" unicode="&#x22d;" horiz-adv-x="553" 
d="M276 -8c-45.333 0 -84.666 10.333 -117.999 31s-59 50.334 -77 89.001s-27 84.667 -27 138s9 99.333 27 138s43.667 68.334 77 89.001s72.666 31 117.999 31s84.666 -10.333 117.999 -31s59.166 -50.334 77.499 -89.001s27.5 -84.667 27.5 -138
s-9.16699 -99.333 -27.5 -138s-44.166 -68.334 -77.499 -89.001s-72.666 -31 -117.999 -31zM276 31c54.667 0 98.334 18.833 131.001 56.5s49 91.834 49 162.501s-16.333 124.834 -49 162.501s-76.334 56.5 -131.001 56.5s-98.167 -18.833 -130.5 -56.5
s-48.5 -91.834 -48.5 -162.501s16.167 -124.834 48.5 -162.501s75.833 -56.5 130.5 -56.5zM137 706v38h280v-38h-280zM164 545l-32.9971 2.00195c3.33301 32 12.333 56 27 72s33.334 24 56.001 24c11.333 0 22.5 -2.5 33.5 -7.5s23.833 -13.5 38.5 -25.5
c12.667 -10 22.834 -17 30.501 -21s15.5 -6 23.5 -6c15.333 0 26.666 4.83301 33.999 14.5s12.666 25.5 15.999 47.5l33 -2c-2.66699 -32 -11.334 -56 -26.001 -72s-33.334 -24 -56.001 -24c-12 0 -23.5 2.66699 -34.5 8s-23.833 13.666 -38.5 24.999
c-12 9.33301 -22 16.166 -30 20.499s-16 6.5 -24 6.5c-14.667 0 -25.834 -4.83301 -33.501 -14.5s-13.167 -25.5 -16.5 -47.5z" />
    <glyph glyph-name="uni0230" unicode="&#x230;" horiz-adv-x="759" 
d="M68 353c0 74.667 12.168 138.833 36.501 192.5s59.666 95 105.999 124s102.5 43.5 168.5 43.5c64 0 119.333 -14.5 166 -43.5s82.667 -70.333 108 -124s38 -117.5 38 -191.5c0 -74.667 -12.833 -139 -38.5 -193s-61.834 -95.667 -108.501 -125s-101.667 -44 -165 -44
c-65.333 0 -121.166 14.667 -167.499 44s-81.833 71 -106.5 125s-37 118 -37 192zM113.001 352.999c0 -100.667 22.668 -179.167 68.001 -235.5s111.333 -84.5 198 -84.5c83.333 0 148.666 28 195.999 84s71 134.667 71 236s-23.5 179.833 -70.5 235.5
s-112.5 83.5 -196.5 83.5c-86.667 0 -152.667 -27.833 -198 -83.5s-68 -134.167 -68 -235.5zM239.002 926.999v38h280v-38h-280zM349.002 805.999v60h61v-60h-61z" />
    <glyph glyph-name="uni0231" unicode="&#x231;" horiz-adv-x="553" 
d="M276 -8c-45.333 0 -84.666 10.333 -117.999 31s-59 50.334 -77 89.001s-27 84.667 -27 138s9 99.333 27 138s43.667 68.334 77 89.001s72.666 31 117.999 31s84.666 -10.333 117.999 -31s59.166 -50.334 77.499 -89.001s27.5 -84.667 27.5 -138
s-9.16699 -99.333 -27.5 -138s-44.166 -68.334 -77.499 -89.001s-72.666 -31 -117.999 -31zM276 31c54.667 0 98.334 18.833 131.001 56.5s49 91.834 49 162.501s-16.333 124.834 -49 162.501s-76.334 56.5 -131.001 56.5s-98.167 -18.833 -130.5 -56.5
s-48.5 -91.834 -48.5 -162.501s16.167 -124.834 48.5 -162.501s75.833 -56.5 130.5 -56.5zM137 706v38h280v-38h-280zM247 585v60h61v-60h-61z" />
    <glyph glyph-name="uni0232" unicode="&#x232;" horiz-adv-x="587" 
d="M272 0v326l11 -38l-282 417h49l252 -378h-15l252 378h47l-282 -417l10 38v-326h-42zM139 822v38h310v-38h-310z" />
    <glyph glyph-name="uni0233" unicode="&#x233;" horiz-adv-x="520" 
d="M60 -227l-9.99902 39.001c31.333 7.33301 57.166 16.5 77.499 27.5s37.5 25.167 51.5 42.5s26.667 39 38 65l26 60l-1 -21l-218 514h48l201 -484h-23l198 484h48l-233 -554c-12 -28.667 -25 -52.834 -39 -72.501s-29.167 -36.167 -45.5 -49.5s-34.333 -24 -54 -32
s-41.167 -14.333 -64.5 -19zM119.001 633.001v38h280v-38h-280z" />
    <glyph glyph-name="uni0237" unicode="&#x237;" horiz-adv-x="218" 
d="M9 -218c-6.66699 0 -16.499 1.16797 -29.499 3.50098s-23.167 4.83301 -30.5 7.5v40c7.33301 -2.66699 16.666 -5.33398 27.999 -8.00098s21.333 -4 30 -4c31.333 0 54 10.333 68 31s21 53 21 97v551h42v-560c0 -52 -11 -91.333 -33 -118s-54 -40 -96 -40z" />
    <glyph glyph-name="uni0253" unicode="&#x253;" horiz-adv-x="583" 
d="M309 -8c-48 0 -88.834 12.334 -122.501 37.001s-56.167 58.667 -67.5 102h11v-131h-42v594c0 49.333 12.667 86.666 38 111.999s61.333 38 108 38c9.33301 0 17.833 -0.5 25.5 -1.5s15.167 -2.83301 22.5 -5.5l-6 -37c-8.66699 2.66699 -15.667 4.33398 -21 5.00098
s-11.666 1 -18.999 1c-34.667 0 -61 -9.5 -79 -28.5s-27 -46.167 -27 -81.5v-227h-11c11.333 43.333 33.833 77.333 67.5 102s74.5 37 122.5 37c45.333 0 84.333 -10.333 117 -31s58 -50.167 76 -88.5s27 -84.5 27 -138.5c0 -53.333 -9 -99.333 -27 -138
s-43.5 -68.334 -76.5 -89.001s-71.833 -31 -116.5 -31zM307.999 31.001c54.667 0 98 18.833 130 56.5s48 91.834 48 162.501s-16 124.834 -48 162.501s-75.333 56.5 -130 56.5s-98.167 -18.833 -130.5 -56.5s-48.5 -91.834 -48.5 -162.501s16.167 -124.834 48.5 -162.501
s75.833 -56.5 130.5 -56.5z" />
    <glyph glyph-name="uni0257" unicode="&#x257;" horiz-adv-x="583" 
d="M274 -8c-44.667 0 -83.5 10.332 -116.5 30.999s-58.5 50.334 -76.5 89.001s-27 84.667 -27 138c0 54 9 100.167 27 138.5s43.5 67.833 76.5 88.5s71.833 31 116.5 31c48 0 88.833 -12.333 122.5 -37s56.167 -58.667 67.5 -102h-11v225c0 32.667 5.5 60.167 16.5 82.5
s27.5 39.166 49.5 50.499s48.667 17 80 17c9.33301 0 17.666 -0.5 24.999 -1.5s15 -2.83301 23 -5.5l-6 -37c-9.33301 2.66699 -16.666 4.33398 -21.999 5.00098s-11.333 1 -18 1c-35.333 0 -61.833 -9.5 -79.5 -28.5s-26.5 -46.167 -26.5 -81.5v-596h-42v131h11
c-11.333 -43.333 -33.833 -77.333 -67.5 -102s-74.5 -37 -122.5 -37zM275 30.999c54.667 0 98.167 18.833 130.5 56.5s48.5 91.834 48.5 162.501s-16.167 124.834 -48.5 162.501s-75.833 56.5 -130.5 56.5s-98 -18.833 -130 -56.5s-48 -91.834 -48 -162.501
s16 -124.834 48 -162.501s75.333 -56.5 130 -56.5z" />
    </font>
</defs>
</svg>
